<?xml version="1.0" encoding="utf-8"?>
<!-- Generator: Adobe Illustrator 21.0.0, SVG Export Plug-In . SVG Version: 6.00 Build 0)  -->
<svg version="1.1" id="Camada_1" xmlns="http://www.w3.org/2000/svg" xmlns:xlink="http://www.w3.org/1999/xlink" x="0px" y="0px"
	 viewBox="0 0 100 100" style="enable-background:new 0 0 100 100;" xml:space="preserve">
<style type="text/css">
	.st0{opacity:0.4;fill:#085E75;}
	.st1{fill:#30333A;}
	.st2{fill:#2D3037;}
	.st3{fill:#2B2E33;}
	.st4{fill:#25272B;}
	.st5{fill:#9AA0A4;}
	.st6{opacity:0.3;fill:url(#SVGID_1_);enable-background:new    ;}
	.st7{fill:#EDEEF0;}
	.st8{fill:#CCD2D5;}
	.st9{fill:#B9BFC2;}
	.st10{fill:#ACB2B4;}
	.st11{opacity:0.6;fill:#C4CACD;enable-background:new    ;}
	.st12{opacity:0.6;fill:#ACB2B4;enable-background:new    ;}
	.st13{opacity:0.3;fill:#EDEEF0;enable-background:new    ;}
	.st14{fill:url(#SVGID_2_);}
	.st15{fill:url(#SVGID_3_);}
	.st16{fill:#E1E7E9;}
	.st17{fill:#2F2F32;}
	.st18{fill:#363639;}
	.st19{fill:#48484C;}
	.st20{fill:#3E3E41;}
	.st21{fill:#515155;}
	.st22{fill:url(#SVGID_4_);}
	.st23{fill:url(#SVGID_5_);}
</style>
<path class="st0" d="M76,61L22,29.8L21.7,30L0.9,42.2l-0.3,0.1l53.9,31.1c17.2,9.9,40.3,12.6,41.8,11.7C97.9,84.3,93.1,70.9,76,61z"
	/>
<title>boat</title>
<g id="_9">
	<g id="_9-2">
		<g>
			<polygon class="st1" points="25.9,23.8 4.4,36.3 57.3,66.8 78.8,54.3 			"/>
			<polygon class="st2" points="37.3,32.1 17.6,43.5 5.9,36.7 25.6,25.3 			"/>
			<polygon class="st3" points="25.6,26.2 36.6,32.5 37.3,32.1 25.6,25.3 5.9,36.7 6.6,37.1 			"/>
			<polygon class="st4" points="25.6,26.2 36.6,32.5 37.3,32.1 25.6,25.3 			"/>
		</g>
		<g>
			<path class="st5" d="M95.8,64.2c-3-4.6-8.5-10.5-17.3-15.6L28.6,19.9L25.5,24l53,30.6c5.2,2.9,9.9,6.7,13.9,11.2
				C93.2,64.7,94.5,64.1,95.8,64.2z"/>
			<path class="st5" d="M99.2,72.8c-1.6,0.9-24.7-1.8-41.9-11.7L7.5,32.2l-3.1,4.2l0,0l-3.8,5L51,70.5c19.7,11.4,43.3,5.6,47.6,4.4
				c0.2,0,0.5-0.1,0.7-0.2c0.2-0.1,0.3-0.4,0.3-0.8v-1.9C99.5,72.4,99.4,72.7,99.2,72.8z"/>
			
				<linearGradient id="SVGID_1_" gradientUnits="userSpaceOnUse" x1="49.656" y1="43.3521" x2="45.326" y2="34.662" gradientTransform="matrix(1 0 0 -1 0 102)">
				<stop  offset="0" style="stop-color:#FFFFFF"/>
				<stop  offset="0.19" style="stop-color:#FBFBFB"/>
				<stop  offset="0.39" style="stop-color:#EEEFEF"/>
				<stop  offset="0.6" style="stop-color:#D8DBDC"/>
				<stop  offset="0.81" style="stop-color:#BABEC1"/>
				<stop  offset="1" style="stop-color:#9AA0A4"/>
			</linearGradient>
			<path class="st6" d="M99.2,72.8c-1.6,0.9-24.7-1.8-41.9-11.7L7.5,32.2l-3.1,4.2l0,0l-3.8,5L51,70.5c19.7,11.4,43.3,5.6,47.6,4.4
				c0.2,0,0.5-0.1,0.7-0.2c0.2-0.1,0.3-0.4,0.3-0.8v-1.9C99.5,72.4,99.4,72.7,99.2,72.8z"/>
			<path class="st7" d="M78.8,48.5L28.9,19.7l-0.3,0.1l47.8,27.6c0.7,0.4,0.9,1.3,0.5,2c-0.1,0.2-0.3,0.4-0.5,0.5l-15.3,8.9
				c-2.2,1.3-4.8,1.3-7,0L7.7,32.1l-0.3,0.2L57.3,61c17.2,9.9,40.3,12.7,41.9,11.7S96,58.5,78.8,48.5z"/>
		</g>
	</g>
	<g>
		<polygon class="st8" points="72,38.8 76.8,50.7 77.8,47.8 72.9,35.9 		"/>
		<polygon class="st9" points="56.3,47.9 61.2,59.8 76.8,50.7 72,38.8 		"/>
		<polygon class="st1" points="57.3,48.7 71.9,40.2 75.8,49.9 61.3,58.4 		"/>
		<polygon class="st10" points="51.3,48.4 56.1,60.4 61.2,59.8 56.3,47.9 		"/>
		<polygon class="st5" points="51.3,48.4 56.1,60.4 29.5,45 32,37.3 		"/>
		<polygon class="st1" points="38.9,49 53.7,57.6 50.3,49.3 38.9,42.7 		"/>
		<polygon class="st1" points="37,41.5 32.7,39.1 30.9,44.4 37,47.9 		"/>
		<polygon class="st7" points="72.9,35.9 72,38.8 56.3,47.9 51.3,48.4 32,37.3 53.6,24.7 		"/>
		<polygon class="st11" points="33.7,37.3 53.6,25.7 71.9,36.3 71.3,38.2 56,47 51.5,47.6 		"/>
		<polygon class="st12" points="53.6,26.5 71.7,36.9 71.9,36.3 53.6,25.7 33.7,37.3 34.3,37.7 		"/>
		<polygon class="st5" points="53.6,26.5 71.7,36.9 71.9,36.3 53.6,25.7 		"/>
	</g>
	<path class="st11" d="M87.7,60.1c2.6,1.5,2.6,4,0,5.5c-3,1.5-6.5,1.5-9.5,0c-2.6-1.5-2.6-4,0-5.5C81.1,58.6,84.7,58.6,87.7,60.1z"
		/>
	<path class="st12" d="M78.2,60.5c3-1.5,6.5-1.5,9.5,0c1,0.5,1.8,1.4,1.9,2.5c0-1.3-0.8-2.4-1.9-3c-3-1.5-6.5-1.5-9.5,0
		c-1.2,0.5-1.9,1.7-1.9,3C76.4,62,77.1,61,78.2,60.5z"/>
	<path class="st11" d="M60.1,34.3c3.4,2,3.4,5.1,0,7.1c-3.9,2-8.4,2-12.3,0c-3.4-2-3.4-5.1,0-7.1C51.7,32.3,56.2,32.3,60.1,34.3z"/>
	<path class="st12" d="M47.8,34.8c3.9-2,8.4-2,12.3,0c1.3,0.6,2.3,1.8,2.5,3.3c0.1-1.4-0.7-2.8-2.5-3.8c-3.9-2-8.4-2-12.3,0
		c-1.8,1-2.6,2.4-2.5,3.8C45.5,36.7,46.5,35.4,47.8,34.8z"/>
	<path class="st5" d="M25.8,27.3l-7,4.1l-0.3-0.2l7-4.1L25.8,27.3z M26.2,27.6l-7,4.1l0.3,0.2l7-4.1L26.2,27.6z M26.9,28l-7,4
		l0.3,0.2l7-4.1L26.9,28z M27.6,28.4l-7,4.1l0.3,0.2l7-4.1L27.6,28.4z M28.3,28.8l-7,4.1l0.3,0.2l7-4.1L28.3,28.8z"/>
	<path class="st13" d="M98.5,74.9L98.5,74.9c-1,0-2.5,0.1-4.6,0.1c-8.4,0-24.6-1-36.7-8L4.4,36.4l0,0l0,0l0.2-0.2l52.9,30.5
		c16.2,9.4,39.7,8,41.9,7.8c0,0-0.1,0.1-0.1,0.1C99,74.8,98.8,74.8,98.5,74.9z"/>
	<g>
		<g>
			<g>
				
					<linearGradient id="SVGID_2_" gradientUnits="userSpaceOnUse" x1="52.88" y1="63.5338" x2="55.18" y2="63.5338" gradientTransform="matrix(1 0 0 -1 0 102)">
					<stop  offset="0" style="stop-color:#9AA0A4"/>
					<stop  offset="1" style="stop-color:#B9BFC2"/>
				</linearGradient>
				<path class="st14" d="M55.2,37.9v0.5c0,0.1,0,0.1,0,0.2c-0.3,0.4-0.9,0.6-1.4,0.5c-0.2,0-0.4-0.1-0.5-0.2
					c-0.2-0.1-0.3-0.3-0.3-0.5v-0.5c0,0.2,0.2,0.4,0.3,0.5c0.2,0.1,0.3,0.1,0.5,0.2c0.5,0.1,1.1-0.1,1.4-0.5
					C55.2,38,55.2,37.9,55.2,37.9z"/>
			</g>
		</g>
		<path class="st7" d="M54.8,37.4c0.3,0.2,0.4,0.4,0.3,0.6c-0.3,0.4-0.9,0.6-1.4,0.5c-0.2,0-0.4-0.1-0.5-0.2
			c-0.3-0.2-0.4-0.4-0.3-0.6c0.3-0.4,0.9-0.6,1.4-0.5C54.5,37.3,54.7,37.3,54.8,37.4z"/>
	</g>
	<g>
		<g>
			<g>
				
					<linearGradient id="SVGID_3_" gradientUnits="userSpaceOnUse" x1="53.27" y1="68.1512" x2="54.79" y2="68.1512" gradientTransform="matrix(1 0 0 -1 0 102)">
					<stop  offset="0" style="stop-color:#9AA0A4"/>
					<stop  offset="1" style="stop-color:#B9BFC2"/>
				</linearGradient>
				<path class="st15" d="M54.8,29.4v8.4c0,0,0,0.1,0,0.1c-0.2,0.3-0.6,0.4-0.9,0.3c-0.1,0-0.2-0.1-0.3-0.1
					c-0.1-0.1-0.2-0.2-0.2-0.3v-8.4c0,0.1,0.1,0.3,0.2,0.3c0.1,0.1,0.2,0.1,0.3,0.1c0.3,0.1,0.7,0,0.9-0.3
					C54.8,29.5,54.8,29.5,54.8,29.4z"/>
			</g>
		</g>
		<path class="st16" d="M54.6,29.1c0.2,0.1,0.3,0.3,0.2,0.4c-0.2,0.3-0.6,0.4-0.9,0.3c-0.1,0-0.2-0.1-0.3-0.1
			c-0.2-0.1-0.3-0.3-0.2-0.4c0.2-0.3,0.6-0.4,0.9-0.3C54.3,29,54.5,29.1,54.6,29.1z"/>
	</g>
	<g>
		<polygon class="st17" points="54.1,31 50.1,30.2 49.8,29.3 53.8,30 		"/>
		<polygon class="st18" points="53.8,30 49.8,29.3 50,28.3 53.9,29.1 		"/>
		<polygon class="st19" points="53.9,29.1 50,28.3 50.7,27.9 54.7,28.6 		"/>
		<polygon class="st20" points="54.7,28.6 55.2,29.2 55.4,30.2 54.1,31 53.8,30 53.9,29.1 		"/>
	</g>
	<g>
		<polygon class="st20" points="54.3,30.9 54.1,30.9 55.3,30.2 55.5,30.3 		"/>
		<polygon class="st17" points="55.5,30.3 55.3,30.2 54.3,26.4 54.5,26.4 		"/>
		<polygon class="st20" points="54.5,26.4 54.3,26.4 57.1,24.7 57.3,24.7 		"/>
		<polygon class="st20" points="50.3,28.8 50.2,28.7 53,27 53.3,27.1 		"/>
		<polygon class="st17" points="52.4,36.6 52.2,36.6 50.2,28.7 50.3,28.8 		"/>
		<polygon class="st21" points="57.3,24.7 59.4,32.6 52.4,36.6 50.3,28.8 53.3,27.1 54.3,30.9 55.5,30.3 54.5,26.4 		"/>
	</g>
	<g>
		
			<linearGradient id="SVGID_4_" gradientUnits="userSpaceOnUse" x1="57.2052" y1="71.8817" x2="56.7952" y2="70.7517" gradientTransform="matrix(1 0 0 -1 0 102)">
			<stop  offset="0" style="stop-color:#3E3E41"/>
			<stop  offset="1" style="stop-color:#2F2F32"/>
		</linearGradient>
		<path class="st22" d="M59.3,31.3c0-0.1,0-0.2,0.1-0.3c0,0,0.1,0,0.1,0l-4.9-1c0,0-0.1,0-0.1,0c-0.1,0.1-0.1,0.2-0.1,0.3
			c0,0.1,0.1,0.1,0.1,0.1l4.9,1C59.4,31.4,59.4,31.3,59.3,31.3z"/>
		<path class="st21" d="M59.5,31c-0.1,0.1-0.1,0.2-0.1,0.3c0,0.1,0.1,0.2,0.2,0.1c0.1-0.1,0.1-0.2,0.1-0.3C59.7,31,59.6,31,59.5,31
			C59.5,31,59.5,31,59.5,31z"/>
		<path class="st17" d="M59.5,31.1c-0.1,0-0.1,0.1-0.1,0.2c0,0.1,0.1,0.1,0.1,0.1c0.1,0,0.1-0.1,0.1-0.2
			C59.6,31.1,59.5,31.1,59.5,31.1C59.5,31.1,59.5,31.1,59.5,31.1z"/>
	</g>
	<g>
		
			<linearGradient id="SVGID_5_" gradientUnits="userSpaceOnUse" x1="59.5001" y1="72.8363" x2="58.7101" y2="70.6563" gradientTransform="matrix(1 0 0 -1 0 102)">
			<stop  offset="0" style="stop-color:#3E3E41"/>
			<stop  offset="1" style="stop-color:#2F2F32"/>
		</linearGradient>
		<path class="st23" d="M63.6,31.4c-0.1-0.2,0-0.4,0.2-0.6c0.1,0,0.1,0,0.2,0L54.6,29c-0.1,0-0.1,0-0.2,0c-0.2,0.1-0.3,0.3-0.2,0.6
			c0,0.1,0.1,0.2,0.2,0.2l9.4,1.8C63.7,31.6,63.6,31.5,63.6,31.4z"/>
		<path class="st21" d="M63.8,30.8c-0.2,0.1-0.3,0.3-0.2,0.6c0.1,0.2,0.2,0.3,0.4,0.2c0.2-0.1,0.3-0.3,0.2-0.6
			c0-0.1-0.1-0.3-0.3-0.2C63.9,30.8,63.9,30.8,63.8,30.8z"/>
		<path class="st17" d="M63.8,30.9c-0.1,0.1-0.2,0.3-0.1,0.4c0,0.1,0.2,0.2,0.3,0.1c0.1-0.1,0.2-0.3,0.1-0.4
			C64.1,31,64,30.9,63.8,30.9C63.9,30.9,63.9,30.9,63.8,30.9z"/>
	</g>
</g>
</svg>
