<?xml version="1.0" encoding="utf-8"?>
<!-- Generator: Adobe Illustrator 21.0.0, SVG Export Plug-In . SVG Version: 6.00 Build 0)  -->
<svg version="1.1" id="Camada_1" xmlns="http://www.w3.org/2000/svg" xmlns:xlink="http://www.w3.org/1999/xlink" x="0px" y="0px"
	 viewBox="0 0 100 100" style="enable-background:new 0 0 100 100;" xml:space="preserve">
<style type="text/css">
	.st0{opacity:0.4;fill:#085E75;}
	.st1{fill:#30333A;}
	.st2{fill:#2D3037;}
	.st3{fill:#2B2E33;}
	.st4{fill:#25272B;}
	.st5{fill:#9AA0A4;}
	.st6{opacity:0.3;fill:url(#SVGID_1_);enable-background:new    ;}
	.st7{fill:#EDEEF0;}
	.st8{fill:#CCD2D5;}
	.st9{fill:#B9BFC2;}
	.st10{fill:#ACB2B4;}
	.st11{opacity:0.6;fill:#C4CACD;enable-background:new    ;}
	.st12{opacity:0.6;fill:#ACB2B4;enable-background:new    ;}
	.st13{opacity:0.3;fill:#EDEEF0;enable-background:new    ;}
	.st14{fill:url(#SVGID_2_);}
	.st15{fill:url(#SVGID_3_);}
	.st16{fill:#E1E7E9;}
	.st17{fill:#2F2F32;}
	.st18{fill:#363639;}
	.st19{fill:#48484C;}
	.st20{fill:#3E3E41;}
	.st21{fill:#515155;}
	.st22{fill:url(#SVGID_4_);}
	.st23{fill:url(#SVGID_5_);}
</style>
<title>boat</title>
<g>
	<path class="st0" d="M24.2,61l54-31.2l0.3,0.2l20.9,12.2l0.3,0.1L45.6,73.4C28.5,83.4,5.4,86.1,3.8,85.2C2.2,84.3,7,70.9,24.2,61z"
		/>
	<g id="_9">
		<g id="_9-2">
			<g>
				<polygon class="st1" points="21.3,54.3 42.8,66.8 95.7,36.3 74.2,23.8 				"/>
				<polygon class="st2" points="74.5,25.3 94.3,36.7 82.5,43.5 62.8,32.1 				"/>
				<polygon class="st3" points="93.5,37.1 94.3,36.7 74.5,25.3 62.8,32.1 63.5,32.5 74.5,26.2 				"/>
				<polygon class="st4" points="74.5,25.3 62.8,32.1 63.5,32.5 74.5,26.2 				"/>
			</g>
			<g>
				<path class="st5" d="M7.7,65.8c4-4.5,8.7-8.2,13.9-11.2l53-30.6l-3.1-4.1L21.6,48.7C12.8,53.8,7.3,59.6,4.3,64.2
					C5.6,64.1,7,64.7,7.7,65.8z"/>
				<path class="st5" d="M0.6,71.9v1.9c0,0.4,0.1,0.7,0.3,0.8c0.2,0.1,0.4,0.2,0.7,0.2c4.3,1.2,27.8,7,47.6-4.4l50.4-29.1l-3.8-5
					l0,0l-3.1-4.2L42.8,61C25.6,70.9,2.5,73.7,0.9,72.8C0.7,72.7,0.6,72.4,0.6,71.9z"/>
				
					<linearGradient id="SVGID_1_" gradientUnits="userSpaceOnUse" x1="49.656" y1="43.3521" x2="45.326" y2="34.662" gradientTransform="matrix(-1 0 0 -1 100.14 102)">
					<stop  offset="0" style="stop-color:#FFFFFF"/>
					<stop  offset="0.19" style="stop-color:#FBFBFB"/>
					<stop  offset="0.39" style="stop-color:#EEEFEF"/>
					<stop  offset="0.6" style="stop-color:#D8DBDC"/>
					<stop  offset="0.81" style="stop-color:#BABEC1"/>
					<stop  offset="1" style="stop-color:#9AA0A4"/>
				</linearGradient>
				<path class="st6" d="M0.6,71.9v1.9c0,0.4,0.1,0.7,0.3,0.8c0.2,0.1,0.4,0.2,0.7,0.2c4.3,1.2,27.8,7,47.6-4.4l50.4-29.1l-3.8-5
					l0,0l-3.1-4.2L42.8,61C25.6,70.9,2.5,73.7,0.9,72.8C0.7,72.7,0.6,72.4,0.6,71.9z"/>
				<path class="st7" d="M0.9,72.7c1.6,0.9,24.7-1.8,41.9-11.7l49.9-28.8l-0.3-0.2L46.1,58.8c-2.2,1.3-4.8,1.3-7,0l-15.3-8.9
					c-0.2-0.1-0.4-0.3-0.5-0.5c-0.4-0.7-0.2-1.6,0.5-2l47.8-27.6l-0.3-0.1L21.3,48.5C4.1,58.5-0.7,71.8,0.9,72.7z"/>
			</g>
		</g>
		<g>
			<polygon class="st8" points="27.2,35.9 22.4,47.8 23.3,50.7 28.2,38.8 			"/>
			<polygon class="st9" points="28.2,38.8 23.3,50.7 39,59.8 43.8,47.9 			"/>
			<polygon class="st1" points="38.9,58.4 24.3,49.9 28.2,40.2 42.8,48.7 			"/>
			<polygon class="st10" points="43.8,47.9 39,59.8 44,60.4 48.8,48.4 			"/>
			<polygon class="st5" points="68.2,37.3 70.7,45 44,60.4 48.8,48.4 			"/>
			<polygon class="st1" points="61.2,42.7 49.8,49.3 46.4,57.6 61.2,49 			"/>
			<polygon class="st1" points="63.2,47.9 69.2,44.4 67.5,39.1 63.2,41.5 			"/>
			<polygon class="st7" points="46.5,24.7 68.2,37.3 48.8,48.4 43.8,47.9 28.2,38.8 27.2,35.9 			"/>
			<polygon class="st11" points="48.7,47.6 44.1,47 28.9,38.2 28.2,36.3 46.5,25.7 66.5,37.3 			"/>
			<polygon class="st12" points="65.8,37.7 66.5,37.3 46.5,25.7 28.2,36.3 28.4,36.9 46.5,26.5 			"/>
			<polygon class="st5" points="46.5,25.7 28.2,36.3 28.4,36.9 46.5,26.5 			"/>
		</g>
		<path class="st11" d="M22,60.1c2.6,1.5,2.6,4,0,5.5c-3,1.5-6.5,1.5-9.5,0c-2.6-1.5-2.6-4,0-5.5C15.5,58.6,19,58.6,22,60.1z"/>
		<path class="st12" d="M23.9,63.1c0-1.3-0.8-2.4-1.9-3c-3-1.5-6.5-1.5-9.5,0c-1.2,0.5-1.9,1.7-1.9,3c0.2-1.1,0.9-2.1,1.9-2.5
			c3-1.5,6.5-1.5,9.5,0C23,61,23.7,62,23.9,63.1z"/>
		<path class="st11" d="M52.3,34.3c3.4,2,3.4,5.1,0,7.1c-3.9,2-8.4,2-12.3,0c-3.4-2-3.4-5.1,0-7.1C43.9,32.3,48.5,32.3,52.3,34.3z"
			/>
		<path class="st12" d="M54.8,38.1c0.1-1.4-0.7-2.8-2.5-3.8c-3.9-2-8.4-2-12.3,0c-1.8,1.1-2.6,2.4-2.5,3.8c0.2-1.4,1.2-2.7,2.5-3.3
			c3.9-2,8.4-2,12.3,0C53.7,35.4,54.6,36.7,54.8,38.1z"/>
		<path class="st5" d="M74.6,27.2l7,4.1l-0.3,0.2l-7-4.1L74.6,27.2z M73.6,27.7l7,4.1l0.3-0.2l-7-4.1L73.6,27.7z M72.9,28.1l7,4.1
			l0.3-0.2l-7-4L72.9,28.1z M72.2,28.5l7,4.1l0.3-0.2l-7-4.1L72.2,28.5z M71.5,28.9l7,4.1l0.3-0.2l-7-4.1L71.5,28.9z"/>
		<path class="st13" d="M0.9,74.7c0,0-0.1-0.1-0.1-0.1c2.2,0.2,25.7,1.5,41.9-7.8l52.9-30.5l0.2,0.2l0,0l0,0L42.9,67
			c-12.2,7-28.4,8-36.7,8c-2,0-3.6-0.1-4.5-0.1H1.6C1.4,74.8,1.1,74.8,0.9,74.7z"/>
		<g>
			<g>
				<g>
					
						<linearGradient id="SVGID_2_" gradientUnits="userSpaceOnUse" x1="52.88" y1="63.5338" x2="55.18" y2="63.5338" gradientTransform="matrix(-1 0 0 -1 100.14 102)">
						<stop  offset="0" style="stop-color:#9AA0A4"/>
						<stop  offset="1" style="stop-color:#B9BFC2"/>
					</linearGradient>
					<path class="st14" d="M45,38.1c0.3,0.4,0.9,0.6,1.4,0.5c0.2,0,0.4-0.1,0.5-0.2c0.2-0.1,0.3-0.3,0.3-0.5v0.5
						c0,0.2-0.2,0.4-0.3,0.5c-0.2,0.1-0.3,0.1-0.5,0.2c-0.5,0.1-1.1-0.1-1.4-0.5c0-0.1,0-0.1,0-0.2v-0.5C44.9,37.9,44.9,38,45,38.1z
						"/>
				</g>
			</g>
			<path class="st7" d="M45.8,37.3c0.5-0.1,1.1,0.1,1.4,0.5c0.1,0.2,0,0.5-0.3,0.6c-0.2,0.1-0.3,0.1-0.5,0.2
				c-0.5,0.1-1.1-0.1-1.4-0.5c-0.1-0.2,0-0.5,0.3-0.6C45.5,37.3,45.6,37.3,45.8,37.3z"/>
		</g>
		<g>
			<g>
				<g>
					
						<linearGradient id="SVGID_3_" gradientUnits="userSpaceOnUse" x1="53.27" y1="68.1512" x2="54.79" y2="68.1512" gradientTransform="matrix(-1 0 0 -1 100.14 102)">
						<stop  offset="0" style="stop-color:#9AA0A4"/>
						<stop  offset="1" style="stop-color:#B9BFC2"/>
					</linearGradient>
					<path class="st15" d="M45.3,29.6c0.2,0.3,0.6,0.4,0.9,0.3c0.1,0,0.2-0.1,0.3-0.1c0.1-0.1,0.2-0.2,0.2-0.3v8.4
						c0,0.1-0.1,0.3-0.2,0.3c-0.1,0.1-0.2,0.1-0.3,0.1c-0.3,0.1-0.7,0-0.9-0.3c0,0,0-0.1,0-0.1v-8.4C45.3,29.5,45.3,29.5,45.3,29.6z
						"/>
				</g>
			</g>
			<path class="st16" d="M45.9,29c0.3-0.1,0.7,0,0.9,0.3c0.1,0.1,0,0.3-0.2,0.4c-0.1,0.1-0.2,0.1-0.3,0.1c-0.3,0.1-0.7,0-0.9-0.3
				c-0.1-0.1,0-0.3,0.2-0.4C45.7,29.1,45.8,29,45.9,29z"/>
		</g>
		<g>
			<polygon class="st17" points="46.3,30 50.3,29.3 50,30.2 46.1,31 			"/>
			<polygon class="st18" points="46.2,29.1 50.2,28.3 50.3,29.3 46.3,30 			"/>
			<polygon class="st19" points="45.5,28.6 49.5,27.9 50.2,28.3 46.2,29.1 			"/>
			<polygon class="st20" points="46.2,29.1 46.3,30 46.1,31 44.7,30.2 45,29.2 45.5,28.6 			"/>
		</g>
		<g>
			<polygon class="st20" points="44.7,30.3 44.9,30.2 46.1,30.9 45.9,30.9 			"/>
			<polygon class="st17" points="45.7,26.4 45.9,26.4 44.9,30.2 44.7,30.3 			"/>
			<polygon class="st20" points="42.8,24.7 43,24.7 45.9,26.4 45.7,26.4 			"/>
			<polygon class="st20" points="46.9,27.1 47.1,27 50,28.7 49.8,28.8 			"/>
			<polygon class="st17" points="49.8,28.8 50,28.7 47.9,36.6 47.7,36.6 			"/>
			<polygon class="st21" points="45.7,26.4 44.7,30.3 45.9,30.9 46.9,27.1 49.8,28.8 47.7,36.6 40.7,32.6 42.8,24.7 			"/>
		</g>
		<g>
			
				<linearGradient id="SVGID_4_" gradientUnits="userSpaceOnUse" x1="57.2052" y1="71.8817" x2="56.7952" y2="70.7517" gradientTransform="matrix(-1 0 0 -1 100.14 102)">
				<stop  offset="0" style="stop-color:#3E3E41"/>
				<stop  offset="1" style="stop-color:#2F2F32"/>
			</linearGradient>
			<path class="st22" d="M40.7,31.4l4.9-1c0.1,0,0.1-0.1,0.1-0.1c0-0.1,0-0.2-0.1-0.3c0,0-0.1,0-0.1,0l-4.9,1c0,0,0.1,0,0.1,0
				c0.1,0.1,0.1,0.2,0.1,0.3C40.8,31.3,40.7,31.4,40.7,31.4z"/>
			<path class="st21" d="M40.6,31c-0.1,0-0.1,0.1-0.2,0.1c0,0.1,0,0.2,0.1,0.3c0.1,0,0.2,0,0.2-0.1C40.8,31.2,40.8,31.1,40.6,31
				C40.7,31,40.6,31,40.6,31z"/>
			<path class="st17" d="M40.6,31.1C40.6,31.1,40.6,31.1,40.6,31.1c-0.1,0.1-0.1,0.2,0,0.2c0,0,0.1,0,0.1-0.1
				C40.7,31.2,40.7,31.1,40.6,31.1C40.7,31.1,40.6,31.1,40.6,31.1z"/>
		</g>
		<g>
			
				<linearGradient id="SVGID_5_" gradientUnits="userSpaceOnUse" x1="59.5001" y1="72.8363" x2="58.7101" y2="70.6563" gradientTransform="matrix(-1 0 0 -1 100.14 102)">
				<stop  offset="0" style="stop-color:#3E3E41"/>
				<stop  offset="1" style="stop-color:#2F2F32"/>
			</linearGradient>
			<path class="st23" d="M36.3,31.6l9.4-1.8c0.1,0,0.2-0.1,0.2-0.2c0.1-0.2,0-0.4-0.2-0.6c-0.1,0-0.1,0-0.2,0l-9.4,1.8
				c0.1,0,0.1,0,0.2,0c0.2,0.1,0.3,0.3,0.2,0.6C36.5,31.5,36.4,31.6,36.3,31.6z"/>
			<path class="st21" d="M36.2,30.8c-0.1,0-0.3,0.1-0.3,0.2c-0.1,0.2,0,0.4,0.2,0.6c0.2,0.1,0.3,0,0.4-0.2c0.1-0.2,0-0.4-0.2-0.6
				C36.3,30.8,36.3,30.8,36.2,30.8z"/>
			<path class="st17" d="M36.2,30.9c-0.1,0-0.2,0.1-0.2,0.2c0,0.1,0,0.3,0.1,0.4c0.1,0.1,0.3,0,0.3-0.1C36.5,31.2,36.4,31,36.2,30.9
				C36.3,30.9,36.2,30.9,36.2,30.9z"/>
		</g>
	</g>
</g>
</svg>
