<?xml version="1.0" encoding="utf-8"?>
<!-- Generator: Adobe Illustrator 21.0.0, SVG Export Plug-In . SVG Version: 6.00 Build 0)  -->
<svg version="1.1" id="Camada_1" xmlns="http://www.w3.org/2000/svg" xmlns:xlink="http://www.w3.org/1999/xlink" x="0px" y="0px"
	 viewBox="0 0 400 248" style="enable-background:new 0 0 400 248;" xml:space="preserve">
<style type="text/css">
	.st0{opacity:0.4;fill:#085E75;}
	.st1{fill:#9AA0A4;}
	.st2{opacity:0.5;fill:url(#SVGID_1_);enable-background:new    ;}
	.st3{fill:#B9BFC2;}
	.st4{fill:#EDEEF0;}
	.st5{fill:#30333A;}
	.st6{clip-path:url(#SVGID_3_);}
	.st7{opacity:0.7;}
	.st8{fill:#FFFFFF;}
	.st9{opacity:0.6;fill:#AA3C3C;enable-background:new    ;}
	.st10{fill:#F89442;}
	.st11{fill:#84898C;}
	.st12{fill:url(#SVGID_4_);}
	.st13{fill:#B4B8BB;}
	.st14{fill:#787D7F;}
	.st15{fill:#CBCED0;}
	.st16{opacity:0.4;fill:#9AA0A4;enable-background:new    ;}
	.st17{fill:url(#SVGID_5_);}
	.st18{fill:#9FA5A9;}
	.st19{fill:url(#SVGID_6_);}
	.st20{fill:#C4C4C4;}
	.st21{fill:url(#SVGID_7_);}
	.st22{fill:#DCDCDC;}
	.st23{fill:url(#SVGID_8_);}
	.st24{fill:url(#SVGID_9_);}
	.st25{fill:url(#SVGID_10_);}
	.st26{fill:url(#SVGID_11_);}
	.st27{fill:url(#SVGID_12_);}
	.st28{fill:url(#SVGID_13_);}
	.st29{fill:#C3CACD;}
	.st30{fill:#A3AAAE;}
	.st31{fill:#5F5F60;}
	.st32{fill:url(#SVGID_14_);}
	.st33{fill:#3B3A3A;}
	.st34{fill:url(#SVGID_15_);}
	.st35{fill:url(#SVGID_16_);}
	.st36{fill:url(#SVGID_17_);}
	.st37{fill:url(#SVGID_18_);}
	.st38{fill:url(#SVGID_19_);}
	.st39{fill:#525658;}
	.st40{fill:url(#SVGID_20_);}
	.st41{fill:url(#SVGID_21_);}
	.st42{fill:url(#SVGID_22_);}
	.st43{fill:url(#SVGID_23_);}
	.st44{fill:url(#SVGID_24_);}
	.st45{fill:url(#SVGID_25_);}
	.st46{fill:url(#SVGID_26_);}
	.st47{fill:url(#SVGID_27_);}
	.st48{fill:url(#SVGID_28_);}
	.st49{fill:url(#SVGID_29_);}
	.st50{fill:url(#SVGID_30_);}
	.st51{fill:url(#SVGID_31_);}
	.st52{fill:#202226;}
	.st53{fill:#3D4147;}
	.st54{opacity:0.5;fill:#30333A;enable-background:new    ;}
	.st55{fill:url(#SVGID_32_);}
	.st56{fill:url(#SVGID_33_);}
	.st57{fill:url(#SVGID_34_);}
	.st58{fill:url(#SVGID_35_);}
	.st59{fill:#898E92;}
	.st60{fill:url(#SVGID_36_);}
	.st61{fill:#868B8E;}
	.st62{fill:#222326;}
	.st63{fill:#5D6163;}
	.st64{fill:url(#SVGID_37_);}
	.st65{fill:url(#SVGID_38_);}
	.st66{fill:url(#SVGID_39_);}
	.st67{fill:url(#SVGID_40_);}
	.st68{fill:url(#SVGID_41_);}
	.st69{fill:url(#SVGID_42_);}
	.st70{fill:url(#SVGID_43_);}
	.st71{fill:url(#SVGID_44_);}
	.st72{fill:url(#SVGID_45_);}
	.st73{fill:url(#SVGID_46_);}
	.st74{fill:url(#SVGID_47_);}
	.st75{fill:url(#SVGID_48_);}
	.st76{fill:url(#SVGID_49_);}
	.st77{fill:url(#SVGID_50_);}
	.st78{fill:url(#SVGID_51_);}
	.st79{fill:url(#SVGID_52_);}
	.st80{fill:url(#SVGID_53_);}
	.st81{fill:url(#SVGID_54_);}
	.st82{fill:url(#SVGID_55_);}
	.st83{fill:url(#SVGID_56_);}
	.st84{fill:url(#SVGID_57_);}
	.st85{fill:url(#SVGID_58_);}
	.st86{fill:url(#SVGID_59_);}
	.st87{fill:url(#SVGID_60_);}
</style>
<polygon class="st0" points="233.9,190.5 206.5,190.4 144.8,154.8 136.3,154.8 100.5,134.1 100.7,127.6 29.3,86.4 33.1,84.2 
	24.7,79.3 90,41.3 122.5,60.1 138.9,60.1 202.5,96.8 226.8,97.3 290.1,134 285.7,162.1 372.3,219.3 336.5,240.1 "/>
<title>carrier</title>
<g>
	<g id="Camada_1_1_">
		<g id="_10">
			<g id="_10-2">
				<path class="st1" d="M26.4,49.9c0,0,22.1,37.9,25,39.7c11.1,6.9,39.5,24.4,56.1,34l91.1,52.1c0,0,68.6,37.4,121.7,45.2
					c5.4,0.7,10.7-1.3,14.3-5.3l14.7-16.5L26.4,49.9z"/>
				
					<linearGradient id="SVGID_1_" gradientUnits="userSpaceOnUse" x1="204.1938" y1="155.072" x2="160.816" y2="71.1013" gradientTransform="matrix(1 0 0 -1 0 248)">
					<stop  offset="0" style="stop-color:#FFFFFF"/>
					<stop  offset="0.19" style="stop-color:#FBFBFB"/>
					<stop  offset="0.39" style="stop-color:#EEEFEF"/>
					<stop  offset="0.6" style="stop-color:#D8DBDC"/>
					<stop  offset="0.81" style="stop-color:#BABEC1"/>
					<stop  offset="1" style="stop-color:#9AA0A4"/>
				</linearGradient>
				<path class="st2" d="M26.4,49.9c0,0,22.1,37.9,25,39.7c11.1,6.9,39.5,24.4,56.1,34l91.1,52.1c0,0,68.6,37.4,121.7,45.2
					c5.4,0.7,10.7-1.3,14.3-5.3l14.7-16.5L26.4,49.9z"/>
				<g>
					
						<rect x="169.3" y="144.4" transform="matrix(2.792587e-03 -1 1 2.792587e-03 21.4452 318.7698)" class="st3" width="2.5" height="8.5"/>
					<polygon class="st3" points="268.2,182.7 268.2,185.2 235.9,185.2 235.9,182.7 					"/>
					<path class="st4" d="M169.8,117.8c-10.1-5.6-17.9-12-27.9-3.8c-4.5,3.7-3,17.7-3,17.7l27.5,15.6h8.5l14.7,8.5
						c7-4.7,14.6-8,21.7-12.8l0.4-0.3C198.9,132.6,184,125.7,169.8,117.8z"/>
					<path class="st4" d="M228.3,145.7c-6.3-4.8-23.1,5.8-33.2,13.4l13.2,7.9l27.5,15.7h32.3l6.8,3.3v-18.9
						C260.2,158.5,241.9,156.2,228.3,145.7z"/>
					<path class="st5" d="M268.4,182.3l-32.5,0l-27.3-15.6l-12.7-7.5c6.2-4.6,20.1-14.1,28.3-14.1c1.4-0.1,2.8,0.3,3.9,1.1
						c7.7,6,17.2,9.4,26.3,12.6c6.8,2.4,13.9,5,20.2,8.6v17.9L268.4,182.3z"/>
				</g>
				<g>
					<polygon class="st1" points="35.8,51.4 24.7,44.9 24.7,50 35.8,63.6 					"/>
					<polygon class="st1" points="103.2,94.6 32,53.6 32,65.8 103.2,106.9 					"/>
					<polygon class="st1" points="138.8,131.7 138.9,121.8 103,101 103,113.1 166.3,149.9 166.3,147.4 					"/>
					<polygon class="st5" points="104.5,112.2 104.5,103.6 137.4,122.6 137.4,131.4 					"/>
					<polygon class="st3" points="147.3,121.8 147.2,131.7 138.8,131.7 138.9,121.8 					"/>
					<polygon class="st3" points="235.4,157 235.3,167 208.3,167 208.4,157 					"/>
					<polygon class="st1" points="208.3,166.9 208.4,157 147.3,121.8 147.2,131.7 174.8,147.4 174.8,149.9 235.9,185.2 235.9,182.7 
											"/>
					<polygon class="st3" points="373.6,185.1 373.6,187.6 337.2,208.8 337.1,206.3 					"/>
					<polygon class="st3" points="283.2,110.1 281,131.7 288.8,135.4 291.8,115.5 291.8,100.3 					"/>
					<polygon class="st1" points="337.1,207.5 337.1,206.3 235.4,157 235.3,167 268.2,182.7 268.2,185.2 337,208.7 337.1,208.8 
						337.1,208.8 337.1,208.8 					"/>
					<polygon class="st4" points="287.4,128.2 291.8,100.3 228.6,63.7 204.8,63.3 141.8,26.9 125.5,26.9 90.5,6.7 24.7,44.9 
						35.8,51.4 32,53.6 103.2,94.6 103,101.1 138.9,121.8 147.3,121.8 208.4,157 235.4,157 337.1,206.3 373.6,185.1 					"/>
					<polygon class="st5" points="235.6,156.5 208.5,156.4 147.4,121.2 139,121.2 103.6,100.7 103.8,94.3 33.2,53.6 37,51.4 
						28.6,46.5 93.3,9 125.4,27.5 141.6,27.5 204.5,63.8 228.6,64.3 291.2,100.6 286.8,128.5 372.5,185 337.1,205.6 					"/>
				</g>
			</g>
			<g>
				<defs>
					<polygon id="SVGID_2_" points="235.6,156.5 208.5,156.4 147.4,121.2 139,121.2 103.6,100.7 103.8,94.3 33.2,53.6 37,51.4 
						28.6,46.5 93.3,9 125.4,27.5 141.6,27.5 204.5,63.8 228.6,64.3 291.2,100.6 286.8,128.5 372.5,185 337.1,205.6 					"/>
				</defs>
				<clipPath id="SVGID_3_">
					<use xlink:href="#SVGID_2_"  style="overflow:visible;"/>
				</clipPath>
				<g class="st6">
					<g class="st7">
						<path class="st8" d="M64.4,19.1l1,0.8L65,20.1l-1-0.8L64.4,19.1z M124.6,68.8l2.1,1.7l0.4-0.2l-2.1-1.7L124.6,68.8z
							 M116.4,62.1l2.1,1.7l0.4-0.2l-2.1-1.7L116.4,62.1z M128.7,72.1l2.1,1.7l0.4-0.2l-2.1-1.7L128.7,72.1z M112.3,58.7l2.1,1.7
							l0.4-0.2l-2.1-1.7L112.3,58.7z M149.2,88.9l2.1,1.7l0.4-0.2l-2-1.7L149.2,88.9z M145.1,85.5l2.1,1.7l0.4-0.2l-2.1-1.7
							L145.1,85.5z M132.8,75.5l2.1,1.7l0.4-0.2l-2.1-1.7L132.8,75.5z M108.2,55.3l2.1,1.7l0.4-0.2l-2.1-1.7L108.2,55.3z
							 M136.9,78.8l2.1,1.7l0.4-0.2l-2.1-1.7L136.9,78.8z M141,82.2l2.1,1.7l0.4-0.2l-2.1-1.7L141,82.2z M75.3,28.5l2.1,1.7l0.4-0.2
							l-2.1-1.7L75.3,28.5z M79.4,31.9l2.1,1.7l0.4-0.2l-2-1.7L79.4,31.9z M83.5,35.2l2.1,1.7l0.4-0.2l-2.1-1.7L83.5,35.2z
							 M104.1,52l2.1,1.7l0.4-0.2l-2.1-1.7L104.1,52z M71.2,25.1l2.1,1.7l0.4-0.2l-2.1-1.7L71.2,25.1z M67.1,21.8l2.1,1.7l0.4-0.2
							l-2.1-1.7L67.1,21.8z M87.6,38.5l2.1,1.7l0.4-0.2l-2.1-1.7L87.6,38.5z M95.8,45.3l2.1,1.7l0.4-0.2l-2.1-1.7L95.8,45.3z
							 M99.9,48.6l2.1,1.7l0.4-0.2l-2.1-1.6L99.9,48.6z M91.7,41.9l2.1,1.7l0.4-0.2l-2.1-1.7L91.7,41.9z M120.5,65.4l2.1,1.7
							l0.4-0.2l-2.1-1.7L120.5,65.4z M194.4,125.8l2.1,1.7l0.4-0.2l-2.1-1.7L194.4,125.8z M186.2,119.1l2.1,1.7l0.4-0.2l-2.1-1.7
							L186.2,119.1z M190.3,122.4l2.1,1.7l0.4-0.2l-2.1-1.7L190.3,122.4z M198.5,129.1l2.1,1.7l0.4-0.2l-2.1-1.7L198.5,129.1z
							 M210.9,139.2l2.1,1.7l0.4-0.2l-2.1-1.7L210.9,139.2z M206.8,135.8l2.1,1.7l0.4-0.2l-2.1-1.7L206.8,135.8z M202.6,132.5
							l2.1,1.7l0.4-0.2l-2.1-1.7L202.6,132.5z M173.9,109l2.1,1.7l0.4-0.2l-2.1-1.7L173.9,109z M165.7,102.3l2.1,1.7l0.4-0.2
							l-2.1-1.7L165.7,102.3z M161.6,98.9l2.1,1.7l0.4-0.2l-2.1-1.7L161.6,98.9z M182.1,115.7l2.1,1.7l0.4-0.2l-2.1-1.6L182.1,115.7
							z M157.5,95.6l2.1,1.7l0.4-0.2l-2.1-1.7L157.5,95.6z M178,112.4l2.1,1.7l0.4-0.2l-2.1-1.7L178,112.4z M169.8,105.6l2.1,1.7
							l0.4-0.2l-2.1-1.7L169.8,105.6z M153.3,92.3l2.1,1.7l0.4-0.2l-2.1-1.7L153.3,92.3z M215.4,142.4L215.4,142.4L215.4,142.4
							l-0.5,0.1l2.1,1.7l0.4-0.2L215.4,142.4z M231.3,156l2.1,1.7l0.4-0.2l-2.1-1.7L231.3,156z M227.2,152.6l2.1,1.7l0.4-0.2
							l-2.1-1.8L227.2,152.6z M219,145.9l2.1,1.7l0.4-0.2l-2.1-1.7L219,145.9z M223.1,149.3l2.1,1.7l0.4-0.2l-2.1-1.7L223.1,149.3z
							 M235.9,159.1l-0.4,0.2l1,0.8l0.4-0.2L235.9,159.1z"/>
						<path class="st8" d="M80.3,16.2l44,36l1.7-0.7l-44-36L80.3,16.2z M124.9,51.1l-0.7,0.3l-5.4-4.4l0.7-0.3L124.9,51.1z
							 M117.5,44.9l-0.7,0.3l-5.4-4.4l0.7-0.3L117.5,44.9z M110,38.8l-0.7,0.3l-5.4-4.4l0.7-0.3L110,38.8z M102.5,32.7l-0.7,0.3
							l-5.4-4.4l0.7-0.3L102.5,32.7z M95.1,26.6l-0.7,0.3l-5.4-4.4l0.7-0.3L95.1,26.6z M87.6,20.5l-0.7,0.3l-5.4-4.4l0.7-0.3
							L87.6,20.5z"/>
						<path class="st8" d="M52,27.7l44,35.9l1.7-0.7L53.7,27L52,27.7z M96.6,62.6l-0.7,0.3l-5.4-4.4l0.7-0.3L96.6,62.6z M89.1,56.5
							l-0.7,0.3l-5.4-4.4l0.7-0.3L89.1,56.5z M81.7,50.4L81,50.7l-5.4-4.4l0.7-0.3L81.7,50.4z M74.2,44.3l-0.7,0.3l-5.4-4.4l0.7-0.3
							L74.2,44.3z M66.7,38.2l-0.7,0.3l-5.4-4.4l0.7-0.3L66.7,38.2z M59.3,32.1l-0.7,0.3L53.2,28l0.7-0.3L59.3,32.1z"/>
						<path class="st8" d="M189,123.7l2.5,1.3l-0.3,0.2l-2.5-1.3L189,123.7z M183.6,121.3l2.5,1.3l0.3-0.2l-2.5-1.3L183.6,121.3z
							 M193.7,126.6l2.5,1.3l0.3-0.2l-2.5-1.3L193.7,126.6z M178.6,118.7l2.5,1.3l0.3-0.2l-2.5-1.3L178.6,118.7z M173.6,116l2.5,1.3
							l0.3-0.2l-2.5-1.3L173.6,116z M163.5,110.7l2.5,1.3l0.3-0.2l-2.5-1.3L163.5,110.7z M153.5,105.5l2.5,1.3l0.3-0.2l-2.5-1.3
							L153.5,105.5z M168.6,113.4l2.5,1.3l0.3-0.2l-2.5-1.3L168.6,113.4z M198.7,129.2l2.5,1.3l0.3-0.2L199,129L198.7,129.2z
							 M223.8,142.4l2.5,1.3l0.3-0.2l-2.5-1.3L223.8,142.4z M233.8,147.7l2.5,1.3l0.3-0.2l-2.5-1.3L233.8,147.7z M228.8,145l2.5,1.3
							l0.3-0.2l-2.5-1.3L228.8,145z M203.7,131.9l2.5,1.3l0.3-0.2l-2.5-1.3L203.7,131.9z M248.9,155.6l2.5,1.3l0.3-0.2l-2.5-1.3
							L248.9,155.6z M243.9,153l2.5,1.3l0.3-0.2l-2.5-1.3L243.9,153z M238.8,150.3l2.5,1.3l0.3-0.2l-2.5-1.3L238.8,150.3z
							 M148.5,102.9l2.5,1.3l0.3-0.2l-2.5-1.3L148.5,102.9z M208.7,134.5l2.5,1.3l0.3-0.2l-2.5-1.3L208.7,134.5z M213.7,137.1
							l2.5,1.3l0.3-0.2l-2.5-1.3L213.7,137.1z M218.8,139.8l2.5,1.3l0.3-0.2l-2.5-1.3L218.8,139.8z M75.7,52.3l-0.4-0.2l-2.4,1.4
							l0.4,0.2L75.7,52.3z M79.5,49.7l-1.7,1l0.4,0.2l1.7-1L79.5,49.7z M78.2,65.9l2.5,1.3L81,67l-2.5-1.3L78.2,65.9z M88.2,71.1
							l2.5,1.3l0.3-0.2l-2.5-1.3L88.2,71.1z M73.2,63.3l2.5,1.3l0.3-0.2l-2.5-1.3L73.2,63.3z M83.2,68.5l2.5,1.3l0.3-0.2l-2.5-1.3
							L83.2,68.5z M93.3,73.8l2.5,1.3l0.3-0.2l-2.5-1.3L93.3,73.8z M253.9,158.2l2.5,1.3l0.3-0.2l-2.5-1.3L253.9,158.2z M65.9,58
							l-0.4-0.2l-1.4,0.8l1.4,0.8l0.3-0.2l-1-0.6L65.9,58z M70.8,55.2l-0.4-0.2L68,56.4l0.4,0.2L70.8,55.2z M68.1,60.6l2.5,1.3
							l0.3-0.2l-2.5-1.3L68.1,60.6z M123.3,89.7l2.5,1.3l0.3-0.2l-2.4-1.3L123.3,89.7z M143.5,100.2l2.5,1.3l0.3-0.2l-2.5-1.3
							L143.5,100.2z M133.4,95l2.5,1.3l0.3-0.2l-2.5-1.3L133.4,95z M128.4,92.3l2.5,1.3l0.3-0.2l-2.5-1.3L128.4,92.3z M138.4,97.5
							l2.5,1.3l0.3-0.2l-2.5-1.3L138.4,97.5z M103.3,79.1l2.5,1.3l0.3-0.2l-2.5-1.4L103.3,79.1z M108.3,81.7l2.5,1.3l0.3-0.2
							l-2.5-1.3L108.3,81.7z M98.3,76.5l2.5,1.3l0.3-0.2l-2.5-1.3L98.3,76.5z M118.4,87l2.5,1.3l0.3-0.2l-2.5-1.3L118.4,87z
							 M113.4,84.4l2.5,1.3l0.3-0.2l-2.5-1.3L113.4,84.4z M158.5,108.1l2.5,1.3l0.3-0.2l-2.5-1.3L158.5,108.1z M334.3,200.5l2.5,1.3
							l0.3-0.2l-2.5-1.3L334.3,200.5z M324.2,195.2l2.5,1.3l0.3-0.2l-2.5-1.3L324.2,195.2z M329.3,197.8l2.5,1.3l0.3-0.2l-2.5-1.3
							L329.3,197.8z M331.5,163.3l2.3,1.5l0.4-0.2l-2.3-1.5L331.5,163.3z M325,158.8l-2.3-1.5l-0.4,0.2l2.3,1.5L325,158.8z
							 M327.3,160.2l-0.4,0.2l2.3,1.5l0.4-0.2L327.3,160.2z M319.2,192.5l2.5,1.3l0.3-0.2l-2.5-1.3L319.2,192.5z M315.8,153
							l-2.2-1.5l-0.4,0.2l2.3,1.5L315.8,153z M314.2,189.9l2.5,1.3l0.3-0.2l-2.5-1.3L314.2,189.9z M320.4,155.9l-2.3-1.5l-0.4,0.2
							l2.3,1.5L320.4,155.9z M363.4,183.6l2.3,1.5l0.4-0.2l-2.3-1.5L363.4,183.6z M354.3,177.8l2.3,1.5l0.4-0.2l-2.3-1.5
							L354.3,177.8z M259,160.9l2.5,1.3l0.3-0.2l-2.5-1.3L259,160.9z M358.9,180.7l2.3,1.5l0.4-0.2l-2.3-1.5L358.9,180.7z
							 M368.4,186.3l-0.4,0.2l2.3,1.5l0.4-0.2L368.4,186.3z M339.3,203.1l2.5,1.3l0.3-0.2l-2.5-1.3L339.3,203.1z M349.7,174.9
							l2.3,1.5l0.4-0.2l-2.3-1.5L349.7,174.9z M336,166.2l2.3,1.5l0.4-0.2l-2.3-1.5L336,166.2z M340.6,169.1l2.3,1.5l0.4-0.2
							l-2.3-1.5L340.6,169.1z M345.1,172l2.3,1.5l0.4-0.2l-2.3-1.5L345.1,172z M309.1,187.2l2.5,1.3l0.3-0.2l-2.5-1.3L309.1,187.2z
							 M277,128.3l-0.4,0.2l2.3,1.5l0.4-0.2L277,128.3z M274,168.7l2.5,1.3l0.3-0.2l-2.5-1.3L274,168.7z M279,171.4l2.5,1.3l0.3-0.2
							l-2.5-1.3L279,171.4z M274.7,126.8l-2.3-1.4l-0.4,0.2l2.3,1.5L274.7,126.8z M281.2,131.4l2.3,1.5l0.4-0.2l-2.3-1.5
							L281.2,131.4z M265.5,121l-2.3-1.5l-0.4,0.2l2.3,1.5L265.5,121z M263.9,163.5l2.5,1.3l0.3-0.2l-2.5-1.3L263.9,163.5z
							 M284,174.1l2.5,1.3l0.3-0.2l-2.5-1.3L284,174.1z M269,166.2l2.5,1.3l0.3-0.2l-2.5-1.3L269,166.2z M270.2,124l-2.3-1.5
							l-0.4,0.2l2.3,1.5L270.2,124z M290.3,137.2l2.3,1.5l0.4-0.2l-2.3-1.4L290.3,137.2z M306.7,147.2l-2.3-1.5l-0.4,0.2l2.3,1.5
							L306.7,147.2z M299.5,143l2.3,1.5l0.4-0.2l-2.3-1.5L299.5,143z M304.1,184.6l2.5,1.3l0.3-0.2l-2.5-1.3L304.1,184.6z
							 M299.1,182l2.5,1.3l0.3-0.2l-2.5-1.3L299.1,182z M289.1,176.7l2.5,1.3l0.3-0.2l-2.5-1.4L289.1,176.7z M311.3,150.1l-2.3-1.5
							l-0.4,0.2l2.3,1.5L311.3,150.1z M294.9,140.1l2.3,1.5l0.4-0.2l-2.3-1.5L294.9,140.1z M285.8,134.3l2.3,1.5l0.4-0.2l-2.3-1.5
							L285.8,134.3z M294.1,179.4l2.5,1.3l0.3-0.2l-2.5-1.3L294.1,179.4z"/>
					</g>
					<polygon class="st9" points="229,173.4 228.6,173.5 47.9,25.9 48.2,25.7 					"/>
					<polygon class="st9" points="305,195.8 304.6,196 80.2,12.7 80.5,12.5 					"/>
					<polygon class="st10" points="299.3,95.6 254.2,121.7 199.4,106.9 82.6,11.8 82.2,12.2 199.1,107.3 254.1,122.3 254.3,122.3 
						299.6,96.1 					"/>
				</g>
			</g>
			<g>
				<path class="st11" d="M162.8,142.8c0.7,0.4,1.5,0.4,2.2,0c0.3-0.1,0.4-0.4,0.5-0.7v1.6c0,0.3-0.2,0.5-0.5,0.7
					c-0.7,0.4-1.5,0.4-2.2,0c-0.3-0.1-0.4-0.4-0.5-0.6v-1.6C162.4,142.5,162.6,142.7,162.8,142.8z"/>
				<path class="st4" d="M162.8,141.5c0.7-0.4,1.5-0.4,2.2,0c0.4,0.1,0.6,0.5,0.4,0.9c-0.1,0.2-0.2,0.4-0.4,0.4
					c-0.7,0.4-1.5,0.4-2.2,0c-0.4-0.1-0.6-0.5-0.4-0.9C162.5,141.8,162.6,141.6,162.8,141.5z"/>
			</g>
			<g>
				<path class="st1" d="M162.9,139c0.3-0.2,0.7-0.3,1-0.1c-0.3-0.1-0.6,0-0.9,0.2c-0.8,0.5-1.4,1.5-1.4,2.5v1.8
					c0,0-0.1-0.1-0.1-0.1v-1.8l0,0C161.6,140.4,162.1,139.6,162.9,139z"/>
				
					<linearGradient id="SVGID_4_" gradientUnits="userSpaceOnUse" x1="164.4628" y1="108.7981" x2="161.9464" y2="104.446" gradientTransform="matrix(1 0 0 -1 0 248)">
					<stop  offset="0" style="stop-color:#CBCED0"/>
					<stop  offset="0.15" style="stop-color:#D2D4D6"/>
					<stop  offset="0.4" style="stop-color:#D9DBDD"/>
					<stop  offset="0.46" style="stop-color:#D4D6D8"/>
					<stop  offset="0.8" style="stop-color:#BABEC1"/>
					<stop  offset="1" style="stop-color:#B0B5B8"/>
				</linearGradient>
				<path class="st12" d="M161.8,140.4c0.1-0.3,0.3-0.6,0.5-0.9c0.2-0.2,0.4-0.4,0.6-0.5c0.3-0.2,0.7-0.3,1-0.1l1.8,1.1
					c-0.3-0.2-0.7-0.1-1,0.1c-0.2,0.1-0.4,0.3-0.6,0.5c-0.2,0.3-0.4,0.6-0.5,0.9c-0.2,0.3-0.2,0.7-0.2,1.1v1.8l-1.8-1.1v-1.8
					C161.6,141.1,161.7,140.8,161.8,140.4z"/>
				<path class="st1" d="M164.2,140.6l-1.8-1.1c-0.2,0.3-0.4,0.6-0.5,0.9c-0.2,0.3-0.2,0.7-0.2,1.1v1.8l1.8,1.1v-1.8
					c0-0.4,0.1-0.7,0.2-1.1C163.8,141.2,164,140.9,164.2,140.6z"/>
				<path class="st13" d="M164.9,140.1c0.3-0.2,0.7-0.3,1-0.1c0.6,0.3,0.5,0.9,0.5,2.7v0.1l-2.8,1.6c0.1,0-0.1,0.1-0.1,0v-1.8
					C163.5,141.6,164,140.7,164.9,140.1z"/>
				<path class="st14" d="M162.7,142.2v0.9l-0.6-0.3v-0.9c0-0.4,0.1-0.7,0.2-1.1c0.1-0.3,0.3-0.6,0.5-0.9c0.2-0.2,0.3-0.3,0.6-0.5
					l0.6,0.3c-0.2,0.1-0.4,0.3-0.6,0.5c-0.2,0.3-0.4,0.6-0.5,0.9C162.8,141.4,162.7,141.8,162.7,142.2z"/>
			</g>
			<g>
				<path class="st15" d="M161,141.5c0-0.1,0-0.2-0.1-0.3h-0.1h1.7h0.1c0.1,0.1,0.1,0.2,0.1,0.3c0,0.1-0.1,0.1-0.2,0.1h-1.7
					C160.9,141.7,161,141.6,161,141.5z"/>
				<path class="st1" d="M160.9,141.3c-0.1,0-0.2,0-0.2,0.1c0,0,0,0,0,0c0,0.1,0,0.2,0.1,0.3c0.1,0,0.2,0,0.2-0.1c0,0,0,0,0,0
					C161.1,141.5,161,141.3,160.9,141.3z"/>
			</g>
			<g>
				<path class="st15" d="M157.8,141.5c0-0.1,0-0.2-0.1-0.2h-0.1h3.2h0.1c0.1,0.1,0.1,0.1,0.1,0.2c0,0.1-0.1,0.1-0.1,0.1h-3.2
					C157.7,141.6,157.8,141.6,157.8,141.5z"/>
				<path class="st1" d="M157.6,141.4c0-0.1,0.1-0.1,0.2-0.1c0,0,0,0,0,0c0.1,0.1,0.1,0.1,0.1,0.2c0,0.1-0.1,0.1-0.2,0.1
					c0,0,0,0,0,0C157.6,141.6,157.5,141.5,157.6,141.4z"/>
				<path class="st11" d="M157.6,141.4c0,0,0.1-0.1,0.1-0.1c0,0,0,0,0,0c0.1,0,0.1,0.1,0,0.2c0,0-0.1,0.1-0.1,0.1c0,0,0,0,0,0
					C157.6,141.5,157.6,141.5,157.6,141.4z"/>
			</g>
			<path class="st16" d="M163.8,144L163.8,144v-1.6c0-0.8,0.5-1.5,1.1-2c0.2-0.1,0.3-0.2,0.5-0.2c0.4,0,0.7,0.3,0.7,0.8v1.5l0,0
				L163.8,144L163.8,144L163.8,144z M166,141.1c0-0.5-0.2-0.8-0.6-0.8c-0.2,0-0.3,0.1-0.5,0.2c-0.7,0.4-1.1,1.1-1.1,1.9v1.4l2.2-1.2
				L166,141.1z"/>
			<g>
				<path class="st11" d="M150.6,135.8c0.7,0.4,1.5,0.4,2.2,0c0.3-0.1,0.4-0.4,0.5-0.7v1.6c0,0.3-0.2,0.5-0.5,0.7
					c-0.7,0.4-1.5,0.4-2.2,0c-0.3-0.1-0.4-0.4-0.5-0.6v-1.6C150.2,135.4,150.4,135.7,150.6,135.8z"/>
				<path class="st4" d="M150.6,134.5c0.7-0.4,1.5-0.4,2.2,0c0.4,0.1,0.6,0.5,0.4,0.9c-0.1,0.2-0.2,0.4-0.4,0.4
					c-0.7,0.4-1.5,0.4-2.2,0c-0.4-0.1-0.6-0.5-0.4-0.9C150.3,134.7,150.4,134.5,150.6,134.5z"/>
			</g>
			<g>
				<path class="st1" d="M150.6,132c0.3-0.2,0.7-0.3,1-0.1c-0.3-0.1-0.6,0-0.9,0.2c-0.8,0.5-1.4,1.5-1.4,2.5v1.8
					c0,0-0.1-0.1-0.1-0.1v-1.8l0,0C149.3,133.4,149.8,132.5,150.6,132z"/>
				
					<linearGradient id="SVGID_5_" gradientUnits="userSpaceOnUse" x1="152.1944" y1="115.8815" x2="149.6781" y2="111.5294" gradientTransform="matrix(1 0 0 -1 0 248)">
					<stop  offset="0" style="stop-color:#CBCED0"/>
					<stop  offset="0.15" style="stop-color:#D2D4D6"/>
					<stop  offset="0.4" style="stop-color:#D9DBDD"/>
					<stop  offset="0.46" style="stop-color:#D4D6D8"/>
					<stop  offset="0.8" style="stop-color:#BABEC1"/>
					<stop  offset="1" style="stop-color:#B0B5B8"/>
				</linearGradient>
				<path class="st17" d="M149.6,133.4c0.1-0.3,0.3-0.6,0.5-0.9c0.2-0.2,0.4-0.4,0.6-0.5c0.3-0.2,0.7-0.3,1-0.1l1.8,1.1
					c-0.3-0.2-0.7-0.1-1,0.1c-0.2,0.1-0.4,0.3-0.6,0.5c-0.2,0.3-0.4,0.6-0.5,0.9c-0.2,0.3-0.2,0.7-0.2,1.1v1.8l-1.8-1.1v-1.8
					C149.3,134,149.4,133.7,149.6,133.4z"/>
				<path class="st1" d="M152,133.6l-1.8-1.1c-0.2,0.3-0.4,0.6-0.5,0.9c-0.2,0.3-0.2,0.7-0.2,1.1v1.8l1.8,1.1v-1.8
					c0-0.4,0.1-0.7,0.2-1.1C151.5,134.1,151.7,133.8,152,133.6z"/>
				<path class="st13" d="M152.6,133c0.3-0.2,0.7-0.3,1-0.1c0.6,0.3,0.5,0.9,0.5,2.7v0.1l-2.8,1.6c0.1,0-0.1,0.1-0.1,0v-1.8
					C151.2,134.5,151.8,133.6,152.6,133z"/>
				<path class="st14" d="M150.5,135.1v0.9l-0.6-0.3v-0.9c0-0.4,0.1-0.7,0.2-1.1c0.1-0.3,0.3-0.6,0.5-0.9c0.2-0.2,0.3-0.3,0.6-0.5
					l0.6,0.3c-0.2,0.1-0.4,0.3-0.6,0.5c-0.2,0.3-0.4,0.6-0.5,0.9C150.5,134.3,150.5,134.7,150.5,135.1z"/>
			</g>
			<g>
				<path class="st15" d="M148.8,134.5c0-0.1,0-0.2-0.1-0.3h-0.1h1.7h0.1c0.1,0.1,0.1,0.2,0.1,0.3c0,0.1-0.1,0.1-0.2,0.1h-1.7
					C148.7,134.6,148.7,134.6,148.8,134.5z"/>
				<path class="st1" d="M148.7,134.2c-0.1,0-0.2,0-0.2,0.1c0,0,0,0,0,0c0,0.1,0,0.2,0.1,0.3c0.1,0,0.2,0,0.2-0.1c0,0,0,0,0,0
					C148.8,134.4,148.8,134.2,148.7,134.2z"/>
			</g>
			<g>
				<path class="st15" d="M145.5,134.4c0-0.1,0-0.2-0.1-0.2h-0.1h3.2h0.1c0.1,0.1,0.1,0.1,0.1,0.2c0,0.1-0.1,0.1-0.1,0.1h-3.2
					C145.5,134.5,145.5,134.5,145.5,134.4z"/>
				<path class="st1" d="M145.3,134.3c0-0.1,0.1-0.1,0.2-0.1c0,0,0,0,0,0c0.1,0.1,0.1,0.1,0.1,0.2c0,0.1-0.1,0.1-0.2,0.1
					c0,0,0,0,0,0C145.3,134.5,145.3,134.4,145.3,134.3z"/>
				<path class="st11" d="M145.3,134.4c0,0,0.1-0.1,0.1-0.1c0,0,0,0,0,0c0.1,0,0.1,0.1,0,0.2c0,0-0.1,0.1-0.1,0.1c0,0,0,0,0,0
					C145.3,134.5,145.3,134.4,145.3,134.4z"/>
			</g>
			<path class="st16" d="M151.5,136.9L151.5,136.9v-1.5c0-0.8,0.5-1.5,1.1-2c0.2-0.1,0.3-0.2,0.5-0.2c0.4,0,0.7,0.3,0.7,0.8v1.5l0,0
				L151.5,136.9L151.5,136.9z M153.7,134.1c0-0.5-0.2-0.8-0.6-0.8c-0.2,0-0.3,0.1-0.5,0.2c-0.7,0.4-1.1,1.1-1.1,1.9v1.4l2.2-1.2
				L153.7,134.1z"/>
			<g>
				<polygon class="st1" points="267.9,92.2 267.9,103 217.1,73.7 217.1,62.9 				"/>
				<polygon class="st18" points="273,93.8 273,104.6 267.9,103 267.9,92.2 				"/>
				<polygon class="st3" points="286.1,86.2 286.1,97 273,104.6 273,93.8 				"/>
				<polygon class="st4" points="283.4,83.2 232.6,53.9 217.1,62.9 267.9,92.2 273,93.8 286.1,86.2 				"/>
				<polygon class="st5" points="268,91.8 217.8,62.8 232.6,54.3 283.2,83.6 285.5,86.1 273,93.3 				"/>
			</g>
			<g>
				<polygon class="st3" points="265.6,73.6 265.6,87.2 275,81.7 275,68.1 				"/>
				<polygon class="st4" points="233.1,43.9 223.7,49.4 265.6,73.6 275,68.1 				"/>
				<polygon class="st5" points="224.3,49.4 233.2,44.3 274.4,68.2 265.6,73.2 				"/>
				<polygon class="st1" points="223.7,49.4 223.7,63 265.6,87.2 265.6,73.6 				"/>
			</g>
			
				<linearGradient id="SVGID_6_" gradientUnits="userSpaceOnUse" x1="248.9864" y1="190.4197" x2="245.6551" y2="190.4197" gradientTransform="matrix(1 0 0 -1 0 248)">
				<stop  offset="0" style="stop-color:#E0E0E0"/>
				<stop  offset="1" style="stop-color:#D3D3D3"/>
			</linearGradient>
			<path class="st19" d="M248.2,57.2c-0.8,0.4-1.8,0.4-2.6,0c-0.3-0.1-0.5-0.4-0.5-0.7v1.2c0,0.3,0.2,0.6,0.5,0.7
				c0.8,0.4,1.8,0.4,2.6,0c0.3-0.1,0.5-0.4,0.5-0.8v-1.2C248.8,56.8,248.5,57.1,248.2,57.2z"/>
			<path class="st20" d="M248.3,55.8c-0.8-0.4-1.8-0.4-2.6,0c-0.7,0.4-0.7,1.1,0,1.5c0.8,0.4,1.8,0.4,2.6,0
				C249,56.8,249,56.2,248.3,55.8z"/>
			
				<radialGradient id="SVGID_7_" cx="247.3566" cy="193.7038" r="3.2148" gradientTransform="matrix(1 0 0 -1 0 248)" gradientUnits="userSpaceOnUse">
				<stop  offset="0" style="stop-color:#FFFFFD"/>
				<stop  offset="0.29" style="stop-color:#F2F2F1"/>
				<stop  offset="0.58" style="stop-color:#E0E0E0"/>
				<stop  offset="1" style="stop-color:#D3D3D3"/>
			</radialGradient>
			<path class="st21" d="M247.9,54.2c-0.8-0.5-1.9-0.3-2.5,0.5c-0.2,0.3-0.3,0.6-0.3,1v0.5c0,0.3,0.2,0.6,0.5,0.7
				c0.8,0.4,1.8,0.4,2.6,0c0.3-0.1,0.5-0.4,0.5-0.8v-0.4C248.8,55.1,248.5,54.6,247.9,54.2z"/>
			<path class="st22" d="M247.1,54.4c-0.1,0-0.1,0-0.2,0c-0.1,0-0.1-0.1,0-0.1c0.1,0,0.1,0,0.2,0C247.2,54.3,247.2,54.4,247.1,54.4z
				"/>
			
				<linearGradient id="SVGID_8_" gradientUnits="userSpaceOnUse" x1="255.2459" y1="186.784" x2="251.9146" y2="186.784" gradientTransform="matrix(1 0 0 -1 0 248)">
				<stop  offset="0" style="stop-color:#E0E0E0"/>
				<stop  offset="1" style="stop-color:#D3D3D3"/>
			</linearGradient>
			<path class="st23" d="M254.5,60.9c-0.8,0.4-1.8,0.4-2.6,0c-0.3-0.1-0.5-0.4-0.5-0.7v1.2c0,0.3,0.2,0.6,0.5,0.7
				c0.8,0.4,1.8,0.4,2.6,0c0.3-0.1,0.5-0.4,0.5-0.8v-1.2C255,60.4,254.8,60.7,254.5,60.9z"/>
			<path class="st20" d="M254.5,59.4c-0.8-0.4-1.8-0.4-2.6,0c-0.7,0.4-0.7,1.1,0,1.5c0.8,0.4,1.8,0.4,2.6,0
				C255.2,60.5,255.2,59.8,254.5,59.4z"/>
			
				<radialGradient id="SVGID_9_" cx="253.6161" cy="190.086" r="3.2148" gradientTransform="matrix(1 0 0 -1 0 248)" gradientUnits="userSpaceOnUse">
				<stop  offset="0" style="stop-color:#FFFFFD"/>
				<stop  offset="0.29" style="stop-color:#F2F2F1"/>
				<stop  offset="0.58" style="stop-color:#E0E0E0"/>
				<stop  offset="1" style="stop-color:#D3D3D3"/>
			</radialGradient>
			<path class="st24" d="M254.2,57.9c-0.8-0.5-1.9-0.3-2.5,0.5c-0.2,0.3-0.3,0.6-0.3,1v0.5c0,0.3,0.2,0.6,0.5,0.7
				c0.8,0.4,1.8,0.4,2.6,0c0.3-0.1,0.5-0.4,0.5-0.8v-0.5C255,58.7,254.7,58.2,254.2,57.9z"/>
			<path class="st22" d="M253.3,58c-0.1,0-0.1,0-0.2,0c-0.1,0-0.1-0.1,0-0.1c0.1,0,0.1,0,0.2,0C253.4,58,253.4,58,253.3,58z"/>
			<g>
				<polygon class="st1" points="279.5,83.4 279.5,83.8 281.6,85 281.6,84.6 				"/>
				<polygon class="st3" points="281.6,84.6 281.6,85 282.1,84.7 282.1,84.3 				"/>
				<polygon class="st4" points="279.5,83.4 281.6,84.6 282.1,84.3 280.1,83.1 				"/>
			</g>
			<g>
				
					<linearGradient id="SVGID_10_" gradientUnits="userSpaceOnUse" x1="280.078" y1="171.088" x2="280.275" y2="171.088" gradientTransform="matrix(1 0 0 -1 0 248)">
					<stop  offset="0" style="stop-color:#9AA0A4"/>
					<stop  offset="1" style="stop-color:#B9BFC2"/>
				</linearGradient>
				<path class="st25" d="M280.2,70.4c0,0-0.1,0-0.1,0l0,0v13.1l0,0c0,0,0.1,0,0.1,0l0,0V70.4C280.3,70.4,280.3,70.4,280.2,70.4z"/>
				<path class="st4" d="M280.2,70.3c0,0-0.1,0-0.1,0C280.1,70.3,280.2,70.3,280.2,70.3C280.2,70.3,280.3,70.3,280.2,70.3z"/>
			</g>
			<g>
				
					<linearGradient id="SVGID_11_" gradientUnits="userSpaceOnUse" x1="281.4033" y1="170.3269" x2="281.6093" y2="170.3269" gradientTransform="matrix(1 0 0 -1 0 248)">
					<stop  offset="0" style="stop-color:#9AA0A4"/>
					<stop  offset="1" style="stop-color:#B9BFC2"/>
				</linearGradient>
				<path class="st26" d="M281.6,71.1c0,0-0.1,0-0.1,0l0,0v13.1l0,0c0,0,0.1,0,0.1,0l0,0V71.1C281.6,71.1,281.6,71.1,281.6,71.1z"/>
				<path class="st4" d="M281.6,71.1c0,0-0.1,0-0.1,0C281.5,71.1,281.5,71.1,281.6,71.1C281.6,71.1,281.6,71.1,281.6,71.1z"/>
			</g>
			<g>
				<polygon class="st1" points="268.8,89.6 268.8,90 270.8,91.2 270.8,90.8 				"/>
				<polygon class="st3" points="270.8,90.8 270.8,91.2 271.4,90.9 271.4,90.5 				"/>
				<polygon class="st4" points="268.8,89.6 270.8,90.8 271.4,90.5 269.3,89.3 				"/>
			</g>
			<g>
				
					<linearGradient id="SVGID_12_" gradientUnits="userSpaceOnUse" x1="269.3231" y1="164.8822" x2="269.5291" y2="164.8822" gradientTransform="matrix(1 0 0 -1 0 248)">
					<stop  offset="0" style="stop-color:#9AA0A4"/>
					<stop  offset="1" style="stop-color:#B9BFC2"/>
				</linearGradient>
				<path class="st27" d="M269.5,76.6c0,0-0.1,0-0.1,0l0,0v13.1l0,0c0,0,0.1,0,0.1,0l0,0V76.6C269.5,76.6,269.5,76.6,269.5,76.6z"/>
				<path class="st4" d="M269.5,76.5c0,0-0.1,0-0.1,0C269.4,76.5,269.4,76.5,269.5,76.5C269.5,76.5,269.5,76.5,269.5,76.5z"/>
			</g>
			<g>
				
					<linearGradient id="SVGID_13_" gradientUnits="userSpaceOnUse" x1="270.6574" y1="164.1121" x2="270.8633" y2="164.1121" gradientTransform="matrix(1 0 0 -1 0 248)">
					<stop  offset="0" style="stop-color:#9AA0A4"/>
					<stop  offset="1" style="stop-color:#B9BFC2"/>
				</linearGradient>
				<path class="st28" d="M270.8,77.4c0,0-0.1,0-0.1,0l0,0v13.1l0,0c0,0,0.1,0,0.1,0l0,0V77.4C270.8,77.3,270.8,77.3,270.8,77.4z"/>
				<path class="st4" d="M270.8,77.3c0,0-0.1,0-0.1,0C270.7,77.3,270.8,77.3,270.8,77.3C270.8,77.3,270.9,77.3,270.8,77.3z"/>
			</g>
			<g>
				<polygon class="st3" points="246.3,46.9 246.3,53.1 239.6,57 239.6,50.8 				"/>
				<polygon class="st1" points="239.6,50.8 239.6,57 229.3,51 229.3,44.8 				"/>
				<polygon class="st4" points="246.3,46.9 239.6,50.8 229.3,44.8 236,40.9 				"/>
			</g>
			<g>
				<polygon class="st29" points="247.6,46.9 247.6,47.4 239.8,51.9 239.8,51.5 				"/>
				<polygon class="st30" points="239.8,51.5 239.8,51.9 227.9,45.1 228,44.7 				"/>
				<polygon class="st4" points="247.6,46.9 239.8,51.5 228,44.7 235.8,40.1 				"/>
				<polygon class="st5" points="228.7,44.7 235.8,40.5 246.8,46.9 239.8,51 				"/>
			</g>
			<path class="st31" d="M238.7,49.2c0,0-0.1,0-0.1,0l0,0v1.3c0,0.1,0.2,0.1,0.2,0L238.7,49.2C238.7,49.2,238.7,49.2,238.7,49.2z"/>
			<path class="st31" d="M235.6,47.4c0,0-0.1,0-0.1,0l0,0v1.3c0,0.1,0.2,0.1,0.2,0L235.6,47.4C235.6,47.4,235.6,47.4,235.6,47.4z"/>
			<path class="st31" d="M232.5,45.6h-0.1l0,0V47c0,0.1,0.2,0.1,0.2,0L232.5,45.6C232.6,45.7,232.6,45.7,232.5,45.6z"/>
			<path class="st31" d="M229.4,43.9c0,0-0.1,0-0.1,0l0,0v1.3c0,0.1,0.2,0.1,0.2,0L229.4,43.9C229.4,43.9,229.4,43.9,229.4,43.9z"/>
			<path class="st31" d="M246.2,44.9H246l0,0v1.3c0,0.1,0.2,0.1,0.2,0L246.2,44.9C246.2,44.9,246.2,44.9,246.2,44.9z"/>
			<path class="st31" d="M243.1,43.1c0,0-0.1,0-0.1,0l0,0v1.3c0,0.1,0.2,0.1,0.2,0L243.1,43.1C243.1,43.1,243.1,43.1,243.1,43.1z"/>
			<path class="st31" d="M240,41.3h-0.1l0,0v1.3c0,0.1,0.2,0.1,0.2,0L240,41.3C240,41.4,240,41.3,240,41.3z"/>
			<path class="st31" d="M236.9,39.5c0,0-0.1,0-0.1,0l0,0v1.3c0,0.1,0.2,0.1,0.2,0L236.9,39.5C236.9,39.6,236.9,39.6,236.9,39.5z"/>
			<path class="st31" d="M230.3,42.1h0.1l0,0v1.3c0,0.1-0.2,0.1-0.2,0L230.3,42.1C230.3,42.1,230.3,42.1,230.3,42.1z"/>
			<path class="st31" d="M233.4,40.3c0,0,0.1,0,0.1,0l0,0v1.3c0,0.1-0.2,0.1-0.2,0L233.4,40.3C233.4,40.3,233.4,40.3,233.4,40.3z"/>
			<path class="st31" d="M241.7,48.7h0.1l0,0V50c0,0.1-0.2,0.1-0.2,0L241.7,48.7C241.7,48.7,241.7,48.7,241.7,48.7z"/>
			<path class="st31" d="M244.8,46.9c0,0,0.1,0,0.1,0l0,0v1.3c0,0.1-0.2,0.1-0.2,0L244.8,46.9C244.8,46.9,244.8,46.9,244.8,46.9z"/>
			<path class="st31" d="M239.8,50.1L239.8,50.1l-11.5-6.6c0,0-0.1-0.1-0.1-0.1c0-0.1,0-0.1,0.1-0.1l7.4-4.4c0,0,0.1,0,0.2,0
				l11.4,6.6c0,0,0.1,0.1,0.1,0.1c0,0.1,0,0.1-0.1,0.1L239.8,50.1L239.8,50.1z M228.6,43.3l11.1,6.4l7.2-4.2l-11.1-6.4L228.6,43.3z"
				/>
			
				<linearGradient id="SVGID_14_" gradientUnits="userSpaceOnUse" x1="236.4942" y1="224.4506" x2="244.2761" y2="224.4506" gradientTransform="matrix(1 0 0 -1 0 248)">
				<stop  offset="0" style="stop-color:#9AA0A4"/>
				<stop  offset="1" style="stop-color:#B9BFC2"/>
			</linearGradient>
			<polygon class="st32" points="237.2,25.8 236.5,25.4 243.6,21.3 244.3,21.7 			"/>
			<polygon class="st33" points="237.2,27.6 236.5,27.2 236.5,25.4 237.2,25.8 			"/>
			<polygon class="st3" points="237.2,25.8 244.3,21.7 237.2,27.6 			"/>
			<g>
				<polygon class="st1" points="234.9,47.2 230.4,44.6 231.2,26.6 235.7,29.2 				"/>
				
					<linearGradient id="SVGID_15_" gradientUnits="userSpaceOnUse" x1="231.2108" y1="221.1373" x2="239.4493" y2="221.1373" gradientTransform="matrix(1 0 0 -1 0 248)">
					<stop  offset="0" style="stop-color:#9AA0A4"/>
					<stop  offset="1" style="stop-color:#B9BFC2"/>
				</linearGradient>
				<polygon class="st34" points="235.7,29.2 231.2,26.6 235,24.5 239.4,27.1 				"/>
				<polygon class="st3" points="239.4,27.1 240.3,44.1 234.9,47.2 235.7,29.2 				"/>
			</g>
			
				<linearGradient id="SVGID_16_" gradientUnits="userSpaceOnUse" x1="225.7035" y1="218.218" x2="233.4674" y2="218.218" gradientTransform="matrix(1 0 0 -1 0 248)">
				<stop  offset="0" style="stop-color:#9AA0A4"/>
				<stop  offset="1" style="stop-color:#B9BFC2"/>
			</linearGradient>
			<polygon class="st35" points="226.4,32 225.7,31.6 232.8,27.5 233.5,27.9 			"/>
			<polygon class="st3" points="233.5,29.7 226.4,32 233.5,27.9 			"/>
			
				<linearGradient id="SVGID_17_" gradientUnits="userSpaceOnUse" x1="171.0271" y1="217.9852" x2="178.791" y2="217.9852" gradientTransform="matrix(-1 0 0 -1 415.93 248)">
				<stop  offset="0" style="stop-color:#9AA0A4"/>
				<stop  offset="1" style="stop-color:#B9BFC2"/>
			</linearGradient>
			<polygon class="st36" points="244.2,32.3 244.9,31.9 237.8,27.8 237.1,28.2 			"/>
			<polygon class="st1" points="237.1,28.2 237.1,29.9 244.2,32.3 			"/>
			<g>
				<polygon class="st29" points="245.2,21 245.2,21.3 238.6,25.2 238.6,24.8 				"/>
				<path class="st30" d="M230.5,26.5c-0.2-0.1-0.3-0.2-0.3-0.4v0.3c0,0.2,0.1,0.3,0.3,0.4l1.2,0.7v-0.3L230.5,26.5z"/>
				
					<linearGradient id="SVGID_18_" gradientUnits="userSpaceOnUse" x1="234.6763" y1="220.1355" x2="236.3778" y2="220.1355" gradientTransform="matrix(1 0 0 -1 0 248)">
					<stop  offset="0" style="stop-color:#A3AAAE"/>
					<stop  offset="1" style="stop-color:#C3CACD"/>
				</linearGradient>
				<path class="st37" d="M240.4,26.6l-4.2,2.4c-0.4,0.2-0.9,0.2-1.3,0l-1.8-1v0.3l1.8,1c0.4,0.2,0.9,0.2,1.3,0l4.2-2.5
					c0.2-0.1,0.3-0.2,0.3-0.4v-0.3C240.6,26.4,240.5,26.5,240.4,26.6z"/>
				<polygon class="st30" points="226.5,31.9 226.5,32.2 225,31.3 225,31 				"/>
				<path class="st4" d="M245.2,21l-6.6,3.8l1.8,1c0.4,0.2,0.4,0.5,0,0.8l-4.2,2.4c-0.4,0.2-0.9,0.2-1.3,0l-1.8-1l-6.6,3.8L225,31
					l6.6-3.8l-1.2-0.7c-0.4-0.2-0.4-0.5,0-0.8l4.2-2.4c0.4-0.2,0.9-0.2,1.3,0l1.2,0.7l6.6-3.8L245.2,21z"/>
				<polygon class="st29" points="233.1,28 233.1,28.4 226.5,32.2 226.5,31.9 				"/>
			</g>
			<g>
				
					<linearGradient id="SVGID_19_" gradientUnits="userSpaceOnUse" x1="178.4507" y1="219.7448" x2="178.4507" y2="219.7448" gradientTransform="matrix(-1 0 0 -1 415.93 248)">
					<stop  offset="0" style="stop-color:#A3AAAE"/>
					<stop  offset="1" style="stop-color:#C3CACD"/>
				</linearGradient>
				<path class="st38" d="M237.5,28.3L237.5,28.3z"/>
				<polygon class="st29" points="244.1,32.1 244.1,32.4 245.5,31.6 245.5,31.2 				"/>
				<polygon class="st4" points="239,27.4 237.5,28.3 244.1,32.1 245.5,31.2 				"/>
				<polygon class="st30" points="237.5,28.3 237.5,28.6 244.1,32.4 244.1,32.1 				"/>
			</g>
			<path class="st31" d="M230.5,24.8c0,0-0.1,0-0.1,0l0,0v1.4c0,0.1,0.2,0.1,0.2,0L230.5,24.8C230.6,24.8,230.6,24.8,230.5,24.8z"/>
			<path class="st31" d="M233,26.2c0,0-0.1,0-0.1,0l0,0v1.3c0,0.1,0.2,0.1,0.2,0L233,26.2C233,26.3,233,26.2,233,26.2z"/>
			<path class="st31" d="M235.4,27.6c0,0-0.1,0-0.1,0l0,0V29c0,0.1,0.2,0.1,0.2,0L235.4,27.6C235.5,27.7,235.4,27.7,235.4,27.6z"/>
			<path class="st31" d="M235.5,22c0,0-0.1,0-0.1,0l0,0v1.4c0,0.1,0.2,0.1,0.2,0L235.5,22C235.5,22,235.5,22,235.5,22z"/>
			<path class="st31" d="M237.9,23.4c0,0-0.1,0-0.1,0l0,0v1.3c0,0.1,0.2,0.1,0.2,0L237.9,23.4C238,23.4,238,23.4,237.9,23.4z"/>
			<path class="st31" d="M240.4,24.8h-0.1l0,0v1.3c0,0.1,0.2,0.1,0.2,0L240.4,24.8C240.4,24.8,240.4,24.8,240.4,24.8z"/>
			<path class="st31" d="M237.8,26.5h0.1l0,0v1.2c0,0.1-0.2,0.1-0.2,0L237.8,26.5C237.8,26.5,237.8,26.5,237.8,26.5z"/>
			<path class="st31" d="M232.8,23.3h0.1l0,0v1.3c0,0.1-0.2,0.1-0.2,0L232.8,23.3C232.8,23.4,232.8,23.3,232.8,23.3z"/>
			<path class="st31" d="M235.5,27.8c-0.2,0-0.4,0-0.6-0.2l-4.4-2.5c-0.2-0.1-0.3-0.2-0.2-0.4c0-0.1,0.1-0.2,0.2-0.2l4.2-2.4
				c0.4-0.2,0.9-0.2,1.3,0l4.4,2.5c0.2,0.1,0.3,0.2,0.2,0.4c0,0.1-0.1,0.2-0.2,0.2l-4.2,2.4C235.9,27.8,235.7,27.8,235.5,27.8z
				 M230.5,24.8c0,0,0,0,0.1,0.1l4.4,2.5c0.3,0.1,0.7,0.1,1,0l4.2-2.4c0,0,0.1-0.1,0.1-0.1l0,0l-0.1-0.1l-4.4-2.5
				c-0.3-0.1-0.7-0.1-1,0L230.5,24.8C230.6,24.7,230.6,24.8,230.5,24.8L230.5,24.8z"/>
			<g>
				<polygon class="st4" points="234.3,9.8 233.6,9.4 238.5,6.6 239.1,7 				"/>
				<polygon class="st39" points="234.3,10.6 233.6,10.2 233.6,9.4 234.3,9.8 				"/>
				<polygon class="st29" points="234.3,9.8 239.1,7 239.1,7.3 234.3,10.6 				"/>
			</g>
			<g>
				<polygon class="st29" points="232.9,8.9 234.3,8.1 235.6,25.3 234.2,26.1 				"/>
				<polygon class="st4" points="232.1,8.5 233.5,7.7 234.3,8.1 232.9,8.9 				"/>
				<polygon class="st1" points="232.9,8.9 234.2,26.1 232.1,24.9 232.1,8.5 				"/>
			</g>
			<g>
				<polygon class="st1" points="228,13.8 227.4,13.4 227.4,13 228,13.4 				"/>
				<polygon class="st4" points="228,13.4 227.4,13 232.2,10.2 232.9,10.6 				"/>
				<polygon class="st29" points="228,13.8 228,13.4 232.9,10.6 232.9,11.4 				"/>
			</g>
			<g>
				<g>
					
						<linearGradient id="SVGID_20_" gradientUnits="userSpaceOnUse" x1="236.3778" y1="224.183" x2="237.6673" y2="224.183" gradientTransform="matrix(1 0 0 -1 0 248)">
						<stop  offset="0" style="stop-color:#9AA0A4"/>
						<stop  offset="1" style="stop-color:#B9BFC2"/>
					</linearGradient>
					<path class="st40" d="M237.7,20.2V27c0,0.1-0.1,0.2-0.2,0.3c-0.3,0.1-0.6,0.1-0.9,0c-0.1,0-0.2-0.2-0.2-0.3v-6.8
						c0,0.1,0.1,0.2,0.2,0.3c0.3,0.1,0.6,0.1,0.9,0C237.6,20.4,237.7,20.3,237.7,20.2L237.7,20.2z"/>
				</g>
				<path class="st4" d="M237.5,20c0.1,0,0.2,0.2,0.2,0.3c0,0.1-0.1,0.2-0.2,0.2c-0.3,0.1-0.6,0.1-0.9,0c-0.1,0-0.2-0.2-0.2-0.3
					c0-0.1,0.1-0.2,0.2-0.2C236.9,19.8,237.2,19.8,237.5,20z"/>
			</g>
			<g>
				<g>
					<g>
						
							<linearGradient id="SVGID_21_" gradientUnits="userSpaceOnUse" x1="240.6493" y1="228.5744" x2="241.8403" y2="228.5744" gradientTransform="matrix(1 0 0 -1 0 248)">
							<stop  offset="0" style="stop-color:#9AA0A4"/>
							<stop  offset="1" style="stop-color:#B9BFC2"/>
						</linearGradient>
						<path class="st41" d="M241.8,19v0.4c-0.4,0.1-0.8,0.3-1.2,0.4v-0.4C241,19.3,241.4,19.1,241.8,19z"/>
					</g>
				</g>
				<polygon class="st1" points="240.7,19.5 240.6,19.8 237.8,20.4 237.8,20 				"/>
				<g>
					<g>
						
							<linearGradient id="SVGID_22_" gradientUnits="userSpaceOnUse" x1="236.1808" y1="227.5132" x2="236.4226" y2="227.5132" gradientTransform="matrix(1 0 0 -1 0 248)">
							<stop  offset="0" style="stop-color:#9AA0A4"/>
							<stop  offset="1" style="stop-color:#B9BFC2"/>
						</linearGradient>
						<path class="st42" d="M236.4,20.5v0.4c-0.1-0.1-0.2-0.2-0.2-0.3v-0.4C236.2,20.3,236.3,20.4,236.4,20.5z"/>
					</g>
				</g>
				
					<linearGradient id="SVGID_23_" gradientUnits="userSpaceOnUse" x1="236.4226" y1="227.3386" x2="236.4584" y2="227.3386" gradientTransform="matrix(1 0 0 -1 0 248)">
					<stop  offset="0" style="stop-color:#9AA0A4"/>
					<stop  offset="1" style="stop-color:#B9BFC2"/>
				</linearGradient>
				<polygon class="st43" points="236.5,20.5 236.5,20.8 236.4,20.8 236.4,20.5 				"/>
				<g>
					<g>
						
							<linearGradient id="SVGID_24_" gradientUnits="userSpaceOnUse" x1="236.7718" y1="227.4426" x2="237.8285" y2="227.4426" gradientTransform="matrix(1 0 0 -1 0 248)">
							<stop  offset="0" style="stop-color:#9AA0A4"/>
							<stop  offset="1" style="stop-color:#B9BFC2"/>
						</linearGradient>
						<path class="st44" d="M237.8,20.1v0.4c0,0.1-0.1,0.3-0.2,0.3c-0.3,0.1-0.5,0.2-0.8,0.1v-0.4c0.3,0.1,0.6,0,0.8-0.1
							C237.7,20.4,237.8,20.3,237.8,20.1z"/>
					</g>
				</g>
				<polygon class="st3" points="236.8,20.6 236.8,20.9 235.8,22.6 235.9,22.3 				"/>
				<g>
					<g>
						
							<linearGradient id="SVGID_25_" gradientUnits="userSpaceOnUse" x1="235.0972" y1="225.2163" x2="235.8584" y2="225.2163" gradientTransform="matrix(1 0 0 -1 0 248)">
							<stop  offset="0" style="stop-color:#9AA0A4"/>
							<stop  offset="1" style="stop-color:#B9BFC2"/>
						</linearGradient>
						<path class="st45" d="M235.9,22.3v0.4c-0.3,0.2-0.5,0.5-0.8,0.7v-0.4C235.3,22.7,235.6,22.5,235.9,22.3z"/>
					</g>
				</g>
				<path class="st4" d="M236.8,20.6l-0.9,1.7c-0.3,0.2-0.5,0.5-0.8,0.7l1.4-2.5l0,0c-0.2-0.1-0.3-0.3-0.2-0.5
					c0-0.1,0.1-0.2,0.2-0.2c0.4-0.2,0.8-0.2,1.2,0l0,0l4.2-0.8c-0.4,0.1-0.8,0.3-1.2,0.4l-2.9,0.5c0.1,0.2,0,0.4-0.2,0.5
					c0,0,0,0,0,0C237.4,20.6,237.1,20.7,236.8,20.6z"/>
			</g>
			<g>
				<g>
					<g>
						
							<linearGradient id="SVGID_26_" gradientUnits="userSpaceOnUse" x1="236.3778" y1="229.0903" x2="237.6673" y2="229.0903" gradientTransform="matrix(1 0 0 -1 0 248)">
							<stop  offset="0" style="stop-color:#9AA0A4"/>
							<stop  offset="1" style="stop-color:#B9BFC2"/>
						</linearGradient>
						<path class="st46" d="M237.7,17.3v2.8c0,0.1-0.1,0.2-0.2,0.3c-0.3,0.1-0.6,0.1-0.9,0c-0.1,0-0.2-0.2-0.2-0.3v-2.8
							c0,0.1,0.1,0.2,0.2,0.3c0.3,0.1,0.6,0.1,0.9,0C237.6,17.6,237.7,17.5,237.7,17.3z"/>
					</g>
				</g>
				<path class="st4" d="M237.5,17.1c0.1,0,0.2,0.2,0.2,0.3c0,0.1-0.1,0.2-0.2,0.2c-0.3,0.1-0.6,0.1-0.9,0c-0.1,0-0.2-0.2-0.2-0.3
					c0-0.1,0.1-0.2,0.2-0.2C236.9,16.9,237.2,16.9,237.5,17.1z"/>
			</g>
			<g>
				<g>
					<g>
						
							<linearGradient id="SVGID_27_" gradientUnits="userSpaceOnUse" x1="240.6493" y1="231.8071" x2="241.8403" y2="231.8071" gradientTransform="matrix(1 0 0 -1 0 248)">
							<stop  offset="0" style="stop-color:#9AA0A4"/>
							<stop  offset="1" style="stop-color:#B9BFC2"/>
						</linearGradient>
						<path class="st47" d="M241.8,15.8v0.4c-0.4,0.1-0.8,0.3-1.2,0.4v-0.4C241,16.1,241.4,15.9,241.8,15.8z"/>
					</g>
				</g>
				<polygon class="st1" points="240.7,16.2 240.6,16.6 237.8,17.1 237.8,16.8 				"/>
				<g>
					<g>
						
							<linearGradient id="SVGID_28_" gradientUnits="userSpaceOnUse" x1="236.1808" y1="230.737" x2="236.4226" y2="230.737" gradientTransform="matrix(1 0 0 -1 0 248)">
							<stop  offset="0" style="stop-color:#9AA0A4"/>
							<stop  offset="1" style="stop-color:#B9BFC2"/>
						</linearGradient>
						<path class="st48" d="M236.4,17.2v0.4c-0.1-0.1-0.2-0.2-0.2-0.3v-0.4C236.2,17.1,236.3,17.2,236.4,17.2z"/>
					</g>
				</g>
				
					<linearGradient id="SVGID_29_" gradientUnits="userSpaceOnUse" x1="236.4226" y1="230.5624" x2="236.4584" y2="230.5624" gradientTransform="matrix(1 0 0 -1 0 248)">
					<stop  offset="0" style="stop-color:#9AA0A4"/>
					<stop  offset="1" style="stop-color:#B9BFC2"/>
				</linearGradient>
				<polygon class="st49" points="236.5,17.3 236.5,17.6 236.4,17.6 236.4,17.2 				"/>
				<g>
					<g>
						
							<linearGradient id="SVGID_30_" gradientUnits="userSpaceOnUse" x1="236.7718" y1="230.6664" x2="237.8285" y2="230.6664" gradientTransform="matrix(1 0 0 -1 0 248)">
							<stop  offset="0" style="stop-color:#9AA0A4"/>
							<stop  offset="1" style="stop-color:#B9BFC2"/>
						</linearGradient>
						<path class="st50" d="M237.8,16.9v0.4c0,0.1-0.1,0.3-0.2,0.3c-0.3,0.1-0.5,0.2-0.8,0.1v-0.4c0.3,0.1,0.6,0,0.8-0.1
							C237.7,17.2,237.8,17.1,237.8,16.9z"/>
					</g>
				</g>
				<polygon class="st3" points="236.8,17.4 236.8,17.7 235.8,19.4 235.9,19 				"/>
				<g>
					<g>
						
							<linearGradient id="SVGID_31_" gradientUnits="userSpaceOnUse" x1="235.0972" y1="228.449" x2="235.8584" y2="228.449" gradientTransform="matrix(1 0 0 -1 0 248)">
							<stop  offset="0" style="stop-color:#9AA0A4"/>
							<stop  offset="1" style="stop-color:#B9BFC2"/>
						</linearGradient>
						<path class="st51" d="M235.9,19v0.4c-0.3,0.2-0.5,0.5-0.8,0.7v-0.3C235.3,19.5,235.6,19.3,235.9,19L235.9,19z"/>
					</g>
				</g>
				<path class="st4" d="M236.8,17.4l-0.9,1.7c-0.3,0.2-0.5,0.5-0.8,0.7l1.4-2.5l0,0c-0.2-0.1-0.3-0.3-0.2-0.5
					c0-0.1,0.1-0.2,0.2-0.2c0.4-0.2,0.8-0.2,1.2,0l0,0l4.2-0.8c-0.4,0.1-0.8,0.3-1.2,0.4l-2.9,0.5c0.1,0.2,0,0.4-0.2,0.5
					c0,0,0,0,0,0C237.4,17.4,237.1,17.4,236.8,17.4z"/>
			</g>
			<g>
				<g>
					<path class="st5" d="M244.5,15v3.9c-2.2,0.4-4.3,1.2-6.3,2.4c-2.1,1.2-3.6,2.5-4.1,3.7V21c0.5-1.1,2-2.5,4.1-3.7
						C240.2,16.2,242.3,15.4,244.5,15z"/>
				</g>
				<polygon class="st52" points="234.1,21 234.1,24.8 233.8,24.8 233.8,21 				"/>
				<path class="st53" d="M244.4,14.8l0.1,0.2c-2.2,0.4-4.3,1.2-6.3,2.4c-2.1,1.2-3.6,2.5-4.1,3.7l-0.3,0c0.5-1.2,2-2.5,4.1-3.7
					C240,16,242.1,15.2,244.4,14.8z"/>
			</g>
			<path class="st54" d="M244.5,15.5L244.5,15.5L244.5,15.5l-0.1-0.5h-0.1v0.4c-0.5,0.1-0.9,0.2-1.4,0.3v-0.5h-0.1v0.5
				c-0.5,0.1-0.9,0.3-1.4,0.4v-0.4h-0.1v0.4c-0.5,0.2-0.9,0.3-1.4,0.5v-0.4h-0.1v0.4c-0.5,0.2-0.9,0.4-1.4,0.7v-0.3h-0.1v0.3l0,0
				c-0.5,0.3-0.9,0.5-1.3,0.8v-0.3h-0.1v0.3c-0.5,0.3-0.9,0.7-1.4,1.1V19l-0.1,0.1v0.4c-0.5,0.5-1,1-1.4,1.6v-0.4l-0.1,0.1v0.4
				c-0.1,0.1-0.1,0.2-0.2,0.3v0.1c0.1-0.1,0.1-0.2,0.2-0.3v0.6c-0.1,0.1-0.1,0.2-0.2,0.3v0.1c0.1-0.1,0.1-0.2,0.2-0.3v0.6
				c-0.1,0.1-0.1,0.2-0.2,0.3V23c0.1-0.1,0.1-0.2,0.2-0.3v0.6c-0.1,0.1-0.1,0.2-0.2,0.3v0.1c0.1-0.1,0.1-0.2,0.2-0.4v0.6
				c-0.1,0.1-0.1,0.2-0.2,0.3v0.1c0.1-0.1,0.1-0.2,0.2-0.4v0.5l0.1-0.1v-0.5c0.4-0.6,0.8-1.1,1.4-1.6v0.6l0.1-0.1v-0.6
				c0.4-0.4,0.9-0.8,1.4-1.1v0.6h0.1v-0.6c0.4-0.3,0.9-0.6,1.4-0.8l0,0v0.6h0.1v-0.6c0.4-0.2,0.9-0.5,1.4-0.7v0.6h0.1v-0.6
				c0.4-0.2,0.9-0.4,1.4-0.5v0.6h0.1v-0.6c0.4-0.2,0.9-0.3,1.4-0.4v0.5h0.1v-0.5c0.4-0.1,0.9-0.2,1.4-0.3v0.4h0.1v-0.5h0.1v-0.1
				h-0.1v-0.6h0.1v-0.1h-0.1v-0.6h0.1v-0.1h-0.1v-0.6h0.1l0,0h-0.1L244.5,15.5L244.5,15.5z M235.7,22.2c-0.5,0.5-1,1-1.4,1.6v-0.6
				c0.4-0.6,0.8-1.1,1.4-1.6V22.2z M235.7,21.5c-0.5,0.5-1,1-1.4,1.6v-0.6c0.4-0.6,0.8-1.1,1.4-1.6V21.5z M235.7,20.8
				c-0.5,0.5-1,1-1.4,1.6v-0.6c0.4-0.6,0.8-1.1,1.4-1.6L235.7,20.8z M235.7,20.2c-0.5,0.5-1,1-1.4,1.6v-0.6c0.4-0.6,0.8-1.1,1.4-1.6
				V20.2z M237.2,21.1c-0.5,0.3-0.9,0.7-1.4,1.1v-0.6c0.4-0.4,0.9-0.8,1.4-1.1V21.1z M237.2,20.4c-0.5,0.3-0.9,0.7-1.4,1.1v-0.6
				c0.4-0.4,0.9-0.8,1.4-1.1V20.4z M237.2,19.7c-0.5,0.3-0.9,0.7-1.4,1.1v-0.6c0.4-0.4,0.9-0.8,1.4-1.1V19.7z M237.2,19
				c-0.5,0.3-0.9,0.7-1.4,1.1v-0.6c0.4-0.4,0.9-0.8,1.4-1.1V19z M238.6,20.2L238.6,20.2c-0.5,0.3-0.9,0.5-1.3,0.8v-0.6
				c0.4-0.3,0.9-0.6,1.4-0.8l0,0L238.6,20.2z M238.6,19.5L238.6,19.5c-0.5,0.3-0.9,0.5-1.3,0.8v-0.6c0.4-0.3,0.9-0.6,1.4-0.8l0,0
				L238.6,19.5z M238.6,18.8L238.6,18.8c-0.5,0.3-0.9,0.5-1.3,0.8V19c0.4-0.3,0.9-0.6,1.4-0.8l0,0L238.6,18.8z M238.6,18.1
				L238.6,18.1c-0.5,0.3-0.9,0.5-1.3,0.8v-0.6c0.4-0.3,0.9-0.6,1.4-0.8l0,0L238.6,18.1z M240,19.5c-0.5,0.2-0.9,0.4-1.4,0.7v-0.6
				c0.4-0.2,0.9-0.5,1.4-0.7V19.5z M240,18.8c-0.5,0.2-0.9,0.4-1.4,0.7v-0.6c0.4-0.2,0.9-0.5,1.4-0.7V18.8z M240,18.1
				c-0.5,0.2-0.9,0.4-1.4,0.7v-0.6c0.4-0.2,0.9-0.5,1.4-0.7V18.1z M240,17.4c-0.5,0.2-0.9,0.4-1.4,0.7v-0.6c0.4-0.2,0.9-0.5,1.4-0.7
				V17.4z M241.5,18.9c-0.5,0.2-0.9,0.3-1.4,0.5v-0.6c0.4-0.2,0.9-0.4,1.4-0.5V18.9z M241.5,18.2c-0.5,0.2-0.9,0.3-1.4,0.5v-0.6
				c0.4-0.2,0.9-0.4,1.4-0.5V18.2z M241.5,17.5c-0.5,0.2-0.9,0.3-1.4,0.5v-0.6c0.4-0.2,0.9-0.4,1.4-0.5V17.5z M241.5,16.8
				c-0.5,0.2-0.9,0.3-1.4,0.5v-0.6c0.4-0.2,0.9-0.4,1.4-0.5V16.8z M242.9,18.5c-0.5,0.1-0.9,0.3-1.4,0.4v-0.6
				c0.4-0.2,0.9-0.3,1.4-0.4V18.5z M242.9,17.8c-0.5,0.1-0.9,0.3-1.4,0.4v-0.6c0.4-0.2,0.9-0.3,1.4-0.4V17.8z M242.9,17.1
				c-0.5,0.1-0.9,0.3-1.4,0.4v-0.6c0.4-0.2,0.9-0.3,1.4-0.4V17.1z M242.9,16.4c-0.5,0.1-0.9,0.3-1.4,0.4v-0.6
				c0.4-0.2,0.9-0.3,1.4-0.4V16.4z M244.3,18.2c-0.5,0.1-0.9,0.2-1.4,0.3v-0.6c0.4-0.1,0.9-0.2,1.4-0.3V18.2z M244.3,17.5
				c-0.5,0.1-0.9,0.2-1.4,0.3v-0.6c0.4-0.1,0.9-0.2,1.4-0.3V17.5z M244.3,16.8c-0.5,0.1-0.9,0.2-1.4,0.3v-0.6
				c0.4-0.1,0.9-0.2,1.4-0.3V16.8z M244.3,16.1c-0.5,0.1-0.9,0.2-1.4,0.3v-0.6c0.4-0.1,0.9-0.2,1.4-0.3V16.1z"/>
			<path class="st31" d="M235.5,27.8c-0.2,0-0.4,0-0.6-0.2l-4.4-2.5c-0.2-0.1-0.3-0.2-0.2-0.4c0-0.1,0.1-0.2,0.2-0.2
				c0.1,0,0.2,0,0.2,0.1c0,0.1,0,0.2-0.1,0.2c0,0-0.1,0-0.1,0.1l0,0c0,0,0,0,0.1,0.1l4.4,2.5c0.3,0.1,0.7,0.1,1,0l4.2-2.4
				c0,0,0.1-0.1,0.1-0.1l0,0l-0.1-0.1c-0.1,0-0.1-0.1-0.1-0.2c0-0.1,0.1-0.1,0.2-0.1c0,0,0,0,0,0c0.2,0.1,0.3,0.2,0.2,0.4
				c0,0.1-0.1,0.2-0.2,0.2l-4.2,2.4C235.9,27.8,235.7,27.8,235.5,27.8z"/>
			<path class="st31" d="M239.8,50.1L239.8,50.1l-11.5-6.6c-0.1,0-0.1-0.1-0.1-0.2c0-0.1,0.1-0.1,0.2-0.1c0,0,0,0,0,0l11.3,6.5
				l7.4-4.3c0.1-0.1,0.2-0.1,0.2,0c0.1,0.1,0.1,0.2,0,0.2c0,0,0,0-0.1,0L239.8,50.1L239.8,50.1z"/>
			<g>
				<polygon class="st3" points="271.6,61.5 271.6,67.7 264.9,71.6 264.9,65.4 				"/>
				<polygon class="st1" points="264.9,65.4 264.9,71.6 254.5,65.6 254.6,59.4 				"/>
				<polygon class="st4" points="271.6,61.5 264.9,65.4 254.6,59.4 261.3,55.5 				"/>
			</g>
			<g>
				<polygon class="st29" points="272.9,61.5 272.9,62 265.1,66.5 265.1,66.1 				"/>
				<polygon class="st30" points="265.1,66.1 265.1,66.5 253.2,59.7 253.2,59.2 				"/>
				<polygon class="st4" points="272.9,61.5 265.1,66.1 253.2,59.2 261.1,54.7 				"/>
				<polygon class="st5" points="254,59.2 261.1,55.1 272.1,61.5 265.1,65.6 				"/>
			</g>
			<path class="st31" d="M264,63.8h-0.1l0,0v1.3c0,0.1,0.2,0.1,0.2,0L264,63.8C264,63.8,264,63.8,264,63.8z"/>
			<path class="st31" d="M260.9,62c0,0-0.1,0-0.1,0l0,0v1.3c0,0.1,0.2,0.1,0.2,0L260.9,62C260.9,62,260.9,62,260.9,62z"/>
			<path class="st31" d="M257.8,60.2c0,0-0.1,0-0.1,0l0,0v1.3c0,0.1,0.2,0.1,0.2,0L257.8,60.2C257.8,60.3,257.8,60.2,257.8,60.2z"/>
			<path class="st31" d="M254.7,58.5h-0.1l0,0v1.3c0,0.1,0.2,0.1,0.2,0L254.7,58.5C254.7,58.5,254.7,58.5,254.7,58.5z"/>
			<path class="st31" d="M271.4,59.5c0,0-0.1,0-0.1,0l0,0v1.3c0,0.1,0.2,0.1,0.2,0L271.4,59.5C271.5,59.5,271.4,59.5,271.4,59.5z"/>
			<path class="st31" d="M268.4,57.7h-0.1l0,0V59c0,0.1,0.2,0.1,0.2,0L268.4,57.7C268.4,57.7,268.4,57.7,268.4,57.7z"/>
			<path class="st31" d="M265.2,55.9c0,0-0.1,0-0.1,0l0,0v1.3c0,0.1,0.2,0.1,0.2,0L265.2,55.9C265.3,55.9,265.2,55.9,265.2,55.9z"/>
			<path class="st31" d="M262.2,54.1h-0.1l0,0v1.3c0,0.1,0.2,0.1,0.2,0L262.2,54.1C262.2,54.2,262.2,54.2,262.2,54.1z"/>
			<path class="st31" d="M255.6,56.7c0,0,0.1,0,0.1,0l0,0V58c0,0.1-0.2,0.1-0.2,0L255.6,56.7C255.6,56.7,255.6,56.7,255.6,56.7z"/>
			<path class="st31" d="M258.7,54.9h0.1l0,0v1.3c0,0.1-0.2,0.1-0.2,0L258.7,54.9C258.7,54.9,258.7,54.9,258.7,54.9z"/>
			<path class="st31" d="M267,63.3c0,0,0.1,0,0.1,0l0,0v1.3c0,0.1-0.2,0.1-0.2,0L267,63.3C267,63.3,267,63.3,267,63.3z"/>
			<path class="st31" d="M270.1,61.5c0,0,0.1,0,0.1,0l0,0v1.3c0,0.1-0.2,0.1-0.2,0L270.1,61.5C270.1,61.5,270.1,61.5,270.1,61.5z"/>
			<path class="st31" d="M265,64.7L265,64.7l-11.4-6.6c0,0-0.1-0.1-0.1-0.1c0-0.1,0-0.1,0.1-0.1l7.5-4.4c0,0,0.1,0,0.2,0l11.4,6.6
				c0,0,0.1,0.1,0.1,0.1c0,0.1,0,0.1-0.1,0.1L265,64.7L265,64.7z M253.9,57.9l11.1,6.4l7.2-4.2l-11.1-6.4L253.9,57.9z"/>
			
				<linearGradient id="SVGID_32_" gradientUnits="userSpaceOnUse" x1="264.0128" y1="203.1423" x2="271.7857" y2="203.1423" gradientTransform="matrix(1 0 0 -1 0 248)">
				<stop  offset="0" style="stop-color:#9AA0A4"/>
				<stop  offset="1" style="stop-color:#B9BFC2"/>
			</linearGradient>
			<polygon class="st55" points="264.7,47.1 264,46.7 271.1,42.6 271.8,43 			"/>
			<polygon class="st33" points="264.7,48.9 264,48.5 264,46.7 264.7,47.1 			"/>
			<polygon class="st3" points="264.7,47.1 271.8,43 264.7,48.9 			"/>
			<g>
				<polygon class="st1" points="262.6,62.3 259.4,60.4 260,47.9 263.1,49.8 				"/>
				<polygon class="st3" points="265.7,48.3 266.4,60.1 262.6,62.3 263.1,49.8 				"/>
			</g>
			
				<linearGradient id="SVGID_33_" gradientUnits="userSpaceOnUse" x1="253.2131" y1="196.9052" x2="260.9771" y2="196.9052" gradientTransform="matrix(1 0 0 -1 0 248)">
				<stop  offset="0" style="stop-color:#9AA0A4"/>
				<stop  offset="1" style="stop-color:#B9BFC2"/>
			</linearGradient>
			<polygon class="st56" points="253.9,53.3 253.2,52.9 260.3,48.9 261,49.2 			"/>
			<polygon class="st3" points="261,51 253.9,53.3 261,49.2 			"/>
			<g>
				<polygon class="st29" points="272.7,42.3 272.7,42.6 266.1,46.5 266.1,46.1 				"/>
				<path class="st30" d="M258,47.8c-0.2-0.1-0.3-0.2-0.3-0.4v0.3c0,0.2,0.1,0.3,0.3,0.4l1.2,0.7v-0.3L258,47.8z"/>
				
					<linearGradient id="SVGID_34_" gradientUnits="userSpaceOnUse" x1="262.1949" y1="198.8277" x2="263.8964" y2="198.8277" gradientTransform="matrix(1 0 0 -1 0 248)">
					<stop  offset="0" style="stop-color:#A3AAAE"/>
					<stop  offset="1" style="stop-color:#C3CACD"/>
				</linearGradient>
				<path class="st57" d="M267.9,47.9l-4.2,2.4c-0.4,0.2-0.9,0.2-1.3,0l-1.8-1v0.3l1.8,1c0.4,0.2,0.9,0.2,1.3,0l4.2-2.4
					c0.2-0.1,0.3-0.2,0.3-0.4v-0.4C268.1,47.7,268,47.8,267.9,47.9z"/>
				<polygon class="st30" points="254,53.2 254,53.5 252.6,52.6 252.6,52.3 				"/>
				<path class="st4" d="M272.7,42.3l-6.6,3.8l1.8,1c0.4,0.2,0.4,0.5,0,0.8l-4.2,2.4c-0.4,0.2-0.9,0.2-1.3,0l-1.8-1l-6.6,3.8
					l-1.5-0.8l6.6-3.8l-1.2-0.7c-0.4-0.2-0.4-0.5,0-0.8l4.2-2.4c0.4-0.2,0.9-0.2,1.3,0l1.2,0.7l6.6-3.8L272.7,42.3z"/>
				<polygon class="st29" points="260.6,49.3 260.6,49.7 254,53.5 254,53.2 				"/>
			</g>
			<path class="st31" d="M258.1,46.1h-0.1l0,0v1.4c0,0.1,0.2,0.1,0.2,0L258.1,46.1C258.1,46.2,258.1,46.1,258.1,46.1z"/>
			<path class="st31" d="M260.5,47.5h-0.1l0,0v1.3c0,0.1,0.2,0.1,0.2,0L260.5,47.5C260.5,47.5,260.5,47.5,260.5,47.5z"/>
			<path class="st31" d="M262.9,49h-0.1l0,0v1.3c0,0.1,0.2,0.1,0.2,0L262.9,49C263,49,263,49,262.9,49z"/>
			<path class="st31" d="M263,43.3h-0.1l0,0v1.4c0,0.1,0.2,0.1,0.2,0L263,43.3C263,43.3,263,43.3,263,43.3z"/>
			<path class="st31" d="M265.5,44.7h-0.1l0,0V46c0,0.1,0.2,0.1,0.2,0L265.5,44.7C265.5,44.7,265.5,44.7,265.5,44.7z"/>
			<path class="st31" d="M267.9,46.1c0,0-0.1,0-0.1,0l0,0v1.4c0,0.1,0.2,0.1,0.2,0L267.9,46.1C267.9,46.1,267.9,46.1,267.9,46.1z"/>
			<path class="st31" d="M265.3,47.8c0,0,0.1,0,0.1,0l0,0V49c0,0.1-0.2,0.1-0.2,0L265.3,47.8C265.3,47.8,265.3,47.8,265.3,47.8z"/>
			<path class="st31" d="M260.3,44.7c0,0,0.1,0,0.1,0l0,0V46c0,0.1-0.2,0.1-0.2,0L260.3,44.7C260.3,44.7,260.3,44.7,260.3,44.7z"/>
			<path class="st31" d="M263,49.2c-0.2,0-0.4,0-0.6-0.2l-4.4-2.5c-0.2-0.1-0.3-0.2-0.2-0.4c0-0.1,0.1-0.2,0.2-0.2l4.2-2.4
				c0.4-0.2,0.9-0.2,1.3,0l4.4,2.5c0.2,0.1,0.3,0.2,0.2,0.4c0,0.1-0.1,0.2-0.2,0.2l-4.2,2.4C263.5,49.1,263.2,49.2,263,49.2z
				 M258.1,46.1c0,0,0,0,0.1,0.1l4.4,2.5c0.3,0.1,0.7,0.1,1,0l4.2-2.4c0,0,0.1-0.1,0.1-0.1l0,0l-0.1-0.1l-4.4-2.5
				c-0.3-0.1-0.7-0.1-1,0L258.1,46.1C258.1,46.1,258.1,46.1,258.1,46.1z"/>
			<path class="st5" d="M228.5,55.7l-3.4-1.9v-1.5l3.4,2V55.7z M232.5,56.5l-3.4-2v1.5l3.4,2V56.5z"/>
			<path class="st5" d="M239,61.8l-3.4-2v-1.5l3.4,2V61.8z M243,62.6l-3.4-2v1.5l3.4,2V62.6z"/>
			<path class="st5" d="M249.6,67.9l-3.4-2v-1.5l3.4,2V67.9z M253.6,68.7l-3.4-2v1.5l3.4,2V68.7z"/>
			<path class="st5" d="M260.1,74l-3.4-2v-1.5l3.4,2V74z M264.1,74.8l-3.4-2v1.5l3.4,2V74.8z"/>
			<path class="st5" d="M221.1,69.2l-3.4-2v-1.5l3.4,2V69.2z M225.1,70l-3.4-2v1.5l3.4,2V70z"/>
			<path class="st5" d="M231.7,75.3l-3.4-2v-1.5l3.4,2V75.3z M235.6,76.1l-3.4-2v1.5l3.4,2V76.1z"/>
			<path class="st5" d="M242.2,81.4l-3.4-2v-1.5l3.4,2V81.4z M246.2,82.2l-3.4-2v1.5l3.4,2V82.2z"/>
			<path class="st5" d="M252.8,87.5l-3.4-2V84l3.4,2V87.5z M256.7,88.3l-3.4-2v1.5l3.4,2V88.3z"/>
			<path class="st5" d="M263.3,93.6l-3.4-2v-1.5l3.4,2L263.3,93.6z M267.3,94.4l-3.4-2v1.5l3.4,2V94.4z"/>
			
				<linearGradient id="SVGID_35_" gradientUnits="userSpaceOnUse" x1="273.7737" y1="160.0358" x2="278.1258" y2="160.0358" gradientTransform="matrix(1 0 0 -1 0 248)">
				<stop  offset="0" style="stop-color:#9AA0A4"/>
				<stop  offset="1" style="stop-color:#B9BFC2"/>
			</linearGradient>
			<path class="st58" d="M277.5,88c-1,0.5-2.1,0.5-3.1,0c-0.4-0.2-0.6-0.5-0.6-0.9v0.4c0,0.4,0.3,0.7,0.6,0.9c1,0.5,2.1,0.5,3.1,0
				c0.4-0.2,0.6-0.5,0.7-0.9v-0.4C278.1,87.5,277.8,87.9,277.5,88z"/>
			<path class="st59" d="M277.5,86.2c-1-0.5-2.1-0.5-3.1,0c-0.9,0.5-0.9,1.3,0,1.8c1,0.5,2.1,0.5,3.1,0
				C278.3,87.5,278.3,86.7,277.5,86.2z"/>
			
				<radialGradient id="SVGID_36_" cx="276.3975" cy="163.5166" r="3.8506" gradientTransform="matrix(1 0 0 -1 0 248)" gradientUnits="userSpaceOnUse">
				<stop  offset="0" style="stop-color:#EDEEF0"/>
				<stop  offset="0.18" style="stop-color:#E0E2E4"/>
				<stop  offset="0.53" style="stop-color:#BCC2C5"/>
				<stop  offset="0.56" style="stop-color:#B9BFC2"/>
				<stop  offset="1" style="stop-color:#9AA0A4"/>
			</radialGradient>
			<path class="st60" d="M277.1,84.4c-1-0.6-2.4-0.3-3,0.7c-0.2,0.3-0.3,0.7-0.3,1.1v0.6c0,0.4,0.3,0.7,0.6,0.9c1,0.5,2.1,0.5,3.1,0
				c0.4-0.2,0.6-0.5,0.7-0.9v-0.6C278.1,85.5,277.7,84.8,277.1,84.4z"/>
			<g>
				<path class="st15" d="M283.2,90.1l-5.5-3.2c0,0-0.1,0-0.1,0c-0.1,0.1-0.2,0.2-0.2,0.3c0,0,0,0.1,0,0.1l5.5,3.2
					c0,0-0.1-0.1-0.1-0.1C283,90.3,283.1,90.2,283.2,90.1C283.2,90.1,283.2,90.1,283.2,90.1z"/>
				<path class="st1" d="M283.1,90.1c-0.1,0.1-0.2,0.2-0.2,0.3c0,0.1,0.1,0.2,0.2,0.1c0.1-0.1,0.2-0.2,0.2-0.3
					C283.3,90.1,283.2,90.1,283.1,90.1z"/>
			</g>
			<polygon class="st61" points="104.5,103.6 104.5,112.2 111.9,107.9 			"/>
			<polygon class="st5" points="266.8,173.8 236.9,159.3 236.9,167.8 266.8,182 			"/>
			<polygon class="st61" points="244.8,163.1 236.9,159.3 236.9,167.7 			"/>
			<path class="st31" d="M218.5,171.1h-0.1l0,0v1.2c0,0.1,0.1,0.1,0.1,0L218.5,171.1C218.5,171.1,218.5,171.1,218.5,171.1z"/>
			<path class="st31" d="M215.7,169.5h-0.1l0,0v1.2c0,0.1,0.1,0.1,0.1,0L215.7,169.5C215.8,169.5,215.8,169.5,215.7,169.5z"/>
			<path class="st31" d="M213,167.9h-0.1l0,0v1.2c0,0.1,0.1,0.1,0.1,0L213,167.9C213,167.9,213,167.9,213,167.9z"/>
			<path class="st31" d="M210.2,166.3h-0.1l0,0v1.2c0,0.1,0.1,0.1,0.1,0L210.2,166.3C210.2,166.3,210.2,166.3,210.2,166.3z"/>
			<path class="st31" d="M226.9,176h-0.1l0,0v1.2c0,0.1,0.1,0.1,0.1,0L226.9,176C226.9,176,226.9,176,226.9,176z"/>
			<path class="st31" d="M224.1,174.4H224l0,0v1.2c0,0.1,0.1,0.1,0.1,0L224.1,174.4C224.2,174.4,224.2,174.4,224.1,174.4z"/>
			<path class="st31" d="M221.4,172.8h-0.1l0,0v1.2c0,0.1,0.1,0.1,0.1,0L221.4,172.8C221.4,172.8,221.4,172.8,221.4,172.8z"/>
			<path class="st31" d="M235.3,180.8h-0.1l0,0v1.2c0,0.1,0.1,0.1,0.1,0L235.3,180.8C235.4,180.8,235.3,180.8,235.3,180.8z"/>
			<path class="st31" d="M232.6,179.2h-0.1l0,0v1.2c0,0.1,0.1,0.1,0.1,0L232.6,179.2C232.6,179.2,232.6,179.2,232.6,179.2z"/>
			<path class="st31" d="M229.8,177.6h-0.1l0,0v1.2c0,0.1,0.1,0.1,0.1,0L229.8,177.6C229.8,177.6,229.8,177.6,229.8,177.6z"/>
			<path class="st31" d="M238.7,181.2h-0.1l0,0v1.2c0,0.1,0.1,0.1,0.1,0L238.7,181.2C238.7,181.2,238.7,181.2,238.7,181.2z"/>
			<path class="st31" d="M242.6,181.2h-0.1l0,0v1.2c0,0.1,0.1,0.1,0.1,0L242.6,181.2C242.6,181.2,242.6,181.2,242.6,181.2z"/>
			<path class="st31" d="M246.4,181.2h-0.1l0,0v1.2c0,0.1,0.1,0.1,0.1,0L246.4,181.2C246.5,181.2,246.4,181.2,246.4,181.2z"/>
			<path class="st31" d="M250.2,181.2h-0.1l0,0v1.2c0,0.1,0.1,0.1,0.1,0L250.2,181.2C250.2,181.2,250.2,181.2,250.2,181.2z"/>
			<path class="st31" d="M254.1,181.2H254l0,0v1.2c0,0.1,0.1,0.1,0.1,0L254.1,181.2C254.1,181.2,254.1,181.2,254.1,181.2z"/>
			<path class="st31" d="M257.9,181.2h-0.1l0,0v1.2c0,0.1,0.1,0.1,0.1,0L257.9,181.2C257.9,181.2,257.9,181.2,257.9,181.2z"/>
			<path class="st31" d="M261.7,181.2h-0.1l0,0v1.2c0,0.1,0.1,0.1,0.1,0L261.7,181.2C261.8,181.2,261.8,181.2,261.7,181.2z"/>
			<path class="st31" d="M265.6,181.2h-0.1l0,0v1.2c0,0.1,0.1,0.1,0.1,0L265.6,181.2C265.6,181.2,265.6,181.2,265.6,181.2z"/>
			<path class="st31" d="M267.9,181.4h-31.9h-0.1l-27.1-15.6c-0.1,0-0.1-0.1-0.1-0.2c0-0.1,0.1-0.1,0.2-0.1l27,15.6h31.9
				c0.1,0,0.1,0.1,0.1,0.1S267.9,181.4,267.9,181.4L267.9,181.4z"/>
			<path class="st62" d="M238.5,107.5c-0.2-0.1-0.3-0.3-0.6-0.1c-0.2,0.1-0.5,0.7-0.4,0.9l0,0c0.1,0.1,0.2,0.2,0.3,0.2
				c-0.3-0.2,0.1,0.3,0.5-0.2C238.8,107.8,238.5,107.5,238.5,107.5z"/>
			<rect x="238.2" y="105.8" class="st63" width="0.5" height="2.6"/>
			<path class="st62" d="M239.1,107.8c-0.2-0.1-0.3-0.3-0.6-0.1c-0.2,0.1-0.5,0.7-0.4,0.9l0,0c0.1,0.1,0.2,0.2,0.3,0.2
				c-0.3-0.2,0.1,0.3,0.5-0.2C239.4,108.1,239.1,107.8,239.1,107.8z"/>
			<path class="st62" d="M251.2,106.6c-0.2-0.1-0.3-0.3-0.6-0.1c-0.2,0.1-0.5,0.7-0.4,0.9l0,0c0.1,0.1,0.2,0.2,0.3,0.2
				c-0.3-0.2,0.1,0.3,0.5-0.2C251.5,106.9,251.2,106.6,251.2,106.6z"/>
			<rect x="250.9" y="104.8" class="st63" width="0.5" height="2.6"/>
			<path class="st62" d="M251.7,106.9c-0.2-0.1-0.3-0.3-0.6-0.1c-0.2,0.1-0.5,0.7-0.4,0.9l0,0c0.1,0.1,0.2,0.2,0.3,0.2
				c-0.3-0.2,0.1,0.3,0.5-0.2C252,107.2,251.7,106.9,251.7,106.9z"/>
			<path class="st62" d="M239.6,99.9c-0.2-0.1-0.3-0.3-0.6-0.1c-0.2,0.1-0.5,0.7-0.4,0.9l0,0c0.1,0.1,0.2,0.2,0.3,0.2
				c-0.3-0.2,0.1,0.3,0.5-0.2C239.9,100.2,239.6,99.9,239.6,99.9z"/>
			<rect x="239.3" y="98.2" class="st63" width="0.5" height="2.6"/>
			<path class="st62" d="M240.2,100.2c-0.2-0.1-0.3-0.3-0.6-0.1c-0.2,0.1-0.5,0.7-0.4,0.9l0,0c0.1,0.1,0.2,0.2,0.3,0.2
				c-0.3-0.2,0.1,0.3,0.5-0.2C240.5,100.5,240.2,100.2,240.2,100.2z"/>
			<polygon class="st1" points="245.4,95.9 245.4,96.1 248.3,99.2 248.3,98.9 			"/>
			
				<linearGradient id="SVGID_37_" gradientUnits="userSpaceOnUse" x1="246.924" y1="153.0449" x2="248.8762" y2="149.6689" gradientTransform="matrix(1 0 0 -1 0 248)">
				<stop  offset="0" style="stop-color:#EDEEF0"/>
				<stop  offset="0.52" style="stop-color:#EBECEE"/>
				<stop  offset="0.75" style="stop-color:#E4E6E8"/>
				<stop  offset="0.91" style="stop-color:#D7DADD"/>
				<stop  offset="1" style="stop-color:#CDD1D4"/>
			</linearGradient>
			<path class="st64" d="M250.4,97.5l-3.8-2.2c0,0-0.1,0-0.1,0l-1,0.6v0.1l2.7,2.9L250.4,97.5z"/>
			<polygon class="st1" points="236.4,95 236.4,95.2 240.7,103.5 240.7,103.2 			"/>
			
				<linearGradient id="SVGID_38_" gradientUnits="userSpaceOnUse" x1="239.1204" y1="154.6821" x2="243.7322" y2="146.7032" gradientTransform="matrix(1 0 0 -1 0 248)">
				<stop  offset="0" style="stop-color:#EDEEF0"/>
				<stop  offset="0.52" style="stop-color:#EBECEE"/>
				<stop  offset="0.75" style="stop-color:#E4E6E8"/>
				<stop  offset="0.91" style="stop-color:#D7DADD"/>
				<stop  offset="1" style="stop-color:#CDD1D4"/>
			</linearGradient>
			<path class="st65" d="M237.6,94.3c0,0-0.1,0-0.1,0l-1.1,0.6V95l4.3,8.1l6.1-3.5L237.6,94.3z"/>
			
				<linearGradient id="SVGID_39_" gradientUnits="userSpaceOnUse" x1="242.413" y1="146.3439" x2="244.007" y2="143.5858" gradientTransform="matrix(1 0 0 -1 0 248)">
				<stop  offset="0" style="stop-color:#EAEBED"/>
				<stop  offset="3.000000e-02" style="stop-color:#EBECEE"/>
				<stop  offset="0.35" style="stop-color:#EDEEF0"/>
				<stop  offset="0.56" style="stop-color:#E0E3E5"/>
				<stop  offset="0.94" style="stop-color:#BFC5C8"/>
				<stop  offset="1" style="stop-color:#B9BFC2"/>
			</linearGradient>
			<path class="st66" d="M251.3,97.1c-0.4-0.3-0.7-0.2-1.1,0.1l-10.2,5.9c-0.4,0.3-1.1,0.7-1.5,1.1c-1.7,1.5-4,3.8-3.9,4
				c0.3,0.5,3.8-0.7,8.5-3.3l6.3-3.5l1.9-1.1l0.5-1.4C251.9,98.2,251.7,97.6,251.3,97.1z"/>
			<path class="st1" d="M258.5,106.5l-1.1,0.6h-0.1l-14.5-2.6v0.2l14.5,2.6h0.1l1.1-0.6l0,0L258.5,106.5
				C258.5,106.5,258.5,106.5,258.5,106.5z"/>
			<path class="st4" d="M258.5,106.4l-9.4-5.4l-6.3,3.5l14.5,2.6h0.1l1.1-0.6C258.6,106.5,258.6,106.4,258.5,106.4z"/>
			<path class="st1" d="M256.9,101.2l-1,0.6h-0.1l-5.3-1.6v0.2l5.3,1.6h0.1l1-0.6l0,0V101.2L256.9,101.2z"/>
			<path class="st4" d="M250.5,100.2l5.3,1.6h0.1l1-0.6c0,0,0-0.1,0-0.1l-4.1-2.4h-0.9L250.5,100.2z"/>
			<path class="st4" d="M251,92.3C251,92.3,250.9,92.3,251,92.3L251,92.3l-0.5,0.5c-0.1,0.2-0.2,0.4-0.3,0.6l-1.8,4.7l-1.3,1.1
				l0.2,0.1l1.3-1.1l1.8-4.7c0.1-0.2,0.2-0.4,0.3-0.6l0.4-0.5l0,0c0,0,0,0,0.1,0L251,92.3z"/>
			<path class="st3" d="M251.2,92.5C251.2,92.4,251.2,92.4,251.2,92.5L251.2,92.5l-0.5,0.5c-0.1,0.2-0.2,0.4-0.3,0.6l-1.8,4.7
				l-1.3,1.2l4-2.3L251.2,92.5z"/>
			<path class="st62" d="M239.6,103.2c-1.5,0.7-2.8,1.8-3.6,3.3c-0.7,1.2,3.7-1.3,4.5-1.8c0.4-0.3,0.4-0.9,0-1.3
				C240.3,103.2,239.9,103.1,239.6,103.2z"/>
			<path class="st62" d="M90.3,40.3c0.2-0.1,0.3-0.3,0.6-0.1c0.2,0.1,0.5,0.7,0.4,0.9l0,0c-0.1,0.1-0.2,0.2-0.3,0.2
				c0.3-0.2-0.1,0.3-0.5-0.2C90,40.6,90.3,40.3,90.3,40.3z"/>
			<rect x="90.1" y="38.6" class="st63" width="0.5" height="2.6"/>
			<path class="st62" d="M89.7,40.7c0.2-0.1,0.3-0.3,0.6-0.1c0.2,0.1,0.5,0.7,0.4,0.9l0,0c-0.1,0.1-0.2,0.2-0.3,0.2
				c0.3-0.2-0.1,0.3-0.5-0.2C89.4,40.9,89.7,40.7,89.7,40.7z"/>
			<path class="st62" d="M77.7,39.4c0.2-0.1,0.3-0.3,0.6-0.1c0.2,0.1,0.5,0.7,0.4,0.9l0,0c-0.1,0.1-0.2,0.2-0.3,0.2
				c0.3-0.2-0.1,0.3-0.5-0.2C77.4,39.7,77.7,39.4,77.7,39.4z"/>
			<rect x="77.5" y="37.7" class="st63" width="0.5" height="2.6"/>
			<path class="st62" d="M77.1,39.7c0.2-0.1,0.3-0.3,0.6-0.1c0.2,0.1,0.5,0.7,0.4,0.9l0,0c-0.1,0.1-0.2,0.2-0.3,0.2
				c0.3-0.2-0.1,0.3-0.5-0.2C76.8,40,77.1,39.7,77.1,39.7z"/>
			<path class="st62" d="M89.2,32.7c0.2-0.1,0.3-0.3,0.6-0.1c0.2,0.1,0.5,0.7,0.4,0.9l0,0c-0.1,0.1-0.2,0.2-0.3,0.2
				c0.3-0.2-0.1,0.3-0.5-0.2C88.9,33,89.2,32.7,89.2,32.7z"/>
			<rect x="89.1" y="31" class="st63" width="0.5" height="2.6"/>
			<path class="st62" d="M88.7,33.1c0.2-0.1,0.3-0.3,0.6-0.1c0.2,0.1,0.5,0.7,0.4,0.9l0,0c-0.1,0.1-0.2,0.2-0.3,0.2
				c0.3-0.2-0.1,0.3-0.5-0.2S88.7,33.1,88.7,33.1z"/>
			<polygon class="st1" points="83.4,28.7 83.4,28.9 80.6,32 80.6,31.8 			"/>
			
				<linearGradient id="SVGID_40_" gradientUnits="userSpaceOnUse" x1="199.6151" y1="220.2195" x2="201.5676" y2="216.8428" gradientTransform="matrix(-1 0 0 -1 281.55 248)">
				<stop  offset="0" style="stop-color:#EDEEF0"/>
				<stop  offset="0.52" style="stop-color:#EBECEE"/>
				<stop  offset="0.75" style="stop-color:#E4E6E8"/>
				<stop  offset="0.91" style="stop-color:#D7DADD"/>
				<stop  offset="1" style="stop-color:#CDD1D4"/>
			</linearGradient>
			<path class="st67" d="M78.4,30.3l3.8-2.2c0,0,0.1,0,0.1,0l1,0.6l0,0.1l-2.7,2.9L78.4,30.3z"/>
			<polygon class="st1" points="92.5,27.8 92.5,28 88.1,36.3 88.1,36.1 			"/>
			
				<linearGradient id="SVGID_41_" gradientUnits="userSpaceOnUse" x1="191.829" y1="221.8548" x2="196.4319" y2="213.8759" gradientTransform="matrix(-1 0 0 -1 281.55 248)">
				<stop  offset="0" style="stop-color:#EDEEF0"/>
				<stop  offset="0.52" style="stop-color:#EBECEE"/>
				<stop  offset="0.75" style="stop-color:#E4E6E8"/>
				<stop  offset="0.91" style="stop-color:#D7DADD"/>
				<stop  offset="1" style="stop-color:#CDD1D4"/>
			</linearGradient>
			<path class="st68" d="M91.3,27.1c0,0,0.1,0,0.1,0l1.1,0.6v0.1l-4.3,8.1l-6.1-3.5L91.3,27.1z"/>
			
				<linearGradient id="SVGID_42_" gradientUnits="userSpaceOnUse" x1="195.1309" y1="213.5205" x2="196.7248" y2="210.7623" gradientTransform="matrix(-1 0 0 -1 281.55 248)">
				<stop  offset="0" style="stop-color:#EAEBED"/>
				<stop  offset="3.000000e-02" style="stop-color:#EBECEE"/>
				<stop  offset="0.35" style="stop-color:#EDEEF0"/>
				<stop  offset="0.56" style="stop-color:#E0E3E5"/>
				<stop  offset="0.94" style="stop-color:#BFC5C8"/>
				<stop  offset="1" style="stop-color:#B9BFC2"/>
			</linearGradient>
			<path class="st69" d="M77.6,30c0.4-0.3,0.7-0.2,1.1,0.1l10.2,5.8c0.4,0.3,1.1,0.7,1.5,1.1c1.7,1.5,4,3.8,3.9,4
				c-0.3,0.5-3.8-0.7-8.5-3.3l-6.3-3.5L77.6,33L77,31.6C76.9,31,77.1,30.4,77.6,30z"/>
			<path class="st1" d="M70.3,39.3l1.1,0.6h0.1L86,37.3v0.2l-14.5,2.6h-0.1l-1.1-0.6l0,0V39.3C70.3,39.3,70.3,39.3,70.3,39.3z"/>
			<path class="st4" d="M70.3,39.2l9.4-5.4l6.3,3.5L71.4,40h-0.1l-1.1-0.6C70.3,39.4,70.3,39.2,70.3,39.2z"/>
			<path class="st1" d="M72,34.1l1,0.6h0.1l5.3-1.6v0.2l-5.3,1.6H73l-1-0.6l0,0V34.1L72,34.1z"/>
			<path class="st4" d="M78.4,33l-5.3,1.6H73l-1-0.6c0,0,0-0.1,0-0.1l4.1-2.4H77L78.4,33z"/>
			<path class="st4" d="M77.9,25.1C77.9,25.1,77.9,25.1,77.9,25.1L77.9,25.1l0.5,0.5c0.1,0.2,0.2,0.4,0.3,0.6l1.8,4.7l1.3,1.1
				l-0.2,0.1L80.3,31l-1.8-4.7c-0.1-0.2-0.2-0.4-0.3-0.6l-0.4-0.5l0,0c0,0,0,0-0.1,0L77.9,25.1z"/>
			<path class="st3" d="M77.7,25.3C77.7,25.2,77.7,25.2,77.7,25.3L77.7,25.3l0.5,0.5c0.1,0.2,0.2,0.4,0.3,0.6l1.8,4.7l1.3,1.1
				l-4-2.3L77.7,25.3z"/>
			<path class="st62" d="M89.3,36c1.5,0.7,2.8,1.8,3.6,3.3c0.7,1.2-3.7-1.3-4.5-1.8c-0.4-0.3-0.4-0.9,0-1.3
				C88.6,36,88.9,35.9,89.3,36z"/>
			<path class="st62" d="M67.3,53.7c0.2-0.1,0.3-0.3,0.6-0.1c0.2,0.1,0.5,0.7,0.4,0.9l0,0c-0.1,0.1-0.2,0.2-0.3,0.2
				c0.3-0.2-0.1,0.3-0.5-0.2C67,53.9,67.3,53.7,67.3,53.7z"/>
			<rect x="67.1" y="51.9" class="st63" width="0.5" height="2.6"/>
			<path class="st62" d="M66.7,54c0.2-0.1,0.3-0.3,0.6-0.1s0.5,0.7,0.4,0.9l0,0c-0.1,0.1-0.2,0.2-0.3,0.2c0.3-0.2-0.1,0.3-0.5-0.2
				S66.7,54,66.7,54z"/>
			<path class="st62" d="M54.6,52.7c0.2-0.1,0.3-0.3,0.6-0.1c0.2,0.1,0.5,0.7,0.4,0.9l0,0c-0.1,0.1-0.2,0.2-0.3,0.2
				c0.3-0.2-0.1,0.3-0.5-0.2S54.6,52.7,54.6,52.7z"/>
			<rect x="54.5" y="51" class="st63" width="0.5" height="2.6"/>
			<path class="st62" d="M54.1,53c0.2-0.1,0.3-0.3,0.6-0.1c0.2,0.1,0.5,0.7,0.4,0.9l0,0c-0.1,0.1-0.2,0.2-0.3,0.2
				c0.3-0.2-0.1,0.3-0.5-0.2S54.1,53,54.1,53z"/>
			<path class="st62" d="M66.2,46c0.2-0.1,0.3-0.3,0.6-0.1s0.5,0.7,0.4,0.9l0,0C67,46.9,66.9,47,66.8,47c0.3-0.2-0.1,0.3-0.5-0.2
				C65.9,46.3,66.2,46,66.2,46z"/>
			<rect x="66" y="44.3" class="st63" width="0.5" height="2.6"/>
			<path class="st62" d="M65.6,46.4c0.2-0.1,0.3-0.3,0.6-0.1c0.2,0.1,0.5,0.7,0.4,0.9l0,0c-0.1,0.1-0.2,0.2-0.3,0.2
				c0.3-0.2-0.1,0.3-0.5-0.2C65.3,46.6,65.6,46.4,65.6,46.4z"/>
			<polygon class="st1" points="60.4,42 60.4,42.3 57.5,45.3 57.5,45.1 			"/>
			
				<linearGradient id="SVGID_43_" gradientUnits="userSpaceOnUse" x1="222.6747" y1="206.918" x2="224.6273" y2="203.5412" gradientTransform="matrix(-1 0 0 -1 281.55 248)">
				<stop  offset="0" style="stop-color:#EDEEF0"/>
				<stop  offset="0.52" style="stop-color:#EBECEE"/>
				<stop  offset="0.75" style="stop-color:#E4E6E8"/>
				<stop  offset="0.91" style="stop-color:#D7DADD"/>
				<stop  offset="1" style="stop-color:#CDD1D4"/>
			</linearGradient>
			<path class="st70" d="M55.4,43.6l3.8-2.2c0,0,0.1,0,0.1,0l1,0.6V42l-2.7,2.9L55.4,43.6z"/>
			<polygon class="st1" points="69.4,41.1 69.4,41.3 65.1,49.6 65.1,49.4 			"/>
			
				<linearGradient id="SVGID_44_" gradientUnits="userSpaceOnUse" x1="214.851" y1="208.5295" x2="219.4538" y2="200.5596" gradientTransform="matrix(-1 0 0 -1 281.55 248)">
				<stop  offset="0" style="stop-color:#EDEEF0"/>
				<stop  offset="0.52" style="stop-color:#EBECEE"/>
				<stop  offset="0.75" style="stop-color:#E4E6E8"/>
				<stop  offset="0.91" style="stop-color:#D7DADD"/>
				<stop  offset="1" style="stop-color:#CDD1D4"/>
			</linearGradient>
			<path class="st71" d="M68.2,40.4c0,0,0.1,0,0.1,0l1.1,0.6v0.1l-4.3,8.1l-6.1-3.4L68.2,40.4z"/>
			
				<linearGradient id="SVGID_45_" gradientUnits="userSpaceOnUse" x1="218.1685" y1="200.2063" x2="219.7535" y2="197.4481" gradientTransform="matrix(-1 0 0 -1 281.55 248)">
				<stop  offset="0" style="stop-color:#EAEBED"/>
				<stop  offset="3.000000e-02" style="stop-color:#EBECEE"/>
				<stop  offset="0.35" style="stop-color:#EDEEF0"/>
				<stop  offset="0.56" style="stop-color:#E0E3E5"/>
				<stop  offset="0.94" style="stop-color:#BFC5C8"/>
				<stop  offset="1" style="stop-color:#B9BFC2"/>
			</linearGradient>
			<path class="st72" d="M54.5,43.3c0.4-0.3,0.7-0.2,1.1,0.1l10.2,5.9c0.4,0.3,1.1,0.7,1.5,1.1c1.7,1.5,4,3.8,3.9,4
				c-0.3,0.5-3.8-0.7-8.5-3.3l-6.3-3.5l-1.9-1.1L54,44.9C53.9,44.3,54.1,43.7,54.5,43.3z"/>
			<path class="st1" d="M47.2,52.6l1.1,0.6h0.1l14.5-2.6v0.2l-14.5,2.6h-0.1l-1-0.6l0,0L47.2,52.6C47.3,52.6,47.3,52.6,47.2,52.6z"
				/>
			<path class="st4" d="M47.2,52.5l9.4-5.4l6.3,3.5l-14.5,2.6h-0.1l-1.1-0.6C47.2,52.7,47.2,52.6,47.2,52.5z"/>
			<path class="st1" d="M48.9,47.4l1,0.6H50l5.3-1.6v0.3L50,48.3h-0.1l-1-0.6l0,0L48.9,47.4C48.9,47.4,48.9,47.4,48.9,47.4z"/>
			<path class="st4" d="M55.3,46.4L50,48h-0.1l-1-0.6c0,0,0-0.1,0-0.1l4.1-2.4h0.9L55.3,46.4z"/>
			<path class="st4" d="M54.8,38.4C54.8,38.4,54.8,38.4,54.8,38.4L54.8,38.4l0.5,0.5c0.1,0.2,0.2,0.4,0.3,0.6l1.8,4.7l1.3,1.1
				l-0.2,0.1l-1.2-1.1l-1.8-4.7c-0.1-0.2-0.2-0.4-0.3-0.6l-0.4-0.6l0,0c0,0,0,0-0.1,0L54.8,38.4z"/>
			<path class="st3" d="M54.6,38.6C54.6,38.5,54.6,38.5,54.6,38.6L54.6,38.6l0.5,0.5c0.1,0.2,0.2,0.4,0.3,0.6l1.8,4.7l1.3,1.1
				l-4-2.3L54.6,38.6z"/>
			<path class="st62" d="M66.2,49.3c1.5,0.7,2.8,1.8,3.6,3.3c0.7,1.2-3.7-1.3-4.5-1.8c-0.4-0.3-0.4-0.9,0-1.3
				C65.5,49.3,65.9,49.2,66.2,49.3z"/>
			<path class="st62" d="M215.5,94.3c-0.2-0.1-0.3-0.3-0.6-0.1c-0.2,0.1-0.5,0.7-0.4,0.9l0,0c0.1,0.1,0.2,0.2,0.3,0.2
				c-0.3-0.2,0.1,0.3,0.5-0.2S215.5,94.3,215.5,94.3z"/>
			<rect x="215.2" y="92.5" class="st63" width="0.5" height="2.6"/>
			<path class="st62" d="M216.1,94.6c-0.2-0.1-0.3-0.3-0.6-0.1c-0.2,0.1-0.5,0.7-0.4,0.9l0,0c0.1,0.1,0.2,0.2,0.3,0.2
				c-0.3-0.2,0.1,0.3,0.5-0.2S216.1,94.6,216.1,94.6z"/>
			<path class="st62" d="M228.2,93.3c-0.2-0.1-0.3-0.3-0.6-0.1s-0.5,0.7-0.4,0.9l0,0c0.1,0.1,0.2,0.2,0.3,0.2
				c-0.3-0.2,0.1,0.3,0.5-0.2C228.5,93.6,228.2,93.3,228.2,93.3z"/>
			<rect x="227.9" y="91.6" class="st63" width="0.5" height="2.6"/>
			<path class="st62" d="M228.7,93.6c-0.2-0.1-0.3-0.3-0.6-0.1c-0.2,0.1-0.5,0.7-0.4,0.9l0,0c0.1,0.1,0.2,0.2,0.3,0.2
				c-0.3-0.2,0.1,0.3,0.5-0.2C229.1,93.9,228.7,93.6,228.7,93.6z"/>
			<path class="st62" d="M216.6,86.6c-0.2-0.1-0.3-0.3-0.6-0.1c-0.2,0.1-0.5,0.7-0.4,0.9l0,0c0.1,0.1,0.2,0.2,0.3,0.2
				c-0.3-0.2,0.1,0.3,0.5-0.2C216.9,86.9,216.6,86.6,216.6,86.6z"/>
			<rect x="216.3" y="84.9" class="st63" width="0.5" height="2.6"/>
			<path class="st62" d="M217.2,87c-0.2-0.1-0.3-0.3-0.6-0.1c-0.2,0.1-0.5,0.7-0.4,0.9l0,0c0.1,0.1,0.2,0.2,0.3,0.2
				c-0.3-0.2,0.1,0.3,0.5-0.2C217.5,87.2,217.2,87,217.2,87z"/>
			<polygon class="st1" points="222.4,82.6 222.4,82.8 225.3,85.9 225.3,85.7 			"/>
			
				<linearGradient id="SVGID_46_" gradientUnits="userSpaceOnUse" x1="223.9181" y1="166.3124" x2="225.8707" y2="162.9357" gradientTransform="matrix(1 0 0 -1 0 248)">
				<stop  offset="0" style="stop-color:#EDEEF0"/>
				<stop  offset="0.52" style="stop-color:#EBECEE"/>
				<stop  offset="0.75" style="stop-color:#E4E6E8"/>
				<stop  offset="0.91" style="stop-color:#D7DADD"/>
				<stop  offset="1" style="stop-color:#CDD1D4"/>
			</linearGradient>
			<path class="st73" d="M227.4,84.2l-3.8-2.2c0,0-0.1,0-0.1,0l-1,0.6v0.1l2.7,2.9L227.4,84.2z"/>
			<polygon class="st1" points="213.4,81.7 213.4,81.9 217.8,90.2 217.8,90 			"/>
			
				<linearGradient id="SVGID_47_" gradientUnits="userSpaceOnUse" x1="216.133" y1="167.9533" x2="220.7448" y2="159.9744" gradientTransform="matrix(1 0 0 -1 0 248)">
				<stop  offset="0" style="stop-color:#EDEEF0"/>
				<stop  offset="0.52" style="stop-color:#EBECEE"/>
				<stop  offset="0.75" style="stop-color:#E4E6E8"/>
				<stop  offset="0.91" style="stop-color:#D7DADD"/>
				<stop  offset="1" style="stop-color:#CDD1D4"/>
			</linearGradient>
			<path class="st74" d="M214.6,81c0,0-0.1,0-0.1,0l-1.1,0.6v0.1l4.3,8.1l6.1-3.5L214.6,81z"/>
			
				<linearGradient id="SVGID_48_" gradientUnits="userSpaceOnUse" x1="219.4306" y1="159.618" x2="221.0246" y2="156.8599" gradientTransform="matrix(1 0 0 -1 0 248)">
				<stop  offset="0" style="stop-color:#EAEBED"/>
				<stop  offset="3.000000e-02" style="stop-color:#EBECEE"/>
				<stop  offset="0.35" style="stop-color:#EDEEF0"/>
				<stop  offset="0.56" style="stop-color:#E0E3E5"/>
				<stop  offset="0.94" style="stop-color:#BFC5C8"/>
				<stop  offset="1" style="stop-color:#B9BFC2"/>
			</linearGradient>
			<path class="st75" d="M228.3,83.9c-0.4-0.3-0.7-0.2-1.1,0.1L217,89.8c-0.4,0.3-1.1,0.7-1.5,1.1c-1.7,1.5-4,3.8-3.9,4
				c0.3,0.5,3.8-0.7,8.5-3.3l6.3-3.5l2-1.1l0.5-1.4C229,84.9,228.7,84.3,228.3,83.9z"/>
			<path class="st1" d="M235.6,93.2l-1.1,0.6h-0.1l-14.5-2.6v0.2l14.5,2.6h0.1l1.1-0.6l0,0V93.2L235.6,93.2z"/>
			<path class="st4" d="M235.6,93.1l-9.4-5.4l-6.3,3.5l14.5,2.6h0.1l1.1-0.6C235.6,93.3,235.6,93.2,235.6,93.1z"/>
			<path class="st1" d="M233.9,88l-1,0.6h-0.1l-5.3-1.7v0.2l5.3,1.6h0.1l1-0.6l0,0V88C233.9,88,233.9,88,233.9,88z"/>
			<path class="st4" d="M227.5,86.9l5.3,1.6h0.1l1-0.6c0,0,0-0.1,0-0.1l-4.1-2.4h-0.9L227.5,86.9z"/>
			<path class="st4" d="M228,79C228,79,228,79,228,79L228,79l-0.5,0.5c-0.1,0.2-0.2,0.4-0.3,0.6l-1.8,4.7L224,86l0.2,0.1l1.3-1.1
				l1.8-4.7c0.1-0.2,0.2-0.4,0.4-0.5l0.4-0.5l0,0c0,0,0,0,0.1,0L228,79z"/>
			<path class="st3" d="M228.2,79.2C228.2,79.1,228.2,79.1,228.2,79.2L228.2,79.2l-0.6,0.5c-0.1,0.2-0.2,0.4-0.3,0.6l-1.8,4.7
				l-1.3,1.1l4-2.3L228.2,79.2z"/>
			<path class="st62" d="M216.6,89.9c-1.5,0.7-2.8,1.8-3.6,3.3c-0.7,1.2,3.7-1.3,4.5-1.8c0.4-0.3,0.4-0.9,0-1.3
				C217.3,89.9,216.9,89.8,216.6,89.9z"/>
			<path class="st62" d="M192.5,81c-0.2-0.1-0.3-0.3-0.6-0.1c-0.2,0.1-0.5,0.7-0.4,0.9l0,0c0.1,0.1,0.2,0.2,0.3,0.2
				c-0.3-0.2,0.1,0.3,0.5-0.2C192.9,81.2,192.5,81,192.5,81z"/>
			<rect x="192.3" y="79.2" class="st63" width="0.5" height="2.6"/>
			<path class="st62" d="M193.1,81.3c-0.2-0.1-0.3-0.3-0.6-0.1c-0.2,0.1-0.5,0.7-0.4,0.9l0,0c0.1,0.1,0.2,0.2,0.3,0.2
				c-0.3-0.2,0.1,0.3,0.5-0.2C193.4,81.6,193.1,81.3,193.1,81.3z"/>
			<path class="st62" d="M205.2,80c-0.2-0.1-0.3-0.3-0.6-0.1c-0.2,0.1-0.5,0.7-0.4,0.9l0,0c0.1,0.1,0.2,0.2,0.3,0.2
				c-0.3-0.2,0.1,0.3,0.5-0.2C205.5,80.3,205.2,80,205.2,80z"/>
			<rect x="204.9" y="78.3" class="st63" width="0.5" height="2.6"/>
			<path class="st62" d="M205.8,80.4c-0.2-0.1-0.3-0.3-0.6-0.1c-0.2,0.1-0.5,0.7-0.4,0.9l0,0c0.1,0.1,0.2,0.2,0.3,0.2
				c-0.3-0.2,0.1,0.3,0.5-0.2C206.1,80.6,205.8,80.4,205.8,80.4z"/>
			<path class="st62" d="M193.6,73.4c-0.2-0.1-0.3-0.3-0.6-0.1c-0.2,0.1-0.5,0.7-0.4,0.9l0,0c0.1,0.1,0.2,0.2,0.3,0.2
				c-0.3-0.2,0.1,0.3,0.5-0.2C193.9,73.6,193.6,73.4,193.6,73.4z"/>
			<rect x="193.3" y="71.6" class="st63" width="0.5" height="2.6"/>
			<path class="st62" d="M194.2,73.7c-0.2-0.1-0.3-0.3-0.6-0.1c-0.2,0.1-0.5,0.7-0.4,0.9l0,0c0.1,0.1,0.2,0.2,0.3,0.2
				c-0.3-0.2,0.1,0.3,0.5-0.2C194.5,74,194.2,73.7,194.2,73.7z"/>
			<polygon class="st1" points="199.4,69.3 199.4,69.6 202.3,72.6 202.3,72.4 			"/>
			
				<linearGradient id="SVGID_49_" gradientUnits="userSpaceOnUse" x1="200.9496" y1="179.5946" x2="202.8941" y2="176.2165" gradientTransform="matrix(1 0 0 -1 0 248)">
				<stop  offset="0" style="stop-color:#EDEEF0"/>
				<stop  offset="0.52" style="stop-color:#EBECEE"/>
				<stop  offset="0.75" style="stop-color:#E4E6E8"/>
				<stop  offset="0.91" style="stop-color:#D7DADD"/>
				<stop  offset="1" style="stop-color:#CDD1D4"/>
			</linearGradient>
			<path class="st76" d="M204.4,70.9l-3.8-2.2c0,0-0.1,0-0.1,0l-1,0.6v0.1l2.7,2.9L204.4,70.9z"/>
			<polygon class="st1" points="190.4,68.4 190.4,68.7 194.8,76.9 194.8,76.7 			"/>
			
				<linearGradient id="SVGID_50_" gradientUnits="userSpaceOnUse" x1="193.1326" y1="181.217" x2="197.7463" y2="173.2348" gradientTransform="matrix(1 0 0 -1 0 248)">
				<stop  offset="0" style="stop-color:#EDEEF0"/>
				<stop  offset="0.52" style="stop-color:#EBECEE"/>
				<stop  offset="0.75" style="stop-color:#E4E6E8"/>
				<stop  offset="0.91" style="stop-color:#D7DADD"/>
				<stop  offset="1" style="stop-color:#CDD1D4"/>
			</linearGradient>
			<path class="st77" d="M191.6,67.7c0,0-0.1,0-0.1,0l-1.1,0.6v0.1l4.3,8.1l6.1-3.5L191.6,67.7z"/>
			
				<linearGradient id="SVGID_51_" gradientUnits="userSpaceOnUse" x1="196.4111" y1="172.8713" x2="198.0051" y2="170.1132" gradientTransform="matrix(1 0 0 -1 0 248)">
				<stop  offset="0" style="stop-color:#EAEBED"/>
				<stop  offset="3.000000e-02" style="stop-color:#EBECEE"/>
				<stop  offset="0.35" style="stop-color:#EDEEF0"/>
				<stop  offset="0.56" style="stop-color:#E0E3E5"/>
				<stop  offset="0.94" style="stop-color:#BFC5C8"/>
				<stop  offset="1" style="stop-color:#B9BFC2"/>
			</linearGradient>
			<path class="st78" d="M205.2,70.6c-0.4-0.3-0.7-0.2-1.1,0.1l-10.2,5.9c-0.4,0.3-1.1,0.7-1.5,1.1c-1.7,1.5-4,3.8-3.9,4
				c0.3,0.5,3.8-0.7,8.5-3.3l6.3-3.5l1.9-1.1l0.5-1.4C205.9,71.7,205.7,71,205.2,70.6z"/>
			<path class="st1" d="M212.6,79.9l-1.1,0.6h-0.1l-14.5-2.6v0.2l14.5,2.6h0.1l1.1-0.6l0,0L212.6,79.9C212.6,80,212.6,80,212.6,79.9
				z"/>
			<path class="st4" d="M212.6,79.8l-9.4-5.4l-6.3,3.5l14.5,2.6h0.1l1.1-0.6C212.6,80,212.6,79.9,212.6,79.8z"/>
			<path class="st1" d="M210.9,74.7l-1,0.6h-0.1l-5.3-1.6v0.2l5.3,1.6h0.1l1-0.6l0,0V74.7L210.9,74.7z"/>
			<path class="st4" d="M204.5,73.7l5.3,1.6h0.1l1-0.6c0,0,0-0.1,0-0.1l-4.1-2.4h-0.9L204.5,73.7z"/>
			<path class="st4" d="M205,65.8C205,65.7,205,65.7,205,65.8L205,65.8l-0.5,0.5c-0.1,0.2-0.2,0.4-0.3,0.6l-1.8,4.7l-1.3,1.1
				l0.2,0.1l1.2-1.1l1.8-4.7c0.1-0.2,0.2-0.4,0.3-0.6l0.4-0.5l0,0c0,0,0,0,0.1,0L205,65.8z"/>
			<path class="st3" d="M205.2,65.9C205.2,65.9,205.2,65.8,205.2,65.9L205.2,65.9l-0.5,0.5c-0.1,0.2-0.2,0.4-0.3,0.6l-1.8,4.7
				l-1.3,1.1l3.9-2.3V65.9z"/>
			<path class="st62" d="M193.6,76.7c-1.5,0.7-2.8,1.8-3.6,3.3c-0.7,1.2,3.7-1.3,4.5-1.8c0.4-0.3,0.4-0.9,0-1.3
				C194.3,76.6,193.9,76.5,193.6,76.7z"/>
			<path class="st62" d="M169.6,67.7c-0.2-0.1-0.3-0.3-0.6-0.1c-0.2,0.1-0.5,0.7-0.4,0.9l0,0c0.1,0.1,0.2,0.2,0.3,0.2
				c-0.3-0.2,0.1,0.3,0.5-0.2C169.9,68,169.6,67.7,169.6,67.7z"/>
			<rect x="169.3" y="66" class="st63" width="0.5" height="2.6"/>
			<path class="st62" d="M170.1,68c-0.2-0.1-0.3-0.3-0.6-0.1c-0.2,0.1-0.5,0.7-0.4,0.9l0,0c0.1,0.1,0.2,0.2,0.3,0.2
				c-0.3-0.2,0.1,0.3,0.5-0.2C170.4,68.3,170.1,68,170.1,68z"/>
			<path class="st62" d="M182.2,66.8c-0.2-0.1-0.3-0.3-0.6-0.1c-0.2,0.1-0.5,0.7-0.4,0.9l0,0c0.1,0.1,0.2,0.2,0.3,0.2
				c-0.3-0.2,0.1,0.3,0.5-0.2S182.2,66.8,182.2,66.8z"/>
			<rect x="181.9" y="65" class="st63" width="0.5" height="2.6"/>
			<path class="st62" d="M182.8,67.1c-0.2-0.1-0.3-0.3-0.6-0.1c-0.2,0.1-0.5,0.7-0.4,0.9l0,0c0.1,0.1,0.2,0.2,0.3,0.2
				c-0.3-0.2,0.1,0.3,0.5-0.2C183.1,67.4,182.8,67.1,182.8,67.1z"/>
			<path class="st62" d="M170.6,60.1c-0.2-0.1-0.3-0.3-0.6-0.1c-0.2,0.1-0.5,0.7-0.4,0.9l0,0c0.1,0.1,0.2,0.2,0.3,0.2
				c-0.3-0.2,0.1,0.3,0.5-0.2C171,60.4,170.6,60.1,170.6,60.1z"/>
			<rect x="170.4" y="58.3" class="st63" width="0.5" height="2.6"/>
			<path class="st62" d="M171.2,60.4c-0.2-0.1-0.3-0.3-0.6-0.1c-0.2,0.1-0.5,0.7-0.4,0.9l0,0c0.1,0.1,0.2,0.2,0.3,0.2
				c-0.3-0.2,0.1,0.3,0.5-0.2C171.5,60.7,171.2,60.4,171.2,60.4z"/>
			<polygon class="st1" points="176.5,56.1 176.4,56.3 179.3,59.4 179.3,59.1 			"/>
			
				<linearGradient id="SVGID_52_" gradientUnits="userSpaceOnUse" x1="177.9623" y1="192.8658" x2="179.9067" y2="189.4877" gradientTransform="matrix(1 0 0 -1 0 248)">
				<stop  offset="0" style="stop-color:#EDEEF0"/>
				<stop  offset="0.52" style="stop-color:#EBECEE"/>
				<stop  offset="0.75" style="stop-color:#E4E6E8"/>
				<stop  offset="0.91" style="stop-color:#D7DADD"/>
				<stop  offset="1" style="stop-color:#CDD1D4"/>
			</linearGradient>
			<path class="st79" d="M181.4,57.6l-3.8-2.2c0,0-0.1,0-0.1,0l-1,0.6v0.1l2.7,2.9L181.4,57.6z"/>
			<polygon class="st1" points="167.4,55.1 167.4,55.4 171.8,63.6 171.8,63.4 			"/>
			
				<linearGradient id="SVGID_53_" gradientUnits="userSpaceOnUse" x1="170.1583" y1="194.4958" x2="174.7701" y2="186.5169" gradientTransform="matrix(1 0 0 -1 0 248)">
				<stop  offset="0" style="stop-color:#EDEEF0"/>
				<stop  offset="0.52" style="stop-color:#EBECEE"/>
				<stop  offset="0.75" style="stop-color:#E4E6E8"/>
				<stop  offset="0.91" style="stop-color:#D7DADD"/>
				<stop  offset="1" style="stop-color:#CDD1D4"/>
			</linearGradient>
			<path class="st80" d="M168.6,54.5c0,0-0.1,0-0.1,0l-1.1,0.6v0.1l4.3,8.1l6.1-3.5L168.6,54.5z"/>
			
				<linearGradient id="SVGID_54_" gradientUnits="userSpaceOnUse" x1="173.4443" y1="186.1539" x2="175.0383" y2="183.3958" gradientTransform="matrix(1 0 0 -1 0 248)">
				<stop  offset="0" style="stop-color:#EAEBED"/>
				<stop  offset="3.000000e-02" style="stop-color:#EBECEE"/>
				<stop  offset="0.35" style="stop-color:#EDEEF0"/>
				<stop  offset="0.56" style="stop-color:#E0E3E5"/>
				<stop  offset="0.94" style="stop-color:#BFC5C8"/>
				<stop  offset="1" style="stop-color:#B9BFC2"/>
			</linearGradient>
			<path class="st81" d="M182.3,57.3c-0.4-0.3-0.7-0.2-1.1,0.1L171,63.3c-0.4,0.3-1.1,0.7-1.5,1.1c-1.7,1.5-4,3.8-3.9,4
				c0.3,0.5,3.8-0.7,8.5-3.3l6.3-3.5l1.9-1.1l0.5-1.4C182.9,58.4,182.7,57.8,182.3,57.3z"/>
			<path class="st1" d="M189.6,66.7l-1.1,0.6h-0.1l-14.5-2.6v0.2l14.5,2.6h0.1l1.1-0.6l0,0L189.6,66.7
				C189.6,66.7,189.6,66.7,189.6,66.7z"/>
			<path class="st4" d="M189.6,66.6l-9.4-5.4l-6.3,3.5l14.5,2.6h0.1l1.1-0.6C189.6,66.7,189.6,66.6,189.6,66.6z"/>
			<path class="st1" d="M187.9,61.5l-1,0.6h-0.1l-5.3-1.6v0.2l5.3,1.6h0.1l1-0.6l0,0V61.5L187.9,61.5z"/>
			<path class="st4" d="M181.5,60.4l5.3,1.6h0.1l1-0.6c0,0,0-0.1,0-0.1l-4.1-2.4h-0.9L181.5,60.4z"/>
			<path class="st4" d="M182,52.5C182,52.5,182,52.5,182,52.5L182,52.5l-0.5,0.5c-0.1,0.2-0.2,0.4-0.3,0.6l-1.8,4.7l-1.3,1.1
				l0.2,0.1l1.3-1.1l1.8-4.7c0.1-0.2,0.2-0.4,0.3-0.6l0.4-0.5l0,0c0,0,0,0,0.1,0L182,52.5z"/>
			<path class="st3" d="M182.2,52.6C182.2,52.6,182.2,52.6,182.2,52.6L182.2,52.6l-0.5,0.5c-0.1,0.2-0.2,0.4-0.3,0.6l-1.8,4.7
				l-1.3,1.1l4-2.3L182.2,52.6z"/>
			<path class="st62" d="M170.6,63.4c-1.5,0.7-2.8,1.8-3.6,3.3c-0.7,1.2,3.7-1.3,4.5-1.8c0.4-0.3,0.4-0.9,0-1.3
				C171.3,63.4,170.9,63.3,170.6,63.4z"/>
			<path class="st62" d="M146.6,54.4c-0.2-0.1-0.3-0.3-0.6-0.1c-0.2,0.1-0.5,0.7-0.4,0.9l0,0c0.1,0.1,0.2,0.2,0.3,0.2
				c-0.3-0.2,0.1,0.3,0.5-0.2C146.9,54.7,146.6,54.4,146.6,54.4z"/>
			<rect x="146.3" y="52.7" class="st63" width="0.5" height="2.6"/>
			<path class="st62" d="M147.1,54.8c-0.2-0.1-0.3-0.3-0.6-0.1c-0.2,0.1-0.5,0.7-0.4,0.9l0,0c0.1,0.1,0.2,0.2,0.3,0.2
				c-0.3-0.2,0.1,0.3,0.5-0.2C147.5,55,147.1,54.8,147.1,54.8z"/>
			<path class="st62" d="M159.2,53.5c-0.2-0.1-0.3-0.3-0.6-0.1c-0.2,0.1-0.5,0.7-0.4,0.9l0,0c0.1,0.1,0.2,0.2,0.3,0.2
				c-0.3-0.2,0.1,0.3,0.5-0.2C159.5,53.8,159.2,53.5,159.2,53.5z"/>
			<rect x="158.9" y="51.7" class="st63" width="0.5" height="2.6"/>
			<path class="st62" d="M159.8,53.8c-0.2-0.1-0.3-0.3-0.6-0.1c-0.2,0.1-0.5,0.7-0.4,0.9l0,0c0.1,0.1,0.2,0.2,0.3,0.2
				c-0.3-0.2,0.1,0.3,0.5-0.2S159.8,53.8,159.8,53.8z"/>
			<path class="st62" d="M147.7,46.8c-0.2-0.1-0.3-0.3-0.6-0.1c-0.2,0.1-0.5,0.7-0.4,0.9l0,0c0.1,0.1,0.2,0.2,0.3,0.2
				c-0.3-0.2,0.1,0.3,0.5-0.2S147.7,46.8,147.7,46.8z"/>
			<rect x="147.4" y="45.1" class="st63" width="0.5" height="2.6"/>
			<path class="st62" d="M148.2,47.2c-0.2-0.1-0.3-0.3-0.6-0.1c-0.2,0.1-0.5,0.7-0.4,0.9l0,0c0.1,0.1,0.2,0.2,0.3,0.2
				c-0.3-0.2,0.1,0.3,0.5-0.2C148.5,47.4,148.2,47.2,148.2,47.2z"/>
			<polygon class="st1" points="153.5,42.8 153.5,43 156.3,46.1 156.3,45.9 			"/>
			
				<linearGradient id="SVGID_55_" gradientUnits="userSpaceOnUse" x1="154.9793" y1="206.1396" x2="156.9225" y2="202.7636" gradientTransform="matrix(1 0 0 -1 0 248)">
				<stop  offset="0" style="stop-color:#EDEEF0"/>
				<stop  offset="0.52" style="stop-color:#EBECEE"/>
				<stop  offset="0.75" style="stop-color:#E4E6E8"/>
				<stop  offset="0.91" style="stop-color:#D7DADD"/>
				<stop  offset="1" style="stop-color:#CDD1D4"/>
			</linearGradient>
			<path class="st82" d="M158.5,44.4l-3.8-2.2c0,0-0.1,0-0.1,0l-1,0.6v0.1l2.7,2.9L158.5,44.4z"/>
			<polygon class="st1" points="144.4,41.9 144.4,42.1 148.8,50.4 148.8,50.1 			"/>
			
				<linearGradient id="SVGID_56_" gradientUnits="userSpaceOnUse" x1="147.1553" y1="207.7582" x2="151.7671" y2="199.7883" gradientTransform="matrix(1 0 0 -1 0 248)">
				<stop  offset="0" style="stop-color:#EDEEF0"/>
				<stop  offset="0.52" style="stop-color:#EBECEE"/>
				<stop  offset="0.75" style="stop-color:#E4E6E8"/>
				<stop  offset="0.91" style="stop-color:#D7DADD"/>
				<stop  offset="1" style="stop-color:#CDD1D4"/>
			</linearGradient>
			<path class="st83" d="M145.6,41.2c0,0-0.1,0-0.1,0l-1.1,0.6v0.1l4.3,8.1l6.1-3.5L145.6,41.2z"/>
			
				<linearGradient id="SVGID_57_" gradientUnits="userSpaceOnUse" x1="150.4635" y1="199.4289" x2="152.0574" y2="196.6707" gradientTransform="matrix(1 0 0 -1 0 248)">
				<stop  offset="0" style="stop-color:#EAEBED"/>
				<stop  offset="3.000000e-02" style="stop-color:#EBECEE"/>
				<stop  offset="0.35" style="stop-color:#EDEEF0"/>
				<stop  offset="0.56" style="stop-color:#E0E3E5"/>
				<stop  offset="0.94" style="stop-color:#BFC5C8"/>
				<stop  offset="1" style="stop-color:#B9BFC2"/>
			</linearGradient>
			<path class="st84" d="M159.3,44.1c-0.4-0.3-0.7-0.2-1.1,0.1L148,50c-0.4,0.3-1.1,0.7-1.5,1.1c-1.7,1.5-4,3.8-3.9,4
				c0.3,0.5,3.8-0.7,8.5-3.3l6.3-3.5l1.9-1.1l0.5-1.4C160,45.1,159.8,44.5,159.3,44.1z"/>
			<path class="st1" d="M166.6,53.4l-1.1,0.6h-0.1l-14.5-2.6v0.2l14.5,2.6h0.1l1.1-0.6l0,0V53.4L166.6,53.4z"/>
			<path class="st4" d="M166.6,53.3l-9.4-5.4l-6.3,3.5l14.5,2.6h0.1l1.1-0.6C166.6,53.4,166.6,53.3,166.6,53.3z"/>
			<path class="st1" d="M164.9,48.2l-1,0.6h-0.1l-5.3-1.6v0.2l5.3,1.6h0.1l1-0.6l0,0V48.2C164.9,48.2,164.9,48.2,164.9,48.2z"/>
			<path class="st4" d="M158.5,47.1l5.3,1.6h0.1l1-0.6c0,0,0-0.1,0-0.1l-4.1-2.4h-0.9L158.5,47.1z"/>
			<path class="st4" d="M159,39.2C159,39.2,159,39.2,159,39.2L159,39.2l-0.5,0.5c-0.1,0.2-0.2,0.4-0.3,0.6l-1.8,4.7l-1.4,1.2
				l0.2,0.1l1.3-1.1l1.8-4.7c0.1-0.2,0.2-0.4,0.3-0.6l0.4-0.5l0,0c0,0,0,0,0.1,0L159,39.2z"/>
			<path class="st3" d="M159.2,39.4C159.2,39.3,159.2,39.3,159.2,39.4L159.2,39.4l-0.5,0.5c-0.1,0.2-0.2,0.4-0.3,0.6l-1.8,4.7
				l-1.3,1.1l4-2.3L159.2,39.4z"/>
			<path class="st62" d="M147.6,50.1c-1.5,0.7-2.8,1.8-3.6,3.3c-0.7,1.2,3.7-1.3,4.5-1.8c0.4-0.3,0.4-0.9,0-1.3
				C148.3,50.1,148,50,147.6,50.1z"/>
			<path class="st62" d="M123.6,41.2c-0.2-0.1-0.3-0.3-0.6-0.1c-0.2,0.1-0.5,0.7-0.4,0.9l0,0c0.1,0.1,0.2,0.2,0.3,0.2
				c-0.3-0.2,0.1,0.3,0.5-0.2S123.6,41.2,123.6,41.2z"/>
			<rect x="123.3" y="39.4" class="st63" width="0.5" height="2.6"/>
			<path class="st62" d="M124.2,41.5c-0.2-0.1-0.3-0.3-0.6-0.1c-0.2,0.1-0.5,0.7-0.4,0.9l0,0c0.1,0.1,0.2,0.2,0.3,0.2
				c-0.3-0.2,0.1,0.3,0.5-0.2C124.5,41.8,124.2,41.5,124.2,41.5z"/>
			<path class="st62" d="M136.2,40.2c-0.2-0.1-0.3-0.3-0.6-0.1c-0.2,0.1-0.5,0.7-0.4,0.9l0,0c0.1,0.1,0.2,0.2,0.3,0.2
				c-0.3-0.2,0.1,0.3,0.5-0.2C136.5,40.5,136.2,40.2,136.2,40.2z"/>
			<rect x="135.9" y="38.5" class="st63" width="0.5" height="2.6"/>
			<path class="st62" d="M136.8,40.6c-0.2-0.1-0.3-0.3-0.6-0.1c-0.2,0.1-0.5,0.7-0.4,0.9l0,0c0.1,0.1,0.2,0.2,0.3,0.2
				c-0.3-0.2,0.1,0.3,0.5-0.2C137.1,40.8,136.8,40.6,136.8,40.6z"/>
			<path class="st62" d="M124.6,33.6c-0.2-0.1-0.3-0.3-0.6-0.1c-0.2,0.1-0.5,0.7-0.4,0.9l0,0c0.1,0.1,0.2,0.2,0.3,0.2
				c-0.3-0.2,0.1,0.3,0.5-0.2C125,33.8,124.6,33.6,124.6,33.6z"/>
			<rect x="124.4" y="31.8" class="st63" width="0.5" height="2.6"/>
			<path class="st62" d="M125.2,33.9c-0.2-0.1-0.3-0.3-0.6-0.1c-0.2,0.1-0.5,0.7-0.4,0.9l0,0c0.1,0.1,0.2,0.2,0.3,0.2
				c-0.3-0.2,0.1,0.3,0.5-0.2C125.6,34.1,125.2,33.9,125.2,33.9z"/>
			<polygon class="st1" points="130.5,29.5 130.5,29.8 133.3,32.8 133.3,32.6 			"/>
			
				<linearGradient id="SVGID_58_" gradientUnits="userSpaceOnUse" x1="131.9911" y1="219.4111" x2="133.9355" y2="216.033" gradientTransform="matrix(1 0 0 -1 0 248)">
				<stop  offset="0" style="stop-color:#EDEEF0"/>
				<stop  offset="0.52" style="stop-color:#EBECEE"/>
				<stop  offset="0.75" style="stop-color:#E4E6E8"/>
				<stop  offset="0.91" style="stop-color:#D7DADD"/>
				<stop  offset="1" style="stop-color:#CDD1D4"/>
			</linearGradient>
			<path class="st85" d="M135.5,31.1l-3.8-2.2c0,0-0.1,0-0.1,0l-1,0.6v0.1l2.7,2.9L135.5,31.1z"/>
			<polygon class="st1" points="121.4,28.6 121.4,28.8 125.8,37.1 125.8,36.9 			"/>
			
				<linearGradient id="SVGID_59_" gradientUnits="userSpaceOnUse" x1="124.1769" y1="221.0363" x2="128.7887" y2="213.0663" gradientTransform="matrix(1 0 0 -1 0 248)">
				<stop  offset="0" style="stop-color:#EDEEF0"/>
				<stop  offset="0.52" style="stop-color:#EBECEE"/>
				<stop  offset="0.75" style="stop-color:#E4E6E8"/>
				<stop  offset="0.91" style="stop-color:#D7DADD"/>
				<stop  offset="1" style="stop-color:#CDD1D4"/>
			</linearGradient>
			<path class="st86" d="M122.6,27.9c0,0-0.1,0-0.1,0l-1.1,0.6v0.1l4.3,8.1l6.1-3.5L122.6,27.9z"/>
			
				<linearGradient id="SVGID_60_" gradientUnits="userSpaceOnUse" x1="127.4625" y1="212.6942" x2="129.0565" y2="209.9361" gradientTransform="matrix(1 0 0 -1 0 248)">
				<stop  offset="0" style="stop-color:#EAEBED"/>
				<stop  offset="3.000000e-02" style="stop-color:#EBECEE"/>
				<stop  offset="0.35" style="stop-color:#EDEEF0"/>
				<stop  offset="0.56" style="stop-color:#E0E3E5"/>
				<stop  offset="0.94" style="stop-color:#BFC5C8"/>
				<stop  offset="1" style="stop-color:#B9BFC2"/>
			</linearGradient>
			<path class="st87" d="M136.3,30.8c-0.4-0.3-0.7-0.2-1.1,0.1L125,36.8c-0.4,0.3-1.1,0.7-1.5,1.1c-1.7,1.5-4,3.8-3.9,4
				c0.3,0.5,3.8-0.7,8.5-3.3l6.3-3.5l1.9-1.1l0.5-1.4C137,31.9,136.8,31.2,136.3,30.8z"/>
			<path class="st1" d="M143.6,40.1l-1.1,0.6h-0.1l-14.5-2.6v0.2l14.5,2.6h0.1l1.1-0.6l0,0V40.1L143.6,40.1z"/>
			<path class="st4" d="M143.6,40l-9.4-5.4l-6.3,3.5l14.5,2.6h0.1l1.1-0.6C143.6,40.2,143.6,40.1,143.6,40z"/>
			<path class="st1" d="M141.9,34.9l-1,0.6h-0.1l-5.3-1.6v0.2l5.3,1.6h0.1l1-0.6l0,0V34.9C141.9,34.9,141.9,34.9,141.9,34.9z"/>
			<path class="st4" d="M135.5,33.9l5.3,1.6h0.1l1-0.6c0,0,0-0.1,0-0.1l-4.1-2.4h-0.9L135.5,33.9z"/>
			<path class="st4" d="M136,25.9C136,25.9,136,25.9,136,25.9L136,25.9l-0.5,0.5c-0.1,0.2-0.2,0.4-0.3,0.6l-1.8,4.7l-1.3,1.1
				l0.2,0.1l1.3-1.1l1.8-4.7c0.1-0.2,0.2-0.4,0.3-0.6l0.4-0.5l0,0c0,0,0,0,0.1,0L136,25.9z"/>
			<path class="st3" d="M136.3,26.1C136.3,26,136.3,26,136.3,26.1L136.3,26.1l-0.5,0.5c-0.1,0.2-0.2,0.4-0.3,0.6l-1.8,4.7l-1.3,1.1
				l3.9-2.2V26.1z"/>
			<path class="st62" d="M124.6,36.8c-1.5,0.7-2.8,1.8-3.6,3.3c-0.7,1.2,3.7-1.3,4.5-1.8c0.4-0.3,0.4-0.9,0-1.3
				C125.3,36.8,125,36.7,124.6,36.8z"/>
		</g>
	</g>
</g>
</svg>
