<?xml version="1.0" encoding="utf-8"?>
<!-- Generator: Adobe Illustrator 21.0.0, SVG Export Plug-In . SVG Version: 6.00 Build 0)  -->
<svg version="1.1" id="Camada_1" xmlns="http://www.w3.org/2000/svg" xmlns:xlink="http://www.w3.org/1999/xlink" x="0px" y="0px"
	 viewBox="0 0 400 248" style="enable-background:new 0 0 400 248;" xml:space="preserve">
<style type="text/css">
	.st0{opacity:0.4;fill:#085E75;enable-background:new    ;}
	.st1{fill:#9AA0A4;}
	.st2{opacity:0.5;fill:url(#SVGID_1_);enable-background:new    ;}
	.st3{fill:#B9BFC2;}
	.st4{fill:#EDEEF0;}
	.st5{fill:#30333A;}
	.st6{clip-path:url(#SVGID_3_);}
	.st7{opacity:0.7;}
	.st8{fill:#FFFFFF;}
	.st9{opacity:0.6;fill:#AA3C3C;enable-background:new    ;}
	.st10{fill:#F89442;}
	.st11{fill:#84898C;}
	.st12{fill:url(#SVGID_4_);}
	.st13{fill:#B4B8BB;}
	.st14{fill:#787D7F;}
	.st15{fill:#CBCED0;}
	.st16{opacity:0.4;fill:#9AA0A4;enable-background:new    ;}
	.st17{fill:url(#SVGID_5_);}
	.st18{fill:#9FA5A9;}
	.st19{fill:url(#SVGID_6_);}
	.st20{fill:#C4C4C4;}
	.st21{fill:url(#SVGID_7_);}
	.st22{fill:#DCDCDC;}
	.st23{fill:url(#SVGID_8_);}
	.st24{fill:url(#SVGID_9_);}
	.st25{fill:url(#SVGID_10_);}
	.st26{fill:url(#SVGID_11_);}
	.st27{fill:url(#SVGID_12_);}
	.st28{fill:url(#SVGID_13_);}
	.st29{fill:#C3CACD;}
	.st30{fill:#A3AAAE;}
	.st31{fill:#5F5F60;}
	.st32{fill:url(#SVGID_14_);}
	.st33{fill:#3B3A3A;}
	.st34{fill:url(#SVGID_15_);}
	.st35{fill:url(#SVGID_16_);}
	.st36{fill:url(#SVGID_17_);}
	.st37{fill:url(#SVGID_18_);}
	.st38{fill:url(#SVGID_19_);}
	.st39{fill:#525658;}
	.st40{fill:url(#SVGID_20_);}
	.st41{fill:url(#SVGID_21_);}
	.st42{fill:url(#SVGID_22_);}
	.st43{fill:url(#SVGID_23_);}
	.st44{fill:url(#SVGID_24_);}
	.st45{fill:url(#SVGID_25_);}
	.st46{fill:url(#SVGID_26_);}
	.st47{fill:url(#SVGID_27_);}
	.st48{fill:url(#SVGID_28_);}
	.st49{fill:url(#SVGID_29_);}
	.st50{fill:url(#SVGID_30_);}
	.st51{fill:url(#SVGID_31_);}
	.st52{fill:#202226;}
	.st53{fill:#3D4147;}
	.st54{opacity:0.5;fill:#30333A;enable-background:new    ;}
	.st55{fill:url(#SVGID_32_);}
	.st56{fill:url(#SVGID_33_);}
	.st57{fill:url(#SVGID_34_);}
	.st58{fill:url(#SVGID_35_);}
	.st59{fill:#898E92;}
	.st60{fill:url(#SVGID_36_);}
	.st61{fill:#868B8E;}
	.st62{fill:#222326;}
	.st63{fill:#5D6163;}
	.st64{fill:url(#SVGID_37_);}
	.st65{fill:url(#SVGID_38_);}
	.st66{fill:url(#SVGID_39_);}
	.st67{fill:url(#SVGID_40_);}
	.st68{fill:url(#SVGID_41_);}
	.st69{fill:url(#SVGID_42_);}
	.st70{fill:url(#SVGID_43_);}
	.st71{fill:url(#SVGID_44_);}
	.st72{fill:url(#SVGID_45_);}
	.st73{fill:url(#SVGID_46_);}
	.st74{fill:url(#SVGID_47_);}
	.st75{fill:url(#SVGID_48_);}
	.st76{fill:url(#SVGID_49_);}
	.st77{fill:url(#SVGID_50_);}
	.st78{fill:url(#SVGID_51_);}
	.st79{fill:url(#SVGID_52_);}
	.st80{fill:url(#SVGID_53_);}
	.st81{fill:url(#SVGID_54_);}
	.st82{fill:url(#SVGID_55_);}
	.st83{fill:url(#SVGID_56_);}
	.st84{fill:url(#SVGID_57_);}
	.st85{fill:url(#SVGID_58_);}
	.st86{fill:url(#SVGID_59_);}
	.st87{fill:url(#SVGID_60_);}
</style>
<title>carrier</title>
<g>
	<polygon class="st0" points="61.8,240.1 26,219.3 112.6,162.1 108.2,134 171.5,97.3 195.8,96.8 259.4,60.1 275.8,60.1 308.3,41.3 
		373.6,79.3 365.2,84.2 369,86.4 297.6,127.6 297.8,134.1 262,154.8 253.5,154.8 191.8,190.4 164.4,190.5 	"/>
	<g>
		<g id="Camada_1_1_">
			<g id="_10">
				<g id="_10-2">
					<path class="st1" d="M49,199.1l14.7,16.5c3.6,4,8.9,6,14.3,5.3c53.1-7.8,121.7-45.2,121.7-45.2l91.1-52.1
						c16.6-9.6,45-27.1,56.1-34c2.9-1.8,25-39.7,25-39.7L49,199.1z"/>
					
						<linearGradient id="SVGID_1_" gradientUnits="userSpaceOnUse" x1="204.1668" y1="84.914" x2="160.789" y2="168.8847" gradientTransform="matrix(-1 0 0 1 398.3 8)">
						<stop  offset="0" style="stop-color:#FFFFFF"/>
						<stop  offset="0.19" style="stop-color:#FBFBFB"/>
						<stop  offset="0.39" style="stop-color:#EEEFEF"/>
						<stop  offset="0.6" style="stop-color:#D8DBDC"/>
						<stop  offset="0.81" style="stop-color:#BABEC1"/>
						<stop  offset="1" style="stop-color:#9AA0A4"/>
					</linearGradient>
					<path class="st2" d="M49,199.1l14.7,16.5c3.6,4,8.9,6,14.3,5.3c53.1-7.8,121.7-45.2,121.7-45.2l91.1-52.1
						c16.6-9.6,45-27.1,56.1-34c2.9-1.8,25-39.7,25-39.7L49,199.1z"/>
					<g>
						
							<rect x="223.5" y="147.4" transform="matrix(1 -2.792576e-03 2.792576e-03 1 -0.4142 0.6365)" class="st3" width="8.5" height="2.5"/>
						<polygon class="st3" points="162.4,182.7 162.4,185.2 130.1,185.2 130.1,182.7 						"/>
						<path class="st4" d="M186.6,142.7l0.4,0.3c7.1,4.8,14.7,8.1,21.7,12.8l14.7-8.5h8.5l27.5-15.6c0,0,1.5-14-3-17.7
							c-10-8.2-17.8-1.8-27.9,3.8C214.3,125.7,199.4,132.6,186.6,142.7z"/>
						<path class="st4" d="M123.4,167.1V186l6.8-3.3h32.3L190,167l13.2-7.9c-10.1-7.6-26.9-18.2-33.2-13.4
							C156.4,156.2,138.1,158.5,123.4,167.1z"/>
						<path class="st5" d="M123.7,185.3v-17.9c6.3-3.6,13.4-6.2,20.2-8.6c9.1-3.2,18.6-6.6,26.3-12.6c1.1-0.8,2.5-1.2,3.9-1.1
							c8.2,0,22.1,9.5,28.3,14.1l-12.7,7.5l-27.3,15.6h-32.5L123.7,185.3z"/>
					</g>
					<g>
						<polygon class="st1" points="362.5,63.6 373.6,50 373.6,44.9 362.5,51.4 						"/>
						<polygon class="st1" points="295.1,106.9 366.3,65.8 366.3,53.6 295.1,94.6 						"/>
						<polygon class="st1" points="232,147.4 232,149.9 295.3,113.1 295.3,101 259.4,121.8 259.5,131.7 						"/>
						<polygon class="st5" points="260.9,131.4 260.9,122.6 293.8,103.6 293.8,112.2 						"/>
						<polygon class="st3" points="259.4,121.8 259.5,131.7 251.1,131.7 251,121.8 						"/>
						<polygon class="st3" points="189.9,157 190,167 163,167 162.9,157 						"/>
						<polygon class="st1" points="162.4,182.7 162.4,185.2 223.5,149.9 223.5,147.4 251.1,131.7 251,121.8 189.9,157 190,166.9 
													"/>
						<polygon class="st3" points="61.2,206.3 61.1,208.8 24.7,187.6 24.7,185.1 						"/>
						<polygon class="st3" points="106.5,100.3 106.5,115.5 109.5,135.4 117.3,131.7 115.1,110.1 						"/>
						<polygon class="st1" points="61.2,208.8 61.2,208.8 61.2,208.8 61.3,208.7 130.1,185.2 130.1,182.7 163,167 162.9,157 
							61.2,206.3 61.2,207.5 						"/>
						<polygon class="st4" points="24.7,185.1 61.2,206.3 162.9,157 189.9,157 251,121.8 259.4,121.8 295.3,101.1 295.1,94.6 
							366.3,53.6 362.5,51.4 373.6,44.9 307.8,6.7 272.8,26.9 256.5,26.9 193.5,63.3 169.7,63.7 106.5,100.3 110.9,128.2 						"/>
						<polygon class="st5" points="61.2,205.6 25.8,185 111.5,128.5 107.1,100.6 169.7,64.3 193.8,63.8 256.7,27.5 272.9,27.5 
							305,9 369.7,46.5 361.3,51.4 365.1,53.6 294.5,94.3 294.7,100.7 259.3,121.2 250.9,121.2 189.8,156.4 162.7,156.5 						"/>
					</g>
				</g>
				<g>
					<g>
						<defs>
							<polygon id="SVGID_2_" points="61.2,205.6 25.8,185 111.5,128.5 107.1,100.6 169.7,64.3 193.8,63.8 256.7,27.5 272.9,27.5 
								305,9 369.7,46.5 361.3,51.4 365.1,53.6 294.5,94.3 294.7,100.7 259.3,121.2 250.9,121.2 189.8,156.4 162.7,156.5 							"/>
						</defs>
						<clipPath id="SVGID_3_">
							<use xlink:href="#SVGID_2_"  style="overflow:visible;"/>
						</clipPath>
						<g class="st6">
							<g class="st7">
								<path class="st8" d="M334.3,19.3l-1,0.8l-0.4-0.2l1-0.8L334.3,19.3z M273.3,68.6l-2.1,1.7l0.4,0.2l2.1-1.7L273.3,68.6z
									 M281.5,61.9l-2.1,1.7l0.4,0.2l2.1-1.7L281.5,61.9z M269.2,71.9l-2.1,1.7l0.4,0.2l2.1-1.7L269.2,71.9z M285.6,58.5l-2.1,1.7
									l0.4,0.2l2.1-1.7L285.6,58.5z M248.6,88.7l-2,1.7l0.4,0.2l2.1-1.7L248.6,88.7z M252.8,85.3l-2.1,1.7l0.4,0.2l2.1-1.7
									L252.8,85.3z M265.1,75.3L263,77l0.4,0.2l2.1-1.7L265.1,75.3z M289.7,55.1l-2.1,1.7L288,57l2.1-1.7L289.7,55.1z M261,78.6
									l-2.1,1.7l0.4,0.2l2.1-1.7L261,78.6z M256.9,82l-2.1,1.7l0.4,0.2l2.1-1.7L256.9,82z M322.6,28.3l-2.1,1.7l0.4,0.2l2.1-1.7
									L322.6,28.3z M318.4,31.7l-2,1.7l0.4,0.2l2.1-1.7L318.4,31.7z M314.4,35l-2.1,1.7l0.4,0.2l2.1-1.7L314.4,35z M293.8,51.8
									l-2.1,1.7l0.4,0.2l2.1-1.7L293.8,51.8z M326.7,24.9l-2.1,1.7l0.4,0.2l2.1-1.7L326.7,24.9z M330.8,21.6l-2.1,1.7l0.4,0.2
									l2.1-1.7L330.8,21.6z M310.3,38.3l-2.1,1.7l0.4,0.2l2.1-1.7L310.3,38.3z M302.1,45.1l-2.1,1.7l0.4,0.2l2.1-1.7L302.1,45.1z
									 M298,48.5l-2.1,1.6l0.4,0.2l2.1-1.7L298,48.5z M306.2,41.7l-2.1,1.7l0.4,0.2l2.1-1.7L306.2,41.7z M277.4,65.2l-2.1,1.7
									l0.4,0.2l2.1-1.7L277.4,65.2z M203.5,125.6l-2.1,1.7l0.4,0.2l2.1-1.7L203.5,125.6z M211.7,118.9l-2.1,1.7l0.4,0.2l2.1-1.7
									L211.7,118.9z M207.6,122.2l-2.1,1.7l0.4,0.2l2.1-1.7L207.6,122.2z M199.4,128.9l-2.1,1.7l0.4,0.2l2.1-1.7L199.4,128.9z
									 M187,139l-2.1,1.7l0.4,0.2l2.1-1.7L187,139z M191.1,135.6l-2.1,1.7l0.4,0.2l2.1-1.7L191.1,135.6z M195.3,132.3l-2.1,1.7
									l0.4,0.2l2.1-1.7L195.3,132.3z M224,108.8l-2.1,1.7l0.4,0.2l2.1-1.7L224,108.8z M232.2,102.1l-2.1,1.7l0.4,0.2l2.1-1.7
									L232.2,102.1z M236.3,98.7l-2.1,1.7l0.4,0.2l2.1-1.7L236.3,98.7z M215.8,115.6l-2.1,1.6l0.4,0.2l2.1-1.7L215.8,115.6z
									 M240.4,95.4l-2.1,1.7l0.4,0.2l2.1-1.7L240.4,95.4z M219.9,112.2l-2.1,1.7l0.4,0.2l2.1-1.7L219.9,112.2z M228.1,105.4
									l-2.1,1.7l0.4,0.2l2.1-1.7L228.1,105.4z M244.6,92.1l-2.1,1.7l0.4,0.2l2.1-1.7L244.6,92.1z M180.9,144l0.4,0.2l2.1-1.7
									l-0.5-0.1l0,0l0,0L180.9,144z M166.6,155.8l-2.1,1.7l0.4,0.2l2.1-1.7L166.6,155.8z M170.7,152.3l-2.1,1.8l0.4,0.2l2.1-1.7
									L170.7,152.3z M178.9,145.7l-2.1,1.7l0.4,0.2l2.1-1.7L178.9,145.7z M174.8,149.1l-2.1,1.7l0.4,0.2l2.1-1.7L174.8,149.1z
									 M161.4,159.9l0.4,0.2l1-0.8l-0.4-0.2L161.4,159.9z"/>
								<path class="st8" d="M316.3,15.5l-44,36l1.7,0.7l44-36L316.3,15.5z M278.8,46.7l0.7,0.3l-5.4,4.4l-0.7-0.3L278.8,46.7z
									 M286.2,40.5l0.7,0.3l-5.4,4.4l-0.7-0.3L286.2,40.5z M293.7,34.4l0.7,0.3l-5.4,4.4l-0.7-0.3L293.7,34.4z M301.2,28.3
									l0.7,0.3l-5.4,4.4l-0.7-0.3L301.2,28.3z M308.6,22.2l0.7,0.3l-5.4,4.4l-0.7-0.3L308.6,22.2z M316.1,16.1l0.7,0.3l-5.4,4.4
									l-0.7-0.3L316.1,16.1z"/>
								<path class="st8" d="M344.6,27l-44,35.9l1.7,0.7l44-35.9L344.6,27z M307.1,58.2l0.7,0.3l-5.4,4.4l-0.7-0.3L307.1,58.2z
									 M314.6,52.1l0.7,0.3l-5.4,4.4l-0.7-0.3L314.6,52.1z M322,46l0.7,0.3l-5.4,4.4l-0.7-0.3L322,46z M329.5,39.9l0.7,0.3
									l-5.4,4.4l-0.7-0.3L329.5,39.9z M337,33.8l0.7,0.3l-5.4,4.4l-0.7-0.3L337,33.8z M344.4,27.7l0.7,0.3l-5.4,4.4l-0.7-0.3
									L344.4,27.7z"/>
								<path class="st8" d="M209.6,123.9l-2.5,1.3l-0.3-0.2l2.5-1.3L209.6,123.9z M214.4,121.1l-2.5,1.3l0.3,0.2l2.5-1.3
									L214.4,121.1z M204.3,126.4l-2.5,1.3l0.3,0.2l2.5-1.3L204.3,126.4z M219.4,118.5l-2.5,1.3l0.3,0.2l2.5-1.3L219.4,118.5z
									 M224.4,115.8l-2.5,1.3l0.3,0.2l2.5-1.3L224.4,115.8z M234.5,110.5l-2.5,1.3l0.3,0.2l2.5-1.3L234.5,110.5z M244.5,105.3
									l-2.5,1.3l0.3,0.2l2.5-1.3L244.5,105.3z M229.4,113.2l-2.5,1.3l0.3,0.2l2.5-1.3L229.4,113.2z M199.3,129l-2.5,1.3l0.3,0.2
									l2.5-1.3L199.3,129z M174.2,142.2l-2.5,1.3l0.3,0.2l2.5-1.3L174.2,142.2z M164.2,147.5l-2.5,1.3l0.3,0.2l2.5-1.3
									L164.2,147.5z M169.2,144.8l-2.5,1.3l0.3,0.2l2.5-1.3L169.2,144.8z M194.3,131.7l-2.5,1.3l0.3,0.2l2.5-1.3L194.3,131.7z
									 M149.1,155.4l-2.5,1.3l0.3,0.2l2.5-1.3L149.1,155.4z M154.1,152.8l-2.5,1.3l0.3,0.2l2.5-1.3L154.1,152.8z M159.2,150.1
									l-2.5,1.3l0.3,0.2l2.5-1.3L159.2,150.1z M249.5,102.7L247,104l0.3,0.2l2.5-1.3L249.5,102.7z M189.3,134.3l-2.5,1.3l0.3,0.2
									l2.5-1.3L189.3,134.3z M184.3,136.9l-2.5,1.3l0.3,0.2l2.5-1.3L184.3,136.9z M179.2,139.6l-2.5,1.3l0.3,0.2l2.5-1.3
									L179.2,139.6z M325,53.7l0.4-0.2l-2.4-1.4l-0.4,0.2L325,53.7z M318.4,49.9l1.7,1l0.4-0.2l-1.7-1L318.4,49.9z M319.8,65.7
									l-2.5,1.3l0.3,0.2l2.5-1.3L319.8,65.7z M309.8,70.9l-2.5,1.3l0.3,0.2l2.5-1.3L309.8,70.9z M324.8,63.1l-2.5,1.3l0.3,0.2
									l2.5-1.3L324.8,63.1z M314.8,68.3l-2.5,1.3l0.3,0.2l2.5-1.3L314.8,68.3z M304.7,73.6l-2.5,1.3l0.3,0.2l2.5-1.3L304.7,73.6z
									 M144.1,158l-2.5,1.3l0.3,0.2l2.5-1.3L144.1,158z M333.5,58.6l-1,0.6l0.3,0.2l1.4-0.8l-1.4-0.8l-0.4,0.2L333.5,58.6z
									 M329.9,56.6l0.4-0.2l-2.4-1.4l-0.4,0.2L329.9,56.6z M329.9,60.4l-2.5,1.3l0.3,0.2l2.5-1.3L329.9,60.4z M274.6,89.5
									l-2.4,1.3l0.3,0.2l2.5-1.3L274.6,89.5z M254.5,100l-2.5,1.3l0.3,0.2l2.5-1.3L254.5,100z M264.6,94.8l-2.5,1.3l0.3,0.2
									l2.5-1.3L264.6,94.8z M269.6,92.1l-2.5,1.3l0.3,0.2l2.5-1.3L269.6,92.1z M259.6,97.3l-2.5,1.3l0.3,0.2l2.5-1.3L259.6,97.3z
									 M294.7,78.8l-2.5,1.4l0.3,0.2l2.5-1.3L294.7,78.8z M289.7,81.5l-2.5,1.3l0.3,0.2l2.5-1.3L289.7,81.5z M299.7,76.3l-2.5,1.3
									l0.3,0.2l2.5-1.3L299.7,76.3z M279.6,86.8l-2.5,1.3l0.3,0.2l2.5-1.3L279.6,86.8z M284.6,84.2l-2.5,1.3l0.3,0.2l2.5-1.3
									L284.6,84.2z M239.5,107.9l-2.5,1.3l0.3,0.2l2.5-1.3L239.5,107.9z M63.7,200.3l-2.5,1.3l0.3,0.2l2.5-1.3L63.7,200.3z
									 M73.8,195l-2.5,1.3l0.3,0.2l2.5-1.3L73.8,195z M68.7,197.6l-2.5,1.3l0.3,0.2l2.5-1.3L68.7,197.6z M66.4,163.1l-2.3,1.5
									l0.4,0.2l2.3-1.5L66.4,163.1z M73.7,159l2.3-1.5l-0.4-0.2l-2.3,1.5L73.7,159z M68.7,161.7l0.4,0.2l2.3-1.5l-0.4-0.2
									L68.7,161.7z M78.8,192.3l-2.5,1.3l0.3,0.2l2.5-1.3L78.8,192.3z M82.8,153.2l2.3-1.5l-0.4-0.2l-2.2,1.5L82.8,153.2z
									 M83.8,189.7l-2.5,1.3l0.3,0.2l2.5-1.3L83.8,189.7z M78.3,156.1l2.3-1.5l-0.4-0.2l-2.3,1.5L78.3,156.1z M34.5,183.4
									l-2.3,1.5l0.4,0.2l2.3-1.5L34.5,183.4z M43.6,177.6l-2.3,1.5l0.4,0.2l2.3-1.5L43.6,177.6z M139,160.7l-2.5,1.3l0.3,0.2
									l2.5-1.3L139,160.7z M39,180.5l-2.3,1.5l0.4,0.2l2.3-1.5L39,180.5z M27.6,187.8L28,188l2.3-1.5l-0.4-0.2L27.6,187.8z
									 M58.7,202.9l-2.5,1.3l0.3,0.2l2.5-1.3L58.7,202.9z M48.2,174.7l-2.3,1.5l0.4,0.2l2.3-1.5L48.2,174.7z M61.9,166l-2.3,1.5
									l0.4,0.2l2.3-1.5L61.9,166z M57.3,168.9l-2.3,1.5l0.4,0.2l2.3-1.5L57.3,168.9z M52.8,171.8l-2.3,1.5l0.4,0.2l2.3-1.5
									L52.8,171.8z M88.9,187l-2.5,1.3l0.3,0.2l2.5-1.3L88.9,187z M119,129.8l0.4,0.2l2.3-1.5l-0.4-0.2L119,129.8z M124,168.5
									l-2.5,1.3l0.3,0.2l2.5-1.3L124,168.5z M119,171.2l-2.5,1.3l0.3,0.2l2.5-1.3L119,171.2z M124,127.1l2.3-1.5l-0.4-0.2
									l-2.3,1.4L124,127.1z M116.7,131.2l-2.3,1.5l0.4,0.2l2.3-1.5L116.7,131.2z M133.2,121.2l2.3-1.5l-0.4-0.2l-2.3,1.5
									L133.2,121.2z M134.1,163.3l-2.5,1.3l0.3,0.2l2.5-1.3L134.1,163.3z M114,173.9l-2.5,1.3l0.3,0.2l2.5-1.3L114,173.9z
									 M129,166l-2.5,1.3l0.3,0.2l2.5-1.3L129,166z M128.5,124.2l2.3-1.5l-0.4-0.2l-2.3,1.5L128.5,124.2z M107.6,137.1l-2.3,1.4
									l0.4,0.2l2.3-1.5L107.6,137.1z M92,147.4l2.3-1.5l-0.4-0.2l-2.3,1.5L92,147.4z M98.4,142.8l-2.3,1.5l0.4,0.2l2.3-1.5
									L98.4,142.8z M93.9,184.4l-2.5,1.3l0.3,0.2l2.5-1.3L93.9,184.4z M98.9,181.8l-2.5,1.3l0.3,0.2l2.5-1.3L98.9,181.8z
									 M108.9,176.4l-2.5,1.4l0.3,0.2l2.5-1.3L108.9,176.4z M87.4,150.3l2.3-1.5l-0.4-0.2l-2.3,1.5L87.4,150.3z M103,139.9
									l-2.3,1.5l0.4,0.2l2.3-1.5L103,139.9z M112.1,134.1l-2.3,1.5l0.4,0.2l2.3-1.5L112.1,134.1z M103.9,179.2l-2.5,1.3l0.3,0.2
									l2.5-1.3L103.9,179.2z"/>
							</g>
							<polygon class="st9" points="350.1,25.7 350.4,25.9 169.7,173.5 169.3,173.4 							"/>
							<polygon class="st9" points="317.8,12.5 318.1,12.7 93.7,196 93.3,195.8 							"/>
							<polygon class="st10" points="98.7,96.1 144,122.3 144.2,122.3 199.2,107.3 316.1,12.2 315.7,11.8 198.9,106.9 144.1,121.7 
								99,95.6 							"/>
						</g>
					</g>
				</g>
				<g>
					<path class="st11" d="M236,142.2v1.6c-0.1,0.2-0.2,0.5-0.5,0.6c-0.7,0.4-1.5,0.4-2.2,0c-0.3-0.2-0.5-0.4-0.5-0.7v-1.6
						c0.1,0.3,0.2,0.6,0.5,0.7c0.7,0.4,1.5,0.4,2.2,0C235.7,142.7,235.9,142.5,236,142.2z"/>
					<path class="st4" d="M235.9,141.9c0.2,0.4,0,0.8-0.4,0.9c-0.7,0.4-1.5,0.4-2.2,0c-0.2,0-0.3-0.2-0.4-0.4
						c-0.2-0.4,0-0.8,0.4-0.9c0.7-0.4,1.5-0.4,2.2,0C235.7,141.6,235.8,141.8,235.9,141.9z"/>
				</g>
				<g>
					<path class="st1" d="M236.8,141.5L236.8,141.5v1.8l-0.1,0.1v-1.8c0-1-0.6-2-1.4-2.5c-0.3-0.2-0.6-0.3-0.9-0.2
						c0.3-0.2,0.7-0.1,1,0.1C236.2,139.6,236.7,140.4,236.8,141.5z"/>
					
						<linearGradient id="SVGID_4_" gradientUnits="userSpaceOnUse" x1="164.4347" y1="131.1857" x2="161.9183" y2="135.5378" gradientTransform="matrix(-1 0 0 1 398.3 8)">
						<stop  offset="0" style="stop-color:#CBCED0"/>
						<stop  offset="0.15" style="stop-color:#D2D4D6"/>
						<stop  offset="0.4" style="stop-color:#D9DBDD"/>
						<stop  offset="0.46" style="stop-color:#D4D6D8"/>
						<stop  offset="0.8" style="stop-color:#BABEC1"/>
						<stop  offset="1" style="stop-color:#B0B5B8"/>
					</linearGradient>
					<path class="st12" d="M236.7,141.5v1.8l-1.8,1.1v-1.8c0-0.4,0-0.8-0.2-1.1c-0.1-0.3-0.3-0.6-0.5-0.9c-0.2-0.2-0.4-0.4-0.6-0.5
						c-0.3-0.2-0.7-0.3-1-0.1l1.8-1.1c0.3-0.2,0.7-0.1,1,0.1c0.2,0.1,0.4,0.3,0.6,0.5c0.2,0.3,0.4,0.6,0.5,0.9
						C236.6,140.8,236.7,141.1,236.7,141.5z"/>
					<path class="st1" d="M234.6,141.5c0.1,0.4,0.2,0.7,0.2,1.1v1.8l1.8-1.1v-1.8c0-0.4,0-0.8-0.2-1.1c-0.1-0.3-0.3-0.6-0.5-0.9
						l-1.8,1.1C234.3,140.9,234.5,141.2,234.6,141.5z"/>
					<path class="st13" d="M234.8,142.6v1.8c0,0.1-0.2,0-0.1,0l-2.8-1.6v-0.1c0-1.8-0.1-2.4,0.5-2.7c0.3-0.2,0.7-0.1,1,0.1
						C234.3,140.7,234.8,141.6,234.8,142.6z"/>
					<path class="st14" d="M235.4,141.1c-0.1-0.3-0.3-0.6-0.5-0.9c-0.2-0.2-0.4-0.4-0.6-0.5l0.6-0.3c0.3,0.2,0.4,0.3,0.6,0.5
						c0.2,0.3,0.4,0.6,0.5,0.9c0.1,0.4,0.2,0.7,0.2,1.1v0.9l-0.6,0.3v-0.9C235.6,141.8,235.5,141.4,235.4,141.1z"/>
				</g>
				<g>
					<path class="st15" d="M237.5,141.6h-1.7c-0.1,0-0.2,0-0.2-0.1s0-0.2,0.1-0.3h0.1h1.7h-0.1c-0.1,0.1-0.1,0.2-0.1,0.3
						S237.4,141.7,237.5,141.6z"/>
					<path class="st1" d="M237.3,141.6L237.3,141.6c0,0.1,0.1,0.1,0.2,0.1c0.1-0.1,0.1-0.2,0.1-0.3l0,0c0-0.1-0.1-0.1-0.2-0.1
						S237.2,141.5,237.3,141.6z"/>
				</g>
				<g>
					<path class="st15" d="M240.6,141.6h-3.2c0,0-0.1,0-0.1-0.1c0-0.1,0-0.1,0.1-0.2h0.1h3.2h-0.1c-0.1,0-0.1,0.1-0.1,0.2
						S240.6,141.6,240.6,141.6z"/>
					<path class="st1" d="M240.6,141.6L240.6,141.6c-0.1,0-0.2,0-0.2-0.1c0-0.1,0-0.1,0.1-0.2l0,0c0.1,0,0.2,0,0.2,0.1
						C240.8,141.5,240.7,141.6,240.6,141.6z"/>
					<path class="st11" d="M240.7,141.6L240.7,141.6l-0.1-0.1c-0.1-0.1-0.1-0.2,0-0.2l0,0l0.1,0.1
						C240.7,141.5,240.7,141.5,240.7,141.6z"/>
				</g>
				<path class="st16" d="M234.5,144L234.5,144l-2.3-1.5l0,0V141c0-0.5,0.3-0.8,0.7-0.8c0.2,0,0.3,0.1,0.5,0.2
					c0.6,0.5,1.1,1.2,1.1,2V144L234.5,144L234.5,144z M232.3,142.6l2.2,1.2v-1.4c0-0.8-0.4-1.5-1.1-1.9c-0.2-0.1-0.3-0.2-0.5-0.2
					c-0.4,0-0.6,0.3-0.6,0.8L232.3,142.6z"/>
				<g>
					<path class="st11" d="M248.2,135.2v1.6c-0.1,0.2-0.2,0.5-0.5,0.6c-0.7,0.4-1.5,0.4-2.2,0c-0.3-0.2-0.5-0.4-0.5-0.7v-1.6
						c0.1,0.3,0.2,0.6,0.5,0.7c0.7,0.4,1.5,0.4,2.2,0C247.9,135.7,248.1,135.4,248.2,135.2z"/>
					<path class="st4" d="M248.1,134.9c0.2,0.4,0,0.8-0.4,0.9c-0.7,0.4-1.5,0.4-2.2,0c-0.2,0-0.3-0.2-0.4-0.4
						c-0.2-0.4,0-0.8,0.4-0.9c0.7-0.4,1.5-0.4,2.2,0C247.9,134.5,248,134.7,248.1,134.9z"/>
				</g>
				<g>
					<path class="st1" d="M249.1,134.5L249.1,134.5v1.8l-0.1,0.1v-1.8c0-1-0.6-2-1.4-2.5c-0.3-0.2-0.6-0.3-0.9-0.2
						c0.3-0.2,0.7-0.1,1,0.1C248.5,132.5,249,133.4,249.1,134.5z"/>
					
						<linearGradient id="SVGID_5_" gradientUnits="userSpaceOnUse" x1="152.2536" y1="124.1528" x2="149.7374" y2="128.5049" gradientTransform="matrix(-1 0 0 1 398.3 8)">
						<stop  offset="0" style="stop-color:#CBCED0"/>
						<stop  offset="0.15" style="stop-color:#D2D4D6"/>
						<stop  offset="0.4" style="stop-color:#D9DBDD"/>
						<stop  offset="0.46" style="stop-color:#D4D6D8"/>
						<stop  offset="0.8" style="stop-color:#BABEC1"/>
						<stop  offset="1" style="stop-color:#B0B5B8"/>
					</linearGradient>
					<path class="st17" d="M248.9,134.5v1.8l-1.8,1.1v-1.8c0-0.4,0-0.8-0.2-1.1c-0.1-0.3-0.3-0.6-0.5-0.9c-0.2-0.2-0.4-0.4-0.6-0.5
						c-0.3-0.2-0.7-0.3-1-0.1l1.8-1.1c0.3-0.2,0.7-0.1,1,0.1c0.2,0.1,0.4,0.3,0.6,0.5c0.2,0.3,0.4,0.6,0.5,0.9
						C248.9,133.7,249,134,248.9,134.5z"/>
					<path class="st1" d="M246.8,134.5c0.1,0.4,0.2,0.7,0.2,1.1v1.8l1.8-1.1v-1.8c0-0.4,0-0.8-0.2-1.1c-0.1-0.3-0.3-0.6-0.5-0.9
						l-1.8,1.1C246.6,133.8,246.8,134.1,246.8,134.5z"/>
					<path class="st13" d="M247.1,135.5v1.8c0,0.1-0.2,0-0.1,0l-2.8-1.6v-0.1c0-1.8-0.1-2.4,0.5-2.7c0.3-0.2,0.7-0.1,1,0.1
						C246.5,133.6,247.1,134.5,247.1,135.5z"/>
					<path class="st14" d="M247.6,134c-0.1-0.3-0.3-0.6-0.5-0.9c-0.2-0.2-0.4-0.4-0.6-0.5l0.6-0.3c0.3,0.2,0.4,0.3,0.6,0.5
						c0.2,0.3,0.4,0.6,0.5,0.9c0.1,0.4,0.2,0.7,0.2,1.1v0.9l-0.6,0.3v-0.9C247.8,134.7,247.8,134.3,247.6,134z"/>
				</g>
				<g>
					<path class="st15" d="M249.7,134.6H248c-0.1,0-0.2,0-0.2-0.1s0-0.2,0.1-0.3h0.1h1.7h-0.1c-0.1,0.1-0.1,0.2-0.1,0.3
						C249.6,134.6,249.6,134.6,249.7,134.6z"/>
					<path class="st1" d="M249.5,134.5L249.5,134.5c0,0.1,0.1,0.1,0.2,0.1c0.1-0.1,0.1-0.2,0.1-0.3l0,0c0-0.1-0.1-0.1-0.2-0.1
						S249.5,134.4,249.5,134.5z"/>
				</g>
				<g>
					<path class="st15" d="M252.9,134.5h-3.2c0,0-0.1,0-0.1-0.1c0-0.1,0-0.1,0.1-0.2h0.1h3.2h-0.1c-0.1,0-0.1,0.1-0.1,0.2
						S252.8,134.5,252.9,134.5z"/>
					<path class="st1" d="M252.9,134.5L252.9,134.5c-0.1,0-0.2,0-0.2-0.1c0-0.1,0-0.1,0.1-0.2l0,0c0.1,0,0.2,0,0.2,0.1
						C253,134.4,253,134.5,252.9,134.5z"/>
					<path class="st11" d="M253,134.6L253,134.6l-0.1-0.1c-0.1-0.1-0.1-0.2,0-0.2l0,0l0.1,0.1C253,134.4,253,134.5,253,134.6z"/>
				</g>
				<path class="st16" d="M246.8,136.9l-2.3-1.4l0,0V134c0-0.5,0.3-0.8,0.7-0.8c0.2,0,0.3,0.1,0.5,0.2c0.6,0.5,1.1,1.2,1.1,2V136.9
					L246.8,136.9L246.8,136.9z M244.6,135.6l2.2,1.2v-1.4c0-0.8-0.4-1.5-1.1-1.9c-0.2-0.1-0.3-0.2-0.5-0.2c-0.4,0-0.6,0.3-0.6,0.8
					L244.6,135.6z"/>
				<g>
					<polygon class="st1" points="181.2,62.9 181.2,73.7 130.4,103 130.4,92.2 					"/>
					<polygon class="st18" points="130.4,92.2 130.4,103 125.3,104.6 125.3,93.8 					"/>
					<polygon class="st3" points="125.3,93.8 125.3,104.6 112.2,97 112.2,86.2 					"/>
					<polygon class="st4" points="112.2,86.2 125.3,93.8 130.4,92.2 181.2,62.9 165.7,53.9 114.9,83.2 					"/>
					<polygon class="st5" points="125.3,93.3 112.8,86.1 115.1,83.6 165.7,54.3 180.5,62.8 130.3,91.8 					"/>
				</g>
				<g>
					<polygon class="st3" points="123.3,68.1 123.3,81.7 132.7,87.2 132.7,73.6 					"/>
					<polygon class="st4" points="123.3,68.1 132.7,73.6 174.6,49.4 165.2,43.9 					"/>
					<polygon class="st5" points="132.7,73.2 123.9,68.2 165.1,44.3 174,49.4 					"/>
					<polygon class="st1" points="132.7,73.6 132.7,87.2 174.6,63 174.6,49.4 					"/>
				</g>
				
					<linearGradient id="SVGID_6_" gradientUnits="userSpaceOnUse" x1="248.9864" y1="49.55" x2="245.6551" y2="49.55" gradientTransform="matrix(-1 0 0 1 398.3 8)">
					<stop  offset="0" style="stop-color:#E0E0E0"/>
					<stop  offset="1" style="stop-color:#D3D3D3"/>
				</linearGradient>
				<path class="st19" d="M149.6,56.4v1.2c0,0.4,0.2,0.7,0.5,0.8c0.8,0.4,1.8,0.4,2.6,0c0.3-0.1,0.5-0.4,0.5-0.7v-1.2
					c0,0.3-0.2,0.6-0.5,0.7c-0.8,0.4-1.8,0.4-2.6,0C149.8,57.1,149.5,56.8,149.6,56.4z"/>
				<path class="st20" d="M150,57.3c0.8,0.4,1.8,0.4,2.6,0c0.7-0.4,0.7-1.1,0-1.5c-0.8-0.4-1.8-0.4-2.6,0
					C149.3,56.2,149.3,56.8,150,57.3z"/>
				
					<radialGradient id="SVGID_7_" cx="247.3566" cy="46.2962" r="3.2148" gradientTransform="matrix(-1 0 0 1 398.3 8)" gradientUnits="userSpaceOnUse">
					<stop  offset="0" style="stop-color:#FFFFFD"/>
					<stop  offset="0.29" style="stop-color:#F2F2F1"/>
					<stop  offset="0.58" style="stop-color:#E0E0E0"/>
					<stop  offset="1" style="stop-color:#D3D3D3"/>
				</radialGradient>
				<path class="st21" d="M149.6,55.7v0.4c0,0.4,0.2,0.7,0.5,0.8c0.8,0.4,1.8,0.4,2.6,0c0.3-0.1,0.5-0.4,0.5-0.7v-0.5
					c0-0.4-0.1-0.7-0.3-1c-0.6-0.8-1.7-1-2.5-0.5C149.8,54.6,149.5,55.1,149.6,55.7z"/>
				<path class="st22" d="M151.2,54.3c0.1,0,0.1,0,0.2,0s0.1,0.1,0,0.1C151.3,54.4,151.3,54.4,151.2,54.3
					C151.1,54.4,151.1,54.3,151.2,54.3z"/>
				
					<linearGradient id="SVGID_8_" gradientUnits="userSpaceOnUse" x1="255.2459" y1="53.25" x2="251.9146" y2="53.25" gradientTransform="matrix(-1 0 0 1 398.3 8)">
					<stop  offset="0" style="stop-color:#E0E0E0"/>
					<stop  offset="1" style="stop-color:#D3D3D3"/>
				</linearGradient>
				<path class="st23" d="M143.3,60.1v1.2c0,0.4,0.2,0.7,0.5,0.8c0.8,0.4,1.8,0.4,2.6,0c0.3-0.1,0.5-0.4,0.5-0.7v-1.2
					c0,0.3-0.2,0.6-0.5,0.7c-0.8,0.4-1.8,0.4-2.6,0C143.5,60.7,143.3,60.4,143.3,60.1z"/>
				<path class="st20" d="M143.8,60.9c0.8,0.4,1.8,0.4,2.6,0c0.7-0.4,0.7-1.1,0-1.5c-0.8-0.4-1.8-0.4-2.6,0
					C143.1,59.8,143.1,60.5,143.8,60.9z"/>
				
					<radialGradient id="SVGID_9_" cx="253.6161" cy="49.914" r="3.2148" gradientTransform="matrix(-1 0 0 1 398.3 8)" gradientUnits="userSpaceOnUse">
					<stop  offset="0" style="stop-color:#FFFFFD"/>
					<stop  offset="0.29" style="stop-color:#F2F2F1"/>
					<stop  offset="0.58" style="stop-color:#E0E0E0"/>
					<stop  offset="1" style="stop-color:#D3D3D3"/>
				</radialGradient>
				<path class="st24" d="M143.3,59.3v0.5c0,0.4,0.2,0.7,0.5,0.8c0.8,0.4,1.8,0.4,2.6,0c0.3-0.1,0.5-0.4,0.5-0.7v-0.5
					c0-0.4-0.1-0.7-0.3-1c-0.6-0.8-1.7-1-2.5-0.5C143.6,58.2,143.3,58.7,143.3,59.3z"/>
				<path class="st22" d="M145,57.9c0.1,0,0.1,0,0.2,0s0.1,0.1,0,0.1C145.1,58,145.1,58,145,57.9C144.9,58,144.9,58,145,57.9z"/>
				<g>
					<polygon class="st1" points="116.7,84.6 116.7,85 118.8,83.8 118.8,83.4 					"/>
					<polygon class="st3" points="116.2,84.3 116.2,84.7 116.7,85 116.7,84.6 					"/>
					<polygon class="st4" points="118.2,83.1 116.2,84.3 116.7,84.6 118.8,83.4 					"/>
				</g>
				<g>
					
						<linearGradient id="SVGID_10_" gradientUnits="userSpaceOnUse" x1="280.078" y1="68.95" x2="280.275" y2="68.95" gradientTransform="matrix(-1 0 0 1 398.3 8)">
						<stop  offset="0" style="stop-color:#9AA0A4"/>
						<stop  offset="1" style="stop-color:#B9BFC2"/>
					</linearGradient>
					<path class="st25" d="M118.1,70.4v13.1l0,0h0.1l0,0V70.4l0,0H118.1C118,70.4,118,70.4,118.1,70.4z"/>
					<path class="st4" d="M118.1,70.3h0.1H118.1C118,70.3,118.1,70.3,118.1,70.3z"/>
				</g>
				<g>
					
						<linearGradient id="SVGID_11_" gradientUnits="userSpaceOnUse" x1="281.4033" y1="69.65" x2="281.6093" y2="69.65" gradientTransform="matrix(-1 0 0 1 398.3 8)">
						<stop  offset="0" style="stop-color:#9AA0A4"/>
						<stop  offset="1" style="stop-color:#B9BFC2"/>
					</linearGradient>
					<path class="st26" d="M116.7,71.1v13.1l0,0h0.1l0,0V71.1l0,0H116.7L116.7,71.1z"/>
					<path class="st4" d="M116.7,71.1c0.1,0,0.1,0,0.1,0H116.7L116.7,71.1z"/>
				</g>
				<g>
					<polygon class="st1" points="127.5,90.8 127.5,91.2 129.5,90 129.5,89.6 					"/>
					<polygon class="st3" points="126.9,90.5 126.9,90.9 127.5,91.2 127.5,90.8 					"/>
					<polygon class="st4" points="129,89.3 126.9,90.5 127.5,90.8 129.5,89.6 					"/>
				</g>
				<g>
					
						<linearGradient id="SVGID_12_" gradientUnits="userSpaceOnUse" x1="269.3231" y1="75.15" x2="269.5291" y2="75.15" gradientTransform="matrix(-1 0 0 1 398.3 8)">
						<stop  offset="0" style="stop-color:#9AA0A4"/>
						<stop  offset="1" style="stop-color:#B9BFC2"/>
					</linearGradient>
					<path class="st27" d="M128.8,76.6v13.1l0,0h0.1l0,0V76.6l0,0H128.8L128.8,76.6z"/>
					<path class="st4" d="M128.8,76.5c0.1,0,0.1,0,0.1,0H128.8L128.8,76.5z"/>
				</g>
				<g>
					
						<linearGradient id="SVGID_13_" gradientUnits="userSpaceOnUse" x1="270.6574" y1="75.9125" x2="270.8633" y2="75.9125" gradientTransform="matrix(-1 0 0 1 398.3 8)">
						<stop  offset="0" style="stop-color:#9AA0A4"/>
						<stop  offset="1" style="stop-color:#B9BFC2"/>
					</linearGradient>
					<path class="st28" d="M127.5,77.4v13.1l0,0h0.1l0,0V77.4l0,0H127.5C127.5,77.3,127.5,77.3,127.5,77.4z"/>
					<path class="st4" d="M127.5,77.3c0,0,0.1,0,0.1,0H127.5C127.4,77.3,127.5,77.3,127.5,77.3z"/>
				</g>
				<g>
					<polygon class="st3" points="158.7,50.8 158.7,57 152,53.1 152,46.9 					"/>
					<polygon class="st1" points="169,44.8 169,51 158.7,57 158.7,50.8 					"/>
					<polygon class="st4" points="162.3,40.9 169,44.8 158.7,50.8 152,46.9 					"/>
				</g>
				<g>
					<polygon class="st29" points="158.5,51.5 158.5,51.9 150.7,47.4 150.7,46.9 					"/>
					<polygon class="st30" points="170.3,44.7 170.4,45.1 158.5,51.9 158.5,51.5 					"/>
					<polygon class="st4" points="162.5,40.1 170.3,44.7 158.5,51.5 150.7,46.9 					"/>
					<polygon class="st5" points="158.5,51 151.5,46.9 162.5,40.5 169.6,44.7 					"/>
				</g>
				<path class="st31" d="M159.6,49.2l-0.1,1.3c0,0.1,0.2,0.1,0.2,0v-1.3l0,0H159.6L159.6,49.2z"/>
				<path class="st31" d="M162.7,47.4l-0.1,1.3c0,0.1,0.2,0.1,0.2,0v-1.3l0,0H162.7L162.7,47.4z"/>
				<path class="st31" d="M165.8,45.6l-0.1,1.4c0,0.1,0.2,0.1,0.2,0v-1.4l0,0H165.8C165.7,45.7,165.7,45.7,165.8,45.6z"/>
				<path class="st31" d="M168.9,43.9l-0.1,1.3c0,0.1,0.2,0.1,0.2,0v-1.3l0,0H168.9L168.9,43.9z"/>
				<path class="st31" d="M152.1,44.9v1.3c0,0.1,0.2,0.1,0.2,0v-1.3l0,0H152.1L152.1,44.9z"/>
				<path class="st31" d="M155.2,43.1l-0.1,1.3c0,0.1,0.2,0.1,0.2,0v-1.3l0,0H155.2L155.2,43.1z"/>
				<path class="st31" d="M158.3,41.3l-0.1,1.3c0,0.1,0.2,0.1,0.2,0v-1.3l0,0H158.3C158.3,41.3,158.3,41.4,158.3,41.3z"/>
				<path class="st31" d="M161.4,39.5l-0.1,1.3c0,0.1,0.2,0.1,0.2,0v-1.3l0,0H161.4C161.4,39.6,161.4,39.6,161.4,39.5z"/>
				<path class="st31" d="M168,42.1l0.1,1.3c0,0.1-0.2,0.1-0.2,0v-1.3l0,0H168L168,42.1z"/>
				<path class="st31" d="M164.9,40.3l0.1,1.3c0,0.1-0.2,0.1-0.2,0v-1.3l0,0H164.9L164.9,40.3z"/>
				<path class="st31" d="M156.6,48.7l0.1,1.3c0,0.1-0.2,0.1-0.2,0v-1.3l0,0H156.6L156.6,48.7z"/>
				<path class="st31" d="M153.5,46.9l0.1,1.3c0,0.1-0.2,0.1-0.2,0v-1.3l0,0H153.5L153.5,46.9z"/>
				<path class="st31" d="M158.5,50.1l-7.5-4.4c-0.1,0-0.1,0-0.1-0.1l0.1-0.1l11.4-6.6c0.1,0,0.2,0,0.2,0l7.4,4.4
					c0.1,0,0.1,0,0.1,0.1l-0.1,0.1L158.5,50.1L158.5,50.1L158.5,50.1z M162.5,39.1l-11.1,6.4l7.2,4.2l11.1-6.4L162.5,39.1z"/>
				
					<linearGradient id="SVGID_14_" gradientUnits="userSpaceOnUse" x1="236.5" y1="15.55" x2="244.2819" y2="15.55" gradientTransform="matrix(-1 0 0 1 398.3 8)">
					<stop  offset="0" style="stop-color:#9AA0A4"/>
					<stop  offset="1" style="stop-color:#B9BFC2"/>
				</linearGradient>
				<polygon class="st32" points="154,21.7 154.7,21.3 161.8,25.4 161.1,25.8 				"/>
				<polygon class="st33" points="161.1,25.8 161.8,25.4 161.8,27.2 161.1,27.6 				"/>
				<polygon class="st3" points="161.1,27.6 154,21.7 161.1,25.8 				"/>
				<g>
					<polygon class="st1" points="162.6,29.2 167.1,26.6 167.9,44.6 163.4,47.2 					"/>
					
						<linearGradient id="SVGID_15_" gradientUnits="userSpaceOnUse" x1="231.2108" y1="18.85" x2="239.4493" y2="18.85" gradientTransform="matrix(-1 0 0 1 398.3 8)">
						<stop  offset="0" style="stop-color:#9AA0A4"/>
						<stop  offset="1" style="stop-color:#B9BFC2"/>
					</linearGradient>
					<polygon class="st34" points="158.9,27.1 163.3,24.5 167.1,26.6 162.6,29.2 					"/>
					<polygon class="st3" points="162.6,29.2 163.4,47.2 158,44.1 158.9,27.1 					"/>
				</g>
				
					<linearGradient id="SVGID_16_" gradientUnits="userSpaceOnUse" x1="225.7" y1="21.75" x2="233.4639" y2="21.75" gradientTransform="matrix(-1 0 0 1 398.3 8)">
					<stop  offset="0" style="stop-color:#9AA0A4"/>
					<stop  offset="1" style="stop-color:#B9BFC2"/>
				</linearGradient>
				<polygon class="st35" points="164.8,27.9 165.5,27.5 172.6,31.6 171.9,32 				"/>
				<polygon class="st3" points="164.8,27.9 171.9,32 164.8,29.7 				"/>
				
					<linearGradient id="SVGID_17_" gradientUnits="userSpaceOnUse" x1="331.03" y1="22.05" x2="338.7939" y2="22.05" gradientTransform="matrix(1 0 0 1 -177.63 8)">
					<stop  offset="0" style="stop-color:#9AA0A4"/>
					<stop  offset="1" style="stop-color:#B9BFC2"/>
				</linearGradient>
				<polygon class="st36" points="161.2,28.2 160.5,27.8 153.4,31.9 154.1,32.3 				"/>
				<polygon class="st1" points="154.1,32.3 161.2,29.9 161.2,28.2 				"/>
				<g>
					<polygon class="st29" points="159.7,24.8 159.7,25.2 153.1,21.3 153.1,21 					"/>
					<path class="st30" d="M166.6,27.2v0.3l1.2-0.7c0.2-0.1,0.3-0.2,0.3-0.4v-0.3c0,0.2-0.1,0.3-0.3,0.4L166.6,27.2z"/>
					
						<linearGradient id="SVGID_18_" gradientUnits="userSpaceOnUse" x1="234.6763" y1="19.775" x2="236.3778" y2="19.775" gradientTransform="matrix(-1 0 0 1 398.3 8)">
						<stop  offset="0" style="stop-color:#A3AAAE"/>
						<stop  offset="1" style="stop-color:#C3CACD"/>
					</linearGradient>
					<path class="st37" d="M157.6,26.1v0.3c0,0.2,0.1,0.3,0.3,0.4l4.2,2.5c0.4,0.2,0.9,0.2,1.3,0l1.8-1V28l-1.8,1
						c-0.4,0.2-0.9,0.2-1.3,0l-4.2-2.4C157.8,26.5,157.7,26.4,157.6,26.1z"/>
					<polygon class="st30" points="173.3,31 173.3,31.3 171.8,32.2 171.8,31.9 					"/>
					<path class="st4" d="M154.6,20.2l6.6,3.8l1.2-0.7c0.4-0.2,0.9-0.2,1.3,0l4.2,2.4c0.4,0.3,0.4,0.6,0,0.8l-1.2,0.7l6.6,3.8
						l-1.5,0.8l-6.6-3.8l-1.8,1c-0.4,0.2-0.9,0.2-1.3,0l-4.2-2.4c-0.4-0.3-0.4-0.6,0-0.8l1.8-1l-6.6-3.8L154.6,20.2z"/>
					<polygon class="st29" points="171.8,31.9 171.8,32.2 165.2,28.4 165.2,28 					"/>
				</g>
				<g>
					
						<linearGradient id="SVGID_19_" gradientUnits="userSpaceOnUse" x1="338.43" y1="20.3" x2="338.43" y2="20.3" gradientTransform="matrix(1 0 0 1 -177.63 8)">
						<stop  offset="0" style="stop-color:#A3AAAE"/>
						<stop  offset="1" style="stop-color:#C3CACD"/>
					</linearGradient>
					<path class="st38" d="M160.8,28.3L160.8,28.3z"/>
					<polygon class="st29" points="152.8,31.2 152.8,31.6 154.2,32.4 154.2,32.1 					"/>
					<polygon class="st4" points="152.8,31.2 154.2,32.1 160.8,28.3 159.3,27.4 					"/>
					<polygon class="st30" points="154.2,32.1 154.2,32.4 160.8,28.6 160.8,28.3 					"/>
				</g>
				<path class="st31" d="M167.8,24.8l-0.1,1.4c0,0.1,0.2,0.1,0.2,0v-1.4l0,0H167.8C167.7,24.8,167.7,24.8,167.8,24.8z"/>
				<path class="st31" d="M165.3,26.2l-0.1,1.3c0,0.1,0.2,0.1,0.2,0v-1.3l0,0H165.3C165.3,26.2,165.3,26.3,165.3,26.2z"/>
				<path class="st31" d="M162.9,27.6l-0.1,1.4c0,0.1,0.2,0.1,0.2,0v-1.4l0,0H162.9C162.9,27.7,162.8,27.7,162.9,27.6z"/>
				<path class="st31" d="M162.8,22l-0.1,1.4c0,0.1,0.2,0.1,0.2,0V22l0,0H162.8L162.8,22z"/>
				<path class="st31" d="M160.4,23.4l-0.1,1.3c0,0.1,0.2,0.1,0.2,0v-1.3l0,0H160.4C160.3,23.4,160.3,23.4,160.4,23.4z"/>
				<path class="st31" d="M157.9,24.8l-0.1,1.3c0,0.1,0.2,0.1,0.2,0v-1.3l0,0H157.9L157.9,24.8z"/>
				<path class="st31" d="M160.5,26.5l0.1,1.2c0,0.1-0.2,0.1-0.2,0v-1.2l0,0H160.5L160.5,26.5z"/>
				<path class="st31" d="M165.5,23.3l0.1,1.3c0,0.1-0.2,0.1-0.2,0v-1.3l0,0H165.5C165.5,23.3,165.5,23.4,165.5,23.3z"/>
				<path class="st31" d="M162.1,27.6l-4.2-2.4c-0.1,0-0.2-0.1-0.2-0.2c-0.1-0.2,0-0.3,0.2-0.4l4.4-2.5c0.4-0.2,0.9-0.2,1.3,0
					l4.2,2.4c0.1,0,0.2,0.1,0.2,0.2c0.1,0.2,0,0.3-0.2,0.4l-4.4,2.5c-0.2,0.2-0.4,0.2-0.6,0.2S162.4,27.8,162.1,27.6z M167.8,24.8
					C167.7,24.8,167.7,24.7,167.8,24.8l-4.3-2.5c-0.3-0.1-0.7-0.1-1,0l-4.4,2.5l-0.1,0.1l0,0l0.1,0.1l4.2,2.4c0.3,0.1,0.7,0.1,1,0
					l4.4-2.5C167.8,24.8,167.8,24.8,167.8,24.8L167.8,24.8z"/>
				<g>
					<polygon class="st4" points="159.2,7 159.8,6.6 164.7,9.4 164,9.8 					"/>
					<polygon class="st39" points="164,9.8 164.7,9.4 164.7,10.2 164,10.6 					"/>
					<polygon class="st29" points="164,10.6 159.2,7.3 159.2,7 164,9.8 					"/>
				</g>
				<g>
					<polygon class="st29" points="164.1,26.1 162.7,25.3 164,8.1 165.4,8.9 					"/>
					<polygon class="st4" points="165.4,8.9 164,8.1 164.8,7.7 166.2,8.5 					"/>
					<polygon class="st1" points="166.2,8.5 166.2,24.9 164.1,26.1 165.4,8.9 					"/>
				</g>
				<g>
					<polygon class="st1" points="170.3,13.4 170.9,13 170.9,13.4 170.3,13.8 					"/>
					<polygon class="st4" points="165.4,10.6 166.1,10.2 170.9,13 170.3,13.4 					"/>
					<polygon class="st29" points="165.4,11.4 165.4,10.6 170.3,13.4 170.3,13.8 					"/>
				</g>
				<g>
					<g>
						
							<linearGradient id="SVGID_20_" gradientUnits="userSpaceOnUse" x1="236.3778" y1="15.7875" x2="237.6673" y2="15.7875" gradientTransform="matrix(-1 0 0 1 398.3 8)">
							<stop  offset="0" style="stop-color:#9AA0A4"/>
							<stop  offset="1" style="stop-color:#B9BFC2"/>
						</linearGradient>
						<path class="st40" d="M160.6,20.2c0,0.1,0.1,0.2,0.2,0.3c0.3,0.1,0.6,0.1,0.9,0c0.1-0.1,0.2-0.2,0.2-0.3V27
							c0,0.1-0.1,0.3-0.2,0.3c-0.3,0.1-0.6,0.1-0.9,0c-0.1-0.1-0.2-0.2-0.2-0.3V20.2L160.6,20.2z"/>
					</g>
					<path class="st4" d="M161.7,20c0.1,0,0.2,0.1,0.2,0.2c0,0.1-0.1,0.3-0.2,0.3c-0.3,0.1-0.6,0.1-0.9,0c-0.1,0-0.2-0.1-0.2-0.2
						c0-0.1,0.1-0.3,0.2-0.3C161.1,19.8,161.4,19.8,161.7,20z"/>
				</g>
				<g>
					<g>
						<g>
							
								<linearGradient id="SVGID_21_" gradientUnits="userSpaceOnUse" x1="240.6493" y1="11.4" x2="241.8403" y2="11.4" gradientTransform="matrix(-1 0 0 1 398.3 8)">
								<stop  offset="0" style="stop-color:#9AA0A4"/>
								<stop  offset="1" style="stop-color:#B9BFC2"/>
							</linearGradient>
							<path class="st41" d="M157.7,19.4v0.4c-0.4-0.1-0.8-0.3-1.2-0.4V19C156.9,19.1,157.3,19.3,157.7,19.4z"/>
						</g>
					</g>
					<polygon class="st1" points="160.5,20 160.5,20.4 157.7,19.8 157.6,19.5 					"/>
					<g>
						<g>
							
								<linearGradient id="SVGID_22_" gradientUnits="userSpaceOnUse" x1="236.1808" y1="12.55" x2="236.4226" y2="12.55" gradientTransform="matrix(-1 0 0 1 398.3 8)">
								<stop  offset="0" style="stop-color:#9AA0A4"/>
								<stop  offset="1" style="stop-color:#B9BFC2"/>
							</linearGradient>
							<path class="st42" d="M162.1,20.2v0.4c0,0.1-0.1,0.2-0.2,0.3v-0.4C162,20.4,162.1,20.3,162.1,20.2z"/>
						</g>
					</g>
					
						<linearGradient id="SVGID_23_" gradientUnits="userSpaceOnUse" x1="236.4226" y1="12.65" x2="236.4584" y2="12.65" gradientTransform="matrix(-1 0 0 1 398.3 8)">
						<stop  offset="0" style="stop-color:#9AA0A4"/>
						<stop  offset="1" style="stop-color:#B9BFC2"/>
					</linearGradient>
					<polygon class="st43" points="161.9,20.5 161.9,20.8 161.8,20.8 161.8,20.5 					"/>
					<g>
						<g>
							
								<linearGradient id="SVGID_24_" gradientUnits="userSpaceOnUse" x1="236.7718" y1="12.5207" x2="237.8285" y2="12.5207" gradientTransform="matrix(-1 0 0 1 398.3 8)">
								<stop  offset="0" style="stop-color:#9AA0A4"/>
								<stop  offset="1" style="stop-color:#B9BFC2"/>
							</linearGradient>
							<path class="st44" d="M160.7,20.4c0.2,0.1,0.5,0.2,0.8,0.1v0.4c-0.3,0.1-0.5,0-0.8-0.1c-0.1,0-0.2-0.2-0.2-0.3v-0.4
								C160.5,20.3,160.6,20.4,160.7,20.4z"/>
						</g>
					</g>
					<polygon class="st3" points="162.4,22.3 162.5,22.6 161.5,20.9 161.5,20.6 					"/>
					<g>
						<g>
							
								<linearGradient id="SVGID_25_" gradientUnits="userSpaceOnUse" x1="235.0972" y1="14.85" x2="235.8584" y2="14.85" gradientTransform="matrix(-1 0 0 1 398.3 8)">
								<stop  offset="0" style="stop-color:#9AA0A4"/>
								<stop  offset="1" style="stop-color:#B9BFC2"/>
							</linearGradient>
							<path class="st45" d="M163.2,23v0.4c-0.3-0.2-0.5-0.5-0.8-0.7v-0.4C162.7,22.5,163,22.7,163.2,23z"/>
						</g>
					</g>
					<path class="st4" d="M160.7,20.4L160.7,20.4c-0.2-0.1-0.3-0.3-0.2-0.5l-2.9-0.5c-0.4-0.1-0.8-0.3-1.2-0.4l4.2,0.8l0,0
						c0.4-0.2,0.8-0.2,1.2,0c0.1,0,0.2,0.1,0.2,0.2c0.1,0.2,0,0.4-0.2,0.5l0,0l1.4,2.5c-0.3-0.2-0.5-0.5-0.8-0.7l-0.9-1.7
						C161.2,20.7,160.9,20.6,160.7,20.4z"/>
				</g>
				<g>
					<g>
						<g>
							
								<linearGradient id="SVGID_26_" gradientUnits="userSpaceOnUse" x1="236.3778" y1="10.8875" x2="237.6673" y2="10.8875" gradientTransform="matrix(-1 0 0 1 398.3 8)">
								<stop  offset="0" style="stop-color:#9AA0A4"/>
								<stop  offset="1" style="stop-color:#B9BFC2"/>
							</linearGradient>
							<path class="st46" d="M160.8,17.6c0.3,0.1,0.6,0.1,0.9,0c0.1-0.1,0.2-0.2,0.2-0.3v2.8c0,0.1-0.1,0.3-0.2,0.3
								c-0.3,0.1-0.6,0.1-0.9,0c-0.1-0.1-0.2-0.2-0.2-0.3v-2.8C160.6,17.5,160.7,17.6,160.8,17.6z"/>
						</g>
					</g>
					<path class="st4" d="M161.7,17.1c0.1,0,0.2,0.1,0.2,0.2c0,0.1-0.1,0.3-0.2,0.3c-0.3,0.1-0.6,0.1-0.9,0c-0.1,0-0.2-0.1-0.2-0.2
						c0-0.1,0.1-0.3,0.2-0.3C161.1,16.9,161.4,16.9,161.7,17.1z"/>
				</g>
				<g>
					<g>
						<g>
							
								<linearGradient id="SVGID_27_" gradientUnits="userSpaceOnUse" x1="240.6493" y1="8.2" x2="241.8403" y2="8.2" gradientTransform="matrix(-1 0 0 1 398.3 8)">
								<stop  offset="0" style="stop-color:#9AA0A4"/>
								<stop  offset="1" style="stop-color:#B9BFC2"/>
							</linearGradient>
							<path class="st47" d="M157.7,16.2v0.4c-0.4-0.1-0.8-0.3-1.2-0.4v-0.4C156.9,15.9,157.3,16.1,157.7,16.2z"/>
						</g>
					</g>
					<polygon class="st1" points="160.5,16.8 160.5,17.1 157.7,16.6 157.6,16.2 					"/>
					<g>
						<g>
							
								<linearGradient id="SVGID_28_" gradientUnits="userSpaceOnUse" x1="236.1808" y1="9.25" x2="236.4226" y2="9.25" gradientTransform="matrix(-1 0 0 1 398.3 8)">
								<stop  offset="0" style="stop-color:#9AA0A4"/>
								<stop  offset="1" style="stop-color:#B9BFC2"/>
							</linearGradient>
							<path class="st48" d="M162.1,16.9v0.4c0,0.1-0.1,0.2-0.2,0.3v-0.4C162,17.2,162.1,17.1,162.1,16.9z"/>
						</g>
					</g>
					
						<linearGradient id="SVGID_29_" gradientUnits="userSpaceOnUse" x1="236.4226" y1="9.4" x2="236.4584" y2="9.4" gradientTransform="matrix(-1 0 0 1 398.3 8)">
						<stop  offset="0" style="stop-color:#9AA0A4"/>
						<stop  offset="1" style="stop-color:#B9BFC2"/>
					</linearGradient>
					<polygon class="st49" points="161.9,17.2 161.9,17.6 161.8,17.6 161.8,17.3 					"/>
					<g>
						<g>
							
								<linearGradient id="SVGID_30_" gradientUnits="userSpaceOnUse" x1="236.7718" y1="9.3207" x2="237.8285" y2="9.3207" gradientTransform="matrix(-1 0 0 1 398.3 8)">
								<stop  offset="0" style="stop-color:#9AA0A4"/>
								<stop  offset="1" style="stop-color:#B9BFC2"/>
							</linearGradient>
							<path class="st50" d="M160.7,17.2c0.2,0.1,0.5,0.2,0.8,0.1v0.4c-0.3,0.1-0.5,0-0.8-0.1c-0.1,0-0.2-0.2-0.2-0.3v-0.4
								C160.5,17.1,160.6,17.2,160.7,17.2z"/>
						</g>
					</g>
					<polygon class="st3" points="162.4,19 162.5,19.4 161.5,17.7 161.5,17.4 					"/>
					<g>
						<g>
							
								<linearGradient id="SVGID_31_" gradientUnits="userSpaceOnUse" x1="235.0972" y1="11.55" x2="235.8584" y2="11.55" gradientTransform="matrix(-1 0 0 1 398.3 8)">
								<stop  offset="0" style="stop-color:#9AA0A4"/>
								<stop  offset="1" style="stop-color:#B9BFC2"/>
							</linearGradient>
							<path class="st51" d="M162.4,19c0.3,0.3,0.6,0.5,0.8,0.8v0.3c-0.3-0.2-0.5-0.5-0.8-0.7V19L162.4,19z"/>
						</g>
					</g>
					<path class="st4" d="M160.7,17.2L160.7,17.2c-0.2-0.1-0.3-0.3-0.2-0.5l-2.9-0.5c-0.4-0.1-0.8-0.3-1.2-0.4l4.2,0.8l0,0
						c0.4-0.2,0.8-0.2,1.2,0c0.1,0,0.2,0.1,0.2,0.2c0.1,0.2,0,0.4-0.2,0.5l0,0l1.4,2.5c-0.3-0.2-0.5-0.5-0.8-0.7l-0.9-1.7
						C161.2,17.4,160.9,17.4,160.7,17.2z"/>
				</g>
				<g>
					<g>
						<path class="st5" d="M160.1,17.3c2.1,1.2,3.6,2.6,4.1,3.7v4c-0.5-1.2-2-2.5-4.1-3.7c-2-1.2-4.1-2-6.3-2.4V15
							C156,15.4,158.1,16.2,160.1,17.3z"/>
					</g>
					<polygon class="st52" points="164.5,21 164.5,24.8 164.2,24.8 164.2,21 					"/>
					<path class="st53" d="M160.4,17.4c2.1,1.2,3.6,2.5,4.1,3.7h-0.3c-0.5-1.2-2-2.5-4.1-3.7c-2-1.2-4.1-2-6.3-2.4l0.1-0.2
						C156.2,15.2,158.3,16,160.4,17.4z"/>
				</g>
				<path class="st54" d="M153.8,15.5l0,0.6h-0.1l0,0h0.1v0.6h-0.1v0.1h0.1v0.6h-0.1v0.1h0.1v0.6h-0.1v0.1h0.1v0.5h0.1v-0.4
					c0.5,0.1,1,0.2,1.4,0.3v0.5h0.1v-0.5c0.5,0.1,1,0.2,1.4,0.4v0.6h0.1V19c0.5,0.1,1,0.3,1.4,0.5v0.6h0.1v-0.6
					c0.5,0.2,1,0.5,1.4,0.7v0.6h0.1v-0.6l0,0c0.5,0.2,1,0.5,1.4,0.8v0.6h0.1V21c0.5,0.3,1,0.7,1.4,1.1v0.6l0.1,0.1v-0.6
					c0.6,0.5,1,1,1.4,1.6v0.5l0.1,0.1v-0.5c0.1,0.2,0.1,0.3,0.2,0.4v-0.1c-0.1-0.1-0.1-0.2-0.2-0.3v-0.6c0.1,0.2,0.1,0.3,0.2,0.4
					v-0.1c-0.1-0.1-0.1-0.2-0.2-0.3v-0.6c0.1,0.1,0.1,0.2,0.2,0.3v-0.1c-0.1-0.1-0.1-0.2-0.2-0.3V22c0.1,0.1,0.1,0.2,0.2,0.3v-0.1
					c-0.1-0.1-0.1-0.2-0.2-0.3v-0.6c0.1,0.1,0.1,0.2,0.2,0.3v-0.1c-0.1-0.1-0.1-0.2-0.2-0.3v-0.4l-0.1-0.1v0.4
					c-0.4-0.6-0.9-1.1-1.4-1.6v-0.4l-0.1-0.1v0.2c-0.5-0.4-0.9-0.8-1.4-1.1v-0.3h-0.1v0.3c-0.4-0.3-0.8-0.5-1.3-0.8l0,0V17h-0.1v0.3
					c-0.5-0.3-0.9-0.5-1.4-0.7v-0.4h-0.1v0.4c-0.5-0.2-0.9-0.3-1.4-0.5v-0.4h-0.1v0.4c-0.5-0.1-0.9-0.3-1.4-0.4v-0.5h-0.1v0.5
					c-0.5-0.1-0.9-0.2-1.4-0.3V15h-0.1L153.8,15.5L153.8,15.5L153.8,15.5L153.8,15.5z M162.6,21.6c0.6,0.5,1,1,1.4,1.6v0.6
					c-0.4-0.6-0.9-1.1-1.4-1.6V21.6z M162.6,20.9c0.6,0.5,1,1,1.4,1.6v0.6c-0.4-0.6-0.9-1.1-1.4-1.6V20.9z M162.6,20.2
					c0.6,0.5,1,1,1.4,1.6v0.6c-0.4-0.6-0.9-1.1-1.4-1.6V20.2z M162.6,19.6c0.6,0.5,1,1,1.4,1.6v0.6c-0.4-0.6-0.9-1.1-1.4-1.6V19.6z
					 M161.1,20.5c0.5,0.3,1,0.7,1.4,1.1v0.6c-0.5-0.4-0.9-0.8-1.4-1.1V20.5z M161.1,19.8c0.5,0.3,1,0.7,1.4,1.1v0.6
					c-0.5-0.4-0.9-0.8-1.4-1.1V19.8z M161.1,19.1c0.5,0.3,1,0.7,1.4,1.1v0.6c-0.5-0.4-0.9-0.8-1.4-1.1V19.1z M161.1,18.4
					c0.5,0.3,1,0.7,1.4,1.1v0.6c-0.5-0.4-0.9-0.8-1.4-1.1V18.4z M159.6,19.6L159.6,19.6c0.5,0.2,1,0.5,1.4,0.8V21
					c-0.4-0.3-0.8-0.5-1.3-0.8l0,0L159.6,19.6z M159.6,18.9L159.6,18.9c0.5,0.2,1,0.5,1.4,0.8v0.6c-0.4-0.3-0.8-0.5-1.3-0.8l0,0
					L159.6,18.9z M159.6,18.2L159.6,18.2c0.5,0.2,1,0.5,1.4,0.8v0.6c-0.4-0.3-0.8-0.5-1.3-0.8l0,0L159.6,18.2z M159.6,17.5
					L159.6,17.5c0.5,0.2,1,0.5,1.4,0.8v0.6c-0.4-0.3-0.8-0.5-1.3-0.8l0,0L159.6,17.5z M158.3,18.9c0.5,0.2,1,0.5,1.4,0.7v0.6
					c-0.5-0.3-0.9-0.5-1.4-0.7V18.9z M158.3,18.2c0.5,0.2,1,0.5,1.4,0.7v0.6c-0.5-0.3-0.9-0.5-1.4-0.7V18.2z M158.3,17.5
					c0.5,0.2,1,0.5,1.4,0.7v0.6c-0.5-0.3-0.9-0.5-1.4-0.7V17.5z M158.3,16.8c0.5,0.2,1,0.5,1.4,0.7v0.6c-0.5-0.3-0.9-0.5-1.4-0.7
					V16.8z M156.8,18.3c0.5,0.1,1,0.3,1.4,0.5v0.6c-0.5-0.2-0.9-0.3-1.4-0.5V18.3z M156.8,17.6c0.5,0.1,1,0.3,1.4,0.5v0.6
					c-0.5-0.2-0.9-0.3-1.4-0.5V17.6z M156.8,16.9c0.5,0.1,1,0.3,1.4,0.5V18c-0.5-0.2-0.9-0.3-1.4-0.5V16.9z M156.8,16.2
					c0.5,0.1,1,0.3,1.4,0.5v0.6c-0.5-0.2-0.9-0.3-1.4-0.5V16.2z M155.4,17.9c0.5,0.1,1,0.2,1.4,0.4v0.6c-0.5-0.1-0.9-0.3-1.4-0.4
					V17.9z M155.4,17.2c0.5,0.1,1,0.2,1.4,0.4v0.6c-0.5-0.1-0.9-0.3-1.4-0.4V17.2z M155.4,16.5c0.5,0.1,1,0.2,1.4,0.4v0.6
					c-0.5-0.1-0.9-0.3-1.4-0.4V16.5z M155.4,15.8c0.5,0.1,1,0.2,1.4,0.4v0.6c-0.5-0.1-0.9-0.3-1.4-0.4V15.8z M154,17.6
					c0.5,0.1,1,0.2,1.4,0.3v0.6c-0.5-0.1-0.9-0.2-1.4-0.3V17.6z M154,16.9c0.5,0.1,1,0.2,1.4,0.3v0.6c-0.5-0.1-0.9-0.2-1.4-0.3V16.9
					z M154,16.2c0.5,0.1,1,0.2,1.4,0.3v0.6c-0.5-0.1-0.9-0.2-1.4-0.3V16.2z M154,15.5c0.5,0.1,1,0.2,1.4,0.3v0.6
					c-0.5-0.1-0.9-0.2-1.4-0.3V15.5z"/>
				<path class="st31" d="M162.2,27.6l-4.2-2.4c-0.1,0-0.2-0.1-0.2-0.2c-0.1-0.2,0-0.3,0.2-0.4l0,0c0.1,0,0.2,0,0.2,0.1
					s0,0.2-0.1,0.2L158,25l0,0l0.1,0.1L162.2,27.6c0.4,0,0.8,0,1.1-0.1l4.4-2.5c0.1-0.1,0.1-0.1,0.1-0.1l0,0c0-0.1-0.1-0.1-0.1-0.1
					c-0.1,0-0.1-0.1-0.1-0.2s0.1-0.1,0.2-0.1c0.1,0,0.2,0.1,0.2,0.2c0.1,0.2,0,0.3-0.2,0.4l-4.4,2.5c-0.2,0.2-0.4,0.2-0.6,0.2
					S162.4,27.8,162.2,27.6z"/>
				<path class="st31" d="M158.5,50.1l-7.4-4.5c-0.1,0-0.1,0-0.1,0c-0.1,0-0.1-0.1,0-0.2c0-0.1,0.1-0.1,0.2,0l7.4,4.3l11.3-6.5l0,0
					c0.1,0,0.2,0,0.2,0.1c0,0.1,0,0.2-0.1,0.2L158.5,50.1L158.5,50.1L158.5,50.1z"/>
				<g>
					<polygon class="st3" points="133.4,65.4 133.4,71.6 126.7,67.7 126.7,61.5 					"/>
					<polygon class="st1" points="143.7,59.4 143.8,65.6 133.4,71.6 133.4,65.4 					"/>
					<polygon class="st4" points="137,55.5 143.7,59.4 133.4,65.4 126.7,61.5 					"/>
				</g>
				<g>
					<polygon class="st29" points="133.2,66.1 133.2,66.5 125.4,62 125.4,61.5 					"/>
					<polygon class="st30" points="145.1,59.2 145.1,59.7 133.2,66.5 133.2,66.1 					"/>
					<polygon class="st4" points="137.2,54.7 145.1,59.2 133.2,66.1 125.4,61.5 					"/>
					<polygon class="st5" points="133.2,65.6 126.2,61.5 137.2,55.1 144.3,59.2 					"/>
				</g>
				<path class="st31" d="M134.3,63.8l-0.1,1.3c0,0.1,0.2,0.1,0.2,0v-1.3l0,0H134.3L134.3,63.8z"/>
				<path class="st31" d="M137.4,62l-0.1,1.3c0,0.1,0.2,0.1,0.2,0V62l0,0H137.4L137.4,62z"/>
				<path class="st31" d="M140.5,60.2l-0.1,1.3c0,0.1,0.2,0.1,0.2,0v-1.3l0,0H140.5C140.5,60.2,140.5,60.3,140.5,60.2z"/>
				<path class="st31" d="M143.6,58.5l-0.1,1.3c0,0.1,0.2,0.1,0.2,0v-1.3l0,0H143.6L143.6,58.5z"/>
				<path class="st31" d="M126.9,59.5l-0.1,1.3c0,0.1,0.2,0.1,0.2,0v-1.3l0,0H126.9C126.9,59.5,126.8,59.5,126.9,59.5z"/>
				<path class="st31" d="M129.9,57.7l-0.1,1.3c0,0.1,0.2,0.1,0.2,0v-1.3l0,0H129.9L129.9,57.7z"/>
				<path class="st31" d="M133.1,55.9l-0.1,1.3c0,0.1,0.2,0.1,0.2,0v-1.3l0,0H133.1C133.1,55.9,133,55.9,133.1,55.9z"/>
				<path class="st31" d="M136.1,54.1l-0.1,1.3c0,0.1,0.2,0.1,0.2,0v-1.3l0,0H136.1C136.1,54.2,136.1,54.2,136.1,54.1z"/>
				<path class="st31" d="M142.7,56.7l0.1,1.3c0,0.1-0.2,0.1-0.2,0v-1.3l0,0H142.7L142.7,56.7z"/>
				<path class="st31" d="M139.6,54.9l0.1,1.3c0,0.1-0.2,0.1-0.2,0v-1.3l0,0H139.6L139.6,54.9z"/>
				<path class="st31" d="M131.3,63.3l0.1,1.3c0,0.1-0.2,0.1-0.2,0v-1.3l0,0H131.3L131.3,63.3z"/>
				<path class="st31" d="M128.2,61.5l0.1,1.3c0,0.1-0.2,0.1-0.2,0v-1.3l0,0H128.2L128.2,61.5z"/>
				<path class="st31" d="M133.3,64.7l-7.7-4.4c-0.1,0-0.1,0-0.1-0.1l0.1-0.1l11.4-6.6c0.1,0,0.2,0,0.2,0l7.5,4.4
					c0.1,0,0.1,0,0.1,0.1l-0.1,0.1L133.3,64.7L133.3,64.7L133.3,64.7z M137.2,53.7l-11.1,6.4l7.2,4.2l11.1-6.4L137.2,53.7z"/>
				
					<linearGradient id="SVGID_32_" gradientUnits="userSpaceOnUse" x1="264.0128" y1="36.85" x2="271.7857" y2="36.85" gradientTransform="matrix(-1 0 0 1 398.3 8)">
					<stop  offset="0" style="stop-color:#9AA0A4"/>
					<stop  offset="1" style="stop-color:#B9BFC2"/>
				</linearGradient>
				<polygon class="st55" points="126.5,43 127.2,42.6 134.3,46.7 133.6,47.1 				"/>
				<polygon class="st33" points="133.6,47.1 134.3,46.7 134.3,48.5 133.6,48.9 				"/>
				<polygon class="st3" points="133.6,48.9 126.5,43 133.6,47.1 				"/>
				<g>
					<polygon class="st1" points="135.2,49.8 138.3,47.9 138.9,60.4 135.7,62.3 					"/>
					<polygon class="st3" points="135.2,49.8 135.7,62.3 131.9,60.1 132.6,48.3 					"/>
				</g>
				
					<linearGradient id="SVGID_33_" gradientUnits="userSpaceOnUse" x1="253.2131" y1="43.1" x2="260.9771" y2="43.1" gradientTransform="matrix(-1 0 0 1 398.3 8)">
					<stop  offset="0" style="stop-color:#9AA0A4"/>
					<stop  offset="1" style="stop-color:#B9BFC2"/>
				</linearGradient>
				<polygon class="st56" points="137.3,49.2 138,48.9 145.1,52.9 144.4,53.3 				"/>
				<polygon class="st3" points="137.3,49.2 144.4,53.3 137.3,51 				"/>
				<g>
					<polygon class="st29" points="132.2,46.1 132.2,46.5 125.6,42.6 125.6,42.3 					"/>
					<path class="st30" d="M139.1,48.5v0.3l1.2-0.7c0.2-0.1,0.3-0.2,0.3-0.4v-0.3c0,0.2-0.1,0.3-0.3,0.4L139.1,48.5z"/>
					
						<linearGradient id="SVGID_34_" gradientUnits="userSpaceOnUse" x1="262.1949" y1="41.075" x2="263.8964" y2="41.075" gradientTransform="matrix(-1 0 0 1 398.3 8)">
						<stop  offset="0" style="stop-color:#A3AAAE"/>
						<stop  offset="1" style="stop-color:#C3CACD"/>
					</linearGradient>
					<path class="st57" d="M130.1,47.4v0.4c0,0.2,0.1,0.3,0.3,0.4l4.2,2.4c0.4,0.2,0.9,0.2,1.3,0l1.8-1v-0.3l-1.8,1
						c-0.4,0.2-0.9,0.2-1.3,0l-4.2-2.4C130.3,47.8,130.2,47.7,130.1,47.4z"/>
					<polygon class="st30" points="145.7,52.3 145.7,52.6 144.3,53.5 144.3,53.2 					"/>
					<path class="st4" d="M127.1,41.5l6.6,3.8l1.2-0.7c0.4-0.2,0.9-0.2,1.3,0l4.2,2.4c0.4,0.3,0.4,0.6,0,0.8l-1.2,0.7l6.6,3.8
						l-1.5,0.8l-6.6-3.8l-1.8,1c-0.4,0.2-0.9,0.2-1.3,0l-4.2-2.4c-0.4-0.3-0.4-0.6,0-0.8l1.8-1l-6.6-3.8L127.1,41.5z"/>
					<polygon class="st29" points="144.3,53.2 144.3,53.5 137.7,49.7 137.7,49.3 					"/>
				</g>
				<path class="st31" d="M140.2,46.1l-0.1,1.4c0,0.1,0.2,0.1,0.2,0v-1.4l0,0H140.2C140.2,46.1,140.2,46.2,140.2,46.1z"/>
				<path class="st31" d="M137.8,47.5l-0.1,1.3c0,0.1,0.2,0.1,0.2,0v-1.3l0,0H137.8L137.8,47.5z"/>
				<path class="st31" d="M135.4,49l-0.1,1.3c0,0.1,0.2,0.1,0.2,0V49l0,0H135.4C135.3,49,135.3,49,135.4,49z"/>
				<path class="st31" d="M135.3,43.3l-0.1,1.4c0,0.1,0.2,0.1,0.2,0v-1.4l0,0H135.3L135.3,43.3z"/>
				<path class="st31" d="M132.8,44.7l-0.1,1.3c0,0.1,0.2,0.1,0.2,0v-1.3l0,0H132.8L132.8,44.7z"/>
				<path class="st31" d="M130.4,46.1l-0.1,1.4c0,0.1,0.2,0.1,0.2,0v-1.4l0,0H130.4L130.4,46.1z"/>
				<path class="st31" d="M133,47.8l0.1,1.2c0,0.1-0.2,0.1-0.2,0v-1.2l0,0H133L133,47.8z"/>
				<path class="st31" d="M138,44.7l0.1,1.3c0,0.1-0.2,0.1-0.2,0v-1.3l0,0H138L138,44.7z"/>
				<path class="st31" d="M134.6,49l-4.2-2.4c-0.1,0-0.2-0.1-0.2-0.2c-0.1-0.2,0-0.3,0.2-0.4l4.4-2.5c0.4-0.2,0.9-0.2,1.3,0l4.2,2.4
					c0.1,0,0.2,0.1,0.2,0.2c0.1,0.2,0,0.3-0.2,0.4l-4.4,2.5c-0.2,0.2-0.4,0.2-0.6,0.2S134.8,49.1,134.6,49z M140.2,46.1l-4.3-2.5
					c-0.3-0.1-0.7-0.1-1,0l-4.4,2.5l-0.1,0.1l0,0l0.1,0.1l4.2,2.4c0.3,0.1,0.7,0.1,1,0l4.4-2.5C140.2,46.1,140.2,46.1,140.2,46.1
					L140.2,46.1z"/>
				<path class="st5" d="M169.8,54.3l3.4-2v1.5l-3.4,1.9V54.3z M165.8,58l3.4-2v-1.5l-3.4,2V58z"/>
				<path class="st5" d="M159.3,60.3l3.4-2v1.5l-3.4,2V60.3z M155.3,64.1l3.4-2v-1.5l-3.4,2V64.1z"/>
				<path class="st5" d="M148.7,66.4l3.4-2v1.5l-3.4,2V66.4z M144.7,70.2l3.4-2v-1.5l-3.4,2V70.2z"/>
				<path class="st5" d="M138.2,72.5l3.4-2V72l-3.4,2V72.5z M134.2,76.3l3.4-2v-1.5l-3.4,2V76.3z"/>
				<path class="st5" d="M177.2,67.7l3.4-2v1.5l-3.4,2V67.7z M173.2,71.5l3.4-2V68l-3.4,2V71.5z"/>
				<path class="st5" d="M166.6,73.8l3.4-2v1.5l-3.4,2V73.8z M162.7,77.6l3.4-2v-1.5l-3.4,2V77.6z"/>
				<path class="st5" d="M156.1,79.9l3.4-2v1.5l-3.4,2V79.9z M152.1,83.7l3.4-2v-1.5l-3.4,2V83.7z"/>
				<path class="st5" d="M145.5,86l3.4-2v1.5l-3.4,2V86z M141.6,89.8l3.4-2v-1.5l-3.4,2V89.8z"/>
				<path class="st5" d="M135,92.1l3.4-2v1.5l-3.4,2V92.1z M131,95.9l3.4-2v-1.5l-3.4,2V95.9z"/>
				
					<linearGradient id="SVGID_35_" gradientUnits="userSpaceOnUse" x1="273.7737" y1="79.9375" x2="278.1258" y2="79.9375" gradientTransform="matrix(-1 0 0 1 398.3 8)">
					<stop  offset="0" style="stop-color:#9AA0A4"/>
					<stop  offset="1" style="stop-color:#B9BFC2"/>
				</linearGradient>
				<path class="st58" d="M120.1,87.1v0.4c0.1,0.4,0.3,0.7,0.7,0.9c1,0.5,2.1,0.5,3.1,0c0.3-0.2,0.6-0.5,0.6-0.9v-0.4
					c0,0.4-0.2,0.7-0.6,0.9c-1,0.5-2.1,0.5-3.1,0C120.5,87.9,120.2,87.5,120.1,87.1z"/>
				<path class="st59" d="M120.8,88c1,0.5,2.1,0.5,3.1,0c0.9-0.5,0.9-1.3,0-1.8c-1-0.5-2.1-0.5-3.1,0C120,86.7,120,87.5,120.8,88z"
					/>
				
					<radialGradient id="SVGID_36_" cx="276.3975" cy="76.4834" r="3.8506" gradientTransform="matrix(-1 0 0 1 398.3 8)" gradientUnits="userSpaceOnUse">
					<stop  offset="0" style="stop-color:#EDEEF0"/>
					<stop  offset="0.18" style="stop-color:#E0E2E4"/>
					<stop  offset="0.53" style="stop-color:#BCC2C5"/>
					<stop  offset="0.56" style="stop-color:#B9BFC2"/>
					<stop  offset="1" style="stop-color:#9AA0A4"/>
				</radialGradient>
				<path class="st60" d="M120.1,86.2v0.6c0.1,0.4,0.3,0.7,0.7,0.9c1,0.5,2.1,0.5,3.1,0c0.3-0.2,0.6-0.5,0.6-0.9v-0.6
					c0-0.4-0.1-0.8-0.3-1.1c-0.6-1-2-1.3-3-0.7C120.6,84.8,120.2,85.5,120.1,86.2z"/>
				<g>
					<path class="st15" d="M115.1,90.1c0.1,0.1,0.2,0.2,0.4,0.3l-0.1,0.1l5.5-3.2v-0.1c0-0.1-0.1-0.2-0.2-0.3h-0.1L115.1,90.1
						L115.1,90.1z"/>
					<path class="st1" d="M115,90.2c0,0.1,0.1,0.2,0.2,0.3s0.2,0,0.2-0.1c0-0.1-0.1-0.2-0.2-0.3C115.1,90.1,115,90.1,115,90.2z"/>
				</g>
				<polygon class="st61" points="286.4,107.9 293.8,112.2 293.8,103.6 				"/>
				<polygon class="st5" points="131.5,182 161.4,167.8 161.4,159.3 131.5,173.8 				"/>
				<polygon class="st61" points="161.4,167.7 161.4,159.3 153.5,163.1 				"/>
				<path class="st31" d="M179.8,171.1v1.2c0,0.1,0.1,0.1,0.1,0v-1.2l0,0H179.8L179.8,171.1z"/>
				<path class="st31" d="M182.6,169.5v1.2c0,0.1,0.1,0.1,0.1,0v-1.2l0,0H182.6C182.5,169.5,182.5,169.5,182.6,169.5z"/>
				<path class="st31" d="M185.3,167.9v1.2c0,0.1,0.1,0.1,0.1,0v-1.2l0,0H185.3L185.3,167.9z"/>
				<path class="st31" d="M188.1,166.3v1.2c0,0.1,0.1,0.1,0.1,0v-1.2l0,0H188.1L188.1,166.3z"/>
				<path class="st31" d="M171.4,176v1.2c0,0.1,0.1,0.1,0.1,0V176l0,0H171.4L171.4,176z"/>
				<path class="st31" d="M174.2,174.4v1.2c0,0.1,0.1,0.1,0.1,0v-1.2l0,0H174.2C174.1,174.4,174.1,174.4,174.2,174.4z"/>
				<path class="st31" d="M176.9,172.8v1.2c0,0.1,0.1,0.1,0.1,0v-1.2l0,0H176.9L176.9,172.8z"/>
				<path class="st31" d="M163,180.8v1.2c0,0.1,0.1,0.1,0.1,0v-1.2l0,0H163C163,180.8,162.9,180.8,163,180.8z"/>
				<path class="st31" d="M165.7,179.2v1.2c0,0.1,0.1,0.1,0.1,0v-1.2l0,0H165.7L165.7,179.2z"/>
				<path class="st31" d="M168.5,177.6v1.2c0,0.1,0.1,0.1,0.1,0v-1.2l0,0H168.5L168.5,177.6z"/>
				<path class="st31" d="M159.6,181.2v1.2c0,0.1,0.1,0.1,0.1,0v-1.2l0,0H159.6L159.6,181.2z"/>
				<path class="st31" d="M155.7,181.2v1.2c0,0.1,0.1,0.1,0.1,0v-1.2l0,0H155.7L155.7,181.2z"/>
				<path class="st31" d="M151.9,181.2v1.2c0,0.1,0.1,0.1,0.1,0v-1.2l0,0H151.9C151.9,181.2,151.8,181.2,151.9,181.2z"/>
				<path class="st31" d="M148.1,181.2v1.2c0,0.1,0.1,0.1,0.1,0v-1.2l0,0H148.1L148.1,181.2z"/>
				<path class="st31" d="M144.2,181.2v1.2c0,0.1,0.1,0.1,0.1,0v-1.2l0,0H144.2L144.2,181.2z"/>
				<path class="st31" d="M140.4,181.2v1.2c0,0.1,0.1,0.1,0.1,0v-1.2l0,0H140.4L140.4,181.2z"/>
				<path class="st31" d="M136.6,181.2v1.2c0,0.1,0.1,0.1,0.1,0v-1.2l0,0H136.6C136.5,181.2,136.5,181.2,136.6,181.2z"/>
				<path class="st31" d="M132.7,181.2v1.2c0,0.1,0.1,0.1,0.1,0v-1.2l0,0H132.7L132.7,181.2z"/>
				<path class="st31" d="M130.4,181.4v-0.2c0,0,0-0.1,0.1-0.1h31.9l27-15.6c0.1,0,0.2,0,0.2,0.1c0,0.1,0,0.2-0.1,0.2l-27.1,15.6
					h-0.1H130.4L130.4,181.4z"/>
				<path class="st62" d="M160,108.3c0.4,0.5,0.8,0,0.5,0.2c0.1,0,0.2-0.1,0.3-0.2l0,0c0.1-0.2-0.2-0.8-0.4-0.9
					c-0.3-0.2-0.4,0-0.6,0.1C159.8,107.5,159.5,107.8,160,108.3z"/>
				<rect x="159.6" y="105.8" class="st63" width="0.5" height="2.6"/>
				<path class="st62" d="M159.4,108.6c0.4,0.5,0.8,0,0.5,0.2c0.1,0,0.2-0.1,0.3-0.2l0,0c0.1-0.2-0.2-0.8-0.4-0.9
					c-0.3-0.2-0.4,0-0.6,0.1C159.2,107.8,158.9,108.1,159.4,108.6z"/>
				<path class="st62" d="M147.3,107.4c0.4,0.5,0.8,0,0.5,0.2c0.1,0,0.2-0.1,0.3-0.2l0,0c0.1-0.2-0.2-0.8-0.4-0.9
					c-0.3-0.2-0.4,0-0.6,0.1C147.1,106.6,146.8,106.9,147.3,107.4z"/>
				<rect x="146.9" y="104.8" class="st63" width="0.5" height="2.6"/>
				<path class="st62" d="M146.8,107.7c0.4,0.5,0.8,0,0.5,0.2c0.1,0,0.2-0.1,0.3-0.2l0,0c0.1-0.2-0.2-0.8-0.4-0.9
					c-0.3-0.2-0.4,0-0.6,0.1C146.6,106.9,146.3,107.2,146.8,107.7z"/>
				<path class="st62" d="M158.9,100.7c0.4,0.5,0.8,0,0.5,0.2c0.1,0,0.2-0.1,0.3-0.2l0,0c0.1-0.2-0.2-0.8-0.4-0.9
					c-0.3-0.2-0.4,0-0.6,0.1C158.7,99.9,158.4,100.2,158.9,100.7z"/>
				<rect x="158.5" y="98.2" class="st63" width="0.5" height="2.6"/>
				<path class="st62" d="M158.3,101c0.4,0.5,0.8,0,0.5,0.2c0.1,0,0.2-0.1,0.3-0.2l0,0c0.1-0.2-0.2-0.8-0.4-0.9
					c-0.3-0.2-0.4,0-0.6,0.1C158.1,100.2,157.8,100.5,158.3,101z"/>
				<polygon class="st1" points="150,98.9 150,99.2 152.9,96.1 152.9,95.9 				"/>
				
					<linearGradient id="SVGID_37_" gradientUnits="userSpaceOnUse" x1="246.9151" y1="86.9603" x2="248.8673" y2="90.3363" gradientTransform="matrix(-1 0 0 1 398.3 8)">
					<stop  offset="0" style="stop-color:#EDEEF0"/>
					<stop  offset="0.52" style="stop-color:#EBECEE"/>
					<stop  offset="0.75" style="stop-color:#E4E6E8"/>
					<stop  offset="0.91" style="stop-color:#D7DADD"/>
					<stop  offset="1" style="stop-color:#CDD1D4"/>
				</linearGradient>
				<path class="st64" d="M150.1,98.9l2.7-2.9v-0.1l-1-0.6h-0.1l-3.8,2.2L150.1,98.9z"/>
				<polygon class="st1" points="157.6,103.2 157.6,103.5 161.9,95.2 161.9,95 				"/>
				
					<linearGradient id="SVGID_38_" gradientUnits="userSpaceOnUse" x1="239.1149" y1="85.3308" x2="243.7267" y2="93.3097" gradientTransform="matrix(-1 0 0 1 398.3 8)">
					<stop  offset="0" style="stop-color:#EDEEF0"/>
					<stop  offset="0.52" style="stop-color:#EBECEE"/>
					<stop  offset="0.75" style="stop-color:#E4E6E8"/>
					<stop  offset="0.91" style="stop-color:#D7DADD"/>
					<stop  offset="1" style="stop-color:#CDD1D4"/>
				</linearGradient>
				<path class="st65" d="M151.5,99.6l6.1,3.5l4.3-8.1v-0.1l-1.1-0.6h-0.1L151.5,99.6z"/>
				
					<linearGradient id="SVGID_39_" gradientUnits="userSpaceOnUse" x1="242.398" y1="93.6647" x2="243.9921" y2="96.4228" gradientTransform="matrix(-1 0 0 1 398.3 8)">
					<stop  offset="0" style="stop-color:#EAEBED"/>
					<stop  offset="3.000000e-02" style="stop-color:#EBECEE"/>
					<stop  offset="0.35" style="stop-color:#EDEEF0"/>
					<stop  offset="0.56" style="stop-color:#E0E3E5"/>
					<stop  offset="0.94" style="stop-color:#BFC5C8"/>
					<stop  offset="1" style="stop-color:#B9BFC2"/>
				</linearGradient>
				<path class="st66" d="M146.5,98.9l0.5,1.4l1.9,1.1l6.3,3.5c4.7,2.6,8.2,3.8,8.5,3.3c0.1-0.2-2.2-2.5-3.9-4
					c-0.4-0.4-1.1-0.8-1.5-1.1l-10.2-5.9c-0.4-0.3-0.7-0.4-1.1-0.1C146.6,97.6,146.4,98.2,146.5,98.9z"/>
				<path class="st1" d="M139.8,106.5v0.2l0,0l1.1,0.6h0.1l14.5-2.6v-0.2l-14.5,2.6h-0.1L139.8,106.5L139.8,106.5z"/>
				<path class="st4" d="M139.8,106.5l1.1,0.6h0.1l14.5-2.6l-6.3-3.5L139.8,106.5C139.7,106.4,139.7,106.5,139.8,106.5z"/>
				<path class="st1" d="M141.4,101.2v0.2l0,0l1,0.6h0.1l5.3-1.6v-0.2l-5.3,1.6h-0.1L141.4,101.2L141.4,101.2z"/>
				<path class="st4" d="M146.4,98.7h-0.9l-4.1,2.4v0.1l1,0.6h0.1l5.3-1.6L146.4,98.7z"/>
				<path class="st4" d="M147.1,92.4c0.1,0,0.1,0,0.1,0l0,0l0.4,0.5c0.1,0.2,0.2,0.4,0.3,0.6l1.8,4.7l1.3,1.1l0.2-0.1l-1.3-1.1
					l-1.8-4.7c-0.1-0.2-0.2-0.4-0.3-0.6l-0.5-0.5l0,0c0.1,0,0,0,0,0L147.1,92.4z"/>
				<path class="st3" d="M147,97.2l4,2.3l-1.3-1.2l-1.8-4.7c-0.1-0.2-0.2-0.4-0.3-0.6l-0.5-0.5l0,0c0-0.1,0-0.1,0,0L147,97.2z"/>
				<path class="st62" d="M157.8,103.4c-0.4,0.4-0.4,1,0,1.3c0.8,0.5,5.2,3,4.5,1.8c-0.8-1.5-2.1-2.6-3.6-3.3
					C158.4,103.1,158,103.2,157.8,103.4z"/>
				<path class="st62" d="M307.8,41.1c-0.4,0.5-0.8,0-0.5,0.2c-0.1,0-0.2-0.1-0.3-0.2l0,0c-0.1-0.2,0.2-0.8,0.4-0.9
					c0.3-0.2,0.4,0,0.6,0.1C308,40.3,308.3,40.6,307.8,41.1z"/>
				<rect x="307.7" y="38.6" class="st63" width="0.5" height="2.6"/>
				<path class="st62" d="M308.4,41.5c-0.4,0.5-0.8,0-0.5,0.2c-0.1,0-0.2-0.1-0.3-0.2l0,0c-0.1-0.2,0.2-0.8,0.4-0.9
					c0.3-0.2,0.4,0,0.6,0.1C308.6,40.7,308.9,40.9,308.4,41.5z"/>
				<path class="st62" d="M320.4,40.2c-0.4,0.5-0.8,0-0.5,0.2c-0.1,0-0.2-0.1-0.3-0.2l0,0c-0.1-0.2,0.2-0.8,0.4-0.9
					c0.3-0.2,0.4,0,0.6,0.1C320.6,39.4,320.9,39.7,320.4,40.2z"/>
				<rect x="320.3" y="37.7" class="st63" width="0.5" height="2.6"/>
				<path class="st62" d="M321,40.5c-0.4,0.5-0.8,0-0.5,0.2c-0.1,0-0.2-0.1-0.3-0.2l0,0c-0.1-0.2,0.2-0.8,0.4-0.9
					c0.3-0.2,0.4,0,0.6,0.1C321.2,39.7,321.5,40,321,40.5z"/>
				<path class="st62" d="M308.9,33.5c-0.4,0.5-0.8,0-0.5,0.2c-0.1,0-0.2-0.1-0.3-0.2l0,0c-0.1-0.2,0.2-0.8,0.4-0.9
					c0.3-0.2,0.4,0,0.6,0.1C309.1,32.7,309.4,33,308.9,33.5z"/>
				<rect x="308.7" y="31" class="st63" width="0.5" height="2.6"/>
				<path class="st62" d="M309.4,33.9c-0.4,0.5-0.8,0-0.5,0.2c-0.1,0-0.2-0.1-0.3-0.2l0,0c-0.1-0.2,0.2-0.8,0.4-0.9
					c0.3-0.2,0.4,0,0.6,0.1C309.6,33.1,309.8,33.4,309.4,33.9z"/>
				<polygon class="st1" points="317.7,31.8 317.7,32 314.9,28.9 314.9,28.7 				"/>
				
					<linearGradient id="SVGID_40_" gradientUnits="userSpaceOnUse" x1="359.6613" y1="19.7538" x2="361.6139" y2="23.1305" gradientTransform="matrix(1 0 0 1 -43.25 8)">
					<stop  offset="0" style="stop-color:#EDEEF0"/>
					<stop  offset="0.52" style="stop-color:#EBECEE"/>
					<stop  offset="0.75" style="stop-color:#E4E6E8"/>
					<stop  offset="0.91" style="stop-color:#D7DADD"/>
					<stop  offset="1" style="stop-color:#CDD1D4"/>
				</linearGradient>
				<path class="st67" d="M317.7,31.7l-2.7-2.9v-0.1l1-0.6h0.1l3.8,2.2L317.7,31.7z"/>
				<polygon class="st1" points="310.2,36.1 310.2,36.3 305.8,28 305.8,27.8 				"/>
				
					<linearGradient id="SVGID_41_" gradientUnits="userSpaceOnUse" x1="351.7939" y1="18.1655" x2="356.3968" y2="26.1444" gradientTransform="matrix(1 0 0 1 -43.25 8)">
					<stop  offset="0" style="stop-color:#EDEEF0"/>
					<stop  offset="0.52" style="stop-color:#EBECEE"/>
					<stop  offset="0.75" style="stop-color:#E4E6E8"/>
					<stop  offset="0.91" style="stop-color:#D7DADD"/>
					<stop  offset="1" style="stop-color:#CDD1D4"/>
				</linearGradient>
				<path class="st68" d="M316.2,32.4l-6.1,3.5l-4.3-8.1v-0.1l1.1-0.6h0.1L316.2,32.4z"/>
				
					<linearGradient id="SVGID_42_" gradientUnits="userSpaceOnUse" x1="355.0909" y1="26.5026" x2="356.6848" y2="29.2608" gradientTransform="matrix(1 0 0 1 -43.25 8)">
					<stop  offset="0" style="stop-color:#EAEBED"/>
					<stop  offset="3.000000e-02" style="stop-color:#EBECEE"/>
					<stop  offset="0.35" style="stop-color:#EDEEF0"/>
					<stop  offset="0.56" style="stop-color:#E0E3E5"/>
					<stop  offset="0.94" style="stop-color:#BFC5C8"/>
					<stop  offset="1" style="stop-color:#B9BFC2"/>
				</linearGradient>
				<path class="st69" d="M321.3,31.6l-0.6,1.4l-1.9,1.2l-6.3,3.5c-4.7,2.6-8.2,3.8-8.5,3.3c-0.1-0.2,2.2-2.5,3.9-4
					c0.4-0.4,1.1-0.8,1.5-1.1l10.2-5.8c0.4-0.3,0.7-0.4,1.1-0.1C321.2,30.4,321.4,31,321.3,31.6z"/>
				<path class="st1" d="M328,39.3v0.2l0,0l-1.1,0.6h-0.1l-14.5-2.6v-0.2l14.5,2.6h0.1L328,39.3L328,39.3z"/>
				<path class="st4" d="M328.1,39.4L327,40h-0.1l-14.6-2.7l6.3-3.5l9.4,5.4C328,39.2,328,39.4,328.1,39.4z"/>
				<path class="st1" d="M326.3,34.1v0.2l0,0l-1,0.6h-0.1l-5.3-1.6v-0.2l5.3,1.6h0.1L326.3,34.1L326.3,34.1z"/>
				<path class="st4" d="M321.3,31.5h0.9l4.1,2.4V34l-1,0.6h-0.1l-5.3-1.6L321.3,31.5z"/>
				<path class="st4" d="M320.6,25.2c-0.1,0-0.1,0-0.1,0l0,0l-0.4,0.5c-0.1,0.2-0.2,0.4-0.3,0.6L318,31l-1.3,1.1l-0.2-0.1l1.3-1.1
					l1.8-4.7c0.1-0.2,0.2-0.4,0.3-0.6l0.5-0.5l0,0l0,0L320.6,25.2z"/>
				<path class="st3" d="M320.7,29.9l-4,2.3l1.3-1.1l1.8-4.7c0.1-0.2,0.2-0.4,0.3-0.6l0.5-0.5l0,0c0-0.1,0-0.1,0,0L320.7,29.9z"/>
				<path class="st62" d="M309.9,36.2c0.4,0.4,0.4,1,0,1.3c-0.8,0.5-5.2,3-4.5,1.8c0.8-1.5,2.1-2.6,3.6-3.3
					C309.4,35.9,309.7,36,309.9,36.2z"/>
				<path class="st62" d="M330.8,54.5c-0.4,0.5-0.8,0-0.5,0.2c-0.1,0-0.2-0.1-0.3-0.2l0,0c-0.1-0.2,0.2-0.8,0.4-0.9
					c0.3-0.2,0.4,0,0.6,0.1C331,53.7,331.3,53.9,330.8,54.5z"/>
				<rect x="330.7" y="51.9" class="st63" width="0.5" height="2.6"/>
				<path class="st62" d="M331.4,54.8c-0.4,0.5-0.8,0-0.5,0.2c-0.1,0-0.2-0.1-0.3-0.2l0,0c-0.1-0.2,0.1-0.7,0.4-0.9
					c0.3-0.2,0.4,0,0.6,0.1C331.6,54,331.8,54.3,331.4,54.8z"/>
				<path class="st62" d="M343.5,53.5c-0.4,0.5-0.8,0-0.5,0.2c-0.1,0-0.2-0.1-0.3-0.2l0,0c-0.1-0.2,0.2-0.8,0.4-0.9
					c0.3-0.2,0.4,0,0.6,0.1C343.7,52.7,343.9,53,343.5,53.5z"/>
				<rect x="343.3" y="51" class="st63" width="0.5" height="2.6"/>
				<path class="st62" d="M344,53.8c-0.4,0.5-0.8,0-0.5,0.2c-0.1,0-0.2-0.1-0.3-0.2l0,0c-0.1-0.2,0.2-0.8,0.4-0.9
					c0.3-0.2,0.4,0,0.6,0.1C344.2,53,344.4,53.3,344,53.8z"/>
				<path class="st62" d="M332,46.8c-0.4,0.5-0.8,0-0.5,0.2c-0.1,0-0.2-0.1-0.4-0.2l0,0c-0.1-0.2,0.1-0.7,0.4-0.9
					c0.3-0.2,0.4,0,0.6,0.1C332.1,46,332.4,46.3,332,46.8z"/>
				<rect x="331.8" y="44.3" class="st63" width="0.5" height="2.6"/>
				<path class="st62" d="M332.5,47.2c-0.4,0.5-0.8,0-0.5,0.2c-0.1,0-0.2-0.1-0.3-0.2l0,0c-0.1-0.2,0.2-0.8,0.4-0.9
					c0.3-0.2,0.4,0,0.6,0.1C332.7,46.4,333,46.6,332.5,47.2z"/>
				<polygon class="st1" points="340.8,45.1 340.8,45.3 337.9,42.3 337.9,42 				"/>
				
					<linearGradient id="SVGID_43_" gradientUnits="userSpaceOnUse" x1="382.6986" y1="33.0682" x2="384.6512" y2="36.445" gradientTransform="matrix(1 0 0 1 -43.25 8)">
					<stop  offset="0" style="stop-color:#EDEEF0"/>
					<stop  offset="0.52" style="stop-color:#EBECEE"/>
					<stop  offset="0.75" style="stop-color:#E4E6E8"/>
					<stop  offset="0.91" style="stop-color:#D7DADD"/>
					<stop  offset="1" style="stop-color:#CDD1D4"/>
				</linearGradient>
				<path class="st70" d="M340.7,44.9L338,42v0l1-0.6h0.1l3.8,2.2L340.7,44.9z"/>
				<polygon class="st1" points="333.2,49.4 333.2,49.6 328.9,41.3 328.9,41.1 				"/>
				
					<linearGradient id="SVGID_44_" gradientUnits="userSpaceOnUse" x1="374.8598" y1="31.4654" x2="379.4626" y2="39.4353" gradientTransform="matrix(1 0 0 1 -43.25 8)">
					<stop  offset="0" style="stop-color:#EDEEF0"/>
					<stop  offset="0.52" style="stop-color:#EBECEE"/>
					<stop  offset="0.75" style="stop-color:#E4E6E8"/>
					<stop  offset="0.91" style="stop-color:#D7DADD"/>
					<stop  offset="1" style="stop-color:#CDD1D4"/>
				</linearGradient>
				<path class="st71" d="M339.3,45.8l-6.1,3.4l-4.3-8.1V41l1.1-0.6h0.1L339.3,45.8z"/>
				
					<linearGradient id="SVGID_45_" gradientUnits="userSpaceOnUse" x1="378.1378" y1="39.8114" x2="379.7227" y2="42.5696" gradientTransform="matrix(1 0 0 1 -43.25 8)">
					<stop  offset="0" style="stop-color:#EAEBED"/>
					<stop  offset="3.000000e-02" style="stop-color:#EBECEE"/>
					<stop  offset="0.35" style="stop-color:#EDEEF0"/>
					<stop  offset="0.56" style="stop-color:#E0E3E5"/>
					<stop  offset="0.94" style="stop-color:#BFC5C8"/>
					<stop  offset="1" style="stop-color:#B9BFC2"/>
				</linearGradient>
				<path class="st72" d="M344.3,44.9l-0.5,1.6l-1.9,1.1l-6.3,3.5c-4.7,2.6-8.2,3.8-8.5,3.3c-0.1-0.2,2.2-2.5,3.9-4
					c0.4-0.4,1.1-0.8,1.5-1.1l10.2-5.9c0.4-0.3,0.7-0.4,1.1-0.1C344.2,43.7,344.4,44.3,344.3,44.9z"/>
				<path class="st1" d="M351.1,52.6l-0.1,0.2l0,0l-1,0.6h-0.1l-14.5-2.6v-0.2l14.5,2.6h0.1L351.1,52.6
					C351,52.6,351,52.6,351.1,52.6z"/>
				<path class="st4" d="M351.1,52.6l-1.1,0.6h-0.1l-14.5-2.6l6.3-3.5L351.1,52.6C351.1,52.6,351.1,52.7,351.1,52.6z"/>
				<path class="st1" d="M349.4,47.4v0.3l0,0l-1,0.6h-0.1l-5.3-1.6v-0.3l5.3,1.6h0.1L349.4,47.4L349.4,47.4z"/>
				<path class="st4" d="M344.4,44.9h0.9l4.1,2.4v0.1l-1,0.6h-0.1l-5.3-1.6L344.4,44.9z"/>
				<path class="st4" d="M343.6,38.4c-0.1,0-0.1,0-0.1,0l0,0l-0.4,0.6c-0.1,0.2-0.2,0.4-0.3,0.6l-1.8,4.7l-1.2,1.1l-0.2-0.1l1.3-1.1
					l1.8-4.7c0.1-0.2,0.2-0.4,0.3-0.6l0.5-0.5l0,0l0,0H343.6z"/>
				<path class="st3" d="M343.8,43.2l-4,2.3l1.3-1.1l1.8-4.7c0.1-0.2,0.2-0.4,0.3-0.6l0.5-0.5l0,0c0-0.1,0-0.1,0,0L343.8,43.2z"/>
				<path class="st62" d="M333,49.5c0.4,0.4,0.4,1,0,1.3c-0.8,0.5-5.2,3-4.5,1.8c0.8-1.5,2.1-2.6,3.6-3.3
					C332.4,49.2,332.8,49.3,333,49.5z"/>
				<path class="st62" d="M183,95.1c0.4,0.5,0.8,0,0.5,0.2c0.1,0,0.2-0.1,0.3-0.2l0,0c0.1-0.2-0.2-0.8-0.4-0.9
					c-0.3-0.2-0.4,0-0.6,0.1C182.8,94.3,182.6,94.6,183,95.1z"/>
				<rect x="182.6" y="92.5" class="st63" width="0.5" height="2.6"/>
				<path class="st62" d="M182.4,95.4c0.4,0.5,0.8,0,0.5,0.2c0.1,0,0.2-0.1,0.3-0.2l0,0c0.1-0.2-0.2-0.8-0.4-0.9
					c-0.3-0.2-0.4,0-0.6,0.1C182.2,94.6,182,94.9,182.4,95.4z"/>
				<path class="st62" d="M170.3,94.1c0.4,0.5,0.8,0,0.5,0.2c0.1,0,0.2-0.1,0.3-0.2l0,0c0.1-0.2-0.1-0.7-0.4-0.9s-0.4,0-0.6,0.1
					C170.1,93.3,169.8,93.6,170.3,94.1z"/>
				<rect x="169.9" y="91.6" class="st63" width="0.5" height="2.6"/>
				<path class="st62" d="M169.8,94.4c0.4,0.5,0.8,0,0.5,0.2c0.1,0,0.2-0.1,0.3-0.2l0,0c0.1-0.2-0.2-0.8-0.4-0.9
					c-0.3-0.2-0.4,0-0.6,0.1C169.6,93.6,169.2,93.9,169.8,94.4z"/>
				<path class="st62" d="M181.9,87.4c0.4,0.5,0.8,0,0.5,0.2c0.1,0,0.2-0.1,0.3-0.2l0,0c0.1-0.2-0.2-0.8-0.4-0.9
					c-0.3-0.2-0.4,0-0.6,0.1C181.7,86.6,181.4,86.9,181.9,87.4z"/>
				<rect x="181.5" y="84.9" class="st63" width="0.5" height="2.6"/>
				<path class="st62" d="M181.3,87.8c0.4,0.5,0.8,0,0.5,0.2c0.1,0,0.2-0.1,0.3-0.2l0,0c0.1-0.2-0.2-0.8-0.4-0.9
					c-0.3-0.2-0.4,0-0.6,0.1C181.1,87,180.8,87.2,181.3,87.8z"/>
				<polygon class="st1" points="173,85.7 173,85.9 175.9,82.8 175.9,82.6 				"/>
				
					<linearGradient id="SVGID_46_" gradientUnits="userSpaceOnUse" x1="223.9277" y1="73.6821" x2="225.8803" y2="77.0588" gradientTransform="matrix(-1 0 0 1 398.3 8)">
					<stop  offset="0" style="stop-color:#EDEEF0"/>
					<stop  offset="0.52" style="stop-color:#EBECEE"/>
					<stop  offset="0.75" style="stop-color:#E4E6E8"/>
					<stop  offset="0.91" style="stop-color:#D7DADD"/>
					<stop  offset="1" style="stop-color:#CDD1D4"/>
				</linearGradient>
				<path class="st73" d="M173.1,85.6l2.7-2.9v-0.1l-1-0.6h-0.1l-3.8,2.2L173.1,85.6z"/>
				<polygon class="st1" points="180.5,90 180.5,90.2 184.9,81.9 184.9,81.7 				"/>
				
					<linearGradient id="SVGID_47_" gradientUnits="userSpaceOnUse" x1="216.1263" y1="72.0506" x2="220.7381" y2="80.0295" gradientTransform="matrix(-1 0 0 1 398.3 8)">
					<stop  offset="0" style="stop-color:#EDEEF0"/>
					<stop  offset="0.52" style="stop-color:#EBECEE"/>
					<stop  offset="0.75" style="stop-color:#E4E6E8"/>
					<stop  offset="0.91" style="stop-color:#D7DADD"/>
					<stop  offset="1" style="stop-color:#CDD1D4"/>
				</linearGradient>
				<path class="st74" d="M174.5,86.3l6.1,3.5l4.3-8.1v-0.1l-1.1-0.6h-0.1L174.5,86.3z"/>
				
					<linearGradient id="SVGID_48_" gradientUnits="userSpaceOnUse" x1="219.4119" y1="80.3928" x2="221.0059" y2="83.1509" gradientTransform="matrix(-1 0 0 1 398.3 8)">
					<stop  offset="0" style="stop-color:#EAEBED"/>
					<stop  offset="3.000000e-02" style="stop-color:#EBECEE"/>
					<stop  offset="0.35" style="stop-color:#EDEEF0"/>
					<stop  offset="0.56" style="stop-color:#E0E3E5"/>
					<stop  offset="0.94" style="stop-color:#BFC5C8"/>
					<stop  offset="1" style="stop-color:#B9BFC2"/>
				</linearGradient>
				<path class="st75" d="M169.4,85.6l0.5,1.4l2,1.1l6.3,3.5c4.7,2.6,8.2,3.8,8.5,3.3c0.1-0.2-2.2-2.5-3.9-4
					c-0.4-0.4-1.1-0.8-1.5-1.1L171.1,84c-0.4-0.3-0.7-0.4-1.1-0.1C169.6,84.3,169.3,84.9,169.4,85.6z"/>
				<path class="st1" d="M162.7,93.2v0.2l0,0l1.1,0.6h0.1l14.5-2.6v-0.2l-14.5,2.6h-0.1L162.7,93.2L162.7,93.2z"/>
				<path class="st4" d="M162.7,93.2l1.1,0.6h0.1l14.5-2.6l-6.3-3.5L162.7,93.2C162.7,93.2,162.7,93.3,162.7,93.2z"/>
				<path class="st1" d="M164.4,88L164.4,88L164.4,88l1,0.7h0.1l5.3-1.6v-0.2l-5.3,1.7h-0.1L164.4,88L164.4,88z"/>
				<path class="st4" d="M169.4,85.4h-0.9l-4.1,2.4v0.1l1,0.6h0.1l5.3-1.6L169.4,85.4z"/>
				<path class="st4" d="M170.1,79.3c0.1,0,0.1,0,0.1,0l0,0l0.4,0.5c0.2,0.1,0.3,0.3,0.4,0.5l1.8,4.7l1.3,1.1l0.2-0.1l-1.4-1.2
					l-1.8-4.7c-0.1-0.2-0.2-0.4-0.3-0.6l-0.5-0.5l0,0l0,0L170.1,79.3z"/>
				<path class="st3" d="M170.1,83.8l4,2.3l-1.3-1.1l-1.8-4.7c-0.1-0.2-0.2-0.4-0.3-0.6l-0.6-0.5l0,0c0-0.1,0-0.1,0,0L170.1,83.8z"
					/>
				<path class="st62" d="M180.8,90.1c-0.4,0.4-0.4,1,0,1.3c0.8,0.5,5.2,3,4.5,1.8c-0.8-1.5-2.1-2.6-3.6-3.3
					C181.4,89.8,181,89.9,180.8,90.1z"/>
				<path class="st62" d="M206,81.8c0.4,0.5,0.8,0,0.5,0.2c0.1,0,0.2-0.1,0.3-0.2l0,0c0.1-0.2-0.2-0.8-0.4-0.9
					c-0.3-0.2-0.4,0-0.6,0.1C205.8,81,205.4,81.2,206,81.8z"/>
				<rect x="205.5" y="79.2" class="st63" width="0.5" height="2.6"/>
				<path class="st62" d="M205.4,82.1c0.4,0.5,0.8,0,0.5,0.2c0.1,0,0.2-0.1,0.3-0.2l0,0c0.1-0.2-0.2-0.8-0.4-0.9
					c-0.3-0.2-0.4,0-0.6,0.1C205.2,81.3,204.9,81.6,205.4,82.1z"/>
				<path class="st62" d="M193.3,80.8c0.4,0.5,0.8,0,0.5,0.2c0.1,0,0.2-0.1,0.3-0.2l0,0c0.1-0.2-0.2-0.8-0.4-0.9
					c-0.3-0.2-0.4,0-0.6,0.1C193.1,80,192.8,80.3,193.3,80.8z"/>
				<rect x="192.9" y="78.3" class="st63" width="0.5" height="2.6"/>
				<path class="st62" d="M192.7,81.2c0.4,0.5,0.8,0,0.5,0.2c0.1,0,0.2-0.1,0.3-0.2l0,0c0.1-0.2-0.2-0.8-0.4-0.9
					c-0.3-0.2-0.4,0-0.6,0.1C192.5,80.4,192.2,80.6,192.7,81.2z"/>
				<path class="st62" d="M204.9,74.2c0.4,0.5,0.8,0,0.5,0.2c0.1,0,0.2-0.1,0.3-0.2l0,0c0.1-0.2-0.2-0.8-0.4-0.9
					c-0.3-0.2-0.4,0-0.6,0.1C204.7,73.4,204.4,73.6,204.9,74.2z"/>
				<rect x="204.5" y="71.6" class="st63" width="0.5" height="2.6"/>
				<path class="st62" d="M204.3,74.5c0.4,0.5,0.8,0,0.5,0.2c0.1,0,0.2-0.1,0.3-0.2l0,0c0.1-0.2-0.2-0.8-0.4-0.9
					c-0.3-0.2-0.4,0-0.6,0.1C204.1,73.7,203.8,74,204.3,74.5z"/>
				<polygon class="st1" points="196,72.4 196,72.6 198.9,69.6 198.9,69.3 				"/>
				
					<linearGradient id="SVGID_49_" gradientUnits="userSpaceOnUse" x1="200.9467" y1="60.4071" x2="202.8912" y2="63.7852" gradientTransform="matrix(-1 0 0 1 398.3 8)">
					<stop  offset="0" style="stop-color:#EDEEF0"/>
					<stop  offset="0.52" style="stop-color:#EBECEE"/>
					<stop  offset="0.75" style="stop-color:#E4E6E8"/>
					<stop  offset="0.91" style="stop-color:#D7DADD"/>
					<stop  offset="1" style="stop-color:#CDD1D4"/>
				</linearGradient>
				<path class="st76" d="M196.1,72.3l2.7-2.9v-0.1l-1-0.6h-0.1l-3.8,2.2L196.1,72.3z"/>
				<polygon class="st1" points="203.5,76.7 203.5,76.9 207.9,68.7 207.9,68.4 				"/>
				
					<linearGradient id="SVGID_50_" gradientUnits="userSpaceOnUse" x1="193.142" y1="58.7776" x2="197.7557" y2="66.7598" gradientTransform="matrix(-1 0 0 1 398.3 8)">
					<stop  offset="0" style="stop-color:#EDEEF0"/>
					<stop  offset="0.52" style="stop-color:#EBECEE"/>
					<stop  offset="0.75" style="stop-color:#E4E6E8"/>
					<stop  offset="0.91" style="stop-color:#D7DADD"/>
					<stop  offset="1" style="stop-color:#CDD1D4"/>
				</linearGradient>
				<path class="st77" d="M197.5,73l6.1,3.5l4.3-8.1v-0.1l-1.1-0.6h-0.1L197.5,73z"/>
				
					<linearGradient id="SVGID_51_" gradientUnits="userSpaceOnUse" x1="196.3412" y1="67.1691" x2="197.9352" y2="69.9272" gradientTransform="matrix(-1 0 0 1 398.3 8)">
					<stop  offset="0" style="stop-color:#EAEBED"/>
					<stop  offset="3.000000e-02" style="stop-color:#EBECEE"/>
					<stop  offset="0.35" style="stop-color:#EDEEF0"/>
					<stop  offset="0.56" style="stop-color:#E0E3E5"/>
					<stop  offset="0.94" style="stop-color:#BFC5C8"/>
					<stop  offset="1" style="stop-color:#B9BFC2"/>
				</linearGradient>
				<path class="st78" d="M192.6,72.4l0.5,1.4l1.9,1.1l6.3,3.5c4.7,2.6,8.2,3.8,8.5,3.3c0.1-0.2-2.2-2.5-3.9-4
					c-0.4-0.4-1.1-0.8-1.5-1.1l-10.2-5.9c-0.4-0.3-0.7-0.4-1.1-0.1C192.6,71,192.4,71.7,192.6,72.4z"/>
				<path class="st1" d="M185.7,79.9v0.2l0,0l1.1,0.6h0.1l14.5-2.6v-0.2l-14.5,2.6h-0.1L185.7,79.9C185.7,80,185.7,80,185.7,79.9z"
					/>
				<path class="st4" d="M185.7,79.9l1.1,0.6h0.1l14.5-2.6l-6.3-3.5L185.7,79.9C185.7,79.9,185.7,80,185.7,79.9z"/>
				<path class="st1" d="M187.4,74.7v0.2l0,0l1,0.6h0.1l5.3-1.6v-0.2l-5.3,1.6h-0.1L187.4,74.7L187.4,74.7z"/>
				<path class="st4" d="M192.4,72.2h-0.9l-4.1,2.4v0.1l1,0.6h0.1l5.3-1.6L192.4,72.2z"/>
				<path class="st4" d="M193.2,65.9c0.1,0,0.1,0,0.1,0l0,0l0.4,0.5c0.1,0.2,0.2,0.4,0.3,0.6l1.8,4.7l1.2,1.1l0.2-0.1l-1.3-1.1
					l-1.8-4.7c-0.1-0.2-0.2-0.4-0.3-0.6L193.2,65.9L193.2,65.9C193.3,65.7,193.3,65.7,193.2,65.9L193.2,65.9z"/>
				<path class="st3" d="M193.1,65.9v4.6l3.9,2.3l-1.3-1.1l-1.8-4.7c-0.1-0.2-0.2-0.4-0.3-0.6L193.1,65.9L193.1,65.9
					C193.1,65.8,193.1,65.9,193.1,65.9L193.1,65.9z"/>
				<path class="st62" d="M203.8,76.9c-0.4,0.4-0.4,1,0,1.3c0.8,0.5,5.2,3,4.5,1.8c-0.8-1.5-2.1-2.6-3.6-3.3
					C204.4,76.5,204,76.6,203.8,76.9z"/>
				<path class="st62" d="M228.9,68.5c0.4,0.5,0.8,0,0.5,0.2c0.1,0,0.2-0.1,0.3-0.2l0,0c0.1-0.2-0.2-0.8-0.4-0.9
					c-0.3-0.2-0.4,0-0.6,0.1C228.7,67.7,228.4,68,228.9,68.5z"/>
				<rect x="228.5" y="66" class="st63" width="0.5" height="2.6"/>
				<path class="st62" d="M228.4,68.8c0.4,0.5,0.8,0,0.5,0.2c0.1,0,0.2-0.1,0.3-0.2l0,0c0.1-0.2-0.2-0.8-0.4-0.9
					c-0.3-0.2-0.4,0-0.6,0.1C228.2,68,227.9,68.3,228.4,68.8z"/>
				<path class="st62" d="M216.3,67.6c0.4,0.5,0.8,0,0.5,0.2c0.1,0,0.2-0.1,0.3-0.2l0,0c0.1-0.2-0.2-0.8-0.4-0.9
					c-0.3-0.2-0.4,0-0.6,0.1C216.1,66.8,215.9,67.1,216.3,67.6z"/>
				<rect x="215.9" y="65" class="st63" width="0.5" height="2.6"/>
				<path class="st62" d="M215.7,67.9c0.4,0.5,0.8,0,0.5,0.2c0.1,0,0.2-0.1,0.3-0.2l0,0c0.1-0.2-0.2-0.8-0.4-0.9
					c-0.3-0.2-0.4,0-0.6,0.1C215.5,67.1,215.2,67.4,215.7,67.9z"/>
				<path class="st62" d="M227.9,60.9c0.4,0.5,0.8,0,0.5,0.2c0.1,0,0.2-0.1,0.3-0.2l0,0c0.1-0.2-0.2-0.8-0.4-0.9
					c-0.3-0.2-0.4,0-0.6,0.1C227.7,60.1,227.3,60.4,227.9,60.9z"/>
				<rect x="227.4" y="58.3" class="st63" width="0.5" height="2.6"/>
				<path class="st62" d="M227.3,61.2c0.4,0.5,0.8,0,0.5,0.2c0.1,0,0.2-0.1,0.3-0.2l0,0c0.1-0.2-0.2-0.8-0.4-0.9
					c-0.3-0.2-0.4,0-0.6,0.1C227.1,60.4,226.8,60.7,227.3,61.2z"/>
				<polygon class="st1" points="219,59.1 219,59.4 221.9,56.3 221.8,56.1 				"/>
				
					<linearGradient id="SVGID_52_" gradientUnits="userSpaceOnUse" x1="177.9622" y1="47.1339" x2="179.9066" y2="50.512" gradientTransform="matrix(-1 0 0 1 398.3 8)">
					<stop  offset="0" style="stop-color:#EDEEF0"/>
					<stop  offset="0.52" style="stop-color:#EBECEE"/>
					<stop  offset="0.75" style="stop-color:#E4E6E8"/>
					<stop  offset="0.91" style="stop-color:#D7DADD"/>
					<stop  offset="1" style="stop-color:#CDD1D4"/>
				</linearGradient>
				<path class="st79" d="M219.1,59l2.7-2.9V56l-1-0.6h-0.1l-3.8,2.2L219.1,59z"/>
				<polygon class="st1" points="226.5,63.4 226.5,63.6 230.9,55.4 230.9,55.1 				"/>
				
					<linearGradient id="SVGID_53_" gradientUnits="userSpaceOnUse" x1="170.1149" y1="45.5308" x2="174.7267" y2="53.5097" gradientTransform="matrix(-1 0 0 1 398.3 8)">
					<stop  offset="0" style="stop-color:#EDEEF0"/>
					<stop  offset="0.52" style="stop-color:#EBECEE"/>
					<stop  offset="0.75" style="stop-color:#E4E6E8"/>
					<stop  offset="0.91" style="stop-color:#D7DADD"/>
					<stop  offset="1" style="stop-color:#CDD1D4"/>
				</linearGradient>
				<path class="st80" d="M220.5,59.8l6.1,3.5l4.3-8.1v-0.1l-1.1-0.6h-0.1L220.5,59.8z"/>
				
					<linearGradient id="SVGID_54_" gradientUnits="userSpaceOnUse" x1="173.4016" y1="53.8708" x2="174.9956" y2="56.6289" gradientTransform="matrix(-1 0 0 1 398.3 8)">
					<stop  offset="0" style="stop-color:#EAEBED"/>
					<stop  offset="3.000000e-02" style="stop-color:#EBECEE"/>
					<stop  offset="0.35" style="stop-color:#EDEEF0"/>
					<stop  offset="0.56" style="stop-color:#E0E3E5"/>
					<stop  offset="0.94" style="stop-color:#BFC5C8"/>
					<stop  offset="1" style="stop-color:#B9BFC2"/>
				</linearGradient>
				<path class="st81" d="M215.5,59.1l0.5,1.4l1.9,1.1l6.3,3.5c4.7,2.6,8.2,3.8,8.5,3.3c0.1-0.2-2.2-2.5-3.9-4
					c-0.4-0.4-1.1-0.8-1.5-1.1l-10.2-5.9c-0.4-0.3-0.7-0.4-1.1-0.1C215.6,57.8,215.4,58.4,215.5,59.1z"/>
				<path class="st1" d="M208.7,66.7v0.2l0,0l1.1,0.6h0.1l14.5-2.6v-0.2l-14.5,2.6h-0.1L208.7,66.7L208.7,66.7z"/>
				<path class="st4" d="M208.7,66.7l1.1,0.6h0.1l14.5-2.6l-6.3-3.5L208.7,66.7C208.7,66.6,208.7,66.7,208.7,66.7z"/>
				<path class="st1" d="M210.4,61.5v0.2l0,0l1,0.6h0.1l5.3-1.6v-0.2l-5.3,1.6h-0.1L210.4,61.5L210.4,61.5z"/>
				<path class="st4" d="M215.4,58.9h-0.9l-4.1,2.4v0.1l1,0.6h0.1l5.3-1.6L215.4,58.9z"/>
				<path class="st4" d="M216.1,52.6c0.1,0,0.1,0,0.1,0l0,0l0.4,0.5c0.1,0.2,0.2,0.4,0.3,0.6l1.8,4.7l1.3,1.1l0.2-0.1l-1.3-1.1
					l-1.8-4.7c-0.1-0.2-0.2-0.4-0.3-0.6l-0.5-0.5l0,0l0,0L216.1,52.6z"/>
				<path class="st3" d="M216,57.2l4,2.3l-1.3-1.1l-1.8-4.7c-0.1-0.2-0.2-0.4-0.3-0.6l-0.5-0.5l0,0l0,0L216,57.2z"/>
				<path class="st62" d="M226.8,63.6c-0.4,0.4-0.4,1,0,1.3c0.8,0.5,5.2,3,4.5,1.8c-0.8-1.5-2.1-2.6-3.6-3.3
					C227.4,63.3,227,63.4,226.8,63.6z"/>
				<path class="st62" d="M251.9,55.2c0.4,0.5,0.8,0,0.5,0.2c0.1,0,0.2-0.1,0.3-0.2l0,0c0.1-0.2-0.2-0.8-0.4-0.9
					c-0.3-0.2-0.4,0-0.6,0.1C251.7,54.4,251.4,54.7,251.9,55.2z"/>
				<rect x="251.5" y="52.7" class="st63" width="0.5" height="2.6"/>
				<path class="st62" d="M251.4,55.6c0.4,0.5,0.8,0,0.5,0.2c0.1,0,0.2-0.1,0.3-0.2l0,0c0.1-0.2-0.2-0.8-0.4-0.9
					c-0.3-0.2-0.4,0-0.6,0.1C251.2,54.8,250.8,55,251.4,55.6z"/>
				<path class="st62" d="M239.3,54.3c0.4,0.5,0.8,0,0.5,0.2c0.1,0,0.2-0.1,0.3-0.2l0,0c0.1-0.2-0.2-0.8-0.4-0.9
					c-0.3-0.2-0.4,0-0.6,0.1C239.1,53.5,238.8,53.8,239.3,54.3z"/>
				<rect x="238.9" y="51.7" class="st63" width="0.5" height="2.6"/>
				<path class="st62" d="M238.7,54.6c0.4,0.5,0.8,0,0.5,0.2c0.1,0,0.2-0.1,0.3-0.2l0,0c0.1-0.2-0.2-0.8-0.4-0.9
					c-0.3-0.2-0.4,0-0.6,0.1C238.5,53.8,238.3,54.1,238.7,54.6z"/>
				<path class="st62" d="M250.8,47.6c0.4,0.5,0.8,0,0.5,0.2c0.1,0,0.2-0.1,0.3-0.2l0,0c0.1-0.2-0.2-0.8-0.4-0.9
					c-0.3-0.2-0.4,0-0.6,0.1C250.6,46.8,250.4,47.1,250.8,47.6z"/>
				<rect x="250.4" y="45.1" class="st63" width="0.5" height="2.6"/>
				<path class="st62" d="M250.3,48c0.4,0.5,0.8,0,0.5,0.2c0.1,0,0.2-0.1,0.3-0.2l0,0c0.1-0.2-0.2-0.8-0.4-0.9
					c-0.3-0.2-0.4,0-0.6,0.1C250.1,47.2,249.8,47.4,250.3,48z"/>
				<polygon class="st1" points="242,45.9 242,46.1 244.8,43 244.8,42.8 				"/>
				
					<linearGradient id="SVGID_55_" gradientUnits="userSpaceOnUse" x1="155.0098" y1="33.8428" x2="156.953" y2="37.2188" gradientTransform="matrix(-1 0 0 1 398.3 8)">
					<stop  offset="0" style="stop-color:#EDEEF0"/>
					<stop  offset="0.52" style="stop-color:#EBECEE"/>
					<stop  offset="0.75" style="stop-color:#E4E6E8"/>
					<stop  offset="0.91" style="stop-color:#D7DADD"/>
					<stop  offset="1" style="stop-color:#CDD1D4"/>
				</linearGradient>
				<path class="st82" d="M242,45.8l2.7-2.9v-0.1l-1-0.6h-0.1l-3.8,2.2L242,45.8z"/>
				<polygon class="st1" points="249.5,50.1 249.5,50.4 253.9,42.1 253.9,41.9 				"/>
				
					<linearGradient id="SVGID_56_" gradientUnits="userSpaceOnUse" x1="147.1259" y1="32.2588" x2="151.7377" y2="40.2287" gradientTransform="matrix(-1 0 0 1 398.3 8)">
					<stop  offset="0" style="stop-color:#EDEEF0"/>
					<stop  offset="0.52" style="stop-color:#EBECEE"/>
					<stop  offset="0.75" style="stop-color:#E4E6E8"/>
					<stop  offset="0.91" style="stop-color:#D7DADD"/>
					<stop  offset="1" style="stop-color:#CDD1D4"/>
				</linearGradient>
				<path class="st83" d="M243.5,46.5l6.1,3.5l4.3-8.1v-0.1l-1.1-0.6h-0.1L243.5,46.5z"/>
				
					<linearGradient id="SVGID_57_" gradientUnits="userSpaceOnUse" x1="150.4309" y1="40.59" x2="152.0248" y2="43.3482" gradientTransform="matrix(-1 0 0 1 398.3 8)">
					<stop  offset="0" style="stop-color:#EAEBED"/>
					<stop  offset="3.000000e-02" style="stop-color:#EBECEE"/>
					<stop  offset="0.35" style="stop-color:#EDEEF0"/>
					<stop  offset="0.56" style="stop-color:#E0E3E5"/>
					<stop  offset="0.94" style="stop-color:#BFC5C8"/>
					<stop  offset="1" style="stop-color:#B9BFC2"/>
				</linearGradient>
				<path class="st84" d="M238.5,45.8l0.5,1.4l1.9,1.1l6.3,3.5c4.7,2.6,8.2,3.8,8.5,3.3c0.1-0.2-2.2-2.5-3.9-4
					c-0.4-0.4-1.1-0.8-1.5-1.1l-10.2-5.8c-0.4-0.3-0.7-0.4-1.1-0.1C238.5,44.5,238.3,45.1,238.5,45.8z"/>
				<path class="st1" d="M231.7,53.4v0.2l0,0l1.1,0.6h0.1l14.5-2.6v-0.2L232.9,54h-0.1L231.7,53.4L231.7,53.4z"/>
				<path class="st4" d="M231.7,53.4l1.1,0.6h0.1l14.5-2.6l-6.3-3.5L231.7,53.4C231.7,53.3,231.7,53.4,231.7,53.4z"/>
				<path class="st1" d="M233.4,48.2v0.2l0,0l1,0.6h0.1l5.3-1.6v-0.2l-5.3,1.6h-0.1L233.4,48.2L233.4,48.2z"/>
				<path class="st4" d="M238.4,45.6h-0.9l-4.1,2.4v0.1l1,0.6h0.1l5.3-1.6L238.4,45.6z"/>
				<path class="st4" d="M239.2,39.4c0.1,0,0.1,0,0.1,0l0,0l0.4,0.5c0.1,0.2,0.2,0.4,0.3,0.6l1.8,4.7l1.3,1.1l0.2-0.1l-1.4-1.2
					l-1.8-4.7c-0.1-0.2-0.2-0.4-0.3-0.6l-0.5-0.5l0,0l0,0L239.2,39.4z"/>
				<path class="st3" d="M239,44l4,2.3l-1.3-1.1l-1.8-4.7c-0.1-0.2-0.2-0.4-0.3-0.6l-0.5-0.5l0,0c0-0.1,0-0.1,0,0L239,44z"/>
				<path class="st62" d="M249.8,50.3c-0.4,0.4-0.4,1,0,1.3c0.8,0.5,5.2,3,4.5,1.8c-0.8-1.5-2.1-2.6-3.6-3.3
					C250.3,50,250,50.1,249.8,50.3z"/>
				<path class="st62" d="M274.9,42c0.4,0.5,0.8,0,0.5,0.2c0.1,0,0.2-0.1,0.3-0.2l0,0c0.1-0.2-0.2-0.8-0.4-0.9
					c-0.3-0.2-0.4,0-0.6,0.1C274.7,41.2,274.5,41.5,274.9,42z"/>
				<rect x="274.5" y="39.4" class="st63" width="0.5" height="2.6"/>
				<path class="st62" d="M274.3,42.3c0.4,0.5,0.8,0,0.5,0.2c0.1,0,0.2-0.1,0.3-0.2l0,0c0.1-0.2-0.2-0.8-0.4-0.9
					c-0.3-0.2-0.4,0-0.6,0.1C274.1,41.5,273.8,41.8,274.3,42.3z"/>
				<path class="st62" d="M262.3,41c0.4,0.5,0.8,0,0.5,0.2c0.1,0,0.2-0.1,0.3-0.2l0,0c0.1-0.2-0.2-0.8-0.4-0.9
					c-0.3-0.2-0.4,0-0.6,0.1C262.1,40.2,261.8,40.5,262.3,41z"/>
				<rect x="261.9" y="38.5" class="st63" width="0.5" height="2.6"/>
				<path class="st62" d="M261.7,41.4c0.4,0.5,0.8,0,0.5,0.2c0.1,0,0.2-0.1,0.3-0.2l0,0c0.1-0.2-0.2-0.8-0.4-0.9
					c-0.3-0.2-0.4,0-0.6,0.1C261.5,40.6,261.2,40.8,261.7,41.4z"/>
				<path class="st62" d="M273.9,34.4c0.4,0.5,0.8,0,0.5,0.2c0.1,0,0.2-0.1,0.3-0.2l0,0c0.1-0.2-0.2-0.8-0.4-0.9
					c-0.3-0.2-0.4,0-0.6,0.1C273.7,33.6,273.3,33.8,273.9,34.4z"/>
				<rect x="273.4" y="31.8" class="st63" width="0.5" height="2.6"/>
				<path class="st62" d="M273.3,34.7c0.4,0.5,0.8,0,0.5,0.2c0.1,0,0.2-0.1,0.3-0.2l0,0c0.1-0.2-0.2-0.8-0.4-0.9
					c-0.3-0.2-0.4,0-0.6,0.1C273.1,33.9,272.7,34.1,273.3,34.7z"/>
				<polygon class="st1" points="265,32.6 265,32.8 267.8,29.8 267.8,29.5 				"/>
				
					<linearGradient id="SVGID_58_" gradientUnits="userSpaceOnUse" x1="132.0251" y1="20.5693" x2="133.9695" y2="23.9474" gradientTransform="matrix(-1 0 0 1 398.3 8)">
					<stop  offset="0" style="stop-color:#EDEEF0"/>
					<stop  offset="0.52" style="stop-color:#EBECEE"/>
					<stop  offset="0.75" style="stop-color:#E4E6E8"/>
					<stop  offset="0.91" style="stop-color:#D7DADD"/>
					<stop  offset="1" style="stop-color:#CDD1D4"/>
				</linearGradient>
				<path class="st85" d="M265,32.5l2.7-2.9v-0.1l-1-0.6h-0.1l-3.8,2.2L265,32.5z"/>
				<polygon class="st1" points="272.5,36.9 272.5,37.1 276.9,28.8 276.9,28.6 				"/>
				
					<linearGradient id="SVGID_59_" gradientUnits="userSpaceOnUse" x1="124.1408" y1="18.9846" x2="128.7526" y2="26.9546" gradientTransform="matrix(-1 0 0 1 398.3 8)">
					<stop  offset="0" style="stop-color:#EDEEF0"/>
					<stop  offset="0.52" style="stop-color:#EBECEE"/>
					<stop  offset="0.75" style="stop-color:#E4E6E8"/>
					<stop  offset="0.91" style="stop-color:#D7DADD"/>
					<stop  offset="1" style="stop-color:#CDD1D4"/>
				</linearGradient>
				<path class="st86" d="M266.5,33.2l6.1,3.5l4.3-8.1v-0.1l-1.1-0.6h-0.1L266.5,33.2z"/>
				
					<linearGradient id="SVGID_60_" gradientUnits="userSpaceOnUse" x1="127.4191" y1="27.3309" x2="129.0131" y2="30.089" gradientTransform="matrix(-1 0 0 1 398.3 8)">
					<stop  offset="0" style="stop-color:#EAEBED"/>
					<stop  offset="3.000000e-02" style="stop-color:#EBECEE"/>
					<stop  offset="0.35" style="stop-color:#EDEEF0"/>
					<stop  offset="0.56" style="stop-color:#E0E3E5"/>
					<stop  offset="0.94" style="stop-color:#BFC5C8"/>
					<stop  offset="1" style="stop-color:#B9BFC2"/>
				</linearGradient>
				<path class="st87" d="M261.5,32.6L262,34l1.9,1.1l6.3,3.5c4.7,2.6,8.2,3.8,8.5,3.3c0.1-0.2-2.2-2.5-3.9-4
					c-0.4-0.4-1.1-0.8-1.5-1.1l-10.2-5.9c-0.4-0.3-0.7-0.4-1.1-0.1C261.5,31.2,261.3,31.9,261.5,32.6z"/>
				<path class="st1" d="M254.7,40.1v0.2l0,0l1.1,0.6h0.1l14.5-2.6v-0.2l-14.5,2.6h-0.1L254.7,40.1L254.7,40.1z"/>
				<path class="st4" d="M254.7,40.1l1.1,0.6h0.1l14.5-2.6l-6.3-3.5L254.7,40.1C254.7,40.1,254.7,40.2,254.7,40.1z"/>
				<path class="st1" d="M256.4,34.9v0.2l0,0l1,0.6h0.1l5.3-1.6v-0.2l-5.3,1.6h-0.1L256.4,34.9L256.4,34.9z"/>
				<path class="st4" d="M261.4,32.4h-0.9l-4.1,2.4v0.1l1,0.6h0.1l5.3-1.6L261.4,32.4z"/>
				<path class="st4" d="M262.1,26c0.1,0,0.1,0,0.1,0l0,0l0.4,0.5c0.1,0.2,0.2,0.4,0.3,0.6l1.8,4.7l1.3,1.1l0.2-0.1l-1.3-1.1
					l-1.8-4.7c-0.1-0.2-0.2-0.4-0.3-0.6l-0.5-0.5l0,0l0,0L262.1,26z"/>
				<path class="st3" d="M262,26.1v4.7l3.9,2.2l-1.3-1.1l-1.8-4.7c-0.1-0.2-0.2-0.4-0.3-0.6L262,26.1L262,26.1
					C262,26,262,26,262,26.1L262,26.1z"/>
				<path class="st62" d="M272.8,37c-0.4,0.4-0.4,1,0,1.3c0.8,0.5,5.2,3,4.5,1.8c-0.8-1.5-2.1-2.6-3.6-3.3
					C273.3,36.7,273,36.8,272.8,37z"/>
			</g>
		</g>
	</g>
</g>
</svg>
