<?xml version="1.0" encoding="utf-8"?>
<!-- Generator: Adobe Illustrator 21.0.0, SVG Export Plug-In . SVG Version: 6.00 Build 0)  -->
<svg version="1.1" id="Camada_1" xmlns="http://www.w3.org/2000/svg" xmlns:xlink="http://www.w3.org/1999/xlink" x="0px" y="0px"
	 viewBox="0 0 200 141" style="enable-background:new 0 0 200 141;" xml:space="preserve">
<style type="text/css">
	.st0{opacity:0.4;fill:#085E75;enable-background:new    ;}
	.st1{fill:#8D9396;}
	.st2{fill:#9AA0A4;}
	.st3{fill:#30333A;}
	.st4{fill:#EDEEF0;}
	.st5{fill:#B9BFC2;}
	.st6{fill:#5F5F60;}
	.st7{fill:#C4CACD;}
	.st8{fill:#ACB2B4;}
	.st9{fill:#868B8E;}
	.st10{fill:url(#SVGID_1_);}
	.st11{fill:#E1E7E9;}
	.st12{fill:url(#SVGID_2_);}
	.st13{fill:url(#SVGID_3_);}
	.st14{fill:url(#SVGID_4_);}
	.st15{fill:url(#SVGID_5_);}
	.st16{fill:url(#SVGID_6_);}
	.st17{fill:url(#SVGID_7_);}
	.st18{fill:url(#SVGID_8_);}
	.st19{fill:#2B2E33;}
	.st20{fill:#25272B;}
	.st21{fill:#84898C;}
	.st22{fill:url(#SVGID_9_);}
	.st23{fill:#A52F2F;}
	.st24{fill:#D8D9DA;}
	.st25{fill:url(#SVGID_10_);}
	.st26{fill:url(#SVGID_11_);}
	.st27{fill:url(#SVGID_12_);}
	.st28{fill:#D9DBDD;}
	.st29{fill:url(#SVGID_13_);}
	.st30{opacity:0.5;fill:#DEDDDD;enable-background:new    ;}
	.st31{fill:#CBCED0;}
	.st32{opacity:0.4;fill:#9AA0A4;enable-background:new    ;}
	.st33{fill:url(#SVGID_14_);}
	.st34{fill:url(#SVGID_15_);}
	.st35{fill:url(#SVGID_16_);}
	.st36{fill:url(#SVGID_17_);}
	.st37{fill:url(#SVGID_18_);}
	.st38{fill:#C2C9CC;}
	.st39{fill:#202226;}
	.st40{fill:#515661;}
	.st41{opacity:0.5;fill:#30333A;enable-background:new    ;}
	.st42{fill:url(#SVGID_19_);}
	.st43{fill:#E0E0E0;}
	.st44{fill:#D3D3D3;}
	.st45{fill:#FFFFFD;}
	.st46{clip-path:url(#SVGID_21_);}
	.st47{fill:url(#SVGID_22_);}
	.st48{fill:url(#SVGID_23_);}
	.st49{fill:url(#SVGID_24_);}
	.st50{fill:#C4C4C4;}
	.st51{fill:url(#SVGID_25_);}
	.st52{fill:#DCDCDC;}
	.st53{fill:url(#SVGID_26_);}
	.st54{fill:url(#SVGID_27_);}
	.st55{fill:url(#SVGID_28_);}
	.st56{fill:#898E92;}
	.st57{fill:url(#SVGID_29_);}
	.st58{fill:url(#SVGID_30_);}
	.st59{fill:url(#SVGID_31_);}
	.st60{fill:#CCCFD1;}
	.st61{fill:#B0B5B8;}
	.st62{fill:#272727;}
	.st63{fill:url(#SVGID_32_);}
	.st64{fill:url(#SVGID_33_);}
	.st65{fill:url(#SVGID_34_);}
	.st66{fill:url(#SVGID_35_);}
	.st67{fill:url(#SVGID_36_);}
	.st68{fill:url(#SVGID_37_);}
	.st69{fill:url(#SVGID_38_);}
	.st70{fill:url(#SVGID_39_);}
	.st71{fill:url(#SVGID_40_);}
	.st72{fill:url(#SVGID_41_);}
	.st73{fill:url(#SVGID_42_);}
	.st74{fill:url(#SVGID_43_);}
	.st75{fill:url(#SVGID_44_);}
	.st76{fill:#2D3037;}
</style>
<title>ship</title>
<g>
	<g id="Camada_1_1_">
		<path class="st0" d="M14.4,138.9c1.1,0.2,21.1,3.6,108.6-46.9c10.5-6,64.1-40.3,70.9-46.2c1.2-1.1,0.7-2.6-1.2-3.8l-10.6-6.2
			c-2-1.1-4.3-1.4-6.5-0.7c-10.1,3.9-69.4,34.9-79.9,40.9C8.2,126.7,14.4,138.2,14.4,138.9z"/>
		<g id="_3">
			<g>
				<path class="st1" d="M11.7,121.4l5.2,5.2l4.8,5.1c0,0,28.6-4.8,96.3-43.3c10.6-6.1,60.7-36.4,60.8-36.6c0,0,1.9-7.4,4.4-11.7
					c1-2.4,2.9-4.5,5.1-7.1c2-2.4,5.3-5.8,5.3-7.8c-4.1,4-62.1,42.1-72.8,48.3C30.9,125.6,11.7,121.4,11.7,121.4z"/>
				<path class="st2" d="M146.4,65c13.1-8.6,30.5-19.3,35.6-22.4c1.9-2.6,4-5.9,6.5-9.1c2-2.5,5.1-6.1,5.1-8.1
					c-4.1,4-62.1,42.1-72.8,48.3C30.9,125.6,9.2,121.9,9.2,121.9l7.7,4.7c7.9-1.6,22.4-6.3,47.1-17C92.7,97.1,120.2,82.2,146.4,65z"
					/>
				<path class="st3" d="M9.2,121.9c1.1,0.2,21.7,3.7,111.6-48.2c10.8-6.2,65.9-41.4,72.8-47.4c1.3-1.1,0.8-2.7-1.2-3.9l-10.9-6.3
					c-2-1.2-4.4-1.4-6.6-0.7c-10.4,4-71.3,35.8-82.1,42C2.9,109.3,9.2,121.2,9.2,121.9z"/>
			</g>
			<path class="st2" d="M155.7,51.9c17-10.9,34.2-22.3,37.9-25.5c0.4-0.3,0.7-0.8,0.7-1.4v-1.4c0,0.3-0.1,0.7-0.3,0.9v-0.9
				c-0.1-1-0.8-1.9-1.8-2.3l-10.9-6.3c-1.9-1.1-4.1-1.3-6.2-0.7c-4.8,1.8-21.1,10-38.1,18.8l0.9,0.9c16.7-8.6,32.5-16.5,37.2-18.3
				c2.1-0.6,4.3-0.4,6.2,0.7l10.9,6.3c0.8,0.4,1.4,1.1,1.7,2c-0.1,0.1-0.2,0.2-0.3,0.3c-3.8,3.2-21.5,15-38.8,26.1L155.7,51.9z"/>
			<path class="st4" d="M154.9,51c17.3-11.1,35-22.8,38.8-26.1c1.3-1.1,0.7-2.7-1.2-3.9l-10.9-6.4c-2-1.1-4.4-1.4-6.6-0.7
				c-4.9,1.9-21.3,10.1-38.1,18.8l0.2,0.2c17-8.8,33.4-17,38.1-18.8c2.1-0.6,4.3-0.4,6.2,0.7l10.9,6.4c1.9,1.1,2.3,2.6,1.2,3.6
				c-3.7,3.1-21.4,14.9-38.7,26L154.9,51z"/>
			<g>
				<polygon class="st5" points="90.1,90.7 63.3,75.1 65.2,67.2 92.1,82.9 				"/>
				<polygon class="st4" points="92.1,82.9 65.2,67.2 138.4,26.3 162.8,40.5 				"/>
				<polygon class="st3" points="92.1,82.4 66,67.2 138.4,26.8 162,40.5 				"/>
			</g>
			<g>
				<polygon class="st5" points="147.7,45.6 146.8,50.2 121.8,35.6 127.7,22.6 147.7,34.1 				"/>
				<polygon class="st4" points="147.7,34.1 127.7,22.6 140.4,15.2 160.4,26.7 				"/>
				<polygon class="st3" points="147.7,33.6 128.5,22.6 140.4,15.6 159.7,26.7 				"/>
				<path class="st2" d="M90.1,90.7c25.5-12.5,55.3-30.1,78.2-46.7l-7.9-17.3l-12.8,7.4l-0.9,16L92.1,82.9L90.1,90.7z"/>
			</g>
			<path class="st2" d="M9.1,119.6v1.4c0,0.3,0.1,0.6,0.2,0.9c0.9,0.2,16.9,2.8,80.9-31.2l0.4-1.6c-60.3,32-78.2,31.7-80.9,31.4
				c0.8-3.7,7.4-15.9,54.1-45.3l0.4-1.7C12.8,105.9,9.5,117.6,9.5,120v0.5H9.2C9.1,120.2,9,119.9,9.1,119.6z"/>
			<path class="st4" d="M9.2,120.5c0.9,0.2,16.9,2.8,81.3-31.3L90.3,89c-59.8,31.6-78.6,31.5-80.7,31.3c-0.3-1.2-0.4-12.1,54.4-46.7
				l-0.3-0.2C4.4,110.7,9,120,9.2,120.5z"/>
			<path class="st6" d="M94.8,49.7V51c0,0.1,0.2,0.1,0.2,0v-1.3l0,0L94.8,49.7C94.8,49.7,94.8,49.7,94.8,49.7z"/>
			<path class="st6" d="M97.8,48v1.3c0,0.1,0.2,0.1,0.2,0V48l0,0H97.8C97.8,48,97.8,48,97.8,48z"/>
			<path class="st6" d="M100.7,46.3v1.3c0,0.1,0.2,0.1,0.2,0v-1.3l0,0L100.7,46.3C100.7,46.3,100.7,46.3,100.7,46.3z"/>
			<path class="st6" d="M103.7,44.7V46c0,0.1,0.2,0.1,0.2,0v-1.3l0,0L103.7,44.7C103.7,44.7,103.7,44.7,103.7,44.7z"/>
			<path class="st6" d="M106.7,43v1.3c0,0.1,0.2,0.1,0.2,0V43l0,0H106.7C106.7,43,106.7,43,106.7,43z"/>
			<path class="st6" d="M109.6,41.3v1.3c0,0.1,0.2,0.1,0.2,0v-1.3l0,0L109.6,41.3C109.7,41.3,109.6,41.3,109.6,41.3z"/>
			<path class="st6" d="M112.6,39.7V41c0,0.1,0.2,0.1,0.2,0v-1.4l0,0L112.6,39.7C112.6,39.6,112.6,39.7,112.6,39.7z"/>
			<path class="st6" d="M115.6,38v1.3c0,0.1,0.2,0.1,0.2,0V38l0,0H115.6L115.6,38z"/>
			<path class="st6" d="M118.6,36.3v1.3c0,0.1,0.2,0.1,0.2,0v-1.3l0,0L118.6,36.3C118.6,36.3,118.6,36.3,118.6,36.3z"/>
			<path class="st6" d="M121.5,34.7V36c0,0.1,0.2,0.1,0.2,0v-1.4l0,0L121.5,34.7C121.6,34.6,121.5,34.6,121.5,34.7z"/>
			<path class="st6" d="M92.1,51.5c-0.1,0-0.1,0-0.2-0.1c0-0.1,0-0.2,0.1-0.2l29.9-16.8c0.1,0,0.2,0,0.2,0c0,0,0,0,0,0
				c0,0.1,0,0.2-0.1,0.2L92.1,51.5L92.1,51.5L92.1,51.5z"/>
			<path class="st6" d="M119.4,64.9v1.3c0,0.1,0.2,0.1,0.2,0v-1.3l0,0L119.4,64.9C119.4,64.9,119.4,64.9,119.4,64.9z"/>
			<path class="st6" d="M122.4,63.1v1.3c0,0.1,0.2,0.1,0.2,0v-1.3l0,0L122.4,63.1C122.4,63.1,122.4,63.1,122.4,63.1z"/>
			<path class="st6" d="M125.4,61.3v1.3c0,0.1,0.2,0.1,0.2,0v-1.3l0,0L125.4,61.3C125.4,61.3,125.4,61.3,125.4,61.3z"/>
			<path class="st6" d="M128.3,59.6v1.3c0,0.1,0.1,0.1,0.1,0v-1.3l0,0L128.3,59.6C128.3,59.5,128.3,59.6,128.3,59.6z"/>
			<path class="st6" d="M131.3,57.8V59c0,0.1,0.1,0.1,0.1,0v-1.3l0,0L131.3,57.8C131.3,57.8,131.3,57.8,131.3,57.8z"/>
			<path class="st6" d="M134.3,56v1.3c0,0.1,0.1,0.1,0.1,0V56l0,0H134.3C134.3,56,134.3,56,134.3,56z"/>
			<path class="st6" d="M137.2,54.2v1.3c0,0.1,0.1,0.1,0.1,0v-1.3l0,0L137.2,54.2C137.3,54.2,137.2,54.2,137.2,54.2z"/>
			<path class="st6" d="M140.2,52.5v1.3c0,0.1,0.2,0.1,0.2,0v-1.3l0,0L140.2,52.5C140.2,52.4,140.2,52.4,140.2,52.5z"/>
			<path class="st6" d="M143.2,50.7V52c0,0.1,0.2,0.1,0.2,0v-1.4l0,0L143.2,50.7C143.2,50.6,143.2,50.7,143.2,50.7z"/>
			<path class="st6" d="M146.2,48.9v1.3c0,0.1,0.2,0.1,0.2,0v-1.3l0,0L146.2,48.9C146.2,48.9,146.2,48.9,146.2,48.9z"/>
			<path class="st6" d="M116.7,66.8c-0.1,0-0.1,0-0.2-0.1c0-0.1,0-0.2,0.1-0.2l29.9-17.9l0,0c0.1,0,0.2,0,0.2,0c0,0.1,0,0.2-0.1,0.2
				L116.7,66.8L116.7,66.8L116.7,66.8z"/>
			<g>
				<polygon class="st7" points="84.9,52.2 80.8,64.5 78.7,59.7 83.2,48.5 				"/>
				<polygon class="st5" points="97.7,59.7 96.9,73.8 80.8,64.5 84.9,52.2 				"/>
				<polygon class="st8" points="104.3,60.8 105.1,75.1 96.9,73.8 97.7,59.7 				"/>
				<polygon class="st2" points="119.4,51.8 124,63.8 105.1,75.1 104.3,60.8 				"/>
				<polygon class="st4" points="83.2,48.5 84.9,52.3 97.8,59.8 104.3,60.8 119.4,51.8 98.3,39.5 				"/>
				<polygon class="st3" points="104.3,60.4 98,59.5 85.2,52.1 83.7,48.7 98.4,39.9 118.8,51.7 				"/>
			</g>
			<polygon class="st3" points="127.2,63.5 127.2,67.2 144.9,56.6 144.9,52.8 			"/>
			<path class="st3" d="M99.8,80v2.3l-6,3.6l0.4-2.5L99.8,80z M101.1,79.3v2.2l5.5-3.3V76L101.1,79.3z"/>
			<polygon class="st9" points="141.7,54.7 144.9,56.6 144.9,56.6 144.9,52.8 			"/>
			<g>
				<g>
					<g>
						
							<linearGradient id="SVGID_1_" gradientUnits="userSpaceOnUse" x1="13.42" y1="118.5109" x2="14.49" y2="118.5109" gradientTransform="matrix(-1 0 0 -1 203.6135 142)">
							<stop  offset="0" style="stop-color:#9AA0A4"/>
							<stop  offset="1" style="stop-color:#B9BFC2"/>
						</linearGradient>
						<path class="st10" d="M189.1,23c0.2,0.2,0.4,0.3,0.6,0.2c0.1,0,0.2,0,0.2-0.1c0.1,0,0.2-0.1,0.2-0.2v0.9
							c0,0.1-0.1,0.2-0.2,0.2c-0.1,0-0.2,0.1-0.2,0.1c-0.2,0.1-0.5,0-0.6-0.2c0,0,0-0.1,0-0.1V23C189.1,22.9,189.1,23,189.1,23z"/>
					</g>
				</g>
				<path class="st11" d="M189.5,22.6c0.2-0.1,0.5,0,0.6,0.2c0.1,0.1,0,0.2-0.1,0.3c-0.1,0-0.2,0.1-0.2,0.1c-0.2,0.1-0.5,0-0.7-0.2
					c0-0.1,0-0.2,0.1-0.3C189.4,22.6,189.4,22.6,189.5,22.6z"/>
			</g>
			<g>
				<g>
					<g>
						
							<linearGradient id="SVGID_2_" gradientUnits="userSpaceOnUse" x1="13.15" y1="118.9962" x2="14.76" y2="118.9962" gradientTransform="matrix(-1 0 0 -1 203.6135 142)">
							<stop  offset="0" style="stop-color:#9AA0A4"/>
							<stop  offset="1" style="stop-color:#B9BFC2"/>
						</linearGradient>
						<path class="st12" d="M188.9,22.7c0.2,0.3,0.6,0.4,1,0.3c0.1,0,0.2-0.1,0.4-0.1c0.1-0.1,0.2-0.2,0.2-0.3v0.3
							c0,0.1-0.1,0.3-0.2,0.3c-0.1,0.1-0.2,0.1-0.4,0.1c-0.4,0.1-0.8,0-1-0.3c0,0,0-0.1,0-0.1v-0.3
							C188.8,22.6,188.8,22.7,188.9,22.7z"/>
					</g>
				</g>
				<path class="st11" d="M189.5,22.1c0.4-0.1,0.8,0,1,0.3c0.1,0.2,0,0.3-0.2,0.5c-0.1,0.1-0.2,0.1-0.4,0.1c-0.4,0.1-0.8,0-1-0.3
					c-0.1-0.2,0-0.3,0.2-0.5C189.2,22.2,189.3,22.2,189.5,22.1z"/>
			</g>
			<g>
				<g>
					<g>
						
							<linearGradient id="SVGID_3_" gradientUnits="userSpaceOnUse" x1="13.42" y1="119.5559" x2="14.49" y2="119.5559" gradientTransform="matrix(-1 0 0 -1 203.6135 142)">
							<stop  offset="0" style="stop-color:#9AA0A4"/>
							<stop  offset="1" style="stop-color:#B9BFC2"/>
						</linearGradient>
						<path class="st13" d="M189.1,22.1c0.2,0.2,0.4,0.3,0.6,0.2c0.1,0,0.2,0,0.2-0.1c0.1,0,0.2-0.1,0.2-0.2v0.6
							c0,0.1-0.1,0.2-0.2,0.2c-0.1,0-0.2,0.1-0.2,0.1c-0.2,0.1-0.5,0-0.6-0.2c0,0,0-0.1,0-0.1V22.1C189.1,22,189.1,22.1,189.1,22.1z
							"/>
					</g>
				</g>
				<path class="st11" d="M189.5,21.7c0.2-0.1,0.5,0,0.6,0.2c0.1,0.1,0,0.2-0.1,0.3c-0.1,0-0.2,0.1-0.2,0.1c-0.2,0.1-0.5,0-0.7-0.2
					c0-0.1,0-0.2,0.1-0.3C189.4,21.7,189.4,21.7,189.5,21.7z"/>
			</g>
			<g>
				<g>
					<g>
						
							<linearGradient id="SVGID_4_" gradientUnits="userSpaceOnUse" x1="13.15" y1="119.7962" x2="14.76" y2="119.7962" gradientTransform="matrix(-1 0 0 -1 203.6135 142)">
							<stop  offset="0" style="stop-color:#9AA0A4"/>
							<stop  offset="1" style="stop-color:#B9BFC2"/>
						</linearGradient>
						<path class="st14" d="M188.9,21.9c0.2,0.3,0.6,0.4,1,0.3c0.1,0,0.2-0.1,0.4-0.1c0.1-0.1,0.2-0.2,0.2-0.3v0.3
							c0,0.1-0.1,0.3-0.2,0.3c-0.1,0.1-0.2,0.1-0.4,0.1c-0.4,0.1-0.8,0-1-0.3c0,0,0-0.1,0-0.1v-0.3
							C188.8,21.8,188.8,21.9,188.9,21.9z"/>
					</g>
				</g>
				<path class="st11" d="M189.5,21.3c0.4-0.1,0.8,0,1,0.3c0.1,0.2,0,0.3-0.2,0.5c-0.1,0.1-0.2,0.1-0.4,0.1c-0.4,0.1-0.8,0-1-0.3
					c-0.1-0.2,0-0.3,0.2-0.5C189.2,21.4,189.3,21.4,189.5,21.3z"/>
			</g>
			<g>
				<g>
					<g>
						
							<linearGradient id="SVGID_5_" gradientUnits="userSpaceOnUse" x1="23.35" y1="124.2709" x2="24.43" y2="124.2709" gradientTransform="matrix(-1 0 0 -1 203.6135 142)">
							<stop  offset="0" style="stop-color:#9AA0A4"/>
							<stop  offset="1" style="stop-color:#B9BFC2"/>
						</linearGradient>
						<path class="st15" d="M179.2,17.1C179.2,17.2,179.2,17.2,179.2,17.1c0.2,0.3,0.4,0.4,0.6,0.3c0.1,0,0.2,0,0.2-0.1
							c0.1,0,0.2-0.1,0.2-0.2V18c0,0.1-0.1,0.2-0.2,0.2c-0.1,0-0.2,0.1-0.2,0.1c-0.2,0.1-0.5,0-0.6-0.2c0,0,0-0.1,0-0.1V17.1
							L179.2,17.1z"/>
					</g>
				</g>
				<path class="st11" d="M179.6,16.9c0.2-0.1,0.5,0,0.7,0.2c0,0.1,0,0.2-0.1,0.3c-0.1,0-0.2,0.1-0.2,0.1c-0.2,0.1-0.5,0-0.6-0.2
					c-0.1-0.1,0-0.2,0.1-0.3C179.4,16.9,179.5,16.9,179.6,16.9z"/>
			</g>
			<g>
				<g>
					<g>
						
							<linearGradient id="SVGID_6_" gradientUnits="userSpaceOnUse" x1="23.08" y1="124.7362" x2="24.7" y2="124.7362" gradientTransform="matrix(-1 0 0 -1 203.6135 142)">
							<stop  offset="0" style="stop-color:#9AA0A4"/>
							<stop  offset="1" style="stop-color:#B9BFC2"/>
						</linearGradient>
						<path class="st16" d="M178.9,17c0.2,0.3,0.6,0.4,1,0.3c0.1,0,0.2-0.1,0.4-0.1c0.1-0.1,0.2-0.2,0.2-0.3v0.3
							c0,0.1-0.1,0.3-0.2,0.3c-0.1,0.1-0.2,0.1-0.4,0.1c-0.4,0.1-0.8,0-1-0.3c0,0,0-0.1,0-0.1v-0.3C178.9,16.9,178.9,16.9,178.9,17z
							"/>
					</g>
				</g>
				<path class="st11" d="M179.5,16.4c0.4-0.1,0.8,0,1,0.3c0.1,0.2,0,0.3-0.2,0.5c-0.1,0.1-0.2,0.1-0.4,0.1c-0.4,0.1-0.8,0-1-0.3
					c-0.1-0.2,0-0.3,0.2-0.5C179.3,16.5,179.4,16.4,179.5,16.4z"/>
			</g>
			<g>
				<g>
					<g>
						
							<linearGradient id="SVGID_7_" gradientUnits="userSpaceOnUse" x1="23.35" y1="125.3159" x2="24.43" y2="125.3159" gradientTransform="matrix(-1 0 0 -1 203.6135 142)">
							<stop  offset="0" style="stop-color:#9AA0A4"/>
							<stop  offset="1" style="stop-color:#B9BFC2"/>
						</linearGradient>
						<path class="st17" d="M179.2,16.3c0.2,0.2,0.4,0.3,0.6,0.2c0.1,0,0.2,0,0.2-0.1c0.1,0,0.2-0.1,0.2-0.2v0.6
							c0,0.1-0.1,0.2-0.2,0.2c-0.1,0-0.2,0.1-0.2,0.1c-0.2,0.1-0.5,0-0.6-0.2c0,0,0-0.1,0-0.1V16.3
							C179.2,16.3,179.2,16.3,179.2,16.3z"/>
					</g>
				</g>
				<path class="st11" d="M179.6,15.9c0.2-0.1,0.5,0,0.7,0.2c0,0.1,0,0.2-0.1,0.3c-0.1,0-0.2,0.1-0.2,0.1c-0.2,0.1-0.5,0-0.6-0.2
					c-0.1-0.1,0-0.2,0.1-0.3C179.4,16,179.5,15.9,179.6,15.9z"/>
			</g>
			<g>
				<g>
					<g>
						
							<linearGradient id="SVGID_8_" gradientUnits="userSpaceOnUse" x1="23.08" y1="125.5262" x2="24.7" y2="125.5262" gradientTransform="matrix(-1 0 0 -1 203.6135 142)">
							<stop  offset="0" style="stop-color:#9AA0A4"/>
							<stop  offset="1" style="stop-color:#B9BFC2"/>
						</linearGradient>
						<path class="st18" d="M178.9,16.2c0.2,0.3,0.6,0.4,1,0.3c0.1,0,0.2-0.1,0.4-0.1c0.1-0.1,0.2-0.2,0.2-0.3v0.3
							c0,0.1-0.1,0.3-0.2,0.3c-0.1,0.1-0.2,0.1-0.4,0.1c-0.4,0.1-0.8,0-1-0.3c0,0,0-0.1,0-0.1v-0.3
							C178.9,16.1,178.9,16.2,178.9,16.2z"/>
					</g>
				</g>
				<path class="st11" d="M179.5,15.6c0.4-0.1,0.8,0,1,0.3c0.1,0.2,0,0.3-0.2,0.4c-0.1,0.1-0.2,0.1-0.4,0.1c-0.4,0.1-0.8,0-1-0.3
					c-0.1-0.2,0-0.3,0.2-0.5C179.3,15.7,179.4,15.6,179.5,15.6z"/>
			</g>
			<g>
				<polygon class="st5" points="185.9,21.3 185.9,21.7 182.4,19.7 182.4,19.3 				"/>
				<polygon class="st2" points="186.4,21 186.4,21.4 185.9,21.7 185.9,21.3 				"/>
				<polygon class="st4" points="183,19 186.4,21 185.9,21.3 182.4,19.3 				"/>
			</g>
			<path class="st6" d="M183.4,19.6C183.4,19.6,183.4,19.6,183.4,19.6c-0.1,0-0.1-0.1-0.1-0.2l6.3-12.6c0-0.1,0.1-0.1,0.2-0.1
				c0.1,0,0.1,0.1,0.1,0.2l-6.3,12.7c0,0.1-0.1,0.1-0.1,0.1L183.4,19.6z"/>
			<path class="st6" d="M185.5,20.8C185.5,20.8,185.5,20.8,185.5,20.8c-0.1,0-0.1-0.1-0.1-0.2l6.3-12.7l0,0c0-0.1,0.1-0.1,0.2-0.1
				S192,8,192,8.1l-6.3,12.6C185.7,20.8,185.6,20.8,185.5,20.8L185.5,20.8z"/>
			<path class="st6" d="M147.8,32.5v1.3c0,0.1,0.1,0.1,0.1,0v-1.3l0,0L147.8,32.5C147.8,32.4,147.8,32.4,147.8,32.5z"/>
			<path class="st6" d="M150.8,30.7V32c0,0.1,0.1,0.1,0.1,0v-1.3l0,0L150.8,30.7C150.8,30.7,150.8,30.7,150.8,30.7z"/>
			<path class="st6" d="M153.8,29v1.3c0,0.1,0.2,0.1,0.2,0V29l0,0H153.8C153.8,29,153.8,29,153.8,29z"/>
			<path class="st6" d="M156.8,27.3v1.3c0,0.1,0.2,0.1,0.2,0v-1.3l0,0L156.8,27.3C156.8,27.3,156.8,27.3,156.8,27.3z"/>
			<path class="st6" d="M159.7,25.6v1.3c0,0.1,0.1,0.1,0.1,0v-1.3l0,0L159.7,25.6C159.7,25.6,159.7,25.6,159.7,25.6z"/>
			<path class="st6" d="M128.3,21.2v1.3c0,0.1,0.1,0.1,0.1,0v-1.3l0,0L128.3,21.2C128.3,21.2,128.3,21.2,128.3,21.2z"/>
			<path class="st6" d="M131.3,19.5v1.3c0,0.1,0.2,0.1,0.2,0v-1.3l0,0L131.3,19.5C131.3,19.4,131.3,19.4,131.3,19.5z"/>
			<path class="st6" d="M134.2,17.7V19c0,0.1,0.2,0.1,0.2,0v-1.3l0,0L134.2,17.7C134.2,17.7,134.2,17.7,134.2,17.7z"/>
			<path class="st6" d="M137.2,16v1.3c0,0.1,0.1,0.1,0.1,0V16l0,0H137.2C137.2,16,137.2,16,137.2,16z"/>
			<path class="st6" d="M140.2,14.3v1.3c0,0.1,0.1,0.1,0.1,0v-1.3l0,0L140.2,14.3C140.2,14.3,140.2,14.3,140.2,14.3z"/>
			<path class="st6" d="M145,31v1.3c0,0.1-0.2,0.1-0.2,0V31l0,0H145C145,31,145,31,145,31z"/>
			<path class="st6" d="M142.1,29.3v1.3c0,0.1-0.1,0.1-0.1,0v-1.3l0,0L142.1,29.3C142,29.3,142.1,29.3,142.1,29.3z"/>
			<path class="st6" d="M139.1,27.6v1.3c0,0.1-0.1,0.1-0.1,0v-1.3l0,0L139.1,27.6C139.1,27.6,139.1,27.6,139.1,27.6z"/>
			<path class="st6" d="M136.1,25.9v1.3c0,0.1-0.2,0.1-0.2,0v-1.3l0,0L136.1,25.9C136.1,25.9,136.1,25.9,136.1,25.9z"/>
			<path class="st6" d="M133.1,24.2v1.3c0,0.1-0.2,0.1-0.2,0v-1.3l0,0L133.1,24.2C133.1,24.1,133.1,24.2,133.1,24.2z"/>
			<path class="st6" d="M130.1,22.5v1.3c0,0.1-0.2,0.1-0.2,0v-1.3l0,0L130.1,22.5C130.1,22.4,130.1,22.4,130.1,22.5z"/>
			<path class="st6" d="M157.4,23.9v1.3c0,0.1-0.2,0.1-0.2,0v-1.3l0,0L157.4,23.9C157.4,23.9,157.4,23.9,157.4,23.9z"/>
			<path class="st6" d="M154.4,22.2v1.3c0,0.1-0.2,0.1-0.2,0v-1.3l0,0L154.4,22.2C154.4,22.2,154.4,22.2,154.4,22.2z"/>
			<path class="st6" d="M151.4,20.5v1.3c0,0.1-0.1,0.1-0.1,0v-1.3l0,0L151.4,20.5C151.4,20.4,151.4,20.5,151.4,20.5z"/>
			<path class="st6" d="M148.5,18.8V20c0,0.1-0.1,0.1-0.1,0v-1.3l0,0L148.5,18.8C148.5,18.7,148.5,18.7,148.5,18.8z"/>
			<path class="st6" d="M145.5,17v1.3c0,0.1-0.2,0.1-0.2,0V17l0,0H145.5C145.5,17,145.5,17,145.5,17z"/>
			<path class="st6" d="M142.5,15.3v1.3c0,0.1-0.2,0.1-0.2,0v-1.3l0,0L142.5,15.3C142.5,15.3,142.5,15.3,142.5,15.3z"/>
			<path class="st6" d="M147.6,32.8L128,21.5c0,0-0.1-0.1-0.1-0.1c0,0,0-0.1,0.1-0.1l12.3-7.2c0,0,0.1,0,0.1,0l19.6,11.3
				c0,0,0.1,0.1,0.1,0.1c0,0,0,0.1-0.1,0.1l-12.4,7.1L147.6,32.8L147.6,32.8z M140.4,14.4l-12,7l19.3,11.2l12.1-7L140.4,14.4z"/>
			<path class="st6" d="M107.1,57.6v1.3c0,0.1,0.2,0.1,0.2,0v-1.3l0,0L107.1,57.6C107.1,57.5,107.1,57.6,107.1,57.6z"/>
			<path class="st6" d="M110,55.8v1.3c0,0.1,0.2,0.1,0.2,0v-1.3l0,0L110,55.8C110.1,55.8,110,55.8,110,55.8z"/>
			<path class="st6" d="M113,54.1v1.3c0,0.1,0.2,0.1,0.2,0v-1.3l0,0L113,54.1C113,54.1,113,54.1,113,54.1z"/>
			<path class="st6" d="M116,52.3v1.3c0,0.1,0.2,0.1,0.2,0v-1.3l0,0L116,52.3C116,52.3,116,52.3,116,52.3z"/>
			<path class="st6" d="M118.9,50.6v1.3c0,0.1,0.2,0.1,0.2,0v-1.3l0,0L118.9,50.6C118.9,50.6,118.9,50.6,118.9,50.6z"/>
			<path class="st6" d="M104.1,59.3v1.3c0,0.1,0.2,0.1,0.2,0v-1.3l0,0L104.1,59.3C104.2,59.3,104.1,59.3,104.1,59.3z"/>
			<path class="st6" d="M86.3,45.6v1.3c0,0.1,0.2,0.1,0.2,0v-1.3l0,0L86.3,45.6C86.3,45.6,86.3,45.6,86.3,45.6z"/>
			<path class="st6" d="M89.2,43.9v1.3c0,0.1,0.2,0.1,0.2,0v-1.3l0,0L89.2,43.9C89.2,43.8,89.2,43.8,89.2,43.9z"/>
			<path class="st6" d="M92.2,42.1v1.3c0,0.1,0.2,0.1,0.2,0v-1.3l0,0L92.2,42.1C92.2,42.1,92.2,42.1,92.2,42.1z"/>
			<path class="st6" d="M95.1,40.3v1.3c0,0.1,0.2,0.1,0.2,0v-1.3l0,0L95.1,40.3C95.1,40.3,95.1,40.3,95.1,40.3z"/>
			<path class="st6" d="M98.1,38.6v1.3c0,0.1,0.2,0.1,0.2,0v-1.3l0,0L98.1,38.6C98.1,38.5,98.1,38.6,98.1,38.6z"/>
			<path class="st6" d="M83.4,47.4v1.3c0,0.1,0.2,0.1,0.2,0v-1.3l0,0L83.4,47.4C83.4,47.3,83.4,47.4,83.4,47.4z"/>
			<path class="st6" d="M115.9,48.5v1.3c0,0.1-0.2,0.1-0.2,0v-1.3l0,0L115.9,48.5C115.9,48.5,115.9,48.5,115.9,48.5z"/>
			<path class="st6" d="M113,46.8v1.3c0,0.1-0.2,0.1-0.2,0v-1.3l0,0L113,46.8C112.9,46.8,113,46.8,113,46.8z"/>
			<path class="st6" d="M110,45.1v1.3c0,0.1-0.2,0.1-0.2,0v-1.3l0,0L110,45.1C110,45.1,110,45.1,110,45.1z"/>
			<path class="st6" d="M107,43.4v1.3c0,0.1-0.2,0.1-0.2,0v-1.3l0,0L107,43.4C107,43.4,107,43.4,107,43.4z"/>
			<path class="st6" d="M104,41.7V43c0,0.1-0.2,0.1-0.2,0v-1.4l0,0L104,41.7C104,41.6,104,41.7,104,41.7z"/>
			<path class="st6" d="M101,40v1.2c0,0.1-0.2,0.1-0.2,0v-1.3l0,0L101,40C101.1,39.9,101.1,40,101,40z"/>
			<path class="st6" d="M100.3,58.7V60c0,0.1-0.2,0.1-0.2,0v-1.3l0,0L100.3,58.7C100.3,58.7,100.3,58.7,100.3,58.7z"/>
			<path class="st6" d="M95.5,56.9v1.3c0,0.1-0.2,0.1-0.2,0v-1.3l0,0L95.5,56.9C95.5,56.9,95.5,56.9,95.5,56.9z"/>
			<path class="st6" d="M92.5,55.2v1.3c0,0.1-0.2,0.1-0.2,0v-1.3l0,0L92.5,55.2C92.5,55.2,92.5,55.2,92.5,55.2z"/>
			<path class="st6" d="M89.5,53.5v1.3c0,0.1-0.2,0.1-0.2,0v-1.3l0,0L89.5,53.5C89.5,53.5,89.5,53.5,89.5,53.5z"/>
			<path class="st6" d="M86.5,51.8V53c0,0.1-0.2,0.1-0.2,0v-1.3l0,0L86.5,51.8C86.5,51.7,86.5,51.8,86.5,51.8z"/>
			<path class="st6" d="M84.5,49.5v1.3c0,0.1-0.2,0.1-0.2,0v-1.3l0,0L84.5,49.5C84.5,49.5,84.5,49.5,84.5,49.5z"/>
			<g>
				<polygon class="st19" points="112.1,52.7 112.1,53.3 106.2,49.9 106.2,49.3 				"/>
				<polygon class="st20" points="115.1,51 115.1,51.5 112.1,53.3 112.1,52.7 				"/>
				<polygon class="st3" points="109.3,47.6 115.1,51 112.1,52.7 106.2,49.3 				"/>
			</g>
			<g>
				<polygon class="st19" points="101.6,46.7 101.6,47.2 95.7,43.8 95.7,43.3 				"/>
				<polygon class="st20" points="104.6,44.9 104.6,45.5 101.6,47.2 101.6,46.7 				"/>
				<polygon class="st3" points="98.8,41.5 104.6,44.9 101.6,46.7 95.7,43.3 				"/>
			</g>
			<g>
				<path class="st21" d="M95.1,50.8v0.8c0,0.5,0.3,0.9,0.8,1.1c1.2,0.6,2.6,0.6,3.8,0c0.4-0.2,0.8-0.6,0.8-1.1v-0.8
					c0,0.5-0.4,0.9-0.8,1.1c-1.2,0.6-2.6,0.6-3.8,0C95.4,51.7,95.1,51.2,95.1,50.8z"/>
				<path class="st4" d="M95.1,50.4c-0.2,0.6,0.1,1.3,0.7,1.5c1.2,0.6,2.6,0.6,3.8,0c0.3-0.1,0.6-0.4,0.7-0.7
					c0.2-0.6-0.1-1.3-0.7-1.5c-1.2-0.6-2.6-0.6-3.8,0C95.5,49.8,95.3,50,95.1,50.4z"/>
			</g>
			<g>
				<path class="st21" d="M96.1,44.4v6.2c0,0.3,0.2,0.5,0.5,0.7c0.7,0.4,1.6,0.4,2.3,0c0.3-0.1,0.4-0.4,0.5-0.7v-6.2
					c0,0.3-0.2,0.5-0.5,0.7c-0.7,0.4-1.6,0.4-2.3,0C96.4,44.9,96.2,44.6,96.1,44.4z"/>
				<path class="st4" d="M96.2,44.1c-0.2,0.4,0,0.8,0.4,0.9c0.7,0.4,1.6,0.4,2.3,0c0.2-0.1,0.4-0.2,0.4-0.4c0.1-0.4-0.1-0.8-0.4-0.9
					c-0.7-0.4-1.6-0.4-2.3,0C96.4,43.8,96.3,43.9,96.2,44.1z"/>
			</g>
			<g>
				<polygon class="st4" points="96,45.6 95.9,45.6 97.9,44.4 98,44.5 				"/>
				<polygon class="st2" points="98,44.9 97,45.5 96,45.6 98,44.5 				"/>
			</g>
			
				<linearGradient id="SVGID_9_" gradientUnits="userSpaceOnUse" x1="108.838" y1="96.6154" x2="108.368" y2="95.7954" gradientTransform="matrix(-1 0 0 -1 203.6135 142)">
				<stop  offset="0" style="stop-color:#EDEEF0"/>
				<stop  offset="0.19" style="stop-color:#D9DBDD"/>
				<stop  offset="0.24" style="stop-color:#DFE1E3"/>
				<stop  offset="0.37" style="stop-color:#EAEBED"/>
				<stop  offset="0.52" style="stop-color:#EDEEF0"/>
				<stop  offset="0.62" style="stop-color:#D8DADD"/>
				<stop  offset="0.75" style="stop-color:#C2C6C8"/>
				<stop  offset="0.88" style="stop-color:#B5B9BC"/>
				<stop  offset="1" style="stop-color:#B0B5B8"/>
			</linearGradient>
			<path class="st22" d="M97.8,43.7c0.1,0,0.2,0,0.2,0c0.2,0.1,0.3,0.3,0.3,0.6c0,0.1,0,0.2-0.1,0.2L92,48.1
				c-0.1-0.3-0.3-0.6-0.5-0.8L97.8,43.7z"/>
			<path class="st23" d="M91.5,47.3c0.1,0,0.2,0,0.2,0c0.2,0.1,0.3,0.3,0.3,0.6c0,0.1,0,0.2-0.1,0.2c-0.7,0.4-1.5,0.5-1.5,0.2
				C90.5,48,91,47.6,91.5,47.3z"/>
			<g>
				<polygon class="st4" points="96.9,44 96.8,43.9 97.8,43.4 97.9,43.5 				"/>
				<polygon class="st24" points="95.9,45 95.8,45 96.8,43.9 96.9,44 				"/>
				<polygon class="st2" points="97.9,43.5 97.9,43.9 95.9,45 96.9,44 				"/>
			</g>
			<polygon class="st4" points="93.7,45.1 93.6,45.1 94,44.9 94.1,44.9 			"/>
			<polygon class="st5" points="93.7,46.3 93.6,46.2 93.6,45.1 93.7,45.1 			"/>
			<polygon class="st2" points="94.1,46.1 93.7,46.3 93.7,45.1 94.1,44.9 			"/>
			<polygon class="st4" points="94.4,44.7 94.3,44.7 94.7,44.5 94.7,44.5 			"/>
			<polygon class="st5" points="94.4,45.9 94.3,45.8 94.3,44.7 94.4,44.7 			"/>
			<polygon class="st2" points="94.4,45.9 94.4,44.7 94.7,44.5 94.7,45.7 			"/>
			<g>
				<polygon class="st4" points="96,43.9 95.9,43.8 97.9,42.7 98,42.8 				"/>
				<polygon class="st2" points="98,43.2 97,43.7 96,43.9 98,42.8 				"/>
			</g>
			
				<linearGradient id="SVGID_10_" gradientUnits="userSpaceOnUse" x1="108.8337" y1="98.3479" x2="108.3637" y2="97.5279" gradientTransform="matrix(-1 0 0 -1 203.6135 142)">
				<stop  offset="0" style="stop-color:#EDEEF0"/>
				<stop  offset="0.19" style="stop-color:#D9DBDD"/>
				<stop  offset="0.24" style="stop-color:#DFE1E3"/>
				<stop  offset="0.37" style="stop-color:#EAEBED"/>
				<stop  offset="0.52" style="stop-color:#EDEEF0"/>
				<stop  offset="0.62" style="stop-color:#D8DADD"/>
				<stop  offset="0.75" style="stop-color:#C2C6C8"/>
				<stop  offset="0.88" style="stop-color:#B5B9BC"/>
				<stop  offset="1" style="stop-color:#B0B5B8"/>
			</linearGradient>
			<path class="st25" d="M97.8,41.9c0.1,0,0.2,0,0.2,0c0.2,0.1,0.3,0.3,0.3,0.6c0,0.1,0,0.2-0.1,0.2L92,46.3
				c-0.1-0.3-0.3-0.6-0.5-0.8L97.8,41.9z"/>
			<path class="st23" d="M91.5,45.5c0.1,0,0.2,0,0.2,0c0.2,0.1,0.3,0.3,0.3,0.6c0,0.1,0,0.2-0.1,0.2c-0.7,0.4-1.5,0.5-1.5,0.2
				C90.5,46.3,91,45.9,91.5,45.5z"/>
			<g>
				<polygon class="st4" points="96.9,42.3 96.8,42.2 97.8,41.7 97.9,41.7 				"/>
				<polygon class="st24" points="95.9,43.3 95.8,43.2 96.8,42.2 96.9,42.3 				"/>
				<polygon class="st2" points="97.9,41.7 97.9,42.2 95.9,43.3 96.9,42.3 				"/>
			</g>
			<polygon class="st4" points="93.7,43.4 93.6,43.3 94,43.2 94.1,43.2 			"/>
			<polygon class="st5" points="93.7,44.5 93.6,44.5 93.6,43.3 93.7,43.4 			"/>
			<polygon class="st2" points="94.1,44.3 93.7,44.5 93.7,43.4 94.1,43.2 			"/>
			<polygon class="st4" points="94.4,43 94.3,43 94.7,42.8 94.7,42.8 			"/>
			<polygon class="st5" points="94.4,44.1 94.3,44.1 94.3,43 94.4,43 			"/>
			<polygon class="st2" points="94.4,44.1 94.4,43 94.7,42.8 94.7,43.9 			"/>
			<g>
				<polygon class="st4" points="91.9,43.8 91.2,43.4 97.9,39.5 98.6,39.9 				"/>
				<polygon class="st24" points="89.8,46.2 89.1,45.8 91.2,43.4 91.9,43.8 				"/>
				<polygon class="st2" points="98.6,39.9 98.6,41.1 89.8,46.2 91.9,43.8 				"/>
			</g>
			<g>
				<polygon class="st5" points="97,48.2 94.2,46.7 94.2,42.9 96.9,44.5 				"/>
				<polygon class="st4" points="96.9,44.5 94.2,42.9 98.4,40.5 101.1,42.1 				"/>
				<polygon class="st2" points="101.1,42.1 101.1,45.8 97,48.2 96.9,44.5 				"/>
			</g>
			<g>
				<polygon class="st4" points="100.4,48.1 100.3,48.1 102.2,46.9 102.3,47 				"/>
				<polygon class="st2" points="102.3,47.4 101.4,48 100.4,48.1 102.3,47 				"/>
			</g>
			
				<linearGradient id="SVGID_11_" gradientUnits="userSpaceOnUse" x1="104.4889" y1="94.1106" x2="104.0189" y2="93.2906" gradientTransform="matrix(-1 0 0 -1 203.6135 142)">
				<stop  offset="0" style="stop-color:#EDEEF0"/>
				<stop  offset="0.19" style="stop-color:#D9DBDD"/>
				<stop  offset="0.24" style="stop-color:#DFE1E3"/>
				<stop  offset="0.37" style="stop-color:#EAEBED"/>
				<stop  offset="0.52" style="stop-color:#EDEEF0"/>
				<stop  offset="0.62" style="stop-color:#D8DADD"/>
				<stop  offset="0.75" style="stop-color:#C2C6C8"/>
				<stop  offset="0.88" style="stop-color:#B5B9BC"/>
				<stop  offset="1" style="stop-color:#B0B5B8"/>
			</linearGradient>
			<path class="st26" d="M102.1,46.2c0.1,0,0.2,0,0.2,0c0.2,0.1,0.3,0.3,0.3,0.6c0,0.1,0,0.2-0.1,0.2l-6.3,3.6
				c-0.1-0.3-0.3-0.6-0.5-0.8L102.1,46.2z"/>
			<path class="st23" d="M95.9,49.8c0.1,0,0.2,0,0.2,0c0.2,0.1,0.3,0.3,0.3,0.6c0,0.1,0,0.2-0.1,0.2c-0.7,0.4-1.5,0.5-1.5,0.2
				C94.9,50.6,95.3,50.1,95.9,49.8z"/>
			<g>
				<polygon class="st4" points="101.3,46.5 101.2,46.5 102.1,45.9 102.2,46 				"/>
				<polygon class="st24" points="100.3,47.5 100.2,47.5 101.2,46.5 101.3,46.5 				"/>
				<polygon class="st2" points="102.2,46 102.2,46.4 100.3,47.5 101.3,46.5 				"/>
			</g>
			<polygon class="st4" points="98.1,47.6 98,47.6 98.3,47.4 98.4,47.4 			"/>
			<polygon class="st5" points="98.1,48.8 98,48.7 98,47.6 98.1,47.6 			"/>
			<polygon class="st2" points="98.4,48.6 98.1,48.8 98.1,47.6 98.4,47.4 			"/>
			<polygon class="st4" points="98.7,47.3 98.7,47.2 99,47 99.1,47 			"/>
			<polygon class="st5" points="98.7,48.4 98.7,48.3 98.7,47.2 98.7,47.3 			"/>
			<polygon class="st2" points="98.7,48.4 98.7,47.3 99.1,47 99.1,48.2 			"/>
			<g>
				<polygon class="st4" points="100.4,46.4 100.3,46.3 102.2,45.2 102.3,45.3 				"/>
				<polygon class="st2" points="102.3,45.7 101.4,46.2 100.4,46.4 102.3,45.3 				"/>
			</g>
			
				<linearGradient id="SVGID_12_" gradientUnits="userSpaceOnUse" x1="104.476" y1="95.848" x2="104.006" y2="95.028" gradientTransform="matrix(-1 0 0 -1 203.6135 142)">
				<stop  offset="0" style="stop-color:#EDEEF0"/>
				<stop  offset="0.19" style="stop-color:#D9DBDD"/>
				<stop  offset="0.24" style="stop-color:#DFE1E3"/>
				<stop  offset="0.37" style="stop-color:#EAEBED"/>
				<stop  offset="0.52" style="stop-color:#EDEEF0"/>
				<stop  offset="0.62" style="stop-color:#D8DADD"/>
				<stop  offset="0.75" style="stop-color:#C2C6C8"/>
				<stop  offset="0.88" style="stop-color:#B5B9BC"/>
				<stop  offset="1" style="stop-color:#B0B5B8"/>
			</linearGradient>
			<path class="st27" d="M102.1,44.5c0.1,0,0.2,0,0.2,0c0.2,0.1,0.3,0.3,0.3,0.6c0,0.1,0,0.2-0.1,0.2l-6.3,3.6
				c-0.1-0.3-0.3-0.6-0.5-0.8L102.1,44.5z"/>
			<path class="st23" d="M95.9,48.1c0.1,0,0.2,0,0.2,0c0.2,0.1,0.3,0.3,0.3,0.6c0,0.1,0,0.2-0.1,0.2c-0.7,0.4-1.5,0.5-1.5,0.2
				C94.9,48.8,95.3,48.4,95.9,48.1z"/>
			<g>
				<polygon class="st4" points="101.3,44.8 101.2,44.7 102.1,44.2 102.2,44.2 				"/>
				<polygon class="st24" points="100.3,45.8 100.2,45.7 101.2,44.7 101.3,44.8 				"/>
				<polygon class="st2" points="102.2,44.2 102.2,44.7 100.3,45.8 101.3,44.8 				"/>
			</g>
			<polygon class="st4" points="98.1,45.9 98,45.9 98.3,45.7 98.4,45.7 			"/>
			<polygon class="st5" points="98.1,47 98,47 98,45.9 98.1,45.9 			"/>
			<polygon class="st2" points="98.4,46.8 98.1,47 98.1,45.9 98.4,45.7 			"/>
			<polygon class="st4" points="98.7,45.5 98.7,45.5 99,45.3 99.1,45.3 			"/>
			<polygon class="st5" points="98.7,46.7 98.7,46.6 98.7,45.5 98.7,45.5 			"/>
			<polygon class="st2" points="98.7,46.7 98.7,45.5 99.1,45.3 99.1,46.5 			"/>
			<g>
				<polygon class="st4" points="96.2,46.3 95.6,45.9 102.3,42 102.9,42.4 				"/>
				<polygon class="st24" points="94.1,48.7 93.4,48.3 95.6,45.9 96.2,46.3 				"/>
				<polygon class="st2" points="102.9,42.4 102.9,43.6 94.1,48.7 96.2,46.3 				"/>
			</g>
			<path class="st4" d="M34.7,108.8c0.7,1.6-0.9,3.2-3.6,3.7s-5.6-0.5-6.3-2.1s0.9-3.2,3.6-3.7C31.1,106.3,33.9,107.2,34.7,108.8z"
				/>
			<g>
				<path class="st21" d="M27.5,107.1v2.2c0,0.4,0.3,0.7,0.6,0.9c1,0.5,2.1,0.5,3.1,0c0.4-0.2,0.6-0.5,0.6-0.9V107
					c0,0.4-0.3,0.7-0.6,0.9c-1,0.5-2.1,0.5-3.1,0C27.7,107.8,27.5,107.4,27.5,107.1z"/>
				<path class="st4" d="M27.5,106.8c-0.2,0.5,0.1,1,0.6,1.2c1,0.5,2.1,0.5,3.1,0c0.3-0.1,0.5-0.3,0.6-0.6c0.2-0.5-0.1-1-0.6-1.2
					c-1-0.5-2.1-0.5-3.1,0C27.8,106.2,27.6,106.5,27.5,106.8z"/>
			</g>
			<g>
				<path class="st28" d="M26.3,106L26.3,106c0,0,0,2.4,0,2.5c0,0.1,0,0.1,0.1,0.2v-2.5c0.1-1.4,0.8-2.6,1.9-3.4
					c0.4-0.2,0.8-0.3,1.2-0.2c-0.5-0.2-1-0.1-1.4,0.2C27.1,103.4,26.4,104.7,26.3,106z"/>
				
					<linearGradient id="SVGID_13_" gradientUnits="userSpaceOnUse" x1="173.2522" y1="39.0472" x2="176.7022" y2="33.0772" gradientTransform="matrix(-1 0 0 -1 203.6135 142)">
					<stop  offset="0" style="stop-color:#C0C4C6"/>
					<stop  offset="0.4" style="stop-color:#D9DBDD"/>
					<stop  offset="0.46" style="stop-color:#D4D6D8"/>
					<stop  offset="0.8" style="stop-color:#BABEC1"/>
					<stop  offset="1" style="stop-color:#B0B5B8"/>
				</linearGradient>
				<path class="st29" d="M26.4,106.1v2.5l2.5,1.5v-2.5c0-0.5,0.1-1,0.3-1.5c0.2-0.4,0.4-0.8,0.8-1.2c0.2-0.3,0.5-0.5,0.9-0.7
					c0.4-0.3,0.9-0.4,1.4-0.1l-2.5-1.5c-0.5-0.2-1-0.2-1.4,0.1c-0.3,0.2-0.6,0.4-0.9,0.7c-0.3,0.4-0.6,0.8-0.8,1.2
					C26.5,105.1,26.4,105.6,26.4,106.1z"/>
				<path class="st30" d="M26.7,104.6l2.5,1.5c0.2-0.4,0.4-0.8,0.8-1.2l-2.5-1.5C27.2,103.8,26.9,104.2,26.7,104.6z"/>
				<path class="st2" d="M28.9,107.5v2.5c0.1,0.1,0.3,0,0.2,0l3.8-2.2v-0.1c0-2.5,0.1-3.2-0.6-3.7c-0.5-0.2-1-0.2-1.4,0.1
					C29.7,104.9,29,106.2,28.9,107.5z"/>
				<path class="st21" d="M28.3,105.5c0.2-0.4,0.4-0.8,0.8-1.2c0.2-0.3,0.5-0.5,0.8-0.7l-0.8-0.4c-0.3,0.2-0.5,0.4-0.8,0.7
					c-0.3,0.4-0.6,0.8-0.8,1.2c-0.2,0.5-0.3,1-0.3,1.5v1.2l0.8,0.4V107C28,106.5,28.1,106,28.3,105.5z"/>
			</g>
			<g>
				<path class="st31" d="M25.4,106.4h2.3c0.1,0,0.2-0.1,0.2-0.2c0.1-0.2,0-0.3-0.1-0.4h-0.1h-2.3h0.1c0.1,0.1,0.2,0.3,0.1,0.4
					C25.6,106.3,25.5,106.4,25.4,106.4z"/>
				<path class="st11" d="M25.6,106.2C25.6,106.2,25.6,106.2,25.6,106.2c-0.1,0.2-0.2,0.2-0.3,0.2c-0.1-0.1-0.2-0.3-0.1-0.4
					c0,0,0,0,0-0.1c0.1-0.1,0.2-0.2,0.3-0.1C25.6,105.9,25.7,106,25.6,106.2z"/>
			</g>
			<g>
				<path class="st31" d="M21,106.3h4.3c0.1,0,0.2-0.1,0.2-0.2c0-0.1,0-0.2-0.1-0.3h-0.1H21h0.1c0.1,0.1,0.1,0.2,0.1,0.3
					C21.2,106.2,21.1,106.3,21,106.3z"/>
				<path class="st11" d="M21,106.3C21,106.3,21,106.3,21,106.3c0.2,0,0.2,0,0.3-0.1c0-0.1,0-0.2-0.1-0.3c0,0,0,0-0.1,0
					c-0.1,0-0.2,0-0.2,0.1C20.8,106.1,20.9,106.2,21,106.3z"/>
				<path class="st21" d="M21,106.2C21,106.2,21,106.2,21,106.2c0.1,0,0.2,0,0.2-0.1c0-0.1,0-0.2-0.1-0.2c0,0,0,0,0,0
					c-0.1,0-0.1,0-0.1,0.1C20.9,106.1,20.9,106.2,21,106.2z"/>
			</g>
			<path class="st32" d="M29.3,109.5C29.3,109.5,29.3,109.5,29.3,109.5v-2.1c0.1-1.1,0.6-2.1,1.6-2.7c0.2-0.1,0.5-0.2,0.7-0.2
				c0.6,0,0.9,0.5,0.9,1.2v2.1c0,0,0,0,0,0.1l-3.1,1.8l0,0H29.3z M32.4,105.5c0-0.6-0.3-1-0.8-1c-0.2,0-0.5,0.1-0.7,0.2
				c-0.9,0.6-1.5,1.5-1.5,2.6v2l3-1.7L32.4,105.5z"/>
			<g>
				<polygon class="st2" points="139.4,18 139.4,18.4 141.4,17.2 141.5,16.8 				"/>
				<polygon class="st5" points="138.9,17.7 138.8,18.1 139.4,18.4 139.4,18 				"/>
				<polygon class="st4" points="140.9,16.5 138.9,17.7 139.4,18 141.5,16.8 				"/>
			</g>
			<g>
				
					<linearGradient id="SVGID_14_" gradientUnits="userSpaceOnUse" x1="62.7" y1="131.8419" x2="62.91" y2="131.8419" gradientTransform="matrix(-1 0 0 -1 203.6135 142)">
					<stop  offset="0" style="stop-color:#9AA0A4"/>
					<stop  offset="1" style="stop-color:#B9BFC2"/>
				</linearGradient>
				<path class="st33" d="M140.7,3.5v13.3l0,0c0,0,0.1,0,0.1,0l0,0V3.5l0,0C140.8,3.5,140.8,3.5,140.7,3.5
					C140.7,3.5,140.7,3.5,140.7,3.5z"/>
				<path class="st4" d="M140.7,3.4c0,0,0.1,0,0.1,0C140.8,3.4,140.8,3.4,140.7,3.4C140.7,3.5,140.7,3.4,140.7,3.4z"/>
			</g>
			<g>
				
					<linearGradient id="SVGID_15_" gradientUnits="userSpaceOnUse" x1="64.06" y1="131.0619" x2="64.26" y2="131.0619" gradientTransform="matrix(-1 0 0 -1 203.6135 142)">
					<stop  offset="0" style="stop-color:#9AA0A4"/>
					<stop  offset="1" style="stop-color:#B9BFC2"/>
				</linearGradient>
				<path class="st34" d="M139.4,4.3v13.3l0,0c0,0,0.1,0,0.1,0l0,0V4.3l0,0C139.5,4.3,139.4,4.3,139.4,4.3
					C139.4,4.3,139.4,4.3,139.4,4.3z"/>
				<path class="st4" d="M139.4,4.2c0,0,0.1,0,0.1,0C139.5,4.2,139.4,4.2,139.4,4.2C139.3,4.2,139.4,4.2,139.4,4.2z"/>
			</g>
			<g>
				<polygon class="st2" points="146.6,16.7 148.5,15.6 148.8,23.1 146.9,24.2 				"/>
				
					<linearGradient id="SVGID_16_" gradientUnits="userSpaceOnUse" x1="55.15" y1="126.285" x2="58.58" y2="126.285" gradientTransform="matrix(-1 0 0 -1 203.6135 142)">
					<stop  offset="0" style="stop-color:#9AA0A4"/>
					<stop  offset="1" style="stop-color:#B9BFC2"/>
				</linearGradient>
				<polygon class="st35" points="145,15.8 146.9,14.7 148.5,15.6 146.6,16.7 				"/>
				<polygon class="st5" points="146.6,16.7 146.9,24.2 144.7,22.9 145,15.8 				"/>
			</g>
			
				<linearGradient id="SVGID_17_" gradientUnits="userSpaceOnUse" x1="57.57" y1="130.94" x2="64.22" y2="130.94" gradientTransform="matrix(-1 0 0 -1 203.6135 142)">
				<stop  offset="0" style="stop-color:#A3AAAE"/>
				<stop  offset="1" style="stop-color:#C3CACD"/>
			</linearGradient>
			<polygon class="st36" points="146,11.4 140.4,11 139.4,10.7 145.9,11.2 			"/>
			<polygon class="st4" points="146,11.2 140.4,10.8 139.4,10.6 145.9,11 			"/>
			<g>
				
					<linearGradient id="SVGID_18_" gradientUnits="userSpaceOnUse" x1="56.13" y1="128.6448" x2="57.91" y2="128.6448" gradientTransform="matrix(-1 0 0 -1 203.6135 142)">
					<stop  offset="0" style="stop-color:#A3AAAE"/>
					<stop  offset="1" style="stop-color:#C3CACD"/>
				</linearGradient>
				<path class="st37" d="M145.7,10.8v4.6c0,0.2,0.3,0.4,0.7,0.5c0.3,0.1,0.6,0,0.9-0.1c0.1-0.1,0.2-0.1,0.2-0.2c0,0,0-0.1,0-0.1
					v-4.6c0,0,0,0.1,0,0.1c-0.1,0.1-0.1,0.2-0.2,0.2c-0.3,0.1-0.6,0.2-0.9,0.1C146,11.2,145.7,11,145.7,10.8z"/>
				<path class="st4" d="M146.8,10.3c0.5,0.1,0.8,0.4,0.6,0.6c-0.1,0.1-0.1,0.2-0.2,0.2c-0.3,0.1-0.6,0.2-0.9,0.1
					c-0.5-0.1-0.8-0.4-0.6-0.6c0.1-0.1,0.1-0.2,0.2-0.2C146.2,10.3,146.5,10.2,146.8,10.3z"/>
			</g>
			<polygon class="st38" points="146.9,11.6 146.9,11.8 147.8,14.9 148.1,14.7 147.1,11.7 			"/>
			<path class="st4" d="M146.9,11.6l0.9,2.8l0.7,1l-1.3-3.9C147.1,11.6,147,11.6,146.9,11.6z"/>
			<g>
				<path class="st3" d="M139,10.5v3.7c4.7,0.6,8.7,2.9,9.7,5.6v-3.7c-0.8-1.8-2.3-3.2-4.1-4C142.9,11.3,141,10.8,139,10.5z"/>
				<polygon class="st39" points="148.7,16.2 148.7,19.9 149,19.8 149,16.1 				"/>
				<path class="st40" d="M139,10.5c4.7,0.6,8.7,2.9,9.7,5.6h0.3c-1-2.8-5.1-5.2-9.9-5.8L139,10.5z"/>
			</g>
			<path class="st41" d="M139.4,11.2v0.6l-0.4-0.1v0.1l0.4,0.1v0.6l-0.4-0.1v0.1l0.4,0.1v0.6L139,13l0,0l0.4,0.1v0.6l-0.4-0.1v0.1
				l0.4,0.1v0.5h0.1v-0.5c0.4,0.1,0.8,0.1,1.2,0.2v0.6h0.1v-0.5c0.4,0.1,0.8,0.2,1.2,0.3v0.5h0.1v-0.5c0.4,0.1,0.8,0.3,1.2,0.4v0.5
				h0.1v-0.5c0.4,0.2,0.8,0.4,1.2,0.6v0.5h0.1v-0.5l0,0c0.4,0.2,0.8,0.5,1.2,0.7v0.5h0.1v-0.5c0.4,0.3,0.8,0.6,1.2,0.9v0.5l0.1,0V17
				c0.5,0.4,0.9,0.9,1.2,1.4V19l0.1,0.1v-0.6c0.1,0.2,0.2,0.3,0.3,0.5v-0.1c-0.1-0.2-0.2-0.3-0.3-0.5v-0.5c0.1,0.2,0.2,0.3,0.3,0.5
				v-0.1c-0.1-0.2-0.2-0.3-0.3-0.5v-0.5c0.1,0.2,0.2,0.4,0.3,0.5v-0.1c-0.1-0.2-0.2-0.3-0.3-0.5v-0.5c0.1,0.2,0.2,0.4,0.3,0.5V17
				c-0.1-0.2-0.2-0.3-0.3-0.5V16c0.1,0.2,0.2,0.3,0.3,0.5v-0.1c-0.1-0.2-0.2-0.3-0.3-0.5v-0.4l-0.1-0.1v0.4c-0.3-0.5-0.8-1-1.2-1.4
				v-0.5h-0.1v0.5c-0.4-0.3-0.8-0.7-1.2-0.9v-0.5h-0.1v0.4c-0.4-0.3-0.8-0.5-1.2-0.7l0,0v-0.5l0,0h0v0.5c-0.4-0.2-0.8-0.4-1.2-0.6
				v-0.5h-0.1v0.5c-0.4-0.1-0.8-0.3-1.2-0.4v-0.5H142v0.5c-0.4-0.1-0.8-0.2-1.2-0.3v-0.5h-0.1v0.5C140.3,11.3,139.9,11.2,139.4,11.2
				l0.1-0.6h-0.1v0.5L139,11v0.1L139.4,11.2z M147.2,16.4c0.5,0.4,0.9,0.9,1.2,1.4v0.5c-0.3-0.5-0.8-1-1.2-1.4V16.4z M147.2,15.8
				c0.5,0.4,0.9,0.9,1.2,1.4v0.5c-0.3-0.5-0.8-1-1.2-1.4V15.8z M147.2,15.2c0.5,0.4,0.9,0.9,1.2,1.4v0.5c-0.3-0.5-0.8-1-1.2-1.4
				V15.2z M147.2,14.6c0.5,0.4,0.9,0.9,1.2,1.4v0.5c-0.3-0.5-0.8-1-1.2-1.4V14.6z M145.9,15.4c0.4,0.3,0.8,0.6,1.2,0.9V17
				c-0.4-0.3-0.8-0.7-1.2-0.9V15.4z M145.9,14.8c0.4,0.3,0.8,0.6,1.2,0.9v0.6c-0.4-0.3-0.8-0.7-1.2-0.9V14.8z M145.9,14.2
				c0.4,0.3,0.8,0.6,1.2,0.9v0.6c-0.4-0.3-0.8-0.7-1.2-0.9V14.2z M145.9,13.5c0.4,0.3,0.8,0.6,1.2,0.9V15c-0.4-0.3-0.8-0.7-1.2-0.9
				V13.5z M144.6,14.7L144.6,14.7c0.4,0.2,0.8,0.4,1.2,0.7V16c-0.4-0.3-0.8-0.5-1.2-0.7l0,0V14.7z M144.6,14.1L144.6,14.1
				c0.4,0.2,0.8,0.4,1.2,0.7v0.6c-0.4-0.3-0.8-0.5-1.2-0.7l0,0V14.1z M144.6,13.4L144.6,13.4c0.4,0.2,0.8,0.4,1.2,0.7v0.6
				c-0.4-0.3-0.8-0.5-1.2-0.7l0,0V13.4z M144.6,12.8L144.6,12.8c0.4,0.2,0.8,0.5,1.2,0.7V14c-0.4-0.3-0.8-0.5-1.2-0.7l0,0V12.8z
				 M143.3,14.1c0.4,0.2,0.8,0.4,1.2,0.6v0.6c-0.4-0.2-0.8-0.4-1.2-0.6V14.1z M143.3,13.4c0.4,0.2,0.8,0.4,1.2,0.6v0.6
				c-0.4-0.2-0.8-0.4-1.2-0.6V13.4z M143.3,12.8c0.4,0.2,0.8,0.4,1.2,0.6V14c-0.4-0.2-0.8-0.4-1.2-0.6V12.8z M143.3,12.2
				c0.4,0.2,0.8,0.3,1.2,0.6v0.6c-0.4-0.2-0.8-0.4-1.2-0.6V12.2z M142.1,13.7c0.4,0.1,0.8,0.3,1.2,0.4v0.6c-0.4-0.1-0.8-0.3-1.2-0.4
				V13.7z M142.1,13c0.4,0.1,0.8,0.3,1.2,0.4V14c-0.4-0.1-0.8-0.3-1.2-0.4V13z M142.1,12.4c0.4,0.1,0.8,0.3,1.2,0.4v0.6
				c-0.4-0.1-0.8-0.3-1.2-0.4V12.4z M142.1,11.8c0.4,0.1,0.8,0.3,1.2,0.4v0.6c-0.4-0.1-0.8-0.3-1.2-0.4V11.8z M140.8,13.4
				c0.4,0.1,0.8,0.2,1.2,0.3v0.6c-0.4-0.1-0.8-0.2-1.2-0.3V13.4z M140.8,12.7c0.4,0.1,0.8,0.2,1.2,0.3v0.6c-0.4-0.1-0.8-0.2-1.2-0.3
				V12.7z M140.8,12.1c0.4,0.1,0.8,0.2,1.2,0.3V13c-0.4-0.1-0.8-0.2-1.2-0.3V12.1z M140.8,11.4c0.4,0.1,0.8,0.2,1.2,0.3v0.6
				c-0.4-0.1-0.8-0.2-1.2-0.3V11.4z M139.5,13.1c0.4,0.1,0.8,0.1,1.2,0.2v0.6c-0.4-0.1-0.8-0.2-1.2-0.2V13.1z M139.5,12.5
				c0.4,0.1,0.8,0.1,1.2,0.2v0.6c-0.4-0.1-0.8-0.2-1.2-0.2V12.5z M139.5,11.8c0.4,0.1,0.8,0.1,1.2,0.2v0.6c-0.4-0.1-0.8-0.2-1.2-0.2
				V11.8z M139.5,11.2c0.4,0.1,0.8,0.1,1.2,0.2V12c-0.4-0.1-0.8-0.2-1.2-0.2V11.2z"/>
			
				<linearGradient id="SVGID_19_" gradientUnits="userSpaceOnUse" x1="56.4327" y1="127.1519" x2="59.7927" y2="129.1519" gradientTransform="matrix(-1 0 0 -1 203.6135 142)">
				<stop  offset="0" style="stop-color:#A3AAAE"/>
				<stop  offset="0.42" style="stop-color:#C3CACD"/>
				<stop  offset="0.65" style="stop-color:#CFD4D6"/>
				<stop  offset="1" style="stop-color:#DCDFE1"/>
			</linearGradient>
			<path class="st42" d="M143.2,12v5c0,0.2,0.1,0.4,0.3,0.5c0.2,0.1,0.4,0.1,0.6,0l1.6-0.9l-0.4-0.3l-1.4,0.8c0,0,0,0-0.1,0
				c-0.1,0-0.1-0.1-0.1-0.1v-5c0-0.2,0.1-0.3,0.2-0.4l2.5-1.4h0.1v0.6c0,0.2,0.4,0.2,0.4,0v-0.6c0-0.1,0-0.2-0.1-0.2
				c-0.1-0.2-0.4-0.3-0.6-0.2l-2.5,1.4C143.3,11.3,143.2,11.6,143.2,12z"/>
			<polygon class="st2" points="82.3,67.1 91.8,72.6 84.9,76.6 75.5,71.1 			"/>
			<polygon class="st43" points="83.2,68 83.2,68.7 81.7,67.8 81.7,67.1 			"/>
			<polygon class="st44" points="84,67.5 84,68.2 83.2,68.7 83.2,68 			"/>
			<polygon class="st45" points="83.2,68 81.7,67.1 82.5,66.6 84,67.5 			"/>
			<polygon class="st43" points="82,68.6 82,69.3 80.6,68.5 80.6,67.8 			"/>
			<polygon class="st44" points="82.9,68.1 82.9,68.9 82,69.3 82,68.6 			"/>
			<polygon class="st45" points="82,68.6 80.6,67.8 81.4,67.3 82.9,68.1 			"/>
			<polygon class="st43" points="80.9,69.3 80.9,70 79.5,69.1 79.5,68.4 			"/>
			<polygon class="st44" points="81.8,68.8 81.8,69.5 80.9,70 80.9,69.3 			"/>
			<polygon class="st45" points="80.9,69.3 79.5,68.4 80.3,67.9 81.8,68.8 			"/>
			<polygon class="st43" points="79.8,69.9 79.8,70.6 78.3,69.8 78.3,69.1 			"/>
			<polygon class="st44" points="80.6,69.4 80.6,70.2 79.8,70.6 79.8,69.9 			"/>
			<polygon class="st45" points="79.8,69.9 78.3,69.1 79.2,68.6 80.6,69.4 			"/>
			<polygon class="st43" points="78.7,70.6 78.7,71.3 77.2,70.4 77.2,69.7 			"/>
			<polygon class="st44" points="79.5,70.1 79.5,70.8 78.7,71.3 78.7,70.6 			"/>
			<polygon class="st45" points="78.7,70.6 77.2,69.7 78.1,69.2 79.5,70.1 			"/>
			<polygon class="st43" points="77.6,71.2 77.6,71.9 76.1,71.1 76.1,70.3 			"/>
			<polygon class="st44" points="78.4,70.7 78.4,71.4 77.6,71.9 77.6,71.2 			"/>
			<polygon class="st45" points="77.6,71.2 76.1,70.3 76.9,69.9 78.4,70.7 			"/>
			<polygon class="st43" points="85,69 85,69.8 83.5,68.9 83.5,68.2 			"/>
			<polygon class="st44" points="85.8,68.5 85.8,69.3 85,69.8 85,69 			"/>
			<polygon class="st45" points="85,69 83.5,68.2 84.4,67.7 85.8,68.5 			"/>
			<polygon class="st43" points="83.9,69.7 83.9,70.4 82.4,69.6 82.4,68.8 			"/>
			<polygon class="st44" points="84.7,69.2 84.7,69.9 83.9,70.4 83.9,69.7 			"/>
			<polygon class="st45" points="83.9,69.7 82.4,68.8 83.2,68.3 84.7,69.2 			"/>
			<polygon class="st43" points="82.7,70.3 82.7,71.1 81.3,70.2 81.3,69.5 			"/>
			<polygon class="st44" points="83.6,69.8 83.6,70.6 82.7,71.1 82.7,70.3 			"/>
			<polygon class="st45" points="82.7,70.3 81.3,69.5 82.1,69 83.6,69.8 			"/>
			<polygon class="st43" points="81.6,71 81.6,71.7 80.2,70.8 80.2,70.1 			"/>
			<polygon class="st44" points="82.5,70.5 82.5,71.2 81.6,71.7 81.6,71 			"/>
			<polygon class="st45" points="81.6,71 80.2,70.1 81,69.6 82.5,70.5 			"/>
			<polygon class="st43" points="80.5,71.6 80.5,72.3 79,71.5 79,70.8 			"/>
			<polygon class="st44" points="81.3,71.1 81.3,71.9 80.5,72.3 80.5,71.6 			"/>
			<polygon class="st45" points="80.5,71.6 79,70.8 79.9,70.3 81.3,71.1 			"/>
			<polygon class="st43" points="79.4,72.3 79.4,73 77.9,72.1 77.9,71.4 			"/>
			<polygon class="st44" points="80.2,71.8 80.2,72.5 79.4,73 79.4,72.3 			"/>
			<polygon class="st45" points="79.4,72.3 77.9,71.4 78.8,70.9 80.2,71.8 			"/>
			<polygon class="st43" points="86.8,70.1 86.8,70.8 85.3,70 85.3,69.2 			"/>
			<polygon class="st44" points="87.6,69.6 87.6,70.3 86.8,70.8 86.8,70.1 			"/>
			<polygon class="st45" points="86.8,70.1 85.3,69.2 86.2,68.8 87.6,69.6 			"/>
			<polygon class="st43" points="85.7,70.7 85.7,71.5 84.2,70.6 84.2,69.9 			"/>
			<polygon class="st44" points="86.5,70.3 86.5,71 85.7,71.5 85.7,70.7 			"/>
			<polygon class="st45" points="85.7,70.7 84.2,69.9 85,69.4 86.5,70.3 			"/>
			<polygon class="st43" points="84.6,71.4 84.6,72.1 83.1,71.3 83.1,70.5 			"/>
			<polygon class="st44" points="85.4,70.9 85.4,71.6 84.6,72.1 84.6,71.4 			"/>
			<polygon class="st45" points="84.6,71.4 83.1,70.5 83.9,70 85.4,70.9 			"/>
			<polygon class="st43" points="83.4,72 83.4,72.8 82,71.9 82,71.2 			"/>
			<polygon class="st44" points="84.3,71.5 84.3,72.3 83.4,72.8 83.4,72 			"/>
			<polygon class="st45" points="83.4,72 82,71.2 82.8,70.7 84.3,71.5 			"/>
			<polygon class="st43" points="82.3,72.7 82.3,73.4 80.9,72.6 80.9,71.8 			"/>
			<polygon class="st44" points="83.2,72.2 83.2,72.9 82.3,73.4 82.3,72.7 			"/>
			<polygon class="st45" points="82.3,72.7 80.9,71.8 81.7,71.3 83.2,72.2 			"/>
			<polygon class="st43" points="81.2,73.3 81.2,74 79.7,73.2 79.7,72.5 			"/>
			<polygon class="st44" points="82,72.8 82,73.6 81.2,74 81.2,73.3 			"/>
			<polygon class="st45" points="81.2,73.3 79.7,72.5 80.6,72 82,72.8 			"/>
			<polygon class="st43" points="88.6,71.1 88.6,71.9 87.2,71 87.1,70.3 			"/>
			<polygon class="st44" points="89.4,70.7 89.4,71.4 88.6,71.9 88.6,71.1 			"/>
			<polygon class="st45" points="88.6,71.1 87.1,70.3 88,69.8 89.4,70.7 			"/>
			<polygon class="st43" points="87.5,71.8 87.5,72.5 86,71.7 86,70.9 			"/>
			<polygon class="st44" points="88.3,71.3 88.3,72 87.5,72.5 87.5,71.8 			"/>
			<polygon class="st45" points="87.5,71.8 86,70.9 86.9,70.4 88.3,71.3 			"/>
			<polygon class="st43" points="86.4,72.4 86.4,73.2 84.9,72.3 84.9,71.6 			"/>
			<polygon class="st44" points="87.2,71.9 87.2,72.7 86.4,73.2 86.4,72.4 			"/>
			<polygon class="st45" points="86.4,72.4 84.9,71.6 85.7,71.1 87.2,71.9 			"/>
			<polygon class="st43" points="85.3,73.1 85.3,73.8 83.8,73 83.8,72.2 			"/>
			<polygon class="st44" points="86.1,72.6 86.1,73.3 85.3,73.8 85.3,73.1 			"/>
			<polygon class="st45" points="85.3,73.1 83.8,72.2 84.6,71.8 86.1,72.6 			"/>
			<polygon class="st43" points="84.1,73.7 84.1,74.4 82.7,73.6 82.7,72.9 			"/>
			<polygon class="st44" points="85,73.2 85,74 84.1,74.4 84.1,73.7 			"/>
			<polygon class="st45" points="84.1,73.7 82.7,72.9 83.5,72.4 85,73.2 			"/>
			<polygon class="st43" points="83,74.4 83,75.1 81.6,74.3 81.6,73.5 			"/>
			<polygon class="st44" points="83.8,73.9 83.9,74.6 83,75.1 83,74.4 			"/>
			<polygon class="st45" points="83,74.4 81.6,73.5 82.4,73 83.8,73.9 			"/>
			<polygon class="st43" points="90.4,72.2 90.4,72.9 89,72.1 89,71.3 			"/>
			<polygon class="st44" points="91.3,71.7 91.3,72.4 90.4,72.9 90.4,72.2 			"/>
			<polygon class="st45" points="90.4,72.2 89,71.3 89.8,70.9 91.3,71.7 			"/>
			<polygon class="st43" points="89.3,72.8 89.3,73.6 87.8,72.7 87.8,72 			"/>
			<polygon class="st44" points="90.1,72.4 90.1,73.1 89.3,73.6 89.3,72.8 			"/>
			<polygon class="st45" points="89.3,72.8 87.8,72 88.7,71.5 90.1,72.4 			"/>
			<polygon class="st43" points="88.2,73.5 88.2,74.2 86.7,73.4 86.7,72.6 			"/>
			<polygon class="st44" points="89,73 89,73.7 88.2,74.2 88.2,73.5 			"/>
			<polygon class="st45" points="88.2,73.5 86.7,72.6 87.6,72.2 89,73 			"/>
			<polygon class="st43" points="87.1,74.1 87.1,74.9 85.6,74 85.6,73.3 			"/>
			<polygon class="st44" points="87.9,73.7 87.9,74.4 87.1,74.9 87.1,74.1 			"/>
			<polygon class="st45" points="87.1,74.1 85.6,73.3 86.4,72.8 87.9,73.7 			"/>
			<polygon class="st43" points="86,74.8 86,75.5 84.5,74.7 84.5,73.9 			"/>
			<polygon class="st44" points="86.8,74.3 86.8,75 86,75.5 86,74.8 			"/>
			<polygon class="st45" points="86,74.8 84.5,73.9 85.3,73.4 86.8,74.3 			"/>
			<polygon class="st43" points="84.8,75.4 84.8,76.2 83.4,75.3 83.4,74.6 			"/>
			<polygon class="st44" points="85.7,74.9 85.7,75.7 84.8,76.2 84.8,75.4 			"/>
			<polygon class="st45" points="84.8,75.4 83.4,74.6 84.2,74.1 85.7,74.9 			"/>
			<g>
				<defs>
					<polygon id="SVGID_20_" points="127.2,63.5 127.2,67.2 144.9,56.6 144.9,52.8 					"/>
				</defs>
				<clipPath id="SVGID_21_">
					<use xlink:href="#SVGID_20_"  style="overflow:visible;"/>
				</clipPath>
				<g class="st46">
					<path class="st6" d="M128.9,64.6v1.3c0,0.1,0.1,0.1,0.1,0v-1.3l0,0L128.9,64.6C128.9,64.5,128.9,64.5,128.9,64.6z"/>
					<path class="st6" d="M131.9,62.8V64c0,0.1,0.1,0.1,0.1,0v-1.3l0,0L131.9,62.8C131.9,62.7,131.9,62.8,131.9,62.8z"/>
					<path class="st6" d="M134.9,61v1.3c0,0.1,0.1,0.1,0.1,0V61l0,0H134.9C134.9,61,134.9,61,134.9,61z"/>
					<path class="st6" d="M137.8,59.2v1.3c0,0.1,0.1,0.1,0.1,0v-1.3l0,0L137.8,59.2C137.8,59.2,137.8,59.2,137.8,59.2z"/>
					<path class="st6" d="M140.8,57.4v1.3c0,0.1,0.2,0.1,0.2,0v-1.3l0,0L140.8,57.4C140.8,57.4,140.8,57.4,140.8,57.4z"/>
					<path class="st6" d="M143.8,55.7v1.3c0,0.1,0.2,0.1,0.2,0v-1.3l0,0L143.8,55.7C143.8,55.6,143.8,55.6,143.8,55.7z"/>
					<path class="st6" d="M126.7,66.1c-0.1,0-0.1,0-0.2-0.1c0-0.1,0-0.2,0.1-0.2l17.5-10.5c0.1,0,0.2,0,0.2,0c0,0.1,0,0.2-0.1,0.2
						L126.7,66.1L126.7,66.1L126.7,66.1z"/>
				</g>
			</g>
			<g>
				<polygon class="st2" points="103.4,59.3 103.4,59.8 105.5,58.5 105.5,58.1 				"/>
				<polygon class="st5" points="102.9,59 102.9,59.5 103.4,59.8 103.4,59.3 				"/>
				<polygon class="st4" points="105,57.8 102.9,59 103.4,59.3 105.5,58.1 				"/>
			</g>
			<g>
				
					<linearGradient id="SVGID_22_" gradientUnits="userSpaceOnUse" x1="98.65" y1="90.4719" x2="98.86" y2="90.4719" gradientTransform="matrix(-1 0 0 -1 203.6135 142)">
					<stop  offset="0" style="stop-color:#9AA0A4"/>
					<stop  offset="1" style="stop-color:#B9BFC2"/>
				</linearGradient>
				<path class="st47" d="M104.8,44.8v13.3l0,0c0,0,0.1,0,0.1,0l0,0V44.9l0,0C104.9,44.9,104.8,44.9,104.8,44.8
					C104.8,44.9,104.8,44.9,104.8,44.8z"/>
				<path class="st4" d="M104.8,44.8c0,0,0.1,0,0.1,0C104.9,44.8,104.8,44.8,104.8,44.8C104.7,44.8,104.8,44.8,104.8,44.8z"/>
			</g>
			<g>
				
					<linearGradient id="SVGID_23_" gradientUnits="userSpaceOnUse" x1="100.01" y1="89.6769" x2="100.22" y2="89.6769" gradientTransform="matrix(-1 0 0 -1 203.6135 142)">
					<stop  offset="0" style="stop-color:#9AA0A4"/>
					<stop  offset="1" style="stop-color:#B9BFC2"/>
				</linearGradient>
				<path class="st48" d="M103.4,45.6V59l0,0c0,0,0.1,0,0.1,0l0,0V45.7l0,0C103.5,45.7,103.5,45.7,103.4,45.6
					C103.4,45.7,103.4,45.6,103.4,45.6z"/>
				<path class="st4" d="M103.4,45.6c0,0,0.1,0,0.1,0C103.5,45.6,103.5,45.6,103.4,45.6C103.4,45.6,103.4,45.6,103.4,45.6z"/>
			</g>
			<path class="st6" d="M104.3,59.5l-6.4-1h-0.1L85,51.1c0,0,0,0-0.1-0.1l-1.6-3.5c0-0.1,0-0.1,0.1-0.2l14.8-8.9c0,0,0.1,0,0.1,0
				l20.7,12c0,0,0.1,0.1,0.1,0.1c0,0,0,0.1-0.1,0.1L104.3,59.5L104.3,59.5L104.3,59.5z M98.3,38.6l-14.7,8.8l1.6,3.5l12.7,7.3l6.3,1
				l14.5-8.6L98.3,38.6z"/>
			<polygon class="st3" points="78,83.7 88.4,89.7 90,83.3 79.6,77.3 			"/>
			<polygon class="st2" points="78,83.7 84.3,80 79.6,77.3 			"/>
			<polygon class="st3" points="64.7,76 75.1,82.1 76.7,75.6 66.3,69.6 			"/>
			<polygon class="st2" points="64.7,76 71,72.4 66.3,69.6 			"/>
			
				<linearGradient id="SVGID_24_" gradientUnits="userSpaceOnUse" x1="71.24" y1="119.3827" x2="67.29" y2="119.3827" gradientTransform="matrix(-1 0 0 -1 203.6135 142)">
				<stop  offset="0" style="stop-color:#E0E0E0"/>
				<stop  offset="1" style="stop-color:#D3D3D3"/>
			</linearGradient>
			<path class="st49" d="M132.6,21.3v1.4c0,0.4,0.3,0.7,0.7,0.9c0.9,0.5,2.1,0.5,3,0c0.3-0.2,0.6-0.5,0.6-0.9v-1.4
				c0,0.4-0.3,0.7-0.6,0.9c-0.9,0.5-2.1,0.5-3,0C132.9,22,132.6,21.7,132.6,21.3z"/>
			<path class="st50" d="M133.2,22.2c0.9,0.5,2.1,0.5,3,0c0.9-0.5,0.9-1.3,0-1.8c-0.9-0.5-2.1-0.5-3,0
				C132.4,20.9,132.4,21.7,133.2,22.2z"/>
			
				<radialGradient id="SVGID_25_" cx="69.31" cy="123.28" r="3.81" gradientTransform="matrix(-1 0 0 -1 203.6135 142)" gradientUnits="userSpaceOnUse">
				<stop  offset="0" style="stop-color:#FFFFFD"/>
				<stop  offset="0.29" style="stop-color:#F2F2F1"/>
				<stop  offset="0.58" style="stop-color:#E0E0E0"/>
				<stop  offset="1" style="stop-color:#D3D3D3"/>
			</radialGradient>
			<path class="st51" d="M132.6,20.4V21c0.1,0.4,0.3,0.7,0.7,0.9c0.9,0.5,2.1,0.5,3,0c0.3-0.2,0.6-0.5,0.6-0.9v-0.6
				c0-0.4-0.1-0.7-0.3-1.1c-0.6-1-2-1.3-3-0.7C133,19,132.6,19.7,132.6,20.4z"/>
			<path class="st52" d="M134.6,18.7c0.1,0,0.2,0,0.2,0c0.1,0,0.1,0.1,0,0.1c-0.1,0-0.2,0-0.2,0C134.6,18.8,134.6,18.8,134.6,18.7z"
				/>
			
				<linearGradient id="SVGID_26_" gradientUnits="userSpaceOnUse" x1="58.82" y1="112.2127" x2="54.88" y2="112.2127" gradientTransform="matrix(-1 0 0 -1 203.6135 142)">
				<stop  offset="0" style="stop-color:#E0E0E0"/>
				<stop  offset="1" style="stop-color:#D3D3D3"/>
			</linearGradient>
			<path class="st53" d="M145,28.5v1.4c0,0.4,0.3,0.7,0.6,0.9c0.9,0.5,2.1,0.5,3,0c0.3-0.2,0.6-0.5,0.6-0.9v-1.4
				c0,0.4-0.3,0.7-0.6,0.9c-0.9,0.5-2.1,0.5-3,0C145.3,29.2,145,28.9,145,28.5z"/>
			<path class="st50" d="M145.6,29.4c0.9,0.5,2.1,0.5,3,0c0.9-0.5,0.9-1.3,0-1.8c-0.9-0.5-2.1-0.5-3,0
				C144.8,28.1,144.8,28.9,145.6,29.4z"/>
			
				<radialGradient id="SVGID_27_" cx="56.89" cy="116.12" r="3.81" gradientTransform="matrix(-1 0 0 -1 203.6135 142)" gradientUnits="userSpaceOnUse">
				<stop  offset="0" style="stop-color:#FFFFFD"/>
				<stop  offset="0.29" style="stop-color:#F2F2F1"/>
				<stop  offset="0.58" style="stop-color:#E0E0E0"/>
				<stop  offset="1" style="stop-color:#D3D3D3"/>
			</radialGradient>
			<path class="st54" d="M145.1,27.6v0.6c0,0.4,0.3,0.7,0.7,0.9c0.9,0.5,2.1,0.5,3,0c0.3-0.2,0.6-0.5,0.6-0.9v-0.6
				c0-0.4-0.1-0.7-0.3-1.1c-0.6-1-2-1.3-3-0.7C145.4,26.2,145.1,26.9,145.1,27.6z"/>
			<path class="st52" d="M147,25.9c0.1,0,0.2,0,0.2,0c0.1,0,0.1,0.1,0,0.1c-0.1,0-0.2,0-0.2,0C147,26,147,26,147,25.9z"/>
			
				<linearGradient id="SVGID_28_" gradientUnits="userSpaceOnUse" x1="131" y1="74.0427" x2="134.38" y2="74.0427" gradientTransform="matrix(-1 0 0 -1 203.6135 142)">
				<stop  offset="0" style="stop-color:#9AA0A4"/>
				<stop  offset="1" style="stop-color:#B9BFC2"/>
			</linearGradient>
			<path class="st55" d="M69.2,67.3v0.3c0,0.3,0.2,0.6,0.5,0.7c0.7,0.4,1.6,0.4,2.4,0c0.3-0.1,0.5-0.4,0.5-0.7v-0.3
				c0,0.3-0.2,0.6-0.5,0.7c-0.7,0.4-1.6,0.4-2.4,0C69.5,67.9,69.3,67.6,69.2,67.3z"/>
			<path class="st56" d="M69.7,68c0.7,0.4,1.6,0.4,2.4,0c0.7-0.4,0.7-1,0-1.4c-0.7-0.4-1.6-0.4-2.4,0C69.1,67,69.1,67.6,69.7,68z"/>
			
				<radialGradient id="SVGID_29_" cx="133.03" cy="76.72" r="2.99" gradientTransform="matrix(-1 0 0 -1 203.6135 142)" gradientUnits="userSpaceOnUse">
				<stop  offset="0" style="stop-color:#EDEEF0"/>
				<stop  offset="0.18" style="stop-color:#E0E2E4"/>
				<stop  offset="0.53" style="stop-color:#BCC2C5"/>
				<stop  offset="0.56" style="stop-color:#B9BFC2"/>
				<stop  offset="1" style="stop-color:#9AA0A4"/>
			</radialGradient>
			<path class="st57" d="M69.2,66.6V67c0,0.3,0.2,0.6,0.5,0.7c0.7,0.4,1.6,0.4,2.4,0c0.3-0.1,0.5-0.4,0.5-0.7v-0.4
				c0-0.3-0.1-0.6-0.2-0.8c-0.5-0.8-1.5-1.1-2.3-0.6C69.6,65.5,69.3,66,69.2,66.6z"/>
			<g>
				<path class="st31" d="M65.3,69.7c0.1,0,0.1,0.1,0.1,0.2c0,0,0,0.1,0,0.1l4.3-2.5c0,0,0-0.1,0-0.1c0-0.1-0.1-0.2-0.1-0.2
					c0,0-0.1,0-0.1,0L65.3,69.7C65.3,69.7,65.3,69.7,65.3,69.7z"/>
				<path class="st2" d="M65.2,69.7c0,0.1,0.1,0.2,0.1,0.2c0.1,0,0.1,0,0.1-0.1c0-0.1-0.1-0.2-0.1-0.2
					C65.3,69.6,65.2,69.7,65.2,69.7z"/>
			</g>
			
				<linearGradient id="SVGID_30_" gradientUnits="userSpaceOnUse" x1="110.33" y1="62.0927" x2="113.71" y2="62.0927" gradientTransform="matrix(-1 0 0 -1 203.6135 142)">
				<stop  offset="0" style="stop-color:#9AA0A4"/>
				<stop  offset="1" style="stop-color:#B9BFC2"/>
			</linearGradient>
			<path class="st58" d="M89.9,79.3v0.3c0,0.3,0.2,0.6,0.5,0.7c0.7,0.4,1.6,0.4,2.4,0c0.3-0.1,0.5-0.4,0.5-0.7v-0.3
				c0,0.3-0.2,0.6-0.5,0.7c-0.7,0.4-1.6,0.4-2.4,0C90.1,79.8,89.9,79.6,89.9,79.3z"/>
			<path class="st56" d="M90.4,79.9c0.7,0.4,1.6,0.4,2.4,0c0.7-0.4,0.7-1,0-1.4c-0.7-0.4-1.6-0.4-2.4,0C89.7,79,89.7,79.6,90.4,79.9
				z"/>
			
				<radialGradient id="SVGID_31_" cx="112.37" cy="64.79" r="2.99" gradientTransform="matrix(-1 0 0 -1 203.6135 142)" gradientUnits="userSpaceOnUse">
				<stop  offset="0" style="stop-color:#EDEEF0"/>
				<stop  offset="0.18" style="stop-color:#E0E2E4"/>
				<stop  offset="0.53" style="stop-color:#BCC2C5"/>
				<stop  offset="0.56" style="stop-color:#B9BFC2"/>
				<stop  offset="1" style="stop-color:#9AA0A4"/>
			</radialGradient>
			<path class="st59" d="M89.9,78.5V79c0,0.3,0.2,0.6,0.5,0.7c0.7,0.4,1.6,0.4,2.4,0c0.3-0.1,0.5-0.4,0.5-0.7v-0.5
				c0-0.3-0.1-0.6-0.2-0.8c-0.5-0.8-1.5-1.1-2.3-0.6C90.2,77.5,89.9,78,89.9,78.5z"/>
			<g>
				<path class="st31" d="M86,81.6c0.1,0,0.1,0.1,0.1,0.2c0,0,0,0.1,0,0.1l4.3-2.5c0,0,0-0.1,0-0.1c0-0.1-0.1-0.2-0.1-0.2
					c0,0-0.1,0-0.1,0L86,81.6C86,81.6,86,81.6,86,81.6z"/>
				<path class="st2" d="M85.9,81.7c0,0.1,0.1,0.2,0.1,0.2c0.1,0,0.1,0,0.1-0.1c0-0.1-0.1-0.2-0.1-0.2C86,81.6,85.9,81.6,85.9,81.7z
					"/>
			</g>
			<path class="st4" d="M173.6,28.5c0.8,1.6-0.9,3.2-3.6,3.7c-2.8,0.4-5.6-0.5-6.3-2.1c-0.7-1.6,0.9-3.2,3.6-3.6
				C170.1,26,172.9,27,173.6,28.5z"/>
			<g>
				<path class="st21" d="M165.9,26.3v2.6c0,0.5,0.3,0.9,0.8,1.1c1.2,0.6,2.5,0.6,3.7,0c0.4-0.2,0.7-0.6,0.8-1.1v-2.7
					c0,0.5-0.3,0.9-0.8,1.1c-1.2,0.6-2.5,0.6-3.7,0C166.3,27.2,166,26.8,165.9,26.3z"/>
				<path class="st4" d="M166,25.9c-0.2,0.6,0.1,1.2,0.7,1.4c1.2,0.6,2.5,0.6,3.7,0c0.3-0.1,0.6-0.4,0.7-0.7
					c0.2-0.6-0.1-1.2-0.7-1.4c-1.2-0.6-2.5-0.6-3.7,0C166.4,25.3,166.1,25.6,166,25.9z"/>
			</g>
			<g>
				<path class="st60" d="M171.6,20.8c0,0,0.1,0,0.1,0l0,0l0.1,0.1c0.2,0.1,0.3,0.3,0.3,0.3l0,0l3.9-5l0,0c0,0-0.1-0.2-0.3-0.3
					l-0.1-0.1l0,0c-0.1,0-0.1,0-0.1,0L171.6,20.8z"/>
				<path class="st61" d="M171.6,20.9c0,0,0.1,0.2,0.3,0.3l0.2,0.1c0.1,0,0.1,0,0.2,0c0,0-0.1-0.2-0.3-0.3l-0.1-0.1
					C171.7,20.8,171.7,20.9,171.6,20.9z"/>
			</g>
			<g>
				<path class="st60" d="M170,22.8c0-0.1,0.1,0,0.2,0l0,0l0.2,0.1l0,0c0.2,0.2,0.3,0.3,0.3,0.4l0,0l2.1-2.7l0,0
					c0-0.1-0.1-0.2-0.3-0.4l0,0l-0.2-0.1l0,0c-0.1,0-0.2,0-0.2,0L170,22.8z"/>
				<path class="st62" d="M169.9,22.8c0,0.1,0.1,0.2,0.3,0.4l0.2,0.1c0.1,0,0.2,0.1,0.2,0s-0.1-0.2-0.3-0.4l-0.2-0.1
					C170,22.8,169.9,22.8,169.9,22.8z"/>
			</g>
			<g>
				<path class="st28" d="M164.6,25.1L164.6,25.1c0,0,0,2.9,0,2.9c0,0,0,0.1,0.1,0.1L164.6,25.1c0.2-1.6,1-3.1,2.4-3.9
					c0.4-0.3,1-0.4,1.5-0.2c-0.6-0.2-1.2-0.1-1.6,0.2C165.5,22,164.7,23.5,164.6,25.1z"/>
				
					<linearGradient id="SVGID_32_" gradientUnits="userSpaceOnUse" x1="34.2284" y1="120.6049" x2="38.3359" y2="113.4792" gradientTransform="matrix(-1 0 0 -1 203.6135 142)">
					<stop  offset="0" style="stop-color:#C0C4C6"/>
					<stop  offset="0.4" style="stop-color:#D9DBDD"/>
					<stop  offset="0.46" style="stop-color:#D4D6D8"/>
					<stop  offset="0.8" style="stop-color:#BABEC1"/>
					<stop  offset="1" style="stop-color:#B0B5B8"/>
				</linearGradient>
				<path class="st63" d="M164.7,25.2v3l3,1.8v-3c0-0.6,0.1-1.2,0.4-1.8c0.2-0.5,0.5-1,0.9-1.4c0.3-0.3,0.6-0.6,1-0.9
					c0.5-0.4,1.1-0.4,1.7-0.2l-3-1.8c-0.5-0.3-1.2-0.2-1.6,0.1c-0.4,0.2-0.7,0.5-1,0.9c-0.4,0.4-0.7,0.9-0.9,1.4
					C164.8,24,164.7,24.6,164.7,25.2z"/>
				<path class="st30" d="M165.1,23.4l3,1.8c0.2-0.5,0.5-1,0.9-1.4l-3-1.8C165.6,22.4,165.3,22.9,165.1,23.4z"/>
				<path class="st2" d="M167.6,26.9v3c0.1,0.1,0.3-0.1,0.2,0l4.5-2.6v-0.1c0-3,0.2-3.9-0.8-4.4c-0.5-0.2-1.1-0.2-1.6,0.2
					C168.6,23.8,167.7,25.2,167.6,26.9z"/>
				<path class="st32" d="M168.1,29.2C168.1,29.2,168.1,29.2,168.1,29.2c0-0.5,0-1.4,0-2.4v-0.1c0.1-1.3,0.8-2.5,1.9-3.3
					c0.3-0.2,0.6-0.3,0.9-0.3c0.7,0,1.1,0.5,1.1,1.4V27c0,0,0,0,0,0.1l-3.7,2.1l0,0L168.1,29.2z M171.9,24.5c0-0.8-0.4-1.2-0.9-1.2
					c-0.3,0-0.6,0.1-0.8,0.2c-1.1,0.7-1.7,1.9-1.8,3.1v0.1c0,0.9,0,1.8,0,2.2l3.5-2V24.5z"/>
				<path class="st21" d="M168,21.7l0.9,0.5c0.5-0.4,1.1-0.4,1.7-0.2l-0.9-0.5C169.1,21.3,168.4,21.3,168,21.7z"/>
			</g>
			<ellipse transform="matrix(0.9848 -0.1736 0.1736 0.9848 -21.015 5.5113)" class="st3" cx="21" cy="122.9" rx="1.3" ry="0.9"/>
			<g>
				<g>
					<g>
						
							<linearGradient id="SVGID_33_" gradientUnits="userSpaceOnUse" x1="181.84" y1="25.1809" x2="182.91" y2="25.1809" gradientTransform="matrix(-1 0 0 -1 203.6135 142)">
							<stop  offset="0" style="stop-color:#9AA0A4"/>
							<stop  offset="1" style="stop-color:#B9BFC2"/>
						</linearGradient>
						<path class="st64" d="M20.7,116.3c0.2,0.2,0.4,0.3,0.6,0.2c0.1,0,0.2,0,0.2-0.1c0.1,0,0.2-0.1,0.2-0.2v0.9
							c0,0.1-0.1,0.2-0.2,0.2c-0.1,0-0.2,0.1-0.2,0.1c-0.2,0.1-0.5,0-0.6-0.2c0,0,0-0.1,0-0.1V116.3
							C20.7,116.3,20.7,116.3,20.7,116.3z"/>
					</g>
				</g>
				<path class="st11" d="M21.1,115.9c0.2-0.1,0.5,0,0.6,0.2c0.1,0.1,0,0.2-0.1,0.3c-0.1,0-0.2,0.1-0.2,0.1c-0.2,0.1-0.5,0-0.6-0.2
					c-0.1-0.1,0-0.2,0.1-0.3C20.9,116,21,115.9,21.1,115.9z"/>
			</g>
			<g>
				<g>
					<g>
						
							<linearGradient id="SVGID_34_" gradientUnits="userSpaceOnUse" x1="181.56" y1="25.6762" x2="183.18" y2="25.6762" gradientTransform="matrix(-1 0 0 -1 203.6135 142)">
							<stop  offset="0" style="stop-color:#B4BCC0"/>
							<stop  offset="1" style="stop-color:#CBD2D5"/>
						</linearGradient>
						<path class="st65" d="M20.4,116c0.2,0.3,0.6,0.4,1,0.3c0.1,0,0.2-0.1,0.4-0.1c0.1-0.1,0.2-0.2,0.2-0.3v0.3
							c0,0.1-0.1,0.3-0.2,0.3c-0.1,0.1-0.2,0.1-0.4,0.1c-0.4,0.1-0.8,0-1-0.3c0,0,0-0.1,0-0.1v-0.3C20.4,116,20.4,116,20.4,116z"/>
					</g>
				</g>
				<path class="st11" d="M21,115.5c0.4-0.1,0.8,0,1,0.3c0.1,0.2,0,0.3-0.2,0.4c-0.1,0.1-0.2,0.1-0.4,0.1c-0.4,0.1-0.8,0-1-0.3
					c-0.1-0.2,0-0.3,0.2-0.4C20.8,115.5,20.9,115.5,21,115.5z"/>
			</g>
			<g>
				<g>
					<g>
						
							<linearGradient id="SVGID_35_" gradientUnits="userSpaceOnUse" x1="181.84" y1="26.2559" x2="182.91" y2="26.2559" gradientTransform="matrix(-1 0 0 -1 203.6135 142)">
							<stop  offset="0" style="stop-color:#9AA0A4"/>
							<stop  offset="1" style="stop-color:#B9BFC2"/>
						</linearGradient>
						<path class="st66" d="M20.7,115.4c0.2,0.2,0.4,0.3,0.6,0.2c0.1,0,0.2,0,0.2-0.1c0.1,0,0.2-0.1,0.2-0.2v0.6
							c0,0.1-0.1,0.2-0.2,0.2c-0.1,0-0.2,0.1-0.2,0.1c-0.2,0.1-0.5,0-0.6-0.2c0,0,0-0.1,0-0.1V115.4
							C20.7,115.3,20.7,115.4,20.7,115.4z"/>
					</g>
				</g>
				<path class="st11" d="M21.1,115c0.2-0.1,0.5,0,0.6,0.2c0.1,0.1,0,0.2-0.1,0.3c-0.1,0-0.2,0.1-0.2,0.1c-0.2,0.1-0.5,0-0.6-0.2
					c-0.1-0.1,0-0.2,0.1-0.3C20.9,115,21,115,21.1,115z"/>
			</g>
			<g>
				<g>
					<g>
						
							<linearGradient id="SVGID_36_" gradientUnits="userSpaceOnUse" x1="181.56" y1="26.4662" x2="183.18" y2="26.4662" gradientTransform="matrix(-1 0 0 -1 203.6135 142)">
							<stop  offset="0" style="stop-color:#B4BCC0"/>
							<stop  offset="1" style="stop-color:#CBD2D5"/>
						</linearGradient>
						<path class="st67" d="M20.4,115.3c0.2,0.3,0.6,0.4,1,0.3c0.1,0,0.2-0.1,0.4-0.1c0.1-0.1,0.2-0.2,0.2-0.3v0.3
							c0,0.1-0.1,0.3-0.2,0.3c-0.1,0.1-0.2,0.1-0.4,0.1c-0.4,0.1-0.8,0-1-0.3c0,0,0-0.1,0-0.1v-0.3
							C20.4,115.2,20.4,115.2,20.4,115.3z"/>
					</g>
				</g>
				<path class="st11" d="M21,114.7c0.4-0.1,0.8,0,1,0.3c0.1,0.2,0,0.3-0.2,0.4c-0.1,0.1-0.2,0.1-0.4,0.1c-0.4,0.1-0.8,0-1-0.3
					c-0.1-0.2,0-0.3,0.2-0.4C20.8,114.7,20.9,114.7,21,114.7z"/>
			</g>
			<g>
				<g>
					<g>
						
							<linearGradient id="SVGID_37_" gradientUnits="userSpaceOnUse" x1="186.31" y1="27.7609" x2="187.38" y2="27.7609" gradientTransform="matrix(-1 0 0 -1 203.6135 142)">
							<stop  offset="0" style="stop-color:#9AA0A4"/>
							<stop  offset="1" style="stop-color:#B9BFC2"/>
						</linearGradient>
						<path class="st68" d="M16.2,113.7c0.2,0.2,0.4,0.3,0.6,0.2c0.1,0,0.2,0,0.2-0.1c0.1,0,0.2-0.1,0.2-0.2v0.9
							c0,0.1-0.1,0.2-0.2,0.2c-0.1,0-0.2,0.1-0.2,0.1c-0.2,0.1-0.5,0-0.6-0.2c0,0,0-0.1,0-0.1V113.7
							C16.2,113.7,16.2,113.7,16.2,113.7z"/>
					</g>
				</g>
				<path class="st11" d="M16.6,113.3c0.2-0.1,0.5,0,0.6,0.2c0.1,0.1,0,0.2-0.1,0.3c-0.1,0-0.2,0.1-0.2,0.1c-0.2,0.1-0.5,0-0.6-0.2
					c-0.1-0.1,0-0.2,0.1-0.3C16.5,113.4,16.5,113.4,16.6,113.3z"/>
			</g>
			<g>
				<g>
					<g>
						
							<linearGradient id="SVGID_38_" gradientUnits="userSpaceOnUse" x1="186.03" y1="28.2562" x2="187.65" y2="28.2562" gradientTransform="matrix(-1 0 0 -1 203.6135 142)">
							<stop  offset="0" style="stop-color:#B4BCC0"/>
							<stop  offset="1" style="stop-color:#CBD2D5"/>
						</linearGradient>
						<path class="st69" d="M16,113.5c0.2,0.3,0.6,0.4,1,0.3c0.1,0,0.2-0.1,0.4-0.1c0.1-0.1,0.2-0.2,0.2-0.3v0.3
							c0,0.1-0.1,0.3-0.2,0.3c-0.1,0.1-0.2,0.1-0.4,0.1c-0.4,0.1-0.8,0-1-0.3c0,0,0-0.1,0-0.1v-0.3C16,113.4,16,113.4,16,113.5z"/>
					</g>
				</g>
				<path class="st11" d="M16.6,112.9c0.4-0.1,0.8,0,1,0.3c0.1,0.2,0,0.3-0.2,0.4c-0.1,0.1-0.2,0.1-0.4,0.1c-0.4,0.1-0.8,0-1-0.3
					c-0.1-0.2,0-0.3,0.2-0.4C16.3,112.9,16.4,112.9,16.6,112.9z"/>
			</g>
			<g>
				<g>
					<g>
						
							<linearGradient id="SVGID_39_" gradientUnits="userSpaceOnUse" x1="186.31" y1="28.8359" x2="187.38" y2="28.8359" gradientTransform="matrix(-1 0 0 -1 203.6135 142)">
							<stop  offset="0" style="stop-color:#9AA0A4"/>
							<stop  offset="1" style="stop-color:#B9BFC2"/>
						</linearGradient>
						<path class="st70" d="M16.2,112.8c0.2,0.2,0.4,0.3,0.6,0.2c0.1,0,0.2,0,0.2-0.1c0.1,0,0.2-0.1,0.2-0.2v0.6
							c0,0.1-0.1,0.2-0.2,0.2c-0.1,0-0.2,0.1-0.2,0.1c-0.2,0.1-0.5,0-0.6-0.2c0,0,0-0.1,0-0.1V112.8
							C16.2,112.7,16.2,112.8,16.2,112.8z"/>
					</g>
				</g>
				<path class="st11" d="M16.6,112.4c0.2-0.1,0.5,0,0.6,0.2c0.1,0.1,0,0.2-0.1,0.3c-0.1,0-0.2,0.1-0.2,0.1c-0.2,0.1-0.5,0-0.6-0.2
					c-0.1-0.1,0-0.2,0.1-0.3C16.5,112.5,16.5,112.4,16.6,112.4z"/>
			</g>
			<g>
				<g>
					<g>
						
							<linearGradient id="SVGID_40_" gradientUnits="userSpaceOnUse" x1="186.03" y1="29.0461" x2="187.65" y2="29.0461" gradientTransform="matrix(-1 0 0 -1 203.6135 142)">
							<stop  offset="0" style="stop-color:#B4BCC0"/>
							<stop  offset="1" style="stop-color:#CBD2D5"/>
						</linearGradient>
						<path class="st71" d="M16,112.7c0.2,0.3,0.6,0.4,1,0.3c0.1,0,0.2-0.1,0.4-0.1c0.1-0.1,0.2-0.2,0.2-0.3v0.3
							c0,0.1-0.1,0.3-0.2,0.3c-0.1,0.1-0.2,0.1-0.4,0.1c-0.4,0.1-0.8,0-1-0.3c0,0,0-0.1,0-0.1v-0.3C16,112.6,16,112.6,16,112.7z"/>
					</g>
				</g>
				<path class="st11" d="M16.6,112.1c0.4-0.1,0.8,0,1,0.3c0.1,0.2,0,0.3-0.2,0.4c-0.1,0.1-0.2,0.1-0.4,0.1c-0.4,0.1-0.8,0-1-0.3
					c-0.1-0.2,0-0.3,0.2-0.4C16.3,112.1,16.4,112.1,16.6,112.1z"/>
			</g>
			<g>
				<polygon class="st2" points="85.6,49 85.6,49.5 87.7,48.3 87.7,47.8 				"/>
				<polygon class="st5" points="85.1,48.7 85.1,49.2 85.6,49.5 85.6,49 				"/>
				<polygon class="st4" points="87.2,47.5 85.1,48.7 85.6,49 87.7,47.8 				"/>
			</g>
			<g>
				
					<linearGradient id="SVGID_41_" gradientUnits="userSpaceOnUse" x1="116.47" y1="100.7619" x2="116.68" y2="100.7619" gradientTransform="matrix(-1 0 0 -1 203.6135 142)">
					<stop  offset="0" style="stop-color:#9AA0A4"/>
					<stop  offset="1" style="stop-color:#B9BFC2"/>
				</linearGradient>
				<path class="st72" d="M87,34.6v13.3l0,0c0,0,0.1,0,0.1,0l0,0V34.6l0,0C87.1,34.6,87,34.6,87,34.6C87,34.6,87,34.6,87,34.6z"/>
				<path class="st4" d="M87,34.5c0,0,0.1,0,0.1,0C87.1,34.5,87,34.5,87,34.5C86.9,34.5,87,34.5,87,34.5z"/>
			</g>
			<g>
				
					<linearGradient id="SVGID_42_" gradientUnits="userSpaceOnUse" x1="117.83" y1="99.9769" x2="118.04" y2="99.9769" gradientTransform="matrix(-1 0 0 -1 203.6135 142)">
					<stop  offset="0" style="stop-color:#9AA0A4"/>
					<stop  offset="1" style="stop-color:#B9BFC2"/>
				</linearGradient>
				<path class="st73" d="M85.6,35.3v13.3l0,0c0,0,0.1,0,0.1,0l0,0V35.4l0,0C85.7,35.4,85.7,35.4,85.6,35.3
					C85.6,35.4,85.6,35.4,85.6,35.3z"/>
				<path class="st4" d="M85.6,35.3c0,0,0.1,0,0.1,0C85.7,35.3,85.7,35.3,85.6,35.3C85.6,35.3,85.6,35.3,85.6,35.3z"/>
			</g>
			<g>
				<polygon class="st2" points="155.4,27.2 155.3,27.6 157.4,26.4 157.4,26 				"/>
				<polygon class="st5" points="154.8,26.9 154.8,27.3 155.3,27.6 155.4,27.2 				"/>
				<polygon class="st4" points="156.9,25.7 154.8,26.9 155.4,27.2 157.4,26 				"/>
			</g>
			<g>
				
					<linearGradient id="SVGID_43_" gradientUnits="userSpaceOnUse" x1="46.73" y1="122.6419" x2="46.93" y2="122.6419" gradientTransform="matrix(-1 0 0 -1 203.6135 142)">
					<stop  offset="0" style="stop-color:#9AA0A4"/>
					<stop  offset="1" style="stop-color:#B9BFC2"/>
				</linearGradient>
				<path class="st74" d="M156.7,12.7V26l0,0c0,0,0.1,0,0.1,0l0,0V12.7l0,0C156.8,12.8,156.8,12.8,156.7,12.7
					C156.7,12.7,156.7,12.7,156.7,12.7z"/>
				<path class="st4" d="M156.7,12.7c0,0,0.1,0,0.1,0C156.8,12.6,156.8,12.6,156.7,12.7C156.7,12.7,156.7,12.7,156.7,12.7z"/>
			</g>
			<g>
				
					<linearGradient id="SVGID_44_" gradientUnits="userSpaceOnUse" x1="48.08" y1="121.8419" x2="48.29" y2="121.8419" gradientTransform="matrix(-1 0 0 -1 203.6135 142)">
					<stop  offset="0" style="stop-color:#9AA0A4"/>
					<stop  offset="1" style="stop-color:#B9BFC2"/>
				</linearGradient>
				<path class="st75" d="M155.4,13.5v13.3l0,0c0,0,0.1,0,0.1,0l0,0V13.5l0,0C155.5,13.6,155.4,13.6,155.4,13.5
					C155.4,13.5,155.4,13.5,155.4,13.5z"/>
				<path class="st4" d="M155.4,13.4c0,0,0.1,0,0.1,0C155.5,13.4,155.4,13.4,155.4,13.4C155.3,13.5,155.4,13.4,155.4,13.4z"/>
			</g>
			<polygon class="st76" points="64.2,82.5 76.9,89.9 50.5,105.1 37.8,97.7 			"/>
			<polygon class="st20" points="64.2,82.5 37.8,97.7 38.7,98.3 64.2,83.6 			"/>
			<polygon class="st19" points="76,90.4 76.9,89.9 64.2,82.5 64.2,83.6 			"/>
			<g>
				<polygon class="st5" points="68.3,92.1 68.3,92.7 61.1,88.6 61.1,87.9 				"/>
				<polygon class="st2" points="72.1,89.8 72.1,90.5 68.3,92.7 68.3,92.1 				"/>
				<polygon class="st4" points="64.9,85.7 72.1,89.8 68.3,92.1 61.1,87.9 				"/>
			</g>
			<g>
				<polygon class="st5" points="59.7,97 59.7,97.7 52.5,93.5 52.5,92.8 				"/>
				<polygon class="st2" points="63.5,94.8 63.5,95.5 59.7,97.7 59.7,97 				"/>
				<polygon class="st4" points="56.3,90.6 63.5,94.8 59.7,97 52.5,92.8 				"/>
			</g>
			<g>
				<polygon class="st5" points="51.1,102 51.1,102.7 43.9,98.5 43.9,97.8 				"/>
				<polygon class="st2" points="54.9,99.8 54.9,100.5 51.1,102.7 51.1,102 				"/>
				<polygon class="st4" points="47.7,95.6 54.9,99.8 51.1,102 43.9,97.8 				"/>
			</g>
		</g>
	</g>
</g>
</svg>
