<svg xmlns="http://www.w3.org/2000/svg" xmlns:xlink="http://www.w3.org/1999/xlink" viewBox="0 0 200 141"><defs><style>.cls-1{fill:none;}.cls-2{isolation:isolate;}.cls-3{fill:#085e75;}.cls-3,.cls-35{opacity:0.4;mix-blend-mode:multiply;}.cls-4{fill:#8d9396;}.cls-35,.cls-5{fill:#9aa0a4;}.cls-44,.cls-6{fill:#30333a;}.cls-7{fill:#edeef0;}.cls-8{fill:#b9bfc2;}.cls-9{fill:#5f5f60;}.cls-10{fill:#c4cacd;}.cls-11{fill:#acb2b4;}.cls-12{fill:#868b8e;}.cls-13{fill:url(#linear-gradient);}.cls-14{fill:#e1e7e9;}.cls-15{fill:url(#linear-gradient-2);}.cls-16{fill:url(#linear-gradient-3);}.cls-17{fill:url(#linear-gradient-4);}.cls-18{fill:url(#linear-gradient-5);}.cls-19{fill:url(#linear-gradient-6);}.cls-20{fill:url(#linear-gradient-7);}.cls-21{fill:url(#linear-gradient-8);}.cls-22{fill:#2b2e33;}.cls-23{fill:#25272b;}.cls-24{fill:#84898c;}.cls-25{fill:url(#linear-gradient-9);}.cls-26{fill:#a52f2f;}.cls-27{fill:#d8d9da;}.cls-28{fill:url(#linear-gradient-10);}.cls-29{fill:url(#linear-gradient-11);}.cls-30{fill:url(#linear-gradient-12);}.cls-31{fill:#d9dbdd;}.cls-32{fill:url(#linear-gradient-13);}.cls-33{fill:#dedddd;}.cls-33,.cls-44{opacity:0.5;mix-blend-mode:screen;}.cls-34{fill:#cbced0;}.cls-36{fill:url(#linear-gradient-14);}.cls-37{fill:url(#linear-gradient-15);}.cls-38{fill:url(#linear-gradient-16);}.cls-39{fill:url(#linear-gradient-17);}.cls-40{fill:url(#linear-gradient-18);}.cls-41{fill:#c2c9cc;}.cls-42{fill:#202226;}.cls-43{fill:#515661;}.cls-45{fill:url(#linear-gradient-19);}.cls-46{fill:#e0e0e0;}.cls-47{fill:#d3d3d3;}.cls-48{fill:#fffffd;}.cls-49{clip-path:url(#clip-path);}.cls-50{fill:url(#linear-gradient-20);}.cls-51{fill:url(#linear-gradient-21);}.cls-52{fill:url(#linear-gradient-22);}.cls-53{fill:#c4c4c4;}.cls-54{fill:url(#radial-gradient);}.cls-55{fill:#dcdcdc;}.cls-56{fill:url(#linear-gradient-23);}.cls-57{fill:url(#radial-gradient-2);}.cls-58{fill:url(#linear-gradient-24);}.cls-59{fill:#898e92;}.cls-60{fill:url(#radial-gradient-3);}.cls-61{fill:url(#linear-gradient-25);}.cls-62{fill:url(#radial-gradient-4);}.cls-63{fill:#cccfd1;}.cls-64{fill:#b0b5b8;}.cls-65{fill:#272727;}.cls-66{fill:url(#linear-gradient-26);}.cls-67{fill:url(#linear-gradient-27);}.cls-68{fill:url(#linear-gradient-28);}.cls-69{fill:url(#linear-gradient-29);}.cls-70{fill:url(#linear-gradient-30);}.cls-71{fill:url(#linear-gradient-31);}.cls-72{fill:url(#linear-gradient-32);}.cls-73{fill:url(#linear-gradient-33);}.cls-74{fill:url(#linear-gradient-34);}.cls-75{fill:url(#linear-gradient-35);}.cls-76{fill:url(#linear-gradient-36);}.cls-77{fill:url(#linear-gradient-37);}.cls-78{fill:url(#linear-gradient-38);}.cls-79{fill:#2d3037;}</style><linearGradient id="linear-gradient" x1="13.42" y1="23.48" x2="14.49" y2="23.48" gradientUnits="userSpaceOnUse"><stop offset="0" stop-color="#9aa0a4"/><stop offset="1" stop-color="#b9bfc2"/></linearGradient><linearGradient id="linear-gradient-2" x1="13.15" y1="22.99" x2="14.76" y2="22.99" xlink:href="#linear-gradient"/><linearGradient id="linear-gradient-3" x1="13.42" y1="22.41" x2="14.49" y2="22.41" xlink:href="#linear-gradient"/><linearGradient id="linear-gradient-4" x1="13.15" y1="22.2" x2="14.76" y2="22.2" xlink:href="#linear-gradient"/><linearGradient id="linear-gradient-5" x1="23.35" y1="17.75" x2="24.43" y2="17.75" xlink:href="#linear-gradient"/><linearGradient id="linear-gradient-6" x1="23.08" y1="17.26" x2="24.7" y2="17.26" xlink:href="#linear-gradient"/><linearGradient id="linear-gradient-7" x1="23.35" y1="16.68" x2="24.43" y2="16.68" xlink:href="#linear-gradient"/><linearGradient id="linear-gradient-8" x1="23.08" y1="16.46" x2="24.7" y2="16.46" xlink:href="#linear-gradient"/><linearGradient id="linear-gradient-9" x1="108.83" y1="45.38" x2="108.36" y2="46.2" gradientUnits="userSpaceOnUse"><stop offset="0" stop-color="#edeef0"/><stop offset="0.19" stop-color="#d9dbdd"/><stop offset="0.24" stop-color="#dfe1e3"/><stop offset="0.37" stop-color="#eaebed"/><stop offset="0.52" stop-color="#edeef0"/><stop offset="0.62" stop-color="#d8dadd"/><stop offset="0.75" stop-color="#c2c6c8"/><stop offset="0.88" stop-color="#b5b9bc"/><stop offset="1" stop-color="#b0b5b8"/></linearGradient><linearGradient id="linear-gradient-10" x1="108.83" y1="43.65" x2="108.36" y2="44.47" xlink:href="#linear-gradient-9"/><linearGradient id="linear-gradient-11" x1="104.49" y1="47.89" x2="104.02" y2="48.71" xlink:href="#linear-gradient-9"/><linearGradient id="linear-gradient-12" x1="104.49" y1="46.16" x2="104.02" y2="46.98" xlink:href="#linear-gradient-9"/><linearGradient id="linear-gradient-13" x1="173.25" y1="102.96" x2="176.7" y2="108.93" gradientUnits="userSpaceOnUse"><stop offset="0" stop-color="#c0c4c6"/><stop offset="0.4" stop-color="#d9dbdd"/><stop offset="0.46" stop-color="#d4d6d8"/><stop offset="0.8" stop-color="#babec1"/><stop offset="1" stop-color="#b0b5b8"/></linearGradient><linearGradient id="linear-gradient-14" x1="62.7" y1="10.18" x2="62.91" y2="10.18" xlink:href="#linear-gradient"/><linearGradient id="linear-gradient-15" x1="64.06" y1="10.96" x2="64.26" y2="10.96" xlink:href="#linear-gradient"/><linearGradient id="linear-gradient-16" x1="55.15" y1="15.72" x2="58.58" y2="15.72" xlink:href="#linear-gradient"/><linearGradient id="linear-gradient-17" x1="57.57" y1="11.06" x2="64.22" y2="11.06" gradientUnits="userSpaceOnUse"><stop offset="0" stop-color="#a3aaae"/><stop offset="1" stop-color="#c3cacd"/></linearGradient><linearGradient id="linear-gradient-18" x1="56.13" y1="13.35" x2="57.91" y2="13.35" xlink:href="#linear-gradient-17"/><linearGradient id="linear-gradient-19" x1="56.41" y1="14.81" x2="59.77" y2="12.81" gradientUnits="userSpaceOnUse"><stop offset="0" stop-color="#a3aaae"/><stop offset="0.42" stop-color="#c3cacd"/><stop offset="0.65" stop-color="#cfd4d6"/><stop offset="1" stop-color="#dcdfe1"/></linearGradient><clipPath id="clip-path"><polygon class="cls-1" points="58.7 52.79 58.7 56.56 76.44 67.23 76.44 63.45 58.7 52.79"/></clipPath><linearGradient id="linear-gradient-20" x1="98.65" y1="51.55" x2="98.86" y2="51.55" xlink:href="#linear-gradient"/><linearGradient id="linear-gradient-21" x1="100.01" y1="52.33" x2="100.22" y2="52.33" xlink:href="#linear-gradient"/><linearGradient id="linear-gradient-22" x1="71.24" y1="22.61" x2="67.29" y2="22.61" gradientUnits="userSpaceOnUse"><stop offset="0" stop-color="#e0e0e0"/><stop offset="1" stop-color="#d3d3d3"/></linearGradient><radialGradient id="radial-gradient" cx="69.31" cy="18.72" r="3.81" gradientUnits="userSpaceOnUse"><stop offset="0" stop-color="#fffffd"/><stop offset="0.29" stop-color="#f2f2f1"/><stop offset="0.58" stop-color="#e0e0e0"/><stop offset="1" stop-color="#d3d3d3"/></radialGradient><linearGradient id="linear-gradient-23" x1="58.82" y1="29.78" x2="54.88" y2="29.78" xlink:href="#linear-gradient-22"/><radialGradient id="radial-gradient-2" cx="56.89" cy="25.88" r="3.81" xlink:href="#radial-gradient"/><linearGradient id="linear-gradient-24" x1="131" y1="67.96" x2="134.38" y2="67.96" xlink:href="#linear-gradient"/><radialGradient id="radial-gradient-3" cx="133.03" cy="65.28" r="2.99" gradientUnits="userSpaceOnUse"><stop offset="0" stop-color="#edeef0"/><stop offset="0.18" stop-color="#e0e2e4"/><stop offset="0.53" stop-color="#bcc2c5"/><stop offset="0.56" stop-color="#b9bfc2"/><stop offset="1" stop-color="#9aa0a4"/></radialGradient><linearGradient id="linear-gradient-25" x1="110.33" y1="79.9" x2="113.71" y2="79.9" xlink:href="#linear-gradient"/><radialGradient id="radial-gradient-4" cx="112.37" cy="77.21" r="2.99" xlink:href="#radial-gradient-3"/><linearGradient id="linear-gradient-26" x1="34.22" y1="21.4" x2="38.33" y2="28.53" xlink:href="#linear-gradient-13"/><linearGradient id="linear-gradient-27" x1="181.84" y1="116.81" x2="182.91" y2="116.81" xlink:href="#linear-gradient"/><linearGradient id="linear-gradient-28" x1="181.56" y1="116.32" x2="183.18" y2="116.32" gradientUnits="userSpaceOnUse"><stop offset="0" stop-color="#b4bcc0"/><stop offset="1" stop-color="#cbd2d5"/></linearGradient><linearGradient id="linear-gradient-29" x1="181.84" y1="115.74" x2="182.91" y2="115.74" xlink:href="#linear-gradient"/><linearGradient id="linear-gradient-30" x1="181.56" y1="115.52" x2="183.18" y2="115.52" xlink:href="#linear-gradient-28"/><linearGradient id="linear-gradient-31" x1="186.31" y1="114.23" x2="187.38" y2="114.23" xlink:href="#linear-gradient"/><linearGradient id="linear-gradient-32" x1="186.03" y1="113.74" x2="187.65" y2="113.74" xlink:href="#linear-gradient-28"/><linearGradient id="linear-gradient-33" x1="186.31" y1="113.16" x2="187.38" y2="113.16" xlink:href="#linear-gradient"/><linearGradient id="linear-gradient-34" x1="186.03" y1="112.94" x2="187.65" y2="112.94" xlink:href="#linear-gradient-28"/><linearGradient id="linear-gradient-35" x1="116.47" y1="41.26" x2="116.68" y2="41.26" xlink:href="#linear-gradient"/><linearGradient id="linear-gradient-36" x1="117.83" y1="42.04" x2="118.04" y2="42.04" xlink:href="#linear-gradient"/><linearGradient id="linear-gradient-37" x1="46.73" y1="19.4" x2="46.93" y2="19.4" xlink:href="#linear-gradient"/><linearGradient id="linear-gradient-38" x1="48.08" y1="20.18" x2="48.29" y2="20.18" xlink:href="#linear-gradient"/></defs><title>ship</title><g class="cls-2"><g id="Camada_1" data-name="Camada 1"><path class="cls-3" d="M107.91,76.15c-10.47-6-69.78-37-79.9-40.92a8.14,8.14,0,0,0-6.46.7L10.91,42.1C9,43.2,8.49,44.79,9.72,45.85,16.48,51.7,70.16,86,80.63,92c87.47,50.5,107.55,47.07,108.6,46.89C189.24,138.24,195.38,126.65,107.91,76.15Z"/><g id="_3" data-name="3"><g class="cls-2"><path class="cls-4" d="M82.81,73.7C72.06,67.49,14.06,29.4,10,25.36c0,1.95,3.26,5.32,5.29,7.75,2.19,2.62,4.09,4.75,5.11,7.11,2.53,4.29,4.39,11.65,4.39,11.65.14.18,50.21,30.46,60.84,36.6,67.68,38.48,96.29,43.25,96.29,43.25l4.76-5.12,5.21-5.23S172.68,125.58,82.81,73.7Z"/><path class="cls-5" d="M139.63,109.57c24.7,10.72,39.22,15.39,47.07,17l7.67-4.67S172.68,125.58,82.81,73.7C72.06,67.49,14.06,29.4,10,25.36c0,1.95,3.1,5.6,5.06,8.09,2.5,3.18,4.68,6.47,6.54,9.12C26.67,45.73,44.11,56.4,57.2,65A553.36,553.36,0,0,0,139.63,109.57Z"/><path class="cls-6" d="M110.83,57.42c-10.75-6.21-71.69-38-82.08-42a8.36,8.36,0,0,0-6.64.72L11.18,22.44C9.24,23.57,8.7,25.2,10,26.29c6.94,6,62.09,41.2,72.85,47.4,89.86,51.88,110.48,48.36,111.57,48.17C194.38,121.21,200.69,109.3,110.83,57.42Z"/></g><path class="cls-5" d="M48.73,51c-17.27-11.09-35-22.82-38.78-26.06a2,2,0,0,1-.27-.34,3.38,3.38,0,0,1,1.73-2L22.34,16.3a8,8,0,0,1,6.22-.71c4.7,1.82,20.54,9.74,37.21,18.31L66.7,33C49.69,24.21,33.35,16,28.56,14.18a8,8,0,0,0-6.22.71L11.41,21.23a3,3,0,0,0-1.8,2.34v.94a1.66,1.66,0,0,1-.33-.93V25a1.77,1.77,0,0,0,.67,1.36c3.68,3.18,20.93,14.58,37.92,25.51Z"/><path class="cls-7" d="M48.91,50.82c-17.3-11.12-35-22.85-38.67-26-1.16-1-.68-2.51,1.18-3.59l10.93-6.35a8,8,0,0,1,6.22-.71C33.35,16,49.69,24.21,66.7,33l.17-.18C50,24.08,33.66,15.92,28.74,14a8.42,8.42,0,0,0-6.64.72L11.17,21.09c-1.94,1.13-2.47,2.77-1.22,3.85,3.75,3.24,21.51,15,38.78,26.06Z"/><g class="cls-2"><polygon class="cls-8" points="111.56 82.88 138.38 67.23 140.29 75.05 113.47 90.7 111.56 82.88"/><polygon class="cls-7" points="40.86 40.54 65.21 26.32 138.38 67.23 111.56 82.88 40.86 40.54"/><polygon class="cls-6" points="41.61 40.55 65.22 26.76 137.6 67.24 111.56 82.44 41.61 40.55"/></g><g class="cls-2"><polygon class="cls-8" points="55.94 34.08 75.88 22.58 81.8 35.6 56.86 50.16 55.94 45.56 55.94 34.08"/><polygon class="cls-7" points="43.17 26.74 63.19 15.19 75.88 22.58 55.94 34.08 43.17 26.74"/><polygon class="cls-6" points="43.92 26.74 63.19 15.63 75.11 22.59 55.94 33.64 43.92 26.74"/><path class="cls-5" d="M111.56,82.88,56.85,50.12l-.91-16L43.17,26.74,35.24,44C58.16,60.59,88,78.27,113.48,90.74Z"/></g><path class="cls-5" d="M194.37,120.52l-.28,0V120c0-2.4-3.3-14.07-54.58-46.35l.41,1.68c46.62,29.4,53.29,41.61,54.07,45.28-2.78.31-20.66.62-80.93-31.41l.4,1.62c64,33.94,80,31.32,80.91,31.16a2,2,0,0,0,.19-.93v-1.42A2,2,0,0,1,194.37,120.52Z"/><path class="cls-7" d="M139.91,73.52l-.27.16c54.87,34.56,54.68,45.45,54.42,46.66-2.11.16-20.91.3-80.7-31.33l-.27.16c64.35,34.2,80.33,31.51,81.28,31.35C194.64,120,199.22,110.71,139.91,73.52Z"/><path class="cls-9" d="M108.82,49.67s-.13,0-.13,0h0V51c0,.06.15.06.15,0V49.7A.06.06,0,0,0,108.82,49.67Z"/><path class="cls-9" d="M105.84,48s-.13,0-.13,0h0v1.29c0,.06.15.06.15,0V48A.06.06,0,0,0,105.84,48Z"/><path class="cls-9" d="M102.87,46.32s-.13,0-.13,0h0v1.29c0,.06.15.06.15,0V46.35A.06.06,0,0,0,102.87,46.32Z"/><path class="cls-9" d="M99.9,44.65s-.13,0-.13,0h0V46c0,.06.15.06.15,0V44.68A.06.06,0,0,0,99.9,44.65Z"/><path class="cls-9" d="M96.92,43s-.13,0-.13,0h0V44.3c0,.06.15.06.15,0V43A.06.06,0,0,0,96.92,43Z"/><path class="cls-9" d="M93.95,41.31s-.13,0-.13,0h0v1.29c0,.06.15.06.15,0V41.34A.06.06,0,0,0,93.95,41.31Z"/><path class="cls-9" d="M91,39.64s-.13,0-.13,0h0V41c0,.06.15.06.15,0V39.67A.06.06,0,0,0,91,39.64Z"/><path class="cls-9" d="M88,38s-.13,0-.13,0h0v1.29c0,.06.15.06.15,0V38S88,38,88,38Z"/><path class="cls-9" d="M85,36.3s-.13,0-.13,0h0v1.29c0,.06.15.06.15,0V36.33A.06.06,0,0,0,85,36.3Z"/><path class="cls-9" d="M82.05,34.63s-.13,0-.13,0h0V36c0,.06.15.06.15,0V34.66A.06.06,0,0,0,82.05,34.63Z"/><path class="cls-9" d="M111.55,51.48l-.07,0-29.9-16.8a.14.14,0,0,1-.05-.2.15.15,0,0,1,.2-.05l29.9,16.8a.14.14,0,0,1-.07.27Z"/><path class="cls-9" d="M84.19,64.88s-.13,0-.13,0h0v1.29c0,.06.15.06.15,0V64.91A.06.06,0,0,0,84.19,64.88Z"/><path class="cls-9" d="M81.22,63.1s-.13,0-.13,0h0v1.29c0,.06.15.06.15,0V63.13A.07.07,0,0,0,81.22,63.1Z"/><path class="cls-9" d="M78.24,61.32s-.13,0-.13,0h0v1.29c0,.06.15.06.15,0V61.35A.07.07,0,0,0,78.24,61.32Z"/><path class="cls-9" d="M75.27,59.54s-.13,0-.13,0h0v1.29c0,.06.15.06.15,0V59.57A.06.06,0,0,0,75.27,59.54Z"/><path class="cls-9" d="M72.29,57.76s-.13,0-.13,0h0v1.29c0,.06.15.06.15,0V57.79A.06.06,0,0,0,72.29,57.76Z"/><path class="cls-9" d="M69.32,56s-.13,0-.13,0h0v1.29c0,.06.15.06.15,0V56A.06.06,0,0,0,69.32,56Z"/><path class="cls-9" d="M66.35,54.2s-.13,0-.13,0h0v1.29c0,.06.15.06.15,0V54.23A.06.06,0,0,0,66.35,54.2Z"/><path class="cls-9" d="M63.37,52.41s-.13,0-.13,0h0v1.29c0,.06.15.06.15,0V52.45A.06.06,0,0,0,63.37,52.41Z"/><path class="cls-9" d="M60.4,50.63s-.13,0-.13,0h0V52c0,.06.15.06.15,0V50.67A.06.06,0,0,0,60.4,50.63Z"/><path class="cls-9" d="M57.43,48.86s-.13,0-.13,0h0v1.29c0,.06.15.06.15,0V48.89A.06.06,0,0,0,57.43,48.86Z"/><path class="cls-9" d="M86.92,66.79l-.07,0-29.9-17.9a.14.14,0,0,1,.15-.25L87,66.52a.14.14,0,0,1-.07.27Z"/><g class="cls-2"><polygon class="cls-10" points="120.4 48.55 124.9 59.71 122.79 64.47 118.76 52.22 120.4 48.55"/><polygon class="cls-8" points="118.76 52.22 122.79 64.47 106.7 73.81 105.95 59.74 118.76 52.22"/><polygon class="cls-11" points="105.95 59.74 106.7 73.81 98.5 75.05 99.3 60.8 105.95 59.74"/><polygon class="cls-5" points="99.3 60.8 98.5 75.05 79.63 63.8 84.2 51.82 99.3 60.8"/><polygon class="cls-7" points="105.32 39.55 84.2 51.82 99.29 60.82 105.85 59.83 118.71 52.35 120.4 48.55 105.32 39.55"/><polygon class="cls-6" points="84.82 51.74 105.24 39.94 119.92 48.7 118.42 52.08 105.66 59.49 99.36 60.42 84.82 51.74"/></g><polygon class="cls-6" points="58.7 52.79 58.7 56.56 76.44 67.23 76.44 63.45 58.7 52.79"/><path class="cls-6" d="M109.33,83.35l.44,2.46-6-3.56V80ZM97,76v2.21l5.51,3.31V79.29Z"/><polygon class="cls-12" points="58.7 52.79 58.7 56.56 58.72 56.57 61.92 54.73 58.7 52.79"/><g class="cls-2"><g class="cls-2"><g class="cls-2"><path class="cls-13" d="M14.49,22.9v.86a.19.19,0,0,1,0,.08.64.64,0,0,1-.65.22.69.69,0,0,1-.24-.08.27.27,0,0,1-.16-.22V22.9a.27.27,0,0,0,.16.22.69.69,0,0,0,.24.08.64.64,0,0,0,.65-.22.19.19,0,0,0,0-.08Z"/></g></g><path class="cls-14" d="M14.33,22.68c.13.08.19.19.14.3a.64.64,0,0,1-.65.22.69.69,0,0,1-.24-.08c-.13-.08-.19-.19-.14-.3a.63.63,0,0,1,.65-.22A.69.69,0,0,1,14.33,22.68Z"/></g><g class="cls-2"><g class="cls-2"><g class="cls-2"><path class="cls-15" d="M14.76,22.6v.33a.29.29,0,0,1,0,.12,1,1,0,0,1-1,.33,1,1,0,0,1-.36-.12.41.41,0,0,1-.24-.33v-.33a.41.41,0,0,0,.24.33,1,1,0,0,0,.36.12,1,1,0,0,0,1-.33.29.29,0,0,0,0-.12Z"/></g></g><path class="cls-14" d="M14.52,22.26c.2.11.29.29.21.45a1,1,0,0,1-1,.33,1,1,0,0,1-.36-.12c-.2-.11-.29-.29-.21-.45a1,1,0,0,1,1-.33A1.06,1.06,0,0,1,14.52,22.26Z"/></g><g class="cls-2"><g class="cls-2"><g class="cls-2"><path class="cls-16" d="M14.49,22v.57a.19.19,0,0,1,0,.08.64.64,0,0,1-.65.22.69.69,0,0,1-.24-.08.27.27,0,0,1-.16-.22V22a.27.27,0,0,0,.16.22.69.69,0,0,0,.24.08.64.64,0,0,0,.65-.22.19.19,0,0,0,0-.08Z"/></g></g><path class="cls-14" d="M14.33,21.76c.13.08.19.19.14.3a.64.64,0,0,1-.65.22.69.69,0,0,1-.24-.08c-.13-.08-.19-.19-.14-.3a.63.63,0,0,1,.65-.22A.69.69,0,0,1,14.33,21.76Z"/></g><g class="cls-2"><g class="cls-2"><g class="cls-2"><path class="cls-17" d="M14.76,21.8v.33a.29.29,0,0,1,0,.12,1,1,0,0,1-1,.33,1,1,0,0,1-.36-.12.41.41,0,0,1-.24-.33V21.8a.41.41,0,0,0,.24.33,1,1,0,0,0,.36.12,1,1,0,0,0,1-.33.29.29,0,0,0,0-.12Z"/></g></g><path class="cls-14" d="M14.52,21.47c.2.11.29.29.21.45a1,1,0,0,1-1,.33,1,1,0,0,1-.36-.12c-.2-.11-.29-.29-.21-.45a1,1,0,0,1,1-.33A1.06,1.06,0,0,1,14.52,21.47Z"/></g><g class="cls-2"><g class="cls-2"><g class="cls-2"><path class="cls-18" d="M24.43,17.17V18a.19.19,0,0,1,0,.08.64.64,0,0,1-.65.22.69.69,0,0,1-.24-.08.27.27,0,0,1-.16-.22v-.86a.27.27,0,0,0,.16.22.7.7,0,0,0,.24.08.64.64,0,0,0,.65-.22.19.19,0,0,0,0-.08Z"/></g></g><path class="cls-14" d="M24.27,16.95c.13.08.19.19.14.3a.64.64,0,0,1-.65.22.7.7,0,0,1-.24-.08c-.13-.08-.19-.19-.14-.3a.63.63,0,0,1,.65-.22A.69.69,0,0,1,24.27,16.95Z"/></g><g class="cls-2"><g class="cls-2"><g class="cls-2"><path class="cls-19" d="M24.7,16.86v.33a.29.29,0,0,1,0,.12,1,1,0,0,1-1,.33,1,1,0,0,1-.36-.12.41.41,0,0,1-.24-.33v-.33a.41.41,0,0,0,.24.33,1,1,0,0,0,.36.12,1,1,0,0,0,1-.33.29.29,0,0,0,0-.12Z"/></g></g><path class="cls-14" d="M24.46,16.53c.2.11.29.29.21.45a1,1,0,0,1-1,.33,1,1,0,0,1-.36-.12c-.2-.11-.29-.29-.21-.45a1,1,0,0,1,1-.33A1.06,1.06,0,0,1,24.46,16.53Z"/></g><g class="cls-2"><g class="cls-2"><g class="cls-2"><path class="cls-20" d="M24.43,16.24v.57a.19.19,0,0,1,0,.08.64.64,0,0,1-.65.22.69.69,0,0,1-.24-.08.27.27,0,0,1-.16-.22v-.57a.27.27,0,0,0,.16.22.7.7,0,0,0,.24.08.64.64,0,0,0,.65-.22.19.19,0,0,0,0-.08Z"/></g></g><path class="cls-14" d="M24.27,16c.13.08.19.19.14.3a.64.64,0,0,1-.65.22.7.7,0,0,1-.24-.08c-.13-.08-.19-.19-.14-.3a.63.63,0,0,1,.65-.22A.7.7,0,0,1,24.27,16Z"/></g><g class="cls-2"><g class="cls-2"><g class="cls-2"><path class="cls-21" d="M24.7,16.07v.33a.29.29,0,0,1,0,.12,1,1,0,0,1-1,.33,1,1,0,0,1-.36-.12.41.41,0,0,1-.24-.33v-.33a.41.41,0,0,0,.24.33,1,1,0,0,0,.36.12,1,1,0,0,0,1-.33.29.29,0,0,0,0-.12Z"/></g></g><path class="cls-14" d="M24.46,15.73c.2.11.29.29.21.45a1,1,0,0,1-1,.33,1,1,0,0,1-.36-.12c-.2-.11-.29-.29-.21-.45a1,1,0,0,1,1-.33A1.06,1.06,0,0,1,24.46,15.73Z"/></g><g class="cls-2"><polygon class="cls-8" points="21.17 19.29 21.17 19.71 17.7 21.73 17.7 21.3 21.17 19.29"/><polygon class="cls-5" points="17.7 21.3 17.7 21.73 17.17 21.43 17.17 21 17.7 21.3"/><polygon class="cls-7" points="21.17 19.29 17.7 21.3 17.17 21 20.64 18.98 21.17 19.29"/></g><path class="cls-9" d="M20.1,19.62a.14.14,0,0,1-.13-.08L13.7,6.89A.14.14,0,0,1,14,6.76l6.27,12.65a.14.14,0,0,1-.07.19Z"/><path class="cls-9" d="M18.06,20.8a.14.14,0,0,1-.13-.08L11.65,8.07a.14.14,0,0,1,.26-.13l6.27,12.65a.14.14,0,0,1-.07.19Z"/><path class="cls-9" d="M55.78,32.43s-.13,0-.13,0h0v1.29c0,.06.15.06.15,0V32.46A.06.06,0,0,0,55.78,32.43Z"/><path class="cls-9" d="M52.8,30.71s-.13,0-.13,0h0V32c0,.06.15.06.15,0V30.74A.06.06,0,0,0,52.8,30.71Z"/><path class="cls-9" d="M49.82,29s-.13,0-.13,0h0v1.29c0,.06.15.06.15,0V29A.06.06,0,0,0,49.82,29Z"/><path class="cls-9" d="M46.84,27.27s-.13,0-.13,0h0v1.29c0,.06.15.06.15,0V27.3A.06.06,0,0,0,46.84,27.27Z"/><path class="cls-9" d="M43.86,25.55s-.13,0-.13,0h0v1.29c0,.06.15.06.15,0V25.58A.06.06,0,0,0,43.86,25.55Z"/><path class="cls-9" d="M75.32,21.15s-.13,0-.13,0h0v1.29c0,.06.15.06.15,0V21.18A.06.06,0,0,0,75.32,21.15Z"/><path class="cls-9" d="M72.34,19.43s-.13,0-.13,0h0v1.29c0,.06.15.06.15,0V19.46A.06.06,0,0,0,72.34,19.43Z"/><path class="cls-9" d="M69.36,17.71s-.13,0-.13,0h0V19c0,.06.15.06.15,0V17.74A.06.06,0,0,0,69.36,17.71Z"/><path class="cls-9" d="M66.38,16s-.13,0-.13,0h0v1.29c0,.06.15.06.15,0V16A.06.06,0,0,0,66.38,16Z"/><path class="cls-9" d="M63.41,14.27s-.13,0-.13,0h0v1.29c0,.06.15.06.15,0V14.3A.06.06,0,0,0,63.41,14.27Z"/><path class="cls-9" d="M58.6,31s.13,0,.13,0h0v1.29c0,.06-.15.06-.15,0V31A.06.06,0,0,1,58.6,31Z"/><path class="cls-9" d="M61.58,29.3s.13,0,.13,0h0v1.29c0,.06-.15.06-.15,0V29.33A.06.06,0,0,1,61.58,29.3Z"/><path class="cls-9" d="M64.56,27.57s.13,0,.13,0h0v1.29c0,.06-.15.06-.15,0V27.61A.06.06,0,0,1,64.56,27.57Z"/><path class="cls-9" d="M67.54,25.85s.13,0,.13,0h0v1.29c0,.06-.15.06-.15,0V25.89A.06.06,0,0,1,67.54,25.85Z"/><path class="cls-9" d="M70.51,24.14s.13,0,.13,0h0v1.29c0,.06-.15.06-.15,0V24.17A.06.06,0,0,1,70.51,24.14Z"/><path class="cls-9" d="M73.49,22.42s.13,0,.13,0h0v1.29c0,.06-.15.06-.15,0V22.45A.06.06,0,0,1,73.49,22.42Z"/><path class="cls-9" d="M46.23,23.88s.13,0,.13,0h0V25.2c0,.06-.15.06-.15,0V23.91A.06.06,0,0,1,46.23,23.88Z"/><path class="cls-9" d="M49.21,22.16s.13,0,.13,0h0v1.29c0,.06-.15.06-.15,0V22.19A.06.06,0,0,1,49.21,22.16Z"/><path class="cls-9" d="M52.19,20.43s.13,0,.13,0h0v1.29c0,.06-.15.06-.15,0V20.47A.06.06,0,0,1,52.19,20.43Z"/><path class="cls-9" d="M55.17,18.71s.13,0,.13,0h0V20c0,.06-.15.06-.15,0V18.75A.06.06,0,0,1,55.17,18.71Z"/><path class="cls-9" d="M58.15,17s.13,0,.13,0h0v1.29c0,.06-.15.06-.15,0V17A.06.06,0,0,1,58.15,17Z"/><path class="cls-9" d="M61.12,15.28s.13,0,.13,0h0V16.6c0,.06-.15.06-.15,0V15.31A.06.06,0,0,1,61.12,15.28Z"/><path class="cls-9" d="M55.94,32.8l-.07,0L43.49,25.66a.14.14,0,0,1-.07-.12.15.15,0,0,1,.07-.12L63.12,14.09a.14.14,0,0,1,.14,0l12.31,7.17a.14.14,0,0,1,.07.12.15.15,0,0,1-.07.12L56,32.78ZM43.85,25.54l12.09,7L75.21,21.38l-12-7Z"/><path class="cls-9" d="M96.51,57.54s-.13,0-.13,0h0v1.29c0,.06.15.06.15,0V57.57A.06.06,0,0,0,96.51,57.54Z"/><path class="cls-9" d="M93.55,55.8s-.13,0-.13,0h0v1.29c0,.06.15.06.15,0V55.83A.06.06,0,0,0,93.55,55.8Z"/><path class="cls-9" d="M90.59,54.06s-.13,0-.13,0h0v1.29c0,.06.15.06.15,0V54.09A.06.06,0,0,0,90.59,54.06Z"/><path class="cls-9" d="M87.62,52.32s-.13,0-.13,0h0v1.29c0,.06.15.06.15,0V52.35A.06.06,0,0,0,87.62,52.32Z"/><path class="cls-9" d="M84.66,50.58s-.13,0-.13,0h0V51.9c0,.06.15.06.15,0V50.61A.07.07,0,0,0,84.66,50.58Z"/><path class="cls-9" d="M99.45,59.27s-.13,0-.13,0h0v1.29c0,.06.15.06.15,0V59.3A.06.06,0,0,0,99.45,59.27Z"/><path class="cls-9" d="M117.31,45.59s-.13,0-.13,0h0v1.29c0,.06.15.06.15,0V45.62A.06.06,0,0,0,117.31,45.59Z"/><path class="cls-9" d="M114.36,43.83s-.13,0-.13,0h0v1.29c0,.06.15.06.15,0V43.86A.06.06,0,0,0,114.36,43.83Z"/><path class="cls-9" d="M111.41,42.07s-.13,0-.13,0h0v1.29c0,.06.15.06.15,0V42.1A.07.07,0,0,0,111.41,42.07Z"/><path class="cls-9" d="M108.46,40.3s-.13,0-.13,0h0v1.29c0,.06.15.06.15,0V40.33A.06.06,0,0,0,108.46,40.3Z"/><path class="cls-9" d="M105.51,38.54s-.13,0-.13,0h0v1.29c0,.06.15.06.15,0V38.57A.06.06,0,0,0,105.51,38.54Z"/><path class="cls-9" d="M120.24,47.34s-.13,0-.13,0h0v1.29c0,.06.15.06.15,0V47.37A.07.07,0,0,0,120.24,47.34Z"/><path class="cls-9" d="M87.7,48.52s.13,0,.13,0h0v1.29c0,.06-.15.06-.15,0V48.55A.06.06,0,0,1,87.7,48.52Z"/><path class="cls-9" d="M90.68,46.8s.13,0,.13,0h0v1.29c0,.06-.15.06-.15,0V46.83A.06.06,0,0,1,90.68,46.8Z"/><path class="cls-9" d="M93.66,45.08s.13,0,.13,0h0V46.4c0,.06-.15.06-.15,0V45.11A.06.06,0,0,1,93.66,45.08Z"/><path class="cls-9" d="M96.64,43.36s.13,0,.13,0h0v1.29c0,.06-.15.06-.15,0V43.39A.06.06,0,0,1,96.64,43.36Z"/><path class="cls-9" d="M99.61,41.64s.13,0,.13,0h0V43c0,.06-.15.06-.15,0V41.67A.06.06,0,0,1,99.61,41.64Z"/><path class="cls-9" d="M102.59,39.92s.13,0,.13,0h0v1.29c0,.06-.15.06-.15,0V40A.06.06,0,0,1,102.59,39.92Z"/><path class="cls-9" d="M103.3,58.69s.13,0,.13,0h0V60c0,.06-.15.06-.15,0V58.72A.06.06,0,0,1,103.3,58.69Z"/><path class="cls-9" d="M108.17,56.9s.13,0,.13,0h0v1.29c0,.06-.15.06-.15,0V56.93A.06.06,0,0,1,108.17,56.9Z"/><path class="cls-9" d="M111.15,55.18s.13,0,.13,0h0V56.5c0,.06-.15.06-.15,0V55.21A.07.07,0,0,1,111.15,55.18Z"/><path class="cls-9" d="M114.13,53.46s.13,0,.13,0h0v1.29c0,.06-.15.06-.15,0V53.49A.06.06,0,0,1,114.13,53.46Z"/><path class="cls-9" d="M117.11,51.74s.13,0,.13,0h0v1.29c0,.06-.15.06-.15,0V51.77A.06.06,0,0,1,117.11,51.74Z"/><path class="cls-9" d="M119.14,49.47s.13,0,.13,0h0v1.29c0,.06-.15.06-.15,0V49.5A.06.06,0,0,1,119.14,49.47Z"/><g class="cls-2"><polygon class="cls-22" points="97.4 49.35 97.4 49.91 91.55 53.31 91.56 52.74 97.4 49.35"/><polygon class="cls-23" points="91.56 52.74 91.55 53.31 88.47 51.52 88.47 50.96 91.56 52.74"/><polygon class="cls-6" points="97.4 49.35 91.56 52.74 88.47 50.96 94.31 47.56 97.4 49.35"/></g><g class="cls-2"><polygon class="cls-22" points="107.91 43.28 107.91 43.84 102.06 47.24 102.06 46.68 107.91 43.28"/><polygon class="cls-23" points="102.06 46.68 102.06 47.24 98.97 45.46 98.97 44.9 102.06 46.68"/><polygon class="cls-6" points="107.91 43.28 102.06 46.68 98.97 44.9 104.82 41.5 107.91 43.28"/></g><g class="cls-2"><path class="cls-24" d="M107.76,51.85a4.21,4.21,0,0,1-3.82,0,1.35,1.35,0,0,1-.8-1.11v.75a1.35,1.35,0,0,0,.8,1.11,4.21,4.21,0,0,0,3.82,0,1.34,1.34,0,0,0,.79-1.1v-.75A1.34,1.34,0,0,1,107.76,51.85Z"/><path class="cls-7" d="M107.75,49.64a4.21,4.21,0,0,0-3.82,0,1.17,1.17,0,0,0,0,2.21,4.21,4.21,0,0,0,3.82,0A1.17,1.17,0,0,0,107.75,49.64Z"/></g><g class="cls-2"><path class="cls-24" d="M107,45a2.5,2.5,0,0,1-2.27,0,.8.8,0,0,1-.47-.66v6.18a.8.8,0,0,0,.47.66,2.5,2.5,0,0,0,2.27,0,.8.8,0,0,0,.47-.65V44.37A.8.8,0,0,1,107,45Z"/><path class="cls-7" d="M107,43.71a2.5,2.5,0,0,0-2.27,0,.7.7,0,0,0,0,1.32A2.5,2.5,0,0,0,107,45,.7.7,0,0,0,107,43.71Z"/></g><g class="cls-2"><polygon class="cls-7" points="105.66 44.49 105.76 44.44 107.7 45.56 107.6 45.62 105.66 44.49"/><polygon class="cls-5" points="105.66 44.49 107.6 45.62 106.6 45.45 105.66 44.91 105.66 44.49"/></g><path class="cls-25" d="M112.08,47.26a2.14,2.14,0,0,0-.47.82l-6.25-3.61a.23.23,0,0,1-.1-.21.73.73,0,0,1,.33-.58.24.24,0,0,1,.24,0Z"/><path class="cls-26" d="M113.09,48.3c0,.32-.82.14-1.49-.23a.23.23,0,0,1-.1-.21.73.73,0,0,1,.33-.58.24.24,0,0,1,.24,0C112.63,47.59,113.09,48.05,113.09,48.3Z"/><g class="cls-2"><polygon class="cls-7" points="105.74 43.46 105.84 43.4 106.78 43.94 106.69 44 105.74 43.46"/><polygon class="cls-27" points="106.69 44 106.78 43.94 107.78 44.95 107.69 45 106.69 44"/><polygon class="cls-5" points="106.69 44 107.69 45 105.74 43.88 105.74 43.46 106.69 44"/></g><polygon class="cls-7" points="109.55 44.94 109.64 44.88 109.97 45.08 109.89 45.13 109.55 44.94"/><polygon class="cls-8" points="109.89 45.13 109.97 45.08 109.98 46.21 109.89 46.26 109.89 45.13"/><polygon class="cls-5" points="109.55 44.94 109.89 45.13 109.89 46.26 109.56 46.06 109.55 44.94"/><polygon class="cls-7" points="108.87 44.54 108.96 44.49 109.31 44.69 109.22 44.74 108.87 44.54"/><polygon class="cls-8" points="109.22 44.74 109.31 44.69 109.31 45.82 109.22 45.87 109.22 44.74"/><polygon class="cls-5" points="108.88 45.67 108.87 44.54 109.22 44.74 109.22 45.87 108.88 45.67"/><g class="cls-2"><polygon class="cls-7" points="105.66 42.76 105.76 42.7 107.7 43.83 107.6 43.88 105.66 42.76"/><polygon class="cls-5" points="105.66 42.76 107.6 43.88 106.6 43.72 105.66 43.18 105.66 42.76"/></g><path class="cls-28" d="M112.08,45.52a2.14,2.14,0,0,0-.47.82l-6.25-3.61a.23.23,0,0,1-.1-.21.73.73,0,0,1,.33-.58.24.24,0,0,1,.24,0Z"/><path class="cls-26" d="M113.09,46.57c0,.32-.82.14-1.49-.23a.23.23,0,0,1-.1-.21.73.73,0,0,1,.33-.58.24.24,0,0,1,.24,0C112.63,45.86,113.09,46.32,113.09,46.57Z"/><g class="cls-2"><polygon class="cls-7" points="105.74 41.73 105.84 41.67 106.78 42.21 106.69 42.27 105.74 41.73"/><polygon class="cls-27" points="106.69 42.27 106.78 42.21 107.78 43.22 107.69 43.27 106.69 42.27"/><polygon class="cls-5" points="106.69 42.27 107.69 43.27 105.74 42.15 105.74 41.73 106.69 42.27"/></g><polygon class="cls-7" points="109.55 43.2 109.64 43.15 109.97 43.35 109.89 43.4 109.55 43.2"/><polygon class="cls-8" points="109.89 43.4 109.97 43.35 109.98 44.48 109.89 44.53 109.89 43.4"/><polygon class="cls-5" points="109.55 43.2 109.89 43.4 109.89 44.53 109.56 44.33 109.55 43.2"/><polygon class="cls-7" points="108.87 42.81 108.96 42.76 109.31 42.96 109.22 43.01 108.87 42.81"/><polygon class="cls-8" points="109.22 43.01 109.31 42.96 109.31 44.09 109.22 44.14 109.22 43.01"/><polygon class="cls-5" points="108.88 43.94 108.87 42.81 109.22 43.01 109.22 44.14 108.88 43.94"/><g class="cls-2"><polygon class="cls-7" points="105.02 39.9 105.7 39.51 112.4 43.37 111.72 43.77 105.02 39.9"/><polygon class="cls-27" points="111.72 43.77 112.4 43.37 114.51 45.76 113.83 46.16 111.72 43.77"/><polygon class="cls-5" points="111.72 43.77 113.83 46.16 105.02 41.07 105.02 39.9 111.72 43.77"/></g><g class="cls-2"><polygon class="cls-8" points="106.67 44.5 109.39 42.92 109.38 46.65 106.66 48.22 106.67 44.5"/><polygon class="cls-7" points="102.55 42.12 105.26 40.54 109.39 42.92 106.67 44.5 102.55 42.12"/><polygon class="cls-5" points="106.67 44.5 106.66 48.22 102.53 45.84 102.55 42.12 106.67 44.5"/></g><g class="cls-2"><polygon class="cls-7" points="101.31 47 101.41 46.94 103.35 48.07 103.25 48.12 101.31 47"/><polygon class="cls-5" points="101.31 47 103.25 48.12 102.25 47.96 101.31 47.42 101.31 47"/></g><path class="cls-29" d="M107.73,49.76a2.14,2.14,0,0,0-.47.82L101,47a.23.23,0,0,1-.1-.21.73.73,0,0,1,.33-.58.24.24,0,0,1,.24,0Z"/><path class="cls-26" d="M108.75,50.81c0,.32-.82.14-1.49-.23a.23.23,0,0,1-.1-.21.73.73,0,0,1,.33-.58.24.24,0,0,1,.24,0C108.28,50.1,108.74,50.56,108.75,50.81Z"/><g class="cls-2"><polygon class="cls-7" points="101.4 45.97 101.5 45.91 102.44 46.45 102.34 46.51 101.4 45.97"/><polygon class="cls-27" points="102.34 46.51 102.44 46.45 103.44 47.45 103.34 47.51 102.34 46.51"/><polygon class="cls-5" points="102.34 46.51 103.34 47.51 101.4 46.39 101.4 45.97 102.34 46.51"/></g><polygon class="cls-7" points="105.2 47.44 105.29 47.39 105.63 47.59 105.54 47.64 105.2 47.44"/><polygon class="cls-8" points="105.54 47.64 105.63 47.59 105.63 48.72 105.55 48.77 105.54 47.64"/><polygon class="cls-5" points="105.2 47.44 105.54 47.64 105.55 48.77 105.21 48.57 105.2 47.44"/><polygon class="cls-7" points="104.53 47.05 104.61 47 104.96 47.2 104.87 47.25 104.53 47.05"/><polygon class="cls-8" points="104.87 47.25 104.96 47.2 104.96 48.33 104.88 48.38 104.87 47.25"/><polygon class="cls-5" points="104.53 48.18 104.53 47.05 104.87 47.25 104.88 48.38 104.53 48.18"/><g class="cls-2"><polygon class="cls-7" points="101.31 45.27 101.41 45.21 103.35 46.34 103.25 46.39 101.31 45.27"/><polygon class="cls-5" points="101.31 45.27 103.25 46.39 102.25 46.23 101.31 45.69 101.31 45.27"/></g><path class="cls-30" d="M107.73,48a2.14,2.14,0,0,0-.47.82L101,45.24a.23.23,0,0,1-.1-.21.73.73,0,0,1,.33-.58.24.24,0,0,1,.24,0Z"/><path class="cls-26" d="M108.75,49.08c0,.32-.82.14-1.49-.23a.23.23,0,0,1-.1-.21.73.73,0,0,1,.33-.58.24.24,0,0,1,.24,0C108.28,48.37,108.74,48.83,108.75,49.08Z"/><g class="cls-2"><polygon class="cls-7" points="101.4 44.23 101.5 44.18 102.44 44.72 102.34 44.78 101.4 44.23"/><polygon class="cls-27" points="102.34 44.78 102.44 44.72 103.44 45.72 103.34 45.78 102.34 44.78"/><polygon class="cls-5" points="102.34 44.78 103.34 45.78 101.4 44.66 101.4 44.23 102.34 44.78"/></g><polygon class="cls-7" points="105.2 45.71 105.29 45.66 105.63 45.86 105.54 45.91 105.2 45.71"/><polygon class="cls-8" points="105.54 45.91 105.63 45.86 105.63 46.98 105.55 47.04 105.54 45.91"/><polygon class="cls-5" points="105.2 45.71 105.54 45.91 105.55 47.04 105.21 46.84 105.2 45.71"/><polygon class="cls-7" points="104.53 45.32 104.61 45.27 104.96 45.47 104.87 45.52 104.53 45.32"/><polygon class="cls-8" points="104.87 45.52 104.96 45.47 104.96 46.6 104.88 46.65 104.87 45.52"/><polygon class="cls-5" points="104.53 46.45 104.53 45.32 104.87 45.52 104.88 46.65 104.53 46.45"/><g class="cls-2"><polygon class="cls-7" points="100.67 42.41 101.35 42.02 108.05 45.88 107.37 46.28 100.67 42.41"/><polygon class="cls-27" points="107.37 46.28 108.05 45.88 110.17 48.27 109.49 48.67 107.37 46.28"/><polygon class="cls-5" points="107.37 46.28 109.49 48.67 100.67 43.58 100.67 42.41 107.37 46.28"/></g><path class="cls-7" d="M175.29,106.67c2.76.43,4.39,2.06,3.65,3.65s-3.57,2.54-6.33,2.11-4.39-2.06-3.65-3.65S172.53,106.25,175.29,106.67Z"/><g class="cls-2"><path class="cls-24" d="M175.51,107.94a3.4,3.4,0,0,1-3.08,0,1.09,1.09,0,0,1-.64-.9v2.22a1.09,1.09,0,0,0,.64.9,3.4,3.4,0,0,0,3.08,0,1.08,1.08,0,0,0,.63-.89v-2.22A1.08,1.08,0,0,1,175.51,107.94Z"/><path class="cls-7" d="M175.5,106.15a3.4,3.4,0,0,0-3.08,0,.94.94,0,0,0,0,1.79,3.4,3.4,0,0,0,3.08,0A.94.94,0,0,0,175.5,106.15Z"/></g><g class="cls-2"><path class="cls-31" d="M175.4,102.73a1.53,1.53,0,0,0-1.37-.2,1.48,1.48,0,0,1,1.24.2,4.28,4.28,0,0,1,1.94,3.36v2.53a.2.2,0,0,0,.07-.18c0-.05,0-2.44,0-2.46h0A4.07,4.07,0,0,0,175.4,102.73Z"/><path class="cls-32" d="M176.87,104.64a4.69,4.69,0,0,0-.75-1.19,3.46,3.46,0,0,0-.85-.72,1.37,1.37,0,0,0-1.39-.14l-2.51,1.46a1.37,1.37,0,0,1,1.39.14,3.46,3.46,0,0,1,.85.72,4.69,4.69,0,0,1,.75,1.19,3.67,3.67,0,0,1,.34,1.46v2.53l2.51-1.46V106.1A3.66,3.66,0,0,0,176.87,104.64Z"/><path class="cls-33" d="M176.12,103.45l-2.51,1.46a4.69,4.69,0,0,1,.75,1.19l2.51-1.46A4.69,4.69,0,0,0,176.12,103.45Z"/><path class="cls-5" d="M172.75,104.2a1.37,1.37,0,0,0-1.39-.14c-.78.48-.64,1.24-.65,3.7v.12l3.77,2.18c-.08,0,.1.08.19,0v-2.53A4.28,4.28,0,0,0,172.75,104.2Z"/><path class="cls-24" d="M175.67,107v1.22l.75-.44v-1.23a3.67,3.67,0,0,0-.34-1.46,4.69,4.69,0,0,0-.75-1.19,3.54,3.54,0,0,0-.77-.66l-.76.44a3.53,3.53,0,0,1,.77.67,4.68,4.68,0,0,1,.75,1.18A3.67,3.67,0,0,1,175.67,107Z"/></g><g class="cls-2"><path class="cls-34" d="M178,106.19a.36.36,0,0,1,.13-.43l.1,0h-2.31l-.1,0a.36.36,0,0,0-.13.43.27.27,0,0,0,.24.2h2.31A.27.27,0,0,1,178,106.19Z"/><path class="cls-14" d="M178.11,105.76a.24.24,0,0,1,.34.17.37.37,0,0,1-.13.43.25.25,0,0,1-.34-.17A.36.36,0,0,1,178.11,105.76Z"/></g><g class="cls-2"><path class="cls-34" d="M182.39,106.14a.27.27,0,0,1,.1-.32l.08,0-4.32,0-.08,0a.27.27,0,0,0-.1.32.2.2,0,0,0,.18.15l4.32,0A.2.2,0,0,1,182.39,106.14Z"/><path class="cls-14" d="M182.75,105.94a.18.18,0,0,0-.26-.13.27.27,0,0,0-.1.32.18.18,0,0,0,.26.13A.27.27,0,0,0,182.75,105.94Z"/><path class="cls-24" d="M182.69,106a.12.12,0,0,0-.17-.08.18.18,0,0,0-.07.22.12.12,0,0,0,.17.08A.18.18,0,0,0,182.69,106Z"/></g><path class="cls-35" d="M174.2,109.52h0l-3.09-1.78a.07.07,0,0,1,0-.06v-2.06c0-.7.36-1.16.92-1.16a1.46,1.46,0,0,1,.72.22,3.46,3.46,0,0,1,1.57,2.72v2.06a.07.07,0,0,1,0,.06Zm-3-1.88,3,1.71v-2a3.32,3.32,0,0,0-1.51-2.61,1.36,1.36,0,0,0-.66-.2c-.49,0-.79.39-.79,1Z"/><g class="cls-2"><polygon class="cls-5" points="62.16 16.75 62.17 17.18 64.24 18.39 64.24 17.96 62.16 16.75"/><polygon class="cls-8" points="64.24 17.96 64.24 18.39 64.77 18.08 64.76 17.66 64.24 17.96"/><polygon class="cls-7" points="62.16 16.75 64.24 17.96 64.76 17.66 62.69 16.45 62.16 16.75"/></g><g class="cls-2"><path class="cls-36" d="M62.87,3.52a.16.16,0,0,1-.14,0,.05.05,0,0,1,0,0V16.82a.05.05,0,0,0,0,0,.16.16,0,0,0,.14,0,.05.05,0,0,0,0,0V3.48A.05.05,0,0,1,62.87,3.52Z"/><path class="cls-7" d="M62.87,3.44a.16.16,0,0,0-.14,0,0,0,0,0,0,0,.08.16.16,0,0,0,.14,0S62.91,3.46,62.87,3.44Z"/></g><g class="cls-2"><path class="cls-37" d="M64.23,4.3a.16.16,0,0,1-.14,0,.05.05,0,0,1,0,0V17.6a.05.05,0,0,0,0,0,.16.16,0,0,0,.14,0,.05.05,0,0,0,0,0V4.26A.05.05,0,0,1,64.23,4.3Z"/><path class="cls-7" d="M64.23,4.22a.16.16,0,0,0-.14,0,0,0,0,0,0,0,.08.16.16,0,0,0,.14,0S64.27,4.24,64.23,4.22Z"/></g><g class="cls-2"><polygon class="cls-5" points="56.69 24.19 54.82 23.1 55.15 15.62 57.02 16.71 56.69 24.19"/><polygon class="cls-38" points="57.02 16.71 55.15 15.62 56.71 14.72 58.58 15.81 57.02 16.71"/><polygon class="cls-8" points="58.58 15.81 58.95 22.89 56.69 24.19 57.02 16.71 58.58 15.81"/></g><polygon class="cls-39" points="57.75 11.17 64.22 10.71 63.2 10.96 57.57 11.41 57.75 11.17"/><polygon class="cls-7" points="57.75 11 64.22 10.55 63.2 10.79 57.57 11.24 57.75 11"/><g class="cls-2"><path class="cls-40" d="M57.25,11.29a1.37,1.37,0,0,1-.86-.13.55.55,0,0,1-.23-.23.32.32,0,0,1,0-.13v4.6a.32.32,0,0,0,0,.13.55.55,0,0,0,.23.23,1.37,1.37,0,0,0,.86.13c.4-.06.66-.27.66-.49V10.8C57.91,11,57.65,11.23,57.25,11.29Z"/><path class="cls-7" d="M57.65,10.43a.54.54,0,0,1,.23.23c.13.27-.15.56-.63.63a1.37,1.37,0,0,1-.86-.13.55.55,0,0,1-.23-.23c-.12-.27.15-.56.63-.63A1.37,1.37,0,0,1,57.65,10.43Z"/></g><polygon class="cls-41" points="56.53 11.71 55.5 14.72 55.77 14.92 56.75 11.84 56.75 11.58 56.53 11.71"/><path class="cls-7" d="M56.47,11.51l-1.32,3.85.69-1,.91-2.76A1.35,1.35,0,0,1,56.47,11.51Z"/><g class="cls-2"><path class="cls-6" d="M59,12.18a8,8,0,0,0-4.11,4v3.68c1-2.74,5-5.06,9.72-5.65V10.53A17.15,17.15,0,0,0,59,12.18Z"/><polygon class="cls-42" points="54.61 16.14 54.6 19.82 54.87 19.86 54.88 16.17 54.61 16.14"/><path class="cls-43" d="M64.55,10.37c-4.84.6-8.92,3-9.94,5.78l.28,0c1-2.74,5-5.06,9.72-5.65Z"/></g><path class="cls-44" d="M64.6,11.1V11l-.44.07V10.6h-.06v.52c-.41.07-.82.14-1.22.23v-.53h-.06v.53c-.41.1-.82.2-1.22.32v-.54l-.06,0v.54c-.42.13-.83.27-1.22.42v-.54l-.06,0v.54c-.42.17-.83.35-1.22.55v-.54l-.05,0h0v.54l0,0a13.1,13.1,0,0,0-1.19.69V12.9l-.06,0v.53a10.4,10.4,0,0,0-1.22.93v-.5l-.06,0v.5a7.28,7.28,0,0,0-1.22,1.4v-.37l-.06.09v.37q-.15.24-.27.48v.14c.08-.17.17-.34.27-.51v.53q-.15.24-.28.49v.14c.08-.17.17-.35.28-.52v.53q-.15.24-.28.49v.14c.08-.17.17-.35.28-.52v.53q-.15.25-.28.5v.14a5.88,5.88,0,0,1,.28-.53v.53q-.16.25-.28.5v.14a5.87,5.87,0,0,1,.28-.53v.63l.06-.1v-.62a7.08,7.08,0,0,1,1.22-1.44v.54l.06-.05V17a10.29,10.29,0,0,1,1.22-.94v.51l.06,0v-.51A13,13,0,0,1,59,15.35h0v.52l.06,0v-.51q.59-.3,1.22-.55v.52l.06,0v-.52c.4-.16.81-.29,1.22-.42v.52l.06,0v-.52c.4-.12.81-.22,1.22-.32v.52h.06V14c.4-.09.81-.17,1.22-.23v.53h.06v-.53l.43-.07v-.06l-.43.07V13.1L64.6,13V13l-.43.07v-.58l.43-.07v-.06l-.43.07v-.58l.43-.07v-.06l-.43.07v-.58ZM56.44,17a7.28,7.28,0,0,0-1.22,1.4v-.53a7.08,7.08,0,0,1,1.22-1.44Zm0-.64a7.29,7.29,0,0,0-1.22,1.4v-.53a7.09,7.09,0,0,1,1.22-1.44Zm0-.64a7.28,7.28,0,0,0-1.22,1.4V16.6a7.08,7.08,0,0,1,1.22-1.44Zm0-.64a7.28,7.28,0,0,0-1.22,1.4V16a7.08,7.08,0,0,1,1.22-1.44Zm1.28.94a10.4,10.4,0,0,0-1.22.93v-.57a10.29,10.29,0,0,1,1.22-.94Zm0-.64a10.42,10.42,0,0,0-1.22.93v-.57a10.31,10.31,0,0,1,1.22-.94Zm0-.64a10.4,10.4,0,0,0-1.22.93v-.57a10.29,10.29,0,0,1,1.22-.94Zm0-.64a10.4,10.4,0,0,0-1.22.93v-.57a10.29,10.29,0,0,1,1.22-.94ZM59,15.29l0,0a13.1,13.1,0,0,0-1.19.69v-.57A13,13,0,0,1,59,14.71h0Zm0-.64,0,0a13.1,13.1,0,0,0-1.19.69v-.57A13,13,0,0,1,59,14.07h0ZM59,14l0,0a13.1,13.1,0,0,0-1.19.69v-.57A13,13,0,0,1,59,13.43h0Zm0-.64,0,0a13.14,13.14,0,0,0-1.19.69V13.5A13,13,0,0,1,59,12.79h0Zm1.28,1.35c-.42.17-.83.35-1.22.55v-.58q.59-.3,1.22-.55Zm0-.64c-.42.17-.83.35-1.22.55V14q.59-.3,1.22-.55Zm0-.64c-.42.17-.83.35-1.22.55V13.4q.59-.3,1.22-.55Zm0-.64c-.42.17-.83.35-1.22.55v-.58q.59-.3,1.22-.55Zm1.28,1.48c-.42.13-.83.27-1.22.42v-.58c.4-.16.81-.29,1.22-.42Zm0-.64c-.42.13-.83.27-1.22.42v-.58c.4-.16.81-.29,1.22-.42Zm0-.64c-.42.13-.83.27-1.22.42v-.58c.4-.16.81-.29,1.22-.42Zm0-.64c-.42.13-.83.27-1.22.42v-.58c.4-.16.81-.29,1.22-.42Zm1.28,1.59c-.41.1-.82.2-1.22.32v-.58c.4-.12.81-.22,1.22-.32Zm0-.64c-.41.1-.82.2-1.22.32V13c.4-.12.81-.22,1.22-.32Zm0-.64c-.41.1-.82.2-1.22.32v-.58c.4-.12.81-.22,1.22-.32Zm0-.64c-.41.1-.82.2-1.22.32v-.58c.4-.12.81-.22,1.22-.32Zm1.28,1.68c-.41.07-.82.14-1.22.23v-.58c.4-.09.81-.17,1.22-.23Zm0-.64c-.41.07-.82.14-1.22.23V12.7c.4-.09.81-.17,1.22-.23Zm0-.64c-.41.07-.82.14-1.22.23v-.58c.4-.09.81-.17,1.22-.23Zm0-.64c-.41.07-.82.14-1.22.23v-.58c.4-.09.81-.17,1.22-.23Z"/><path class="cls-45" d="M60,11.13l-2.5-1.45a.46.46,0,0,0-.69.4v.6c0,.22.42.22.42,0v-.6l.06,0,2.5,1.45a.48.48,0,0,1,.24.42v5a.13.13,0,0,1-.2.11l-1.39-.8-.42.25,1.59.92a.55.55,0,0,0,.56,0,.55.55,0,0,0,.28-.48v-5A.91.91,0,0,0,60,11.13Z"/><polygon class="cls-5" points="128.16 71.12 118.76 76.55 111.86 72.56 121.27 67.13 128.16 71.12"/><polygon class="cls-46" points="121.92 67.12 121.92 67.85 120.45 68.7 120.46 67.97 121.92 67.12"/><polygon class="cls-47" points="120.46 67.97 120.45 68.7 119.62 68.22 119.62 67.49 120.46 67.97"/><polygon class="cls-48" points="119.62 67.49 121.08 66.64 121.92 67.12 120.46 67.97 119.62 67.49"/><polygon class="cls-46" points="123.04 67.77 123.04 68.5 121.58 69.35 121.58 68.62 123.04 67.77"/><polygon class="cls-47" points="121.58 68.62 121.58 69.35 120.74 68.86 120.74 68.13 121.58 68.62"/><polygon class="cls-48" points="120.74 68.13 122.2 67.29 123.04 67.77 121.58 68.62 120.74 68.13"/><polygon class="cls-46" points="124.15 68.41 124.15 69.14 122.69 69.99 122.69 69.26 124.15 68.41"/><polygon class="cls-47" points="122.69 69.26 122.69 69.99 121.86 69.51 121.86 68.78 122.69 69.26"/><polygon class="cls-48" points="121.86 68.78 123.32 67.93 124.15 68.41 122.69 69.26 121.86 68.78"/><polygon class="cls-46" points="125.28 69.06 125.27 69.79 123.81 70.64 123.81 69.91 125.28 69.06"/><polygon class="cls-47" points="123.81 69.91 123.81 70.64 122.98 70.16 122.98 69.43 123.81 69.91"/><polygon class="cls-48" points="122.98 69.43 124.44 68.58 125.28 69.06 123.81 69.91 122.98 69.43"/><polygon class="cls-46" points="126.39 69.7 126.39 70.43 124.93 71.28 124.93 70.55 126.39 69.7"/><polygon class="cls-47" points="124.93 70.55 124.93 71.28 124.09 70.8 124.09 70.07 124.93 70.55"/><polygon class="cls-48" points="124.09 70.07 125.56 69.22 126.39 69.7 124.93 70.55 124.09 70.07"/><polygon class="cls-46" points="127.51 70.35 127.51 71.08 126.05 71.93 126.05 71.2 127.51 70.35"/><polygon class="cls-47" points="126.05 71.2 126.05 71.93 125.21 71.45 125.22 70.72 126.05 71.2"/><polygon class="cls-48" points="125.22 70.72 126.68 69.87 127.51 70.35 126.05 71.2 125.22 70.72"/><polygon class="cls-46" points="120.1 68.18 120.1 68.91 118.64 69.76 118.64 69.03 120.1 68.18"/><polygon class="cls-47" points="118.64 69.03 118.64 69.76 117.8 69.27 117.8 68.54 118.64 69.03"/><polygon class="cls-48" points="117.8 68.54 119.26 67.69 120.1 68.18 118.64 69.03 117.8 68.54"/><polygon class="cls-46" points="121.22 68.83 121.22 69.56 119.76 70.4 119.76 69.67 121.22 68.83"/><polygon class="cls-47" points="119.76 69.67 119.76 70.4 118.92 69.92 118.92 69.19 119.76 69.67"/><polygon class="cls-48" points="118.92 69.19 120.38 68.34 121.22 68.83 119.76 69.67 118.92 69.19"/><polygon class="cls-46" points="122.33 69.47 122.33 70.2 120.87 71.05 120.88 70.32 122.33 69.47"/><polygon class="cls-47" points="120.88 70.32 120.87 71.05 120.04 70.57 120.04 69.83 120.88 70.32"/><polygon class="cls-48" points="120.04 69.83 121.5 68.99 122.33 69.47 120.88 70.32 120.04 69.83"/><polygon class="cls-46" points="123.46 70.12 123.45 70.85 121.99 71.7 122 70.97 123.46 70.12"/><polygon class="cls-47" points="122 70.97 121.99 71.7 121.16 71.21 121.16 70.48 122 70.97"/><polygon class="cls-48" points="121.16 70.48 122.62 69.63 123.46 70.12 122 70.97 121.16 70.48"/><polygon class="cls-46" points="124.57 70.76 124.57 71.49 123.11 72.34 123.11 71.61 124.57 70.76"/><polygon class="cls-47" points="123.11 71.61 123.11 72.34 122.27 71.86 122.28 71.13 123.11 71.61"/><polygon class="cls-48" points="122.28 71.13 123.74 70.28 124.57 70.76 123.11 71.61 122.28 71.13"/><polygon class="cls-46" points="125.69 71.41 125.69 72.14 124.23 72.99 124.23 72.26 125.69 71.41"/><polygon class="cls-47" points="124.23 72.26 124.23 72.99 123.39 72.5 123.4 71.77 124.23 72.26"/><polygon class="cls-48" points="123.4 71.77 124.86 70.92 125.69 71.41 124.23 72.26 123.4 71.77"/><polygon class="cls-46" points="118.28 69.23 118.28 69.97 116.82 70.81 116.82 70.08 118.28 69.23"/><polygon class="cls-47" points="116.82 70.08 116.82 70.81 115.98 70.33 115.98 69.6 116.82 70.08"/><polygon class="cls-48" points="115.98 69.6 117.44 68.75 118.28 69.23 116.82 70.08 115.98 69.6"/><polygon class="cls-46" points="119.4 69.88 119.4 70.61 117.94 71.46 117.94 70.73 119.4 69.88"/><polygon class="cls-47" points="117.94 70.73 117.94 71.46 117.1 70.98 117.11 70.25 117.94 70.73"/><polygon class="cls-48" points="117.11 70.25 118.57 69.4 119.4 69.88 117.94 70.73 117.11 70.25"/><polygon class="cls-46" points="120.52 70.53 120.51 71.26 119.05 72.11 119.06 71.38 120.52 70.53"/><polygon class="cls-47" points="119.06 71.38 119.05 72.11 118.22 71.62 118.22 70.89 119.06 71.38"/><polygon class="cls-48" points="118.22 70.89 119.68 70.04 120.52 70.53 119.06 71.38 118.22 70.89"/><polygon class="cls-46" points="121.64 71.17 121.64 71.9 120.17 72.75 120.18 72.02 121.64 71.17"/><polygon class="cls-47" points="120.18 72.02 120.17 72.75 119.34 72.27 119.34 71.54 120.18 72.02"/><polygon class="cls-48" points="119.34 71.54 120.8 70.69 121.64 71.17 120.18 72.02 119.34 71.54"/><polygon class="cls-46" points="122.75 71.82 122.75 72.55 121.29 73.4 121.29 72.67 122.75 71.82"/><polygon class="cls-47" points="121.29 72.67 121.29 73.4 120.45 72.91 120.46 72.18 121.29 72.67"/><polygon class="cls-48" points="120.46 72.18 121.92 71.33 122.75 71.82 121.29 72.67 120.46 72.18"/><polygon class="cls-46" points="123.88 72.47 123.87 73.19 122.41 74.04 122.41 73.31 123.88 72.47"/><polygon class="cls-47" points="122.41 73.31 122.41 74.04 121.58 73.56 121.58 72.83 122.41 73.31"/><polygon class="cls-48" points="121.58 72.83 123.04 71.98 123.88 72.47 122.41 73.31 121.58 72.83"/><polygon class="cls-46" points="116.47 70.29 116.46 71.02 115 71.87 115.01 71.14 116.47 70.29"/><polygon class="cls-47" points="115.01 71.14 115 71.87 114.17 71.39 114.17 70.66 115.01 71.14"/><polygon class="cls-48" points="114.17 70.66 115.63 69.81 116.47 70.29 115.01 71.14 114.17 70.66"/><polygon class="cls-46" points="117.59 70.94 117.59 71.67 116.13 72.52 116.13 71.78 117.59 70.94"/><polygon class="cls-47" points="116.13 71.78 116.13 72.52 115.29 72.03 115.29 71.3 116.13 71.78"/><polygon class="cls-48" points="115.29 71.3 116.75 70.45 117.59 70.94 116.13 71.78 115.29 71.3"/><polygon class="cls-46" points="118.7 71.58 118.7 72.31 117.24 73.16 117.24 72.43 118.7 71.58"/><polygon class="cls-47" points="117.24 72.43 117.24 73.16 116.41 72.68 116.41 71.95 117.24 72.43"/><polygon class="cls-48" points="116.41 71.95 117.87 71.1 118.7 71.58 117.24 72.43 116.41 71.95"/><polygon class="cls-46" points="119.83 72.23 119.82 72.96 118.36 73.81 118.36 73.08 119.83 72.23"/><polygon class="cls-47" points="118.36 73.08 118.36 73.81 117.53 73.32 117.53 72.59 118.36 73.08"/><polygon class="cls-48" points="117.53 72.59 118.99 71.75 119.83 72.23 118.36 73.08 117.53 72.59"/><polygon class="cls-46" points="120.94 72.87 120.94 73.6 119.48 74.45 119.48 73.72 120.94 72.87"/><polygon class="cls-47" points="119.48 73.72 119.48 74.45 118.64 73.97 118.64 73.24 119.48 73.72"/><polygon class="cls-48" points="118.64 73.24 120.11 72.39 120.94 72.87 119.48 73.72 118.64 73.24"/><polygon class="cls-46" points="122.06 73.52 122.06 74.25 120.6 75.1 120.6 74.37 122.06 73.52"/><polygon class="cls-47" points="120.6 74.37 120.6 75.1 119.76 74.61 119.77 73.89 120.6 74.37"/><polygon class="cls-48" points="119.77 73.89 121.23 73.04 122.06 73.52 120.6 74.37 119.77 73.89"/><polygon class="cls-46" points="114.65 71.34 114.65 72.08 113.19 72.92 113.19 72.19 114.65 71.34"/><polygon class="cls-47" points="113.19 72.19 113.19 72.92 112.35 72.44 112.35 71.71 113.19 72.19"/><polygon class="cls-48" points="112.35 71.71 113.81 70.86 114.65 71.34 113.19 72.19 112.35 71.71"/><polygon class="cls-46" points="115.77 71.99 115.77 72.72 114.31 73.57 114.31 72.84 115.77 71.99"/><polygon class="cls-47" points="114.31 72.84 114.31 73.57 113.47 73.09 113.47 72.36 114.31 72.84"/><polygon class="cls-48" points="113.47 72.36 114.93 71.51 115.77 71.99 114.31 72.84 113.47 72.36"/><polygon class="cls-46" points="116.89 72.64 116.88 73.37 115.42 74.22 115.42 73.48 116.89 72.64"/><polygon class="cls-47" points="115.42 73.48 115.42 74.22 114.59 73.73 114.59 73 115.42 73.48"/><polygon class="cls-48" points="114.59 73 116.05 72.15 116.89 72.64 115.42 73.48 114.59 73"/><polygon class="cls-46" points="118.01 73.28 118 74.01 116.54 74.86 116.55 74.13 118.01 73.28"/><polygon class="cls-47" points="116.55 74.13 116.54 74.86 115.71 74.38 115.71 73.65 116.55 74.13"/><polygon class="cls-48" points="115.71 73.65 117.17 72.8 118.01 73.28 116.55 74.13 115.71 73.65"/><polygon class="cls-46" points="119.12 73.93 119.12 74.66 117.66 75.51 117.66 74.78 119.12 73.93"/><polygon class="cls-47" points="117.66 74.78 117.66 75.51 116.82 75.03 116.83 74.29 117.66 74.78"/><polygon class="cls-48" points="116.83 74.29 118.29 73.45 119.12 73.93 117.66 74.78 116.83 74.29"/><polygon class="cls-46" points="120.24 74.58 120.24 75.31 118.78 76.16 118.78 75.42 120.24 74.58"/><polygon class="cls-47" points="118.78 75.42 118.78 76.16 117.94 75.67 117.95 74.94 118.78 75.42"/><polygon class="cls-48" points="117.95 74.94 119.41 74.09 120.24 74.58 118.78 75.42 117.95 74.94"/><g class="cls-49"><path class="cls-9" d="M74.68,64.52s-.13,0-.13,0h0v1.29c0,.06.15.06.15,0V64.55A.06.06,0,0,0,74.68,64.52Z"/><path class="cls-9" d="M71.71,62.74s-.13,0-.13,0h0v1.29c0,.06.15.06.15,0V62.77A.06.06,0,0,0,71.71,62.74Z"/><path class="cls-9" d="M68.74,61s-.13,0-.13,0h0v1.29c0,.06.15.06.15,0V61A.06.06,0,0,0,68.74,61Z"/><path class="cls-9" d="M65.76,59.18s-.13,0-.13,0h0v1.29c0,.06.15.06.15,0V59.21A.06.06,0,0,0,65.76,59.18Z"/><path class="cls-9" d="M62.79,57.4s-.13,0-.13,0h0v1.29c0,.06.15.06.15,0V57.43A.07.07,0,0,0,62.79,57.4Z"/><path class="cls-9" d="M59.82,55.62s-.13,0-.13,0h0v1.29c0,.06.15.06.15,0V55.65A.06.06,0,0,0,59.82,55.62Z"/><path class="cls-9" d="M76.91,66.13l-.07,0L59.34,55.64a.14.14,0,0,1,.15-.25L77,65.86a.14.14,0,0,1-.07.27Z"/></g><g class="cls-2"><polygon class="cls-5" points="98.12 58.12 98.12 58.55 100.19 59.76 100.19 59.33 98.12 58.12"/><polygon class="cls-8" points="100.19 59.33 100.19 59.76 100.72 59.46 100.72 59.03 100.19 59.33"/><polygon class="cls-7" points="98.12 58.12 100.19 59.33 100.72 59.03 98.64 57.82 98.12 58.12"/></g><g class="cls-2"><path class="cls-50" d="M98.83,44.89a.16.16,0,0,1-.14,0,.05.05,0,0,1,0,0V58.19a.05.05,0,0,0,0,0,.16.16,0,0,0,.14,0,.05.05,0,0,0,0,0V44.85A.05.05,0,0,1,98.83,44.89Z"/><path class="cls-7" d="M98.83,44.81a.16.16,0,0,0-.14,0,0,0,0,0,0,0,.08.16.16,0,0,0,.14,0S98.87,44.83,98.83,44.81Z"/></g><g class="cls-2"><path class="cls-51" d="M100.18,45.67a.16.16,0,0,1-.14,0,.05.05,0,0,1,0,0V59a.05.05,0,0,0,0,0,.16.16,0,0,0,.14,0,.05.05,0,0,0,0,0V45.63A.05.05,0,0,1,100.18,45.67Z"/><path class="cls-7" d="M100.18,45.59a.16.16,0,0,0-.14,0,0,0,0,0,0,0,.08.16.16,0,0,0,.14,0S100.22,45.62,100.18,45.59Z"/></g><path class="cls-9" d="M99.33,59.46l-.07,0-14.75-8.8a.14.14,0,0,1-.07-.12.15.15,0,0,1,.07-.12l20.74-12a.15.15,0,0,1,.14,0l14.84,8.85a.14.14,0,0,1,.06.18L118.67,51a.14.14,0,0,1-.06.07l-12.78,7.39-.05,0-6.43,1ZM84.86,50.52l14.5,8.65,6.35-.95,12.72-7.35L120,47.38l-14.66-8.75Z"/><polygon class="cls-6" points="124.02 77.31 113.62 83.32 115.19 89.74 125.58 83.68 124.02 77.31"/><polygon class="cls-5" points="124.02 77.31 119.3 80.04 125.57 83.66 124.02 77.31"/><polygon class="cls-6" points="137.32 69.63 126.92 75.64 128.49 82.06 138.88 76 137.32 69.63"/><polygon class="cls-5" points="137.32 69.63 132.6 72.36 138.88 75.98 137.32 69.63"/><path class="cls-52" d="M70.37,22.2a3.35,3.35,0,0,1-3,0,1.06,1.06,0,0,1-.61-.87v1.37a1.06,1.06,0,0,0,.61.87,3.35,3.35,0,0,0,3,0,1.08,1.08,0,0,0,.65-.89V21.31A1.08,1.08,0,0,1,70.37,22.2Z"/><path class="cls-53" d="M70.41,20.44a3.35,3.35,0,0,0-3,0c-.85.48-.87,1.27,0,1.76a3.35,3.35,0,0,0,3,0C71.22,21.72,71.24,20.94,70.41,20.44Z"/><path class="cls-54" d="M70,18.65a2.16,2.16,0,0,0-3.29,1.76V21a1.06,1.06,0,0,0,.61.87,3.35,3.35,0,0,0,3,0A1.08,1.08,0,0,0,71,21v-.56A2.07,2.07,0,0,0,70,18.65Z"/><path class="cls-55" d="M69,18.88a.27.27,0,0,1-.24,0c-.07,0-.06-.1,0-.14a.27.27,0,0,1,.24,0C69.06,18.78,69.06,18.84,69,18.88Z"/><path class="cls-56" d="M58,29.37a3.35,3.35,0,0,1-3,0,1.06,1.06,0,0,1-.61-.87v1.37a1.06,1.06,0,0,0,.61.87,3.35,3.35,0,0,0,3,0,1.08,1.08,0,0,0,.65-.89V28.48A1.08,1.08,0,0,1,58,29.37Z"/><path class="cls-53" d="M58,27.61a3.35,3.35,0,0,0-3,0c-.85.48-.87,1.27,0,1.76a3.35,3.35,0,0,0,3,0C58.8,28.89,58.82,28.1,58,27.61Z"/><path class="cls-57" d="M57.59,25.82a2.16,2.16,0,0,0-3.29,1.76v.56a1.06,1.06,0,0,0,.61.87,3.35,3.35,0,0,0,3,0,1.08,1.08,0,0,0,.65-.89v-.56A2.07,2.07,0,0,0,57.59,25.82Z"/><path class="cls-55" d="M56.58,26a.27.27,0,0,1-.24,0c-.07,0-.06-.1,0-.14a.27.27,0,0,1,.24,0C56.65,25.95,56.65,26,56.58,26Z"/><path class="cls-58" d="M133.87,68a2.63,2.63,0,0,1-2.38,0,.83.83,0,0,1-.48-.68v.33a.83.83,0,0,0,.48.68,2.63,2.63,0,0,0,2.38,0,.85.85,0,0,0,.51-.7v-.33A.85.85,0,0,1,133.87,68Z"/><path class="cls-59" d="M133.9,66.63a2.63,2.63,0,0,0-2.38,0c-.67.37-.68,1,0,1.38a2.63,2.63,0,0,0,2.38,0C134.53,67.64,134.55,67,133.9,66.63Z"/><path class="cls-60" d="M133.58,65.23A1.7,1.7,0,0,0,131,66.61v.44a.83.83,0,0,0,.48.68,2.63,2.63,0,0,0,2.38,0,.85.85,0,0,0,.51-.7v-.44A1.62,1.62,0,0,0,133.58,65.23Z"/><g class="cls-2"><path class="cls-34" d="M138.34,69.65l-4.27-2.48a.09.09,0,0,0-.09,0,.28.28,0,0,0-.13.22.09.09,0,0,0,0,.08L138.15,70a.09.09,0,0,1,0-.08.28.28,0,0,1,.13-.22A.09.09,0,0,1,138.34,69.65Z"/><path class="cls-5" d="M138.25,69.66a.28.28,0,0,0-.13.22c0,.08.06.12.13.08a.29.29,0,0,0,.13-.23C138.38,69.65,138.32,69.62,138.25,69.66Z"/></g><path class="cls-61" d="M113.2,79.95a2.63,2.63,0,0,1-2.38,0,.83.83,0,0,1-.48-.68v.33a.83.83,0,0,0,.48.68,2.63,2.63,0,0,0,2.38,0,.85.85,0,0,0,.51-.7v-.33A.85.85,0,0,1,113.2,79.95Z"/><path class="cls-59" d="M113.23,78.57a2.63,2.63,0,0,0-2.38,0c-.67.37-.68,1,0,1.38a2.63,2.63,0,0,0,2.38,0C113.87,79.57,113.88,79,113.23,78.57Z"/><path class="cls-62" d="M112.92,77.17a1.7,1.7,0,0,0-2.58,1.38V79a.83.83,0,0,0,.48.68,2.63,2.63,0,0,0,2.38,0,.85.85,0,0,0,.51-.7v-.44A1.62,1.62,0,0,0,112.92,77.17Z"/><g class="cls-2"><path class="cls-34" d="M117.67,81.58l-4.27-2.48a.09.09,0,0,0-.09,0,.28.28,0,0,0-.13.22.09.09,0,0,0,0,.08l4.27,2.48a.09.09,0,0,1,0-.08.28.28,0,0,1,.13-.22A.09.09,0,0,1,117.67,81.58Z"/><path class="cls-5" d="M117.58,81.59a.28.28,0,0,0-.13.22c0,.08.06.12.13.08a.29.29,0,0,0,.13-.23C117.71,81.58,117.65,81.55,117.58,81.59Z"/></g><path class="cls-7" d="M36.31,26.44c2.76.43,4.39,2.06,3.65,3.65s-3.57,2.54-6.33,2.11S29.25,30.14,30,28.55,33.56,26,36.31,26.44Z"/><g class="cls-2"><path class="cls-24" d="M36.91,27.35a4.06,4.06,0,0,1-3.69,0,1.3,1.3,0,0,1-.77-1.07v2.66A1.31,1.31,0,0,0,33.22,30a4.06,4.06,0,0,0,3.69,0,1.3,1.3,0,0,0,.76-1.06V26.29A1.29,1.29,0,0,1,36.91,27.35Z"/><path class="cls-7" d="M36.9,25.22a4.06,4.06,0,0,0-3.69,0,1.13,1.13,0,0,0,0,2.13,4.06,4.06,0,0,0,3.69,0A1.13,1.13,0,0,0,36.9,25.22Z"/></g><g class="cls-2"><path class="cls-63" d="M28.12,15.8s-.06,0-.13,0h0l-.15.1c-.16.12-.27.25-.26.29h0l3.86,5h0s.1-.17.26-.29l.15-.1h0c.07,0,.12,0,.13,0Z"/><path class="cls-64" d="M31.82,20.87l-.15.1c-.16.12-.27.25-.26.29s.07,0,.16,0l.15-.1c.15-.11.28-.25.26-.28S31.92,20.82,31.82,20.87Z"/></g><g class="cls-2"><path class="cls-63" d="M31.54,20.1s-.09,0-.18,0h0l-.18.12h0c-.2.16-.35.32-.34.38h0l2.12,2.66h0c0-.06.14-.22.34-.38h0l.18-.12h0c.09,0,.16-.07.18,0Z"/><path class="cls-65" d="M33.47,22.82l-.18.12c-.2.16-.35.33-.34.39s.09,0,.2,0l.19-.13c.2-.15.35-.32.34-.38S33.58,22.75,33.47,22.82Z"/></g><g class="cls-2"><path class="cls-31" d="M36.78,21.12a1.83,1.83,0,0,0-1.64-.24,1.77,1.77,0,0,1,1.48.24,5.11,5.11,0,0,1,2.32,4v3A.24.24,0,0,0,39,28c0-.07,0-2.91,0-2.94h0A4.87,4.87,0,0,0,36.78,21.12Z"/><path class="cls-66" d="M38.54,23.4a5.6,5.6,0,0,0-.9-1.42,4.14,4.14,0,0,0-1-.86A1.64,1.64,0,0,0,35,21l-3,1.75a1.64,1.64,0,0,1,1.66.16,4.14,4.14,0,0,1,1,.86,5.59,5.59,0,0,1,.9,1.42,4.38,4.38,0,0,1,.4,1.75v3l3-1.75v-3A4.38,4.38,0,0,0,38.54,23.4Z"/><path class="cls-33" d="M37.64,22l-3,1.75a5.59,5.59,0,0,1,.9,1.42l3-1.75A5.6,5.6,0,0,0,37.64,22Z"/><path class="cls-5" d="M33.62,22.87A1.64,1.64,0,0,0,32,22.71c-.94.58-.76,1.48-.77,4.43v.14l4.51,2.6c-.1-.06.12.1.23,0v-3A5.11,5.11,0,0,0,33.62,22.87Z"/><path class="cls-35" d="M35.35,29.24h0L31.62,27.1a.08.08,0,0,1,0-.07V24.56c0-.84.43-1.38,1.1-1.38a1.75,1.75,0,0,1,.87.26,4.14,4.14,0,0,1,1.88,3.25v.1c0,1,0,1.93,0,2.37a.08.08,0,0,1,0,.07ZM31.73,27l3.54,2c0-.48,0-1.35,0-2.23v-.1a4,4,0,0,0-1.8-3.12,1.62,1.62,0,0,0-.79-.24c-.58,0-.94.47-.95,1.23Z"/><path class="cls-24" d="M34,21.52l-.9.52a1.64,1.64,0,0,1,1.66.16l.9-.52A1.64,1.64,0,0,0,34,21.52Z"/></g><ellipse class="cls-6" cx="182.61" cy="122.85" rx="0.88" ry="1.35" transform="translate(29.93 281.36) rotate(-80)"/><g class="cls-2"><g class="cls-2"><g class="cls-2"><path class="cls-67" d="M182.91,116.23v.86a.19.19,0,0,1,0,.08.64.64,0,0,1-.65.22.69.69,0,0,1-.24-.08.27.27,0,0,1-.16-.22v-.86a.27.27,0,0,0,.16.22.7.7,0,0,0,.24.08.64.64,0,0,0,.65-.22.19.19,0,0,0,0-.08Z"/></g></g><path class="cls-14" d="M182.75,116c.13.08.19.19.14.3a.64.64,0,0,1-.65.22.7.7,0,0,1-.24-.08c-.13-.08-.19-.19-.14-.3a.63.63,0,0,1,.65-.22A.7.7,0,0,1,182.75,116Z"/></g><g class="cls-2"><g class="cls-2"><g class="cls-2"><path class="cls-68" d="M183.18,115.92v.33a.29.29,0,0,1,0,.12,1,1,0,0,1-1,.33,1,1,0,0,1-.36-.12.41.41,0,0,1-.24-.33v-.33a.41.41,0,0,0,.24.33,1,1,0,0,0,.36.12,1,1,0,0,0,1-.33.29.29,0,0,0,0-.12Z"/></g></g><path class="cls-14" d="M182.94,115.59c.2.11.29.29.21.45a1,1,0,0,1-1,.33,1,1,0,0,1-.36-.12c-.2-.11-.29-.29-.21-.45a1,1,0,0,1,1-.33A1.05,1.05,0,0,1,182.94,115.59Z"/></g><g class="cls-2"><g class="cls-2"><g class="cls-2"><path class="cls-69" d="M182.91,115.3v.57a.19.19,0,0,1,0,.08.64.64,0,0,1-.65.22.69.69,0,0,1-.24-.08.27.27,0,0,1-.16-.22v-.57a.27.27,0,0,0,.16.22.7.7,0,0,0,.24.08.64.64,0,0,0,.65-.22.19.19,0,0,0,0-.08Z"/></g></g><path class="cls-14" d="M182.75,115.08c.13.08.19.19.14.3a.64.64,0,0,1-.65.22.7.7,0,0,1-.24-.08c-.13-.08-.19-.19-.14-.3a.63.63,0,0,1,.65-.22A.69.69,0,0,1,182.75,115.08Z"/></g><g class="cls-2"><g class="cls-2"><g class="cls-2"><path class="cls-70" d="M183.18,115.13v.33a.29.29,0,0,1,0,.12,1,1,0,0,1-1,.33,1,1,0,0,1-.36-.12.41.41,0,0,1-.24-.33v-.33a.41.41,0,0,0,.24.33,1,1,0,0,0,.36.12,1,1,0,0,0,1-.33.29.29,0,0,0,0-.12Z"/></g></g><path class="cls-14" d="M182.94,114.79c.2.11.29.29.21.45a1,1,0,0,1-1,.33,1,1,0,0,1-.36-.12c-.2-.11-.29-.29-.21-.45a1,1,0,0,1,1-.33A1.06,1.06,0,0,1,182.94,114.79Z"/></g><g class="cls-2"><g class="cls-2"><g class="cls-2"><path class="cls-71" d="M187.38,113.65v.86a.19.19,0,0,1,0,.08.64.64,0,0,1-.65.22.69.69,0,0,1-.24-.08.27.27,0,0,1-.16-.22v-.86a.27.27,0,0,0,.16.22.69.69,0,0,0,.24.08.64.64,0,0,0,.65-.22.19.19,0,0,0,0-.08Z"/></g></g><path class="cls-14" d="M187.22,113.43c.13.08.19.19.14.3a.64.64,0,0,1-.65.22.69.69,0,0,1-.24-.08c-.13-.08-.19-.19-.14-.3a.63.63,0,0,1,.65-.22A.69.69,0,0,1,187.22,113.43Z"/></g><g class="cls-2"><g class="cls-2"><g class="cls-2"><path class="cls-72" d="M187.65,113.34v.33a.29.29,0,0,1,0,.12,1,1,0,0,1-1,.33,1,1,0,0,1-.36-.12.41.41,0,0,1-.24-.33v-.33a.41.41,0,0,0,.24.33,1,1,0,0,0,.36.12,1,1,0,0,0,1-.33.29.29,0,0,0,0-.12Z"/></g></g><path class="cls-14" d="M187.41,113c.2.11.29.29.21.45a1,1,0,0,1-1,.33,1,1,0,0,1-.36-.12c-.2-.11-.29-.29-.21-.45a1,1,0,0,1,1-.33A1.06,1.06,0,0,1,187.41,113Z"/></g><g class="cls-2"><g class="cls-2"><g class="cls-2"><path class="cls-73" d="M187.38,112.72v.57a.19.19,0,0,1,0,.08.64.64,0,0,1-.65.22.69.69,0,0,1-.24-.08.27.27,0,0,1-.16-.22v-.57a.27.27,0,0,0,.16.22.69.69,0,0,0,.24.08.64.64,0,0,0,.65-.22.19.19,0,0,0,0-.08Z"/></g></g><path class="cls-14" d="M187.22,112.5c.13.08.19.19.14.3a.64.64,0,0,1-.65.22.69.69,0,0,1-.24-.08c-.13-.08-.19-.19-.14-.3a.63.63,0,0,1,.65-.22A.7.7,0,0,1,187.22,112.5Z"/></g><g class="cls-2"><g class="cls-2"><g class="cls-2"><path class="cls-74" d="M187.65,112.55v.33a.29.29,0,0,1,0,.12,1,1,0,0,1-1,.33,1,1,0,0,1-.36-.12.41.41,0,0,1-.24-.33v-.33a.41.41,0,0,0,.24.33,1,1,0,0,0,.36.12,1,1,0,0,0,1-.33.29.29,0,0,0,0-.12Z"/></g></g><path class="cls-14" d="M187.41,112.21c.2.11.29.29.21.45a1,1,0,0,1-1,.33,1,1,0,0,1-.36-.12c-.2-.11-.29-.29-.21-.45a1,1,0,0,1,1-.33A1.06,1.06,0,0,1,187.41,112.21Z"/></g><g class="cls-2"><polygon class="cls-5" points="115.94 47.83 115.94 48.26 118.01 49.47 118.01 49.04 115.94 47.83"/><polygon class="cls-8" points="118.01 49.04 118.01 49.47 118.54 49.17 118.54 48.74 118.01 49.04"/><polygon class="cls-7" points="115.94 47.83 118.01 49.04 118.54 48.74 116.46 47.53 115.94 47.83"/></g><g class="cls-2"><path class="cls-75" d="M116.65,34.6a.16.16,0,0,1-.14,0,.05.05,0,0,1,0,0V47.9a.05.05,0,0,0,0,0,.16.16,0,0,0,.14,0,.05.05,0,0,0,0,0V34.56A.05.05,0,0,1,116.65,34.6Z"/><path class="cls-7" d="M116.65,34.52a.16.16,0,0,0-.14,0,0,0,0,0,0,0,.08.16.16,0,0,0,.14,0S116.69,34.54,116.65,34.52Z"/></g><g class="cls-2"><path class="cls-76" d="M118,35.39a.16.16,0,0,1-.14,0,.05.05,0,0,1,0,0V48.68a.05.05,0,0,0,0,0,.16.16,0,0,0,.14,0,.05.05,0,0,0,0,0V35.35A.05.05,0,0,1,118,35.39Z"/><path class="cls-7" d="M118,35.3a.16.16,0,0,0-.14,0,0,0,0,0,0,0,.08.16.16,0,0,0,.14,0S118,35.33,118,35.3Z"/></g><g class="cls-2"><polygon class="cls-5" points="46.19 25.97 46.19 26.4 48.27 27.61 48.26 27.18 46.19 25.97"/><polygon class="cls-8" points="48.26 27.18 48.27 27.61 48.79 27.31 48.79 26.88 48.26 27.18"/><polygon class="cls-7" points="46.19 25.97 48.26 27.18 48.79 26.88 46.72 25.67 46.19 25.97"/></g><g class="cls-2"><path class="cls-77" d="M46.9,12.74a.16.16,0,0,1-.14,0,.05.05,0,0,1,0,0V26a.05.05,0,0,0,0,0,.16.16,0,0,0,.14,0,.05.05,0,0,0,0,0V12.7A.05.05,0,0,1,46.9,12.74Z"/><path class="cls-7" d="M46.9,12.66a.16.16,0,0,0-.14,0,0,0,0,0,0,0,.08.16.16,0,0,0,.14,0S46.94,12.68,46.9,12.66Z"/></g><g class="cls-2"><path class="cls-78" d="M48.25,13.53a.16.16,0,0,1-.14,0,.05.05,0,0,1,0,0V26.82a.05.05,0,0,0,0,0,.16.16,0,0,0,.14,0,.05.05,0,0,0,0,0V13.48A.05.05,0,0,1,48.25,13.53Z"/><path class="cls-7" d="M48.25,13.44a.16.16,0,0,0-.14,0,0,0,0,0,0,0,.08.16.16,0,0,0,.14,0S48.29,13.47,48.25,13.44Z"/></g><polygon class="cls-79" points="165.86 97.74 153.09 105.11 126.67 89.87 139.44 82.49 165.86 97.74"/><polygon class="cls-23" points="139.44 83.56 164.94 98.27 165.86 97.74 139.44 82.49 139.44 83.56"/><polygon class="cls-22" points="139.44 83.56 139.44 82.49 126.67 89.87 127.59 90.4 139.44 83.56"/><g class="cls-2"><polygon class="cls-8" points="142.51 87.86 142.5 88.55 135.29 92.74 135.29 92.05 142.51 87.86"/><polygon class="cls-5" points="135.29 92.05 135.29 92.74 131.48 90.54 131.48 89.85 135.29 92.05"/><polygon class="cls-7" points="142.51 87.86 135.29 92.05 131.48 89.85 138.7 85.66 142.51 87.86"/></g><g class="cls-2"><polygon class="cls-8" points="151.12 92.83 151.12 93.52 143.9 97.72 143.91 97.02 151.12 92.83"/><polygon class="cls-5" points="143.91 97.02 143.9 97.72 140.09 95.52 140.09 94.82 143.91 97.02"/><polygon class="cls-7" points="151.12 92.83 143.91 97.02 140.09 94.82 147.31 90.63 151.12 92.83"/></g><g class="cls-2"><polygon class="cls-8" points="159.73 97.8 159.73 98.5 152.52 102.69 152.52 101.99 159.73 97.8"/><polygon class="cls-5" points="152.52 101.99 152.52 102.69 148.71 100.49 148.71 99.79 152.52 101.99"/><polygon class="cls-7" points="159.73 97.8 152.52 101.99 148.71 99.79 155.92 95.6 159.73 97.8"/></g></g></g></g></svg>