<svg xmlns="http://www.w3.org/2000/svg" xmlns:xlink="http://www.w3.org/1999/xlink" viewBox="0 0 300 209"><defs><style>.cls-1{isolation:isolate;}.cls-2{fill:#232827;}.cls-3{fill:#262b2a;}.cls-4{fill:url(#linear-gradient);}.cls-5{fill:url(#linear-gradient-2);}.cls-6{fill:#9aa0a4;opacity:0.6;mix-blend-mode:multiply;}.cls-7{fill:#2f3534;}.cls-8{fill:#272c2b;}.cls-9{fill:#353d3c;}.cls-10{fill:#313837;}.cls-11{fill:url(#linear-gradient-3);}.cls-12{fill:url(#linear-gradient-4);}.cls-13{fill:#3c4544;}.cls-14{fill:url(#linear-gradient-5);}.cls-15{fill:url(#linear-gradient-6);}.cls-16{fill:url(#linear-gradient-7);}.cls-17{fill:url(#linear-gradient-8);}.cls-18{fill:url(#linear-gradient-9);}.cls-19{fill:url(#linear-gradient-10);}.cls-20{fill:url(#linear-gradient-11);}.cls-21{fill:url(#linear-gradient-12);}.cls-22{fill:#2a302f;}.cls-23{fill:#323938;}.cls-24{fill:url(#linear-gradient-13);}.cls-25{fill:url(#linear-gradient-14);}.cls-26{fill:#323436;}.cls-27{fill:url(#linear-gradient-15);}.cls-28{fill:url(#linear-gradient-16);}.cls-29{fill:url(#linear-gradient-17);}.cls-30{opacity:0.7;fill:url(#linear-gradient-18);}</style><linearGradient id="linear-gradient" x1="162.25" y1="81.92" x2="149.79" y2="103.49" gradientUnits="userSpaceOnUse"><stop offset="0" stop-color="#353d3c"/><stop offset="0.44" stop-color="#2d3332"/><stop offset="1" stop-color="#262b2a"/></linearGradient><linearGradient id="linear-gradient-2" x1="158.34" y1="80.91" x2="148.57" y2="97.83" gradientUnits="userSpaceOnUse"><stop offset="0" stop-color="#353d3c"/><stop offset="0.76" stop-color="#333b3a"/><stop offset="1" stop-color="#303736"/></linearGradient><linearGradient id="linear-gradient-3" x1="46.16" y1="58.33" x2="43.64" y2="62.7" gradientUnits="userSpaceOnUse"><stop offset="0" stop-color="#3f4746"/><stop offset="0.57" stop-color="#3d4544"/><stop offset="0.88" stop-color="#353d3c"/><stop offset="1" stop-color="#303736"/></linearGradient><linearGradient id="linear-gradient-4" x1="197.27" y1="73.92" x2="143.53" y2="104.95" gradientUnits="userSpaceOnUse"><stop offset="0" stop-color="#323938"/><stop offset="0.05" stop-color="#313736"/><stop offset="0.45" stop-color="#292e2d"/><stop offset="1" stop-color="#262b2a"/></linearGradient><linearGradient id="linear-gradient-5" x1="148.81" y1="57.25" x2="150.22" y2="57.25" gradientUnits="userSpaceOnUse"><stop offset="0" stop-color="#262b2a"/><stop offset="0.55" stop-color="#292e2d"/><stop offset="0.95" stop-color="#313736"/><stop offset="1" stop-color="#323938"/></linearGradient><linearGradient id="linear-gradient-6" x1="195.64" y1="87.49" x2="198.76" y2="87.49" xlink:href="#linear-gradient-5"/><linearGradient id="linear-gradient-7" x1="193.86" y1="77.28" x2="195.28" y2="77.28" xlink:href="#linear-gradient-5"/><linearGradient id="linear-gradient-8" x1="193.62" y1="69.23" x2="195.51" y2="69.23" xlink:href="#linear-gradient-5"/><linearGradient id="linear-gradient-9" x1="189.63" y1="79.72" x2="191.05" y2="79.72" xlink:href="#linear-gradient-5"/><linearGradient id="linear-gradient-10" x1="189.39" y1="71.68" x2="191.28" y2="71.68" xlink:href="#linear-gradient-5"/><linearGradient id="linear-gradient-11" x1="158.93" y1="66.3" x2="162.05" y2="66.3" xlink:href="#linear-gradient-5"/><linearGradient id="linear-gradient-12" x1="165.57" y1="73.34" x2="173.31" y2="73.34" xlink:href="#linear-gradient-5"/><linearGradient id="linear-gradient-13" x1="177.16" y1="80.04" x2="184.9" y2="80.04" xlink:href="#linear-gradient-5"/><linearGradient id="linear-gradient-14" x1="185.79" y1="82.36" x2="187.56" y2="82.36" xlink:href="#linear-gradient-5"/><linearGradient id="linear-gradient-15" x1="153.52" y1="63.72" x2="155.29" y2="63.72" xlink:href="#linear-gradient-5"/><linearGradient id="linear-gradient-16" x1="238.17" y1="139.32" x2="245.63" y2="139.32" xlink:href="#linear-gradient-5"/><linearGradient id="linear-gradient-17" x1="90.98" y1="54.35" x2="98.45" y2="54.35" xlink:href="#linear-gradient-5"/><linearGradient id="linear-gradient-18" x1="32.33" y1="113.8" x2="265.5" y2="113.8" gradientUnits="userSpaceOnUse"><stop offset="0" stop-color="#065778"/><stop offset="1" stop-color="#076489"/></linearGradient></defs><title>sub</title><g class="cls-1"><g id="Camada_1" data-name="Camada 1"><g id="_10" data-name="10"><polygon class="cls-2" points="41.48 33.87 41.48 59.19 49.84 65.64 49.24 37.16 42.34 33.17 41.48 33.87"/><g class="cls-1"><path class="cls-3" d="M262.85,171.45c-15.62,7.92-60.36-18.41-62.68-19.78l-80.63-46.55C79,81.74,56.08,62.31,46,52.69V63.44c6.76,6.77,23.67,22.22,54.53,41.92,13.09,8.35,102.1,60.49,120,69,23.48,11.18,32.5,12,35.78,11.44,4.14-.66,8.83-1.41,9.07-18.6A5,5,0,0,1,262.85,171.45Z"/><path class="cls-2" d="M262.86,167.67c-15.62,7.92-60.36-18.41-62.68-19.78l-80.63-46.55C79,77.95,56.07,58.51,46,48.9v3.79c10.07,9.62,33,29,73.53,52.44l80.63,46.55c2.32,1.36,47.06,27.69,62.68,19.78a5,5,0,0,0,2.53-4.26v-3.78A5,5,0,0,1,262.86,167.67Z"/><path class="cls-4" d="M226.06,118.2a.76.76,0,0,0-.21-.06.76.76,0,0,1,.21.06c-87.9-50.75-87.9-50.75-95.85-55A565.86,565.86,0,0,0,78.8,38.58C54.57,28.64,45.11,26.22,44.71,26.26c-1.74.14-3.16,2.57-4,6.51a.76.76,0,0,0,.26.75L46,37.57V48.9c10.07,9.62,33,29.05,73.54,52.45l80.63,46.55c2.32,1.36,47.06,27.69,62.68,19.78a5.24,5.24,0,0,0,2.64-5C265.16,148.8,264.86,141,226.06,118.2Z"/><path class="cls-5" d="M255,150.47c-14.39,0-47.23-18.5-50.92-20.61L123.44,83.32c-45.11-26-68-47-75.65-54.79,12.1,3.94,49.61,17.2,96.27,44.14l80.62,46.55c17.07,10,35.44,23.22,35.45,28.77a1.81,1.81,0,0,1-1.1,1.66,8.22,8.22,0,0,1-4,.82Z"/></g><path class="cls-6" d="M46.23,63.66c1.65,1.65,3.86,3.77,6.71,6.33l7.76-5.49-7.14-1.55Z"/><g class="cls-1"><polygon class="cls-7" points="232.74 165.15 232.74 166.1 223.25 171.61 223.25 170.66 232.74 165.15"/><polygon class="cls-8" points="223.25 170.66 223.25 171.61 219.87 169.66 219.88 168.72 223.25 170.66"/><path class="cls-9" d="M232.74,165.15l-9.49,5.51-3.38-1.95,8.81-5.12C230,164.14,231.4,164.66,232.74,165.15Z"/></g><path class="cls-10" d="M43.63,56.63a10.24,10.24,0,0,0-2.43,1.53,13.79,13.79,0,0,0,1.41-2.78c.18-.71-.18-1.15-.78-1A2.38,2.38,0,0,0,40.41,56a5.78,5.78,0,0,0,.13,2.35,3.64,3.64,0,0,0-2-.28,2.38,2.38,0,0,0-1.42,1.61c-.18.71.18,1.15.78,1a10.24,10.24,0,0,0,2.43-1.53,13.79,13.79,0,0,0-1.41,2.78c-.18.71.18,1.15.78,1a2.38,2.38,0,0,0,1.42-1.61A5.78,5.78,0,0,0,41,58.93a3.64,3.64,0,0,0,2,.28,2.38,2.38,0,0,0,1.42-1.61C44.59,56.89,44.24,56.46,43.63,56.63Z"/><g class="cls-1"><polygon class="cls-7" points="60.7 63.54 60.7 64.49 38.17 68.39 38.17 67.44 60.7 63.54"/><polygon class="cls-8" points="38.17 67.44 38.17 68.39 32.33 65.02 32.34 64.07 38.17 67.44"/><path class="cls-9" d="M49.56,54.06c3,2.69,6.67,5.88,11.14,9.48l-22.53,3.9-5.83-3.37Z"/></g><path class="cls-11" d="M42.85,56.3h0a1.92,1.92,0,0,0-1.75.26,5,5,0,0,0-2.42,3.82h0c3.83,2.21,9.66,4.33,11,3.57S46.68,58.51,42.85,56.3Z"/><path class="cls-8" d="M121.48,82.17l2,1.14,61.7,35.62c14.82-2.62,18.69-2.07,18.69-2.07l-56.9-37A67.31,67.31,0,0,0,121.48,82.17Z"/><path class="cls-12" d="M205.23,92.23l0,23.56a1.08,1.08,0,0,1-.61,1C200.71,119,185,110,184.2,109.57l-12.35-7.13c-18.79-10.85-27-19.35-28.45-20.89a.06.06,0,0,1,0,0l0-23.56a.06.06,0,0,0,0,0c1.41,1.53,9.66,10,28.45,20.89L184.24,86c.83.47,16.51,9.42,20.38,7.18a1.08,1.08,0,0,0,.61-1Z"/><path class="cls-9" d="M192.14,81.41c.82.48,16.31,9.53,12.48,11.78S185.06,86.48,184.24,86l-12.35-7.13C153.11,68,144.86,59.53,143.45,58c-.07-.08.07-.16.2-.12,2.65.81,17.36,5.56,36.15,16.41Z"/><g id="Axonometric_Cylinder" data-name="Axonometric Cylinder"><path id="Cylinder_face" data-name="Cylinder face" class="cls-13" d="M150,53a1.1,1.1,0,0,1-1,0,.3.3,0,0,1,0-.58,1.1,1.1,0,0,1,1,0A.3.3,0,0,1,150,53Z"/><path id="Cylinder_body" data-name="Cylinder body" class="cls-14" d="M150.22,52.7v8.67a.35.35,0,0,1-.21.29,1.1,1.1,0,0,1-1,0,.35.35,0,0,1-.21-.28V52.71A.35.35,0,0,0,149,53a1.1,1.1,0,0,0,1,0A.35.35,0,0,0,150.22,52.7Z"/></g><g id="Axonometric_Cylinder-2" data-name="Axonometric Cylinder"><path id="Cylinder_face-2" data-name="Cylinder face" class="cls-13" d="M198.3,86a2.43,2.43,0,0,1-2.2,0,.67.67,0,0,1,0-1.27,2.44,2.44,0,0,1,2.2,0A.67.67,0,0,1,198.3,86Z"/><path id="Cylinder_body-2" data-name="Cylinder body" class="cls-15" d="M198.76,85.38V88.7a.77.77,0,0,1-.46.64,2.44,2.44,0,0,1-2.2,0,.78.78,0,0,1-.46-.63V85.4a.78.78,0,0,0,.46.63,2.43,2.43,0,0,0,2.2,0A.77.77,0,0,0,198.76,85.38Z"/></g><g id="Axonometric_Cylinder-3" data-name="Axonometric Cylinder"><path id="Cylinder_face-3" data-name="Cylinder face" class="cls-9" d="M195.07,69.66a1.11,1.11,0,0,1-1,0,.3.3,0,0,1,0-.58,1.11,1.11,0,0,1,1,0A.3.3,0,0,1,195.07,69.66Z"/><path id="Cylinder_body-3" data-name="Cylinder body" class="cls-16" d="M195.28,69.37V84.78a.35.35,0,0,1-.21.29,1.11,1.11,0,0,1-1,0,.35.35,0,0,1-.21-.28V69.38a.35.35,0,0,0,.21.28,1.11,1.11,0,0,0,1,0A.35.35,0,0,0,195.28,69.37Z"/></g><g id="Axonometric_Cylinder-4" data-name="Axonometric Cylinder"><path id="Cylinder_face-4" data-name="Cylinder face" class="cls-13" d="M195.24,68.34a1.48,1.48,0,0,1-1.34,0,.41.41,0,0,1,0-.77,1.48,1.48,0,0,1,1.34,0A.41.41,0,0,1,195.24,68.34Z"/><path id="Cylinder_body-4" data-name="Cylinder body" class="cls-17" d="M195.51,68v2a.47.47,0,0,1-.28.39,1.48,1.48,0,0,1-1.34,0,.47.47,0,0,1-.28-.38V68a.47.47,0,0,0,.28.38,1.48,1.48,0,0,0,1.34,0A.47.47,0,0,0,195.51,68Z"/></g><g id="Axonometric_Cylinder-5" data-name="Axonometric Cylinder"><path id="Cylinder_face-5" data-name="Cylinder face" class="cls-9" d="M190.84,72.1a1.11,1.11,0,0,1-1,0,.3.3,0,0,1,0-.58,1.11,1.11,0,0,1,1,0A.3.3,0,0,1,190.84,72.1Z"/><path id="Cylinder_body-5" data-name="Cylinder body" class="cls-18" d="M191,71.81V87.22a.35.35,0,0,1-.21.29,1.11,1.11,0,0,1-1,0,.35.35,0,0,1-.21-.28V71.82a.35.35,0,0,0,.21.28,1.11,1.11,0,0,0,1,0A.35.35,0,0,0,191,71.81Z"/></g><g id="Axonometric_Cylinder-6" data-name="Axonometric Cylinder"><path id="Cylinder_face-6" data-name="Cylinder face" class="cls-13" d="M191,70.78a1.48,1.48,0,0,1-1.34,0,.41.41,0,0,1,0-.77A1.48,1.48,0,0,1,191,70,.41.41,0,0,1,191,70.78Z"/><path id="Cylinder_body-6" data-name="Cylinder body" class="cls-19" d="M191.28,70.39v2a.47.47,0,0,1-.28.39,1.48,1.48,0,0,1-1.34,0,.47.47,0,0,1-.28-.38v-2a.47.47,0,0,0,.28.38,1.48,1.48,0,0,0,1.34,0A.47.47,0,0,0,191.28,70.39Z"/></g><g id="Axonometric_Cylinder-7" data-name="Axonometric Cylinder"><path id="Cylinder_face-7" data-name="Cylinder face" class="cls-13" d="M161.59,64.83a2.43,2.43,0,0,1-2.2,0,.67.67,0,0,1,0-1.27,2.43,2.43,0,0,1,2.2,0A.67.67,0,0,1,161.59,64.83Z"/><path id="Cylinder_body-7" data-name="Cylinder body" class="cls-20" d="M162,64.19v3.32a.77.77,0,0,1-.46.64,2.43,2.43,0,0,1-2.2,0,.78.78,0,0,1-.46-.63V64.2a.78.78,0,0,0,.46.63,2.43,2.43,0,0,0,2.2,0A.77.77,0,0,0,162,64.19Z"/></g><g class="cls-1"><path class="cls-21" d="M173.18,72.46c-.55,1.2-2.66,1.9-4.73,1.58a5,5,0,0,1-1.74-.58,2,2,0,0,1-1.14-1.59v.69a2,2,0,0,0,1.14,1.59,5,5,0,0,0,1.74.58c2.07.32,4.18-.39,4.73-1.58a1.38,1.38,0,0,0,.13-.57v-.69A1.37,1.37,0,0,1,173.18,72.46Z"/><path class="cls-13" d="M172.17,70.29a5,5,0,0,0-1.74-.58c-2.07-.32-4.19.39-4.73,1.58-.37.8.07,1.62,1,2.17a5,5,0,0,0,1.74.58c2.07.32,4.18-.39,4.73-1.58C173.55,71.66,173.12,70.84,172.17,70.29Z"/></g><g class="cls-1"><path class="cls-22" d="M166.39,70.47a.13.13,0,0,1-.07-.1v.19a.13.13,0,0,0,.07.1L167,71v-.19Z"/><polygon class="cls-23" points="168.5 69.9 168.5 70.09 166.96 70.99 166.96 70.79 168.5 69.9"/><path class="cls-13" d="M168.5,69.9l-1.54.9-.57-.33a.11.11,0,0,1,0-.2l1.2-.69a.38.38,0,0,1,.35,0Z"/></g><g class="cls-1"><path class="cls-24" d="M184.77,79.15c-.55,1.2-2.66,1.9-4.73,1.58a5,5,0,0,1-1.74-.58,2,2,0,0,1-1.14-1.59v.69a2,2,0,0,0,1.14,1.59,5,5,0,0,0,1.74.58c2.07.32,4.18-.39,4.73-1.58a1.37,1.37,0,0,0,.13-.57v-.69A1.38,1.38,0,0,1,184.77,79.15Z"/><path class="cls-13" d="M183.76,77a5,5,0,0,0-1.74-.58c-2.07-.32-4.19.39-4.73,1.58-.37.8.07,1.62,1,2.17a5,5,0,0,0,1.74.58c2.07.32,4.18-.39,4.73-1.58C185.14,78.35,184.71,77.53,183.76,77Z"/></g><g class="cls-1"><path class="cls-22" d="M178,77.16a.12.12,0,0,1-.07-.1v.19a.12.12,0,0,0,.07.1l.57.33v-.19Z"/><polygon class="cls-23" points="180.1 76.59 180.1 76.78 178.56 77.68 178.56 77.49 180.1 76.59"/><path class="cls-13" d="M180.1,76.59l-1.54.9-.57-.33a.11.11,0,0,1,0-.2l1.2-.69a.38.38,0,0,1,.35,0Z"/></g><g class="cls-1"><path class="cls-25" d="M187.13,81.45c0,.09,0,.18-.13.24a.72.72,0,0,1-.65,0c-.11-.07-.15-.16-.12-.24l-.42,1.21c-.06.16,0,.33.23.46a1.38,1.38,0,0,0,1.25,0c.22-.13.31-.3.25-.47Z"/><path class="cls-13" d="M187,81.31a.72.72,0,0,0-.65,0c-.18.1-.19.27,0,.38a.72.72,0,0,0,.65,0C187.18,81.59,187.19,81.42,187,81.31Z"/></g><path class="cls-26" d="M186.88,54.37a.1.1,0,0,1-.06.08c.08,0,.08-.12,0-.16a.31.31,0,0,0-.28,0,.09.09,0,0,0,0,.16.1.1,0,0,1-.06-.08V81.44a.1.1,0,0,0,.06.08.31.31,0,0,0,.28,0,.1.1,0,0,0,.06-.08Z"/><g class="cls-1"><path class="cls-27" d="M154.86,62.82c0,.09,0,.18-.13.24a.72.72,0,0,1-.65,0c-.11-.07-.15-.16-.12-.24L153.53,64c-.06.16,0,.33.23.46a1.38,1.38,0,0,0,1.25,0c.22-.13.31-.3.25-.47Z"/><path class="cls-13" d="M154.74,62.68a.72.72,0,0,0-.65,0c-.18.1-.19.27,0,.38a.72.72,0,0,0,.65,0C154.91,63,154.91,62.79,154.74,62.68Z"/></g><path class="cls-26" d="M154.6,35.74a.1.1,0,0,1-.06.08c.08,0,.08-.12,0-.16a.31.31,0,0,0-.28,0,.09.09,0,0,0,0,.16.1.1,0,0,1-.06-.08V62.8a.1.1,0,0,0,.06.08.31.31,0,0,0,.28,0,.1.1,0,0,0,.06-.08Z"/><g id="Axonometric_Cylinder-8" data-name="Axonometric Cylinder"><path id="Cylinder_face-8" data-name="Cylinder face" class="cls-13" d="M244.54,139a5.83,5.83,0,0,1-5.28,0c-1.46-.84-1.46-2.21,0-3a5.83,5.83,0,0,1,5.28,0C246,136.83,246,138.2,244.54,139Z"/><path id="Cylinder_body-8" data-name="Cylinder body" class="cls-28" d="M245.63,137.5V139a1.84,1.84,0,0,1-1.09,1.54,5.83,5.83,0,0,1-5.28,0,1.87,1.87,0,0,1-1.09-1.5v-1.48a1.87,1.87,0,0,0,1.09,1.5,5.83,5.83,0,0,0,5.28,0A1.84,1.84,0,0,0,245.63,137.5Z"/></g><g id="Axonometric_Cylinder-9" data-name="Axonometric Cylinder"><path id="Cylinder_face-9" data-name="Cylinder face" class="cls-13" d="M97.36,54.06a5.83,5.83,0,0,1-5.28,0c-1.46-.84-1.46-2.21,0-3a5.83,5.83,0,0,1,5.28,0C98.81,51.86,98.81,53.22,97.36,54.06Z"/><path id="Cylinder_body-9" data-name="Cylinder body" class="cls-29" d="M98.45,52.52V54a1.84,1.84,0,0,1-1.09,1.54,5.83,5.83,0,0,1-5.28,0A1.87,1.87,0,0,1,91,54V52.56a1.87,1.87,0,0,0,1.09,1.5,5.83,5.83,0,0,0,5.28,0A1.84,1.84,0,0,0,98.45,52.52Z"/></g></g><path class="cls-30" d="M265.29,157.66c-.53,3.76-10.83,13.47-31.95,3.38-10.43-5-17.18-10.32-26.84-16.1-11.91-7.14-26.62-12.79-39.09-19-15.13-7.57-32.94-19.75-47.61-28.2-11.49-6.62-51.82-35.44-63.26-44-3.31-2.48-7.11-3.88-10.48-6.62V45.82a56.75,56.75,0,0,1-4.57-4.13v12.9A2.49,2.49,0,0,0,40.41,56a4.44,4.44,0,0,0-.06,1.12,5.47,5.47,0,0,0-.83.95,2.57,2.57,0,0,0-.95,0,2.38,2.38,0,0,0-1.42,1.61c-.18.71.18,1.15.78,1a4.37,4.37,0,0,0,.76-.38s0,.06,0,.09h0l-6.36,3.7V65l5.83,3.37,11-1.9c8.23,7.78,24.51,21.71,51.39,38.86,13.09,8.35,102.1,60.49,120,69,23.48,11.18,32.5,12,35.78,11.44,4.14-.66,8.83-1.41,9.07-18.6v-3.42a7.75,7.75,0,0,0,.11-1.1C265.46,160.93,265.41,159.27,265.29,157.66Z"/></g></g></svg>