<?xml version="1.0" encoding="utf-8"?>
<!-- Generator: Adobe Illustrator 21.0.0, SVG Export Plug-In . SVG Version: 6.00 Build 0)  -->
<svg version="1.1" id="Camada_1" xmlns="http://www.w3.org/2000/svg" xmlns:xlink="http://www.w3.org/1999/xlink" x="0px" y="0px"
	 viewBox="0 0 300 209" style="enable-background:new 0 0 300 209;" xml:space="preserve">
<style type="text/css">
	.st0{fill:#232827;}
	.st1{fill:#262B2A;}
	.st2{fill:url(#SVGID_1_);}
	.st3{fill:url(#SVGID_2_);}
	.st4{opacity:0.6;fill:#9AA0A4;enable-background:new    ;}
	.st5{fill:#2F3534;}
	.st6{fill:#272C2B;}
	.st7{fill:#353D3C;}
	.st8{fill:#313837;}
	.st9{fill:url(#SVGID_3_);}
	.st10{fill:url(#SVGID_4_);}
	.st11{fill:#3C4544;}
	.st12{fill:url(#Cylinder_body_2_);}
	.st13{fill:url(#Cylinder_body-2_2_);}
	.st14{fill:url(#Cylinder_body-3_2_);}
	.st15{fill:url(#Cylinder_body-4_2_);}
	.st16{fill:url(#Cylinder_body-5_2_);}
	.st17{fill:url(#Cylinder_body-6_2_);}
	.st18{fill:url(#Cylinder_body-7_2_);}
	.st19{fill:url(#SVGID_5_);}
	.st20{fill:#2A302F;}
	.st21{fill:#323938;}
	.st22{fill:url(#SVGID_6_);}
	.st23{fill:url(#SVGID_7_);}
	.st24{fill:#323436;}
	.st25{fill:url(#SVGID_8_);}
	.st26{fill:url(#Cylinder_body-8_2_);}
	.st27{fill:url(#Cylinder_body-9_2_);}
	.st28{opacity:0.7;fill:url(#SVGID_9_);enable-background:new    ;}
</style>
<title>sub</title>
<title>sub</title>
<g>
	<g id="Camada_1_2_">
		<g id="_10_1_">
			<polygon class="st0" points="255.5,33.2 248.6,37.2 248,65.6 256.4,59.2 256.4,33.9 			"/>
			<g>
				<path class="st1" d="M32.5,167.2c0.2,17.2,4.9,17.9,9.1,18.6c3.3,0.6,12.3-0.3,35.8-11.4c17.9-8.5,106.9-60.7,120-69
					c30.9-19.7,47.8-35.2,54.5-41.9V52.7c-10.1,9.6-33,29-73.5,52.4l-80.6,46.6c-2.3,1.4-47.1,27.7-62.7,19.8
					C33.5,170.6,32.5,169,32.5,167.2z"/>
				<path class="st0" d="M32.5,163.4v3.8c0,1.8,1,3.4,2.5,4.3c15.6,7.9,60.4-18.4,62.7-19.8l80.6-46.6
					c40.5-23.4,63.5-42.8,73.5-52.4v-3.8c-10.1,9.6-33,29-73.6,52.4l-80.6,46.6c-2.3,1.4-47.1,27.7-62.7,19.8
					C33.5,166.8,32.5,165.2,32.5,163.4z"/>
				
					<linearGradient id="SVGID_1_" gradientUnits="userSpaceOnUse" x1="162.2503" y1="128.0798" x2="149.7903" y2="106.5098" gradientTransform="matrix(-1 0 0 -1 297.84 210)">
					<stop  offset="0" style="stop-color:#353D3C"/>
					<stop  offset="0.44" style="stop-color:#2D3332"/>
					<stop  offset="1" style="stop-color:#262B2A"/>
				</linearGradient>
				<path class="st2" d="M32.3,162.7c-0.2,2,0.9,4,2.6,5c15.6,7.9,60.4-18.4,62.7-19.8l80.6-46.6c40.5-23.4,63.5-42.8,73.5-52.5
					V37.6l5-4c0.2-0.2,0.3-0.5,0.3-0.8c-0.8-3.9-2.3-6.4-4-6.5c-0.4,0-9.9,2.4-34.1,12.3c-17.5,7.3-34.7,15.6-51.4,24.6
					c-8,4.3-8,4.3-95.9,55c0.1,0,0.1-0.1,0.2-0.1c-0.1,0-0.1,0-0.2,0.1C33,141,32.7,148.8,32.3,162.7z"/>
				
					<linearGradient id="SVGID_2_" gradientUnits="userSpaceOnUse" x1="158.3404" y1="129.086" x2="148.5717" y2="112.1682" gradientTransform="matrix(-1 0 0 -1 297.84 210)">
					<stop  offset="0" style="stop-color:#353D3C"/>
					<stop  offset="0.76" style="stop-color:#333B3A"/>
					<stop  offset="1" style="stop-color:#303736"/>
				</linearGradient>
				<path class="st3" d="M42.8,150.5c-1.4,0.1-2.8-0.2-4-0.8c-0.7-0.3-1.1-0.9-1.1-1.7c0-5.6,18.4-18.8,35.5-28.8l80.6-46.6
					c46.7-26.9,84.2-40.2,96.3-44.1c-7.6,7.8-30.5,28.8-75.6,54.8l-80.6,46.5C90.1,132,57.2,150.5,42.8,150.5L42.8,150.5z"/>
			</g>
			<path class="st4" d="M244.3,63l-7.1,1.5l7.8,5.5c2.8-2.6,5.1-4.7,6.7-6.3L244.3,63z"/>
			<g>
				<polygon class="st5" points="74.6,170.7 74.6,171.6 65.1,166.1 65.1,165.1 				"/>
				<polygon class="st6" points="78,168.7 78,169.7 74.6,171.6 74.6,170.7 				"/>
				<path class="st7" d="M69.2,163.6l8.8,5.1l-3.4,1.9l-9.5-5.5C66.4,164.7,67.8,164.1,69.2,163.6z"/>
			</g>
			<path class="st8" d="M253.4,57.6c0.2,0.7,0.7,1.3,1.4,1.6c0.7,0.1,1.4,0,2-0.3c-0.2,0.8-0.2,1.6-0.1,2.4c0.2,0.7,0.7,1.3,1.4,1.6
				c0.6,0.2,1-0.3,0.8-1c-0.4-1-0.8-1.9-1.4-2.8c0.7,0.6,1.6,1.1,2.4,1.5c0.6,0.2,1-0.3,0.8-1c-0.2-0.7-0.7-1.3-1.4-1.6
				c-0.7-0.1-1.4,0-2,0.3c0.2-0.8,0.2-1.6,0.1-2.3c-0.2-0.7-0.7-1.3-1.4-1.6c-0.6-0.2-1,0.3-0.8,1c0.4,1,0.8,1.9,1.4,2.8
				c-0.7-0.6-1.6-1.1-2.4-1.5C253.6,56.5,253.2,56.9,253.4,57.6z"/>
			<g>
				<polygon class="st5" points="259.7,67.4 259.7,68.4 237.1,64.5 237.1,63.5 				"/>
				<polygon class="st6" points="265.5,64.1 265.5,65 259.7,68.4 259.7,67.4 				"/>
				<path class="st7" d="M265.5,64.1l-5.8,3.4l-22.5-3.9c4.5-3.6,8.1-6.8,11.1-9.5L265.5,64.1z"/>
			</g>
			
				<linearGradient id="SVGID_3_" gradientUnits="userSpaceOnUse" x1="46.1682" y1="151.6653" x2="43.6482" y2="147.2952" gradientTransform="matrix(-1 0 0 -1 297.84 210)">
				<stop  offset="0" style="stop-color:#3F4746"/>
				<stop  offset="0.57" style="stop-color:#3D4544"/>
				<stop  offset="0.88" style="stop-color:#353D3C"/>
				<stop  offset="1" style="stop-color:#303736"/>
			</linearGradient>
			<path class="st9" d="M248.2,63.9c1.3,0.8,7.2-1.4,11-3.6l0,0c-0.2-1.6-1.1-3-2.4-3.8c-0.5-0.4-1.2-0.5-1.8-0.3l0,0
				C251.2,58.5,246.8,63.2,248.2,63.9z"/>
			<path class="st6" d="M150.9,79.9l-56.9,37c0,0,3.9-0.6,18.7,2.1l61.7-35.6l2-1.1C168.1,79.8,159.4,79,150.9,79.9z"/>
			
				<linearGradient id="SVGID_4_" gradientUnits="userSpaceOnUse" x1="197.2878" y1="136.0491" x2="143.5478" y2="105.0191" gradientTransform="matrix(-1 0 0 -1 297.84 210)">
				<stop  offset="0" style="stop-color:#323938"/>
				<stop  offset="5.000000e-02" style="stop-color:#313736"/>
				<stop  offset="0.45" style="stop-color:#292E2D"/>
				<stop  offset="1" style="stop-color:#262B2A"/>
			</linearGradient>
			<path class="st10" d="M92.6,92.2c0,0.4,0.2,0.8,0.6,1c3.9,2.2,19.6-6.7,20.4-7.2l12.4-7.1C144.8,68,153,59.5,154.4,58l0,0v23.6
				l0,0c-1.4,1.5-9.7,10-28.5,20.9l-12.4,7.1c-0.8,0.4-16.5,9.4-20.4,7.2c-0.4-0.2-0.6-0.6-0.6-1L92.6,92.2L92.6,92.2z"/>
			<path class="st7" d="M118,74.3c18.8-10.8,33.5-15.6,36.2-16.4c0.1,0,0.3,0,0.2,0.1c-1.4,1.5-9.7,10-28.4,20.9L113.6,86
				c-0.8,0.5-16.5,9.4-20.4,7.2s11.7-11.3,12.5-11.8L118,74.3z"/>
			<g id="Axonometric_Cylinder_1_">
				<path id="Cylinder_face_1_" class="st11" d="M147.6,52.8c0-0.2,0.1-0.3,0.2-0.4c0.3-0.2,0.7-0.2,1,0c0.1,0,0.2,0.1,0.2,0.2
					c0,0.2-0.1,0.3-0.2,0.4c-0.3,0.2-0.7,0.2-1,0C147.7,53,147.7,52.9,147.6,52.8z"/>
				
					<linearGradient id="Cylinder_body_2_" gradientUnits="userSpaceOnUse" x1="148.81" y1="152.7599" x2="150.22" y2="152.7599" gradientTransform="matrix(-1 0 0 -1 297.84 210)">
					<stop  offset="0" style="stop-color:#262B2A"/>
					<stop  offset="0.55" style="stop-color:#292E2D"/>
					<stop  offset="0.95" style="stop-color:#313736"/>
					<stop  offset="1" style="stop-color:#323938"/>
				</linearGradient>
				<path id="Cylinder_body_1_" class="st12" d="M147.8,53c0.3,0.2,0.7,0.2,1,0c0.1-0.1,0.2-0.2,0.2-0.3v8.7c0,0.1-0.1,0.2-0.2,0.3
					c-0.3,0.2-0.7,0.2-1,0c-0.1-0.1-0.2-0.2-0.2-0.3v-8.7C147.6,52.8,147.7,53,147.8,53z"/>
			</g>
			<g id="Axonometric_Cylinder-2_1_">
				<path id="Cylinder_face-2_1_" class="st11" d="M99.1,85.6c-0.1-0.4,0.1-0.7,0.4-0.8c0.7-0.3,1.5-0.3,2.2,0
					c0.2,0.1,0.4,0.2,0.4,0.4c0.1,0.4-0.1,0.7-0.4,0.8c-0.7,0.4-1.5,0.4-2.2,0C99.3,85.9,99.2,85.8,99.1,85.6z"/>
				
					<linearGradient id="Cylinder_body-2_2_" gradientUnits="userSpaceOnUse" x1="195.64" y1="122.509" x2="198.76" y2="122.509" gradientTransform="matrix(-1 0 0 -1 297.84 210)">
					<stop  offset="0" style="stop-color:#262B2A"/>
					<stop  offset="0.55" style="stop-color:#292E2D"/>
					<stop  offset="0.95" style="stop-color:#313736"/>
					<stop  offset="1" style="stop-color:#323938"/>
				</linearGradient>
				<path id="Cylinder_body-2_1_" class="st13" d="M99.5,86c0.7,0.4,1.5,0.4,2.2,0c0.3-0.1,0.4-0.4,0.5-0.6v3.3
					c0,0.3-0.2,0.5-0.5,0.6c-0.7,0.3-1.5,0.3-2.2,0c-0.3-0.1-0.4-0.4-0.5-0.6v-3.3C99.1,85.7,99.3,85.9,99.5,86z"/>
			</g>
			<g id="Axonometric_Cylinder-3_1_">
				<path id="Cylinder_face-3_1_" class="st7" d="M102.6,69.4c0-0.2,0.1-0.3,0.2-0.4c0.3-0.2,0.7-0.2,1,0c0.1,0,0.2,0.1,0.2,0.2
					c0,0.2-0.1,0.3-0.2,0.4c-0.3,0.2-0.7,0.2-1,0C102.7,69.6,102.6,69.6,102.6,69.4z"/>
				
					<linearGradient id="Cylinder_body-3_2_" gradientUnits="userSpaceOnUse" x1="193.86" y1="132.7205" x2="195.28" y2="132.7205" gradientTransform="matrix(-1 0 0 -1 297.84 210)">
					<stop  offset="0" style="stop-color:#262B2A"/>
					<stop  offset="0.55" style="stop-color:#292E2D"/>
					<stop  offset="0.95" style="stop-color:#313736"/>
					<stop  offset="1" style="stop-color:#323938"/>
				</linearGradient>
				<path id="Cylinder_body-3_1_" class="st14" d="M102.8,69.7c0.3,0.2,0.7,0.2,1,0c0.1,0,0.2-0.2,0.2-0.3v15.4
					c0,0.1-0.1,0.2-0.2,0.3c-0.3,0.2-0.7,0.2-1,0c-0.1-0.1-0.2-0.2-0.2-0.3V69.4C102.6,69.5,102.7,69.6,102.8,69.7z"/>
			</g>
			<g id="Axonometric_Cylinder-4_1_">
				<path id="Cylinder_face-4_1_" class="st11" d="M102.4,68.1c-0.1-0.2,0-0.4,0.2-0.5c0.4-0.2,0.9-0.2,1.3,0c0.1,0,0.2,0.1,0.2,0.2
					c0.1,0.2,0,0.4-0.2,0.5c-0.4,0.2-0.9,0.2-1.3,0C102.5,68.3,102.4,68.2,102.4,68.1z"/>
				
					<linearGradient id="Cylinder_body-4_2_" gradientUnits="userSpaceOnUse" x1="193.62" y1="140.7248" x2="195.51" y2="140.7248" gradientTransform="matrix(-1 0 0 -1 297.84 210)">
					<stop  offset="0" style="stop-color:#262B2A"/>
					<stop  offset="0.55" style="stop-color:#292E2D"/>
					<stop  offset="0.95" style="stop-color:#313736"/>
					<stop  offset="1" style="stop-color:#323938"/>
				</linearGradient>
				<path id="Cylinder_body-4_1_" class="st15" d="M102.6,68.4c0.4,0.2,0.9,0.2,1.3,0c0.2-0.1,0.3-0.2,0.3-0.4v2
					c0,0.2-0.1,0.3-0.3,0.4c-0.4,0.2-0.9,0.2-1.3,0c-0.2-0.1-0.3-0.2-0.3-0.4v-2C102.3,68.2,102.5,68.3,102.6,68.4z"/>
			</g>
			<g id="Axonometric_Cylinder-5_1_">
				<path id="Cylinder_face-5_1_" class="st7" d="M106.8,71.9c0-0.2,0.1-0.3,0.2-0.4c0.3-0.2,0.7-0.2,1,0c0.1,0,0.2,0.1,0.2,0.2
					c0,0.2-0.1,0.3-0.2,0.4c-0.3,0.2-0.7,0.2-1,0C106.9,72.1,106.8,72,106.8,71.9z"/>
				
					<linearGradient id="Cylinder_body-5_2_" gradientUnits="userSpaceOnUse" x1="189.63" y1="130.2805" x2="191.05" y2="130.2805" gradientTransform="matrix(-1 0 0 -1 297.84 210)">
					<stop  offset="0" style="stop-color:#262B2A"/>
					<stop  offset="0.55" style="stop-color:#292E2D"/>
					<stop  offset="0.95" style="stop-color:#313736"/>
					<stop  offset="1" style="stop-color:#323938"/>
				</linearGradient>
				<path id="Cylinder_body-5_1_" class="st16" d="M107,72.1c0.3,0.2,0.7,0.2,1,0c0.1,0,0.2-0.2,0.2-0.3v15.4c0,0.1-0.1,0.2-0.2,0.3
					c-0.3,0.2-0.7,0.2-1,0c-0.1-0.1-0.2-0.2-0.2-0.3V71.8C106.9,71.9,106.9,72,107,72.1z"/>
			</g>
			<g id="Axonometric_Cylinder-6_1_">
				<path id="Cylinder_face-6_1_" class="st11" d="M106.6,70.5c-0.1-0.2,0-0.4,0.3-0.5c0.4-0.2,0.9-0.2,1.3,0c0.1,0,0.2,0.1,0.2,0.2
					c0.1,0.2,0,0.4-0.2,0.5c-0.4,0.2-0.9,0.2-1.3,0C106.7,70.7,106.6,70.6,106.6,70.5z"/>
				
					<linearGradient id="Cylinder_body-6_2_" gradientUnits="userSpaceOnUse" x1="189.39" y1="138.3348" x2="191.28" y2="138.3348" gradientTransform="matrix(-1 0 0 -1 297.84 210)">
					<stop  offset="0" style="stop-color:#262B2A"/>
					<stop  offset="0.55" style="stop-color:#292E2D"/>
					<stop  offset="0.95" style="stop-color:#313736"/>
					<stop  offset="1" style="stop-color:#323938"/>
				</linearGradient>
				<path id="Cylinder_body-6_1_" class="st17" d="M106.8,70.8c0.4,0.2,0.9,0.2,1.3,0c0.2-0.1,0.3-0.2,0.3-0.4v2
					c0,0.2-0.1,0.3-0.3,0.4c-0.4,0.2-0.9,0.2-1.3,0c-0.2-0.1-0.3-0.2-0.3-0.4v-2C106.6,70.6,106.7,70.7,106.8,70.8z"/>
			</g>
			<g id="Axonometric_Cylinder-7_1_">
				<path id="Cylinder_face-7_1_" class="st11" d="M135.8,64.4c-0.1-0.4,0.1-0.7,0.4-0.8c0.7-0.4,1.5-0.4,2.2,0
					c0.2,0.1,0.4,0.2,0.4,0.4c0.1,0.4-0.1,0.7-0.4,0.8c-0.7,0.4-1.5,0.4-2.2,0C136.1,64.8,135.9,64.6,135.8,64.4z"/>
				
					<linearGradient id="Cylinder_body-7_2_" gradientUnits="userSpaceOnUse" x1="158.93" y1="143.6984" x2="162.05" y2="143.6984" gradientTransform="matrix(-1 0 0 -1 297.84 210)">
					<stop  offset="0" style="stop-color:#262B2A"/>
					<stop  offset="0.55" style="stop-color:#292E2D"/>
					<stop  offset="0.95" style="stop-color:#313736"/>
					<stop  offset="1" style="stop-color:#323938"/>
				</linearGradient>
				<path id="Cylinder_body-7_1_" class="st18" d="M136.3,64.8c0.7,0.4,1.5,0.4,2.2,0c0.3-0.1,0.4-0.4,0.5-0.6v3.3
					c0,0.3-0.2,0.5-0.5,0.6c-0.7,0.4-1.5,0.4-2.2,0c-0.3-0.1-0.4-0.4-0.5-0.6v-3.3C135.9,64.5,136,64.7,136.3,64.8z"/>
			</g>
			<g>
				
					<linearGradient id="SVGID_5_" gradientUnits="userSpaceOnUse" x1="165.57" y1="136.6616" x2="173.31" y2="136.6616" gradientTransform="matrix(-1 0 0 -1 297.84 210)">
					<stop  offset="0" style="stop-color:#262B2A"/>
					<stop  offset="0.55" style="stop-color:#292E2D"/>
					<stop  offset="0.95" style="stop-color:#313736"/>
					<stop  offset="1" style="stop-color:#323938"/>
				</linearGradient>
				<path class="st19" d="M124.5,71.9v0.7c0,0.2,0,0.4,0.1,0.6c0.6,1.2,2.7,1.9,4.7,1.6c0.6-0.1,1.2-0.3,1.7-0.6
					c0.6-0.3,1.1-0.9,1.1-1.6v-0.7c-0.1,0.7-0.5,1.3-1.1,1.6c-0.5,0.3-1.1,0.5-1.7,0.6c-2.1,0.3-4.2-0.4-4.7-1.6
					C124.6,72.3,124.5,72.1,124.5,71.9z"/>
				<path class="st11" d="M124.7,72.5c0.6,1.2,2.7,1.9,4.7,1.6c0.6-0.1,1.2-0.3,1.7-0.6c0.9-0.5,1.4-1.4,1-2.2
					c-0.5-1.2-2.7-1.9-4.7-1.6c-0.6,0.1-1.2,0.3-1.7,0.6C124.7,70.8,124.3,71.7,124.7,72.5z"/>
			</g>
			<g>
				<path class="st20" d="M130.8,70.8V71l0.6-0.3c0,0,0.1-0.1,0.1-0.1v-0.2c0,0,0,0.1-0.1,0.1L130.8,70.8z"/>
				<polygon class="st21" points="130.9,70.8 130.9,71 129.3,70.1 129.3,69.9 				"/>
				<path class="st11" d="M129.9,69.6c0.1-0.1,0.2-0.1,0.4,0l1.2,0.7c0,0,0,0,0.1,0.1c0,0.1,0,0.1-0.1,0.1l-0.6,0.3l-1.5-0.9
					L129.9,69.6z"/>
			</g>
			<g>
				
					<linearGradient id="SVGID_6_" gradientUnits="userSpaceOnUse" x1="177.16" y1="129.9716" x2="184.9" y2="129.9716" gradientTransform="matrix(-1 0 0 -1 297.84 210)">
					<stop  offset="0" style="stop-color:#262B2A"/>
					<stop  offset="0.55" style="stop-color:#292E2D"/>
					<stop  offset="0.95" style="stop-color:#313736"/>
					<stop  offset="1" style="stop-color:#323938"/>
				</linearGradient>
				<path class="st22" d="M112.9,78.6v0.7c0,0.2,0,0.4,0.1,0.6c0.6,1.2,2.7,1.9,4.7,1.6c0.6-0.1,1.2-0.3,1.7-0.6
					c0.6-0.3,1.1-0.9,1.1-1.6v-0.7c-0.1,0.7-0.5,1.3-1.1,1.6c-0.5,0.3-1.1,0.5-1.7,0.6c-2.1,0.3-4.2-0.4-4.7-1.6
					C113,79,112.9,78.8,112.9,78.6z"/>
				<path class="st11" d="M113.1,79.2c0.6,1.2,2.7,1.9,4.7,1.6c0.6-0.1,1.2-0.3,1.7-0.6c0.9-0.5,1.4-1.4,1-2.2
					c-0.5-1.2-2.7-1.9-4.7-1.6c-0.6,0.1-1.2,0.3-1.7,0.6C113.1,77.5,112.7,78.3,113.1,79.2z"/>
			</g>
			<g>
				<path class="st20" d="M119.3,77.5v0.2l0.6-0.3c0,0,0.1-0.1,0.1-0.1v-0.2c0,0,0,0.1-0.1,0.1L119.3,77.5z"/>
				<polygon class="st21" points="119.3,77.5 119.3,77.7 117.7,76.8 117.7,76.6 				"/>
				<path class="st11" d="M118.3,76.3c0.1-0.1,0.2-0.1,0.4,0l1.2,0.7c0,0,0,0,0.1,0.1c0,0.1,0,0.1-0.1,0.1l-0.6,0.3l-1.5-0.9
					L118.3,76.3z"/>
			</g>
			<g>
				
					<linearGradient id="SVGID_7_" gradientUnits="userSpaceOnUse" x1="185.7882" y1="127.6402" x2="187.5582" y2="127.6402" gradientTransform="matrix(-1 0 0 -1 297.84 210)">
					<stop  offset="0" style="stop-color:#262B2A"/>
					<stop  offset="0.55" style="stop-color:#292E2D"/>
					<stop  offset="0.95" style="stop-color:#313736"/>
					<stop  offset="1" style="stop-color:#323938"/>
				</linearGradient>
				<path class="st23" d="M110.3,82.6c-0.1,0.2,0,0.3,0.3,0.5c0.4,0.2,0.9,0.2,1.3,0c0.2-0.1,0.3-0.3,0.2-0.5l-0.4-1.2
					c0,0.1,0,0.2-0.1,0.2c-0.2,0.1-0.4,0.1-0.6,0c-0.1-0.1-0.1-0.2-0.1-0.2L110.3,82.6z"/>
				<path class="st11" d="M110.8,81.7c0.2,0.1,0.4,0.1,0.6,0c0.2-0.1,0.2-0.3,0-0.4c-0.2-0.1-0.4-0.1-0.6,0
					C110.6,81.4,110.7,81.6,110.8,81.7z"/>
			</g>
			<path class="st24" d="M111,81.4C111,81.5,111,81.5,111,81.4c0.1,0.1,0.3,0.1,0.3,0.1c0,0,0.1,0,0.1-0.1V54.4c0,0,0,0.1-0.1,0.1
				c0,0,0,0,0,0c0,0,0-0.1,0-0.1c-0.1,0-0.2,0-0.3,0c-0.1,0-0.1,0.2,0,0.2c0,0-0.1,0-0.1-0.1V81.4z"/>
			<g>
				
					<linearGradient id="SVGID_8_" gradientUnits="userSpaceOnUse" x1="153.52" y1="146.2852" x2="155.2899" y2="146.2852" gradientTransform="matrix(-1 0 0 -1 297.84 210)">
					<stop  offset="0" style="stop-color:#262B2A"/>
					<stop  offset="0.55" style="stop-color:#292E2D"/>
					<stop  offset="0.95" style="stop-color:#313736"/>
					<stop  offset="1" style="stop-color:#323938"/>
				</linearGradient>
				<path class="st25" d="M142.6,64c-0.1,0.2,0,0.3,0.3,0.5c0.4,0.2,0.9,0.2,1.3,0c0.2-0.1,0.3-0.3,0.2-0.5l-0.4-1.2
					c0,0.1,0,0.2-0.1,0.2c-0.2,0.1-0.4,0.1-0.6,0c-0.1-0.1-0.1-0.2-0.1-0.2L142.6,64z"/>
				<path class="st11" d="M143.1,63.1c0.2,0.1,0.4,0.1,0.6,0c0.2-0.1,0.2-0.3,0-0.4c-0.2-0.1-0.4-0.1-0.6,0
					C142.9,62.8,142.9,63,143.1,63.1z"/>
			</g>
			<path class="st24" d="M143.2,62.8C143.2,62.8,143.3,62.9,143.2,62.8c0.1,0.1,0.3,0.1,0.3,0.1c0,0,0.1,0,0.1-0.1V35.7
				c0,0,0,0.1-0.1,0.1c0,0,0,0,0,0c0,0,0-0.1,0-0.1c-0.1,0-0.2,0-0.3,0c-0.1,0-0.1,0.2,0,0.2c0,0-0.1,0-0.1-0.1V62.8z"/>
			<g id="Axonometric_Cylinder-8_1_">
				<path id="Cylinder_face-8_1_" class="st11" d="M53.3,136c1.7-0.8,3.6-0.8,5.3,0c1.5,0.8,1.5,2.2,0,3c-1.7,0.8-3.6,0.8-5.3,0
					C51.8,138.2,51.8,136.8,53.3,136z"/>
				
					<linearGradient id="Cylinder_body-8_2_" gradientUnits="userSpaceOnUse" x1="238.17" y1="70.664" x2="245.63" y2="70.664" gradientTransform="matrix(-1 0 0 -1 297.84 210)">
					<stop  offset="0" style="stop-color:#262B2A"/>
					<stop  offset="0.55" style="stop-color:#292E2D"/>
					<stop  offset="0.95" style="stop-color:#313736"/>
					<stop  offset="1" style="stop-color:#323938"/>
				</linearGradient>
				<path id="Cylinder_body-8_1_" class="st26" d="M53.3,139.1c1.7,0.8,3.6,0.8,5.3,0c0.6-0.3,1-0.8,1.1-1.5v1.5
					c-0.1,0.7-0.5,1.2-1.1,1.5c-1.7,0.8-3.6,0.8-5.3,0c-0.6-0.3-1-0.9-1.1-1.5v-1.5C52.3,138.2,52.7,138.8,53.3,139.1z"/>
			</g>
			<g id="Axonometric_Cylinder-9_1_">
				<path id="Cylinder_face-9_1_" class="st11" d="M200.5,51.1c1.7-0.8,3.6-0.8,5.3,0c1.5,0.8,1.5,2.2,0,3c-1.7,0.8-3.6,0.8-5.3,0
					C199,53.2,199,51.9,200.5,51.1z"/>
				
					<linearGradient id="Cylinder_body-9_2_" gradientUnits="userSpaceOnUse" x1="90.98" y1="155.654" x2="98.45" y2="155.654" gradientTransform="matrix(-1 0 0 -1 297.84 210)">
					<stop  offset="0" style="stop-color:#262B2A"/>
					<stop  offset="0.55" style="stop-color:#292E2D"/>
					<stop  offset="0.95" style="stop-color:#313736"/>
					<stop  offset="1" style="stop-color:#323938"/>
				</linearGradient>
				<path id="Cylinder_body-9_1_" class="st27" d="M200.5,54.1c1.7,0.8,3.6,0.8,5.3,0c0.6-0.3,1-0.8,1.1-1.5V54
					c-0.1,0.7-0.5,1.3-1.1,1.5c-1.7,0.8-3.6,0.8-5.3,0c-0.6-0.3-1-0.9-1.1-1.5v-1.5C199.4,53.2,199.9,53.8,200.5,54.1z"/>
			</g>
		</g>
		
			<linearGradient id="SVGID_9_" gradientUnits="userSpaceOnUse" x1="32.33" y1="96.2053" x2="265.51" y2="96.2053" gradientTransform="matrix(-1 0 0 -1 297.84 210)">
			<stop  offset="0" style="stop-color:#065778"/>
			<stop  offset="1" style="stop-color:#076489"/>
		</linearGradient>
		<path class="st28" d="M32.3,162.6c0,0.4,0,0.7,0.1,1.1v3.4c0.2,17.2,4.9,17.9,9.1,18.6c3.3,0.6,12.3-0.3,35.8-11.4
			c17.9-8.5,106.9-60.7,120-69c26.9-17.2,43.2-31.1,51.4-38.9l11,1.9l5.8-3.4v-0.9l-6.4-3.7l0,0c0,0,0-0.1,0-0.1
			c0.2,0.2,0.5,0.3,0.8,0.4c0.6,0.2,1-0.3,0.8-1c-0.2-0.7-0.7-1.3-1.4-1.6c-0.3-0.1-0.6-0.1-1,0c-0.2-0.3-0.5-0.7-0.8-1
			c0-0.4,0-0.8-0.1-1.1c-0.2-0.6-0.6-1.1-1.1-1.4V41.7c-1.4,1.5-3,2.8-4.6,4.1v1.3c-3.4,2.7-7.2,4.1-10.5,6.6
			c-11.4,8.6-51.8,37.4-63.3,44c-14.7,8.4-32.5,20.6-47.6,28.2c-12.5,6.2-27.2,11.9-39.1,19c-9.7,5.8-16.4,11.1-26.8,16.1
			c-21.1,10.1-31.4,0.4-31.9-3.4C32.4,159.3,32.4,160.9,32.3,162.6z"/>
	</g>
</g>
</svg>
